G04 #@! TF.GenerationSoftware,KiCad,Pcbnew,(5.1.4)-1*
G04 #@! TF.CreationDate,2020-08-15T11:53:10-07:00*
G04 #@! TF.ProjectId,B3PKey,4233504b-6579-42e6-9b69-6361645f7063,1*
G04 #@! TF.SameCoordinates,Original*
G04 #@! TF.FileFunction,Profile,NP*
%FSLAX46Y46*%
G04 Gerber Fmt 4.6, Leading zero omitted, Abs format (unit mm)*
G04 Created by KiCad (PCBNEW (5.1.4)-1) date 2020-08-15 11:53:10*
%MOMM*%
%LPD*%
G04 APERTURE LIST*
%ADD10C,0.200000*%
G04 APERTURE END LIST*
D10*
X90899649Y-184150160D02*
G75*
G03X90899649Y-184150160I-2000000J0D01*
G01*
X148049699Y-165100200D02*
G75*
G03X148049699Y-165100200I-2000000J0D01*
G01*
X128999699Y-146050000D02*
G75*
G03X128999699Y-146050000I-2000000J0D01*
G01*
X81899649Y-193150160D02*
X343550000Y-193150160D01*
X214725000Y-184150160D02*
G75*
G03X214725000Y-184150160I-2000000J0D01*
G01*
X109949699Y-184150160D02*
G75*
G03X109949699Y-184150160I-2000000J0D01*
G01*
X167099699Y-165100200D02*
G75*
G03X167099699Y-165100200I-2000000J0D01*
G01*
X205198000Y-146050000D02*
G75*
G03X205198000Y-146050000I-2000000J0D01*
G01*
X329024999Y-146050000D02*
G75*
G03X329024999Y-146050000I-2000000J0D01*
G01*
X345550000Y-191150160D02*
X345550000Y-64720159D01*
X103424674Y-60720159D02*
X93424674Y-60720159D01*
X281400000Y-146050000D02*
G75*
G03X281400000Y-146050000I-2000000J0D01*
G01*
X319500000Y-165100200D02*
G75*
G03X319500000Y-165100200I-2000000J0D01*
G01*
X148049699Y-184150160D02*
G75*
G03X148049699Y-184150160I-2000000J0D01*
G01*
X81899649Y-62720159D02*
X93424674Y-62720159D01*
X128999699Y-165100200D02*
G75*
G03X128999699Y-165100200I-2000000J0D01*
G01*
X81899649Y-193150160D02*
G75*
G02X79899649Y-191150160I0J2000000D01*
G01*
X79899649Y-64720159D02*
G75*
G02X81899649Y-62720159I2000000J0D01*
G01*
X205198000Y-165100200D02*
G75*
G03X205198000Y-165100200I-2000000J0D01*
G01*
X338550000Y-165100200D02*
G75*
G03X338550000Y-165100200I-2000000J0D01*
G01*
X338550000Y-184150160D02*
G75*
G03X338550000Y-184150160I-2000000J0D01*
G01*
X262350000Y-146050000D02*
G75*
G03X262350000Y-146050000I-2000000J0D01*
G01*
X243300000Y-146050000D02*
G75*
G03X243300000Y-146050000I-2000000J0D01*
G01*
X224250000Y-146050000D02*
G75*
G03X224250000Y-146050000I-2000000J0D01*
G01*
X90899649Y-165100200D02*
G75*
G03X90899649Y-165100200I-2000000J0D01*
G01*
X109949699Y-146050000D02*
G75*
G03X109949699Y-146050000I-2000000J0D01*
G01*
X319500000Y-127000000D02*
G75*
G03X319500000Y-127000000I-2000000J0D01*
G01*
X186148300Y-146050000D02*
G75*
G03X186148300Y-146050000I-2000000J0D01*
G01*
X243300000Y-165100200D02*
G75*
G03X243300000Y-165100200I-2000000J0D01*
G01*
X300449999Y-165100200D02*
G75*
G03X300449999Y-165100200I-2000000J0D01*
G01*
X281400000Y-184150160D02*
G75*
G03X281400000Y-184150160I-2000000J0D01*
G01*
X338550000Y-127000000D02*
G75*
G03X338550000Y-127000000I-2000000J0D01*
G01*
X345550000Y-191150160D02*
G75*
G02X343550000Y-193150160I-2000000J0D01*
G01*
X319500000Y-184150160D02*
G75*
G03X319500000Y-184150160I-2000000J0D01*
G01*
X262350000Y-184150160D02*
G75*
G03X262350000Y-184150160I-2000000J0D01*
G01*
X128999699Y-184150160D02*
G75*
G03X128999699Y-184150160I-2000000J0D01*
G01*
X243300000Y-184150160D02*
G75*
G03X243300000Y-184150160I-2000000J0D01*
G01*
X224250000Y-165100200D02*
G75*
G03X224250000Y-165100200I-2000000J0D01*
G01*
X109949699Y-165100200D02*
G75*
G03X109949699Y-165100200I-2000000J0D01*
G01*
X103424674Y-60720159D02*
X103424674Y-62720159D01*
X300450000Y-184150160D02*
G75*
G03X300450000Y-184150160I-2000000J0D01*
G01*
X79899649Y-191150160D02*
X79899649Y-64720159D01*
X103424674Y-62720159D02*
X343550000Y-62720159D01*
X93424674Y-60720159D02*
X93424674Y-62720159D01*
X262350000Y-165100200D02*
G75*
G03X262350000Y-165100200I-2000000J0D01*
G01*
X186148300Y-165100200D02*
G75*
G03X186148300Y-165100200I-2000000J0D01*
G01*
X281400000Y-165100200D02*
G75*
G03X281400000Y-165100200I-2000000J0D01*
G01*
X148049699Y-146050000D02*
G75*
G03X148049699Y-146050000I-2000000J0D01*
G01*
X90899649Y-146050000D02*
G75*
G03X90899649Y-146050000I-2000000J0D01*
G01*
X300450000Y-146050000D02*
G75*
G03X300450000Y-146050000I-2000000J0D01*
G01*
X343550000Y-62720159D02*
G75*
G02X345550000Y-64720159I0J-2000000D01*
G01*
X167099699Y-146050000D02*
G75*
G03X167099699Y-146050000I-2000000J0D01*
G01*
X176624700Y-184150160D02*
G75*
G03X176624700Y-184150160I-2000000J0D01*
G01*
X338550000Y-107950000D02*
G75*
G03X338550000Y-107950000I-2000000J0D01*
G01*
X338550000Y-88899999D02*
G75*
G03X338550000Y-88899999I-2000000J0D01*
G01*
X300450000Y-107950000D02*
G75*
G03X300450000Y-107950000I-2000000J0D01*
G01*
X186148300Y-107950000D02*
G75*
G03X186148300Y-107950000I-2000000J0D01*
G01*
X167099699Y-107950000D02*
G75*
G03X167099699Y-107950000I-2000000J0D01*
G01*
X300450000Y-88899999D02*
G75*
G03X300450000Y-88899999I-2000000J0D01*
G01*
X109949699Y-107950000D02*
G75*
G03X109949699Y-107950000I-2000000J0D01*
G01*
X90899649Y-107950000D02*
G75*
G03X90899649Y-107950000I-2000000J0D01*
G01*
X281400000Y-127000000D02*
G75*
G03X281400000Y-127000000I-2000000J0D01*
G01*
X243300000Y-127000000D02*
G75*
G03X243300000Y-127000000I-2000000J0D01*
G01*
X205198000Y-127000000D02*
G75*
G03X205198000Y-127000000I-2000000J0D01*
G01*
X281400000Y-107950000D02*
G75*
G03X281400000Y-107950000I-2000000J0D01*
G01*
X148049699Y-107950000D02*
G75*
G03X148049699Y-107950000I-2000000J0D01*
G01*
X243300000Y-107950000D02*
G75*
G03X243300000Y-107950000I-2000000J0D01*
G01*
X128999699Y-127000000D02*
G75*
G03X128999699Y-127000000I-2000000J0D01*
G01*
X262350000Y-127000000D02*
G75*
G03X262350000Y-127000000I-2000000J0D01*
G01*
X224250000Y-127000000D02*
G75*
G03X224250000Y-127000000I-2000000J0D01*
G01*
X224250000Y-107950000D02*
G75*
G03X224250000Y-107950000I-2000000J0D01*
G01*
X262350000Y-107950000D02*
G75*
G03X262350000Y-107950000I-2000000J0D01*
G01*
X205198000Y-107950000D02*
G75*
G03X205198000Y-107950000I-2000000J0D01*
G01*
X186148300Y-127000000D02*
G75*
G03X186148300Y-127000000I-2000000J0D01*
G01*
X167099699Y-127000000D02*
G75*
G03X167099699Y-127000000I-2000000J0D01*
G01*
X319500000Y-107950000D02*
G75*
G03X319500000Y-107950000I-2000000J0D01*
G01*
X148049699Y-127000000D02*
G75*
G03X148049699Y-127000000I-2000000J0D01*
G01*
X319500000Y-88899999D02*
G75*
G03X319500000Y-88899999I-2000000J0D01*
G01*
X109949699Y-127000000D02*
G75*
G03X109949699Y-127000000I-2000000J0D01*
G01*
X128999699Y-107950000D02*
G75*
G03X128999699Y-107950000I-2000000J0D01*
G01*
X90899649Y-127000000D02*
G75*
G03X90899649Y-127000000I-2000000J0D01*
G01*
X281400000Y-88899999D02*
G75*
G03X281400000Y-88899999I-2000000J0D01*
G01*
X262350000Y-88899999D02*
G75*
G03X262350000Y-88899999I-2000000J0D01*
G01*
X243300000Y-88899999D02*
G75*
G03X243300000Y-88899999I-2000000J0D01*
G01*
X224250000Y-88899999D02*
G75*
G03X224250000Y-88899999I-2000000J0D01*
G01*
X205198000Y-88899999D02*
G75*
G03X205198000Y-88899999I-2000000J0D01*
G01*
X186148300Y-88899999D02*
G75*
G03X186148300Y-88899999I-2000000J0D01*
G01*
X167099699Y-88899999D02*
G75*
G03X167099699Y-88899999I-2000000J0D01*
G01*
X148049699Y-88899999D02*
G75*
G03X148049699Y-88899999I-2000000J0D01*
G01*
X128999699Y-88899999D02*
G75*
G03X128999699Y-88899999I-2000000J0D01*
G01*
X109949699Y-88899999D02*
G75*
G03X109949699Y-88899999I-2000000J0D01*
G01*
X90899649Y-88899999D02*
G75*
G03X90899649Y-88899999I-2000000J0D01*
G01*
X300450000Y-127000000D02*
G75*
G03X300450000Y-127000000I-2000000J0D01*
G01*
M02*
