  0
SECTION
  2
HEADER
  9
$ANGBASE
  50
0.0
  9
$ANGDIR
  70
1
  9
$MEASUREMENT
  70
1
  0
ENDSEC
  0
SECTION
  2
TABLES
  0
TABLE
  2
LTYPE
  70
4
  0
LTYPE
  5
40F
  2
CONTINUOUS
  70
0
  3
Solid line
  72
65
  73
0
  40
0.0
  0
LTYPE
  5
410
  2
DASHDOT
 70
0
  3
Dash Dot ____ _ ____ _
 72
65
 73
4
 40
2.0
 49
1.25
 49
-0.25
 49
0.25
 49
-0.25
  0
LTYPE
  5
411
  2
DASHED
 70
0
  3
Dashed __ __ __ __ __
 72
65
 73
2
 40
0.75
 49
0.5
 49
-0.25
  0
LTYPE
  5
43B
  2
DOTTED
 70
0
  3
Dotted .  .  .  .
 72
65
 73
2
 40
0.2
 49
0.0
 49
-0.2
  0
ENDTAB
  0
TABLE
  2
STYLE
  70
4
  0
STYLE
  2
KICAD
  70
0
  40
0
  41
1
  42
1
  50
0
  71
0
  3
isocp.shx
  0
STYLE
  2
KICADB
  70
0
  40
0
  41
1
  42
1
  50
0
  71
0
  3
isocp.shx
  0
STYLE
  2
KICADI
  70
0
  40
0
  41
1
  42
1
  50
15
  71
0
  3
isocp.shx
  0
STYLE
  2
KICADBI
  70
0
  40
0
  41
1
  42
1
  50
15
  71
0
  3
isocp.shx
  0
ENDTAB
  0
TABLE
  2
LAYER
  70
1
  0
LAYER
  2
BLACK
  70
0
  62
7
  6
CONTINUOUS
  0
ENDTAB
  0
ENDSEC
  0
SECTION
  2
ENTITIES
0
LINE
8
BLACK
6
CONTINUOUS
10
74.8625
20
-199.665
11
75.3269
21
-199.592
0
LINE
8
BLACK
6
CONTINUOUS
10
76.3632
20
-198.166
11
76.2902
21
-197.702
0
LINE
8
BLACK
6
CONTINUOUS
10
73.982
20
-196.951
11
73.6499
21
-197.284
0
LINE
8
BLACK
6
CONTINUOUS
10
75.3269
20
-199.592
11
75.7445
21
-199.379
0
LINE
8
BLACK
6
CONTINUOUS
10
74.3995
20
-196.738
11
73.982
21
-196.951
0
LINE
8
BLACK
6
CONTINUOUS
10
165.882
20
-196.951
11
165.55
21
-197.284
0
LINE
8
BLACK
6
CONTINUOUS
10
166.3
20
-196.738
11
165.882
21
-196.951
0
LINE
8
BLACK
6
CONTINUOUS
10
73.982
20
-199.379
11
74.3995
21
-199.592
0
LINE
8
BLACK
6
CONTINUOUS
10
76.2902
20
-198.629
11
76.3632
21
-198.166
0
LINE
8
BLACK
6
CONTINUOUS
10
74.8625
20
-196.665
11
74.3995
21
-196.738
0
LINE
8
BLACK
6
CONTINUOUS
10
75.3269
20
-196.738
11
74.8625
21
-196.665
0
LINE
8
BLACK
6
CONTINUOUS
10
75.7445
20
-196.951
11
75.3269
21
-196.738
0
LINE
8
BLACK
6
CONTINUOUS
10
73.4376
20
-197.702
11
73.3632
21
-198.166
0
LINE
8
BLACK
6
CONTINUOUS
10
76.0766
20
-199.047
11
76.2902
21
-198.629
0
LINE
8
BLACK
6
CONTINUOUS
10
75.7445
20
-199.379
11
76.0766
21
-199.047
0
LINE
8
BLACK
6
CONTINUOUS
10
73.6499
20
-199.047
11
73.982
21
-199.379
0
LINE
8
BLACK
6
CONTINUOUS
10
73.3632
20
-198.166
11
73.4376
21
-198.629
0
LINE
8
BLACK
6
CONTINUOUS
10
73.6499
20
-197.284
11
73.4376
21
-197.702
0
LINE
8
BLACK
6
CONTINUOUS
10
73.4376
20
-198.629
11
73.6499
21
-199.047
0
LINE
8
BLACK
6
CONTINUOUS
10
76.0766
20
-197.284
11
75.7445
21
-196.951
0
LINE
8
BLACK
6
CONTINUOUS
10
76.2902
20
-197.702
11
76.0766
21
-197.284
0
LINE
8
BLACK
6
CONTINUOUS
10
74.3995
20
-199.592
11
74.8625
21
-199.665
0
LINE
8
BLACK
6
CONTINUOUS
10
73.6499
20
-73.9822
11
73.4376
21
-74.4002
0
LINE
8
BLACK
6
CONTINUOUS
10
73.982
20
-73.6502
11
73.6499
21
-73.9822
0
LINE
8
BLACK
6
CONTINUOUS
10
74.3995
20
-73.4382
11
73.982
21
-73.6502
0
LINE
8
BLACK
6
CONTINUOUS
10
168.265
20
-74.8642
11
168.19
21
-74.4002
0
LINE
8
BLACK
6
CONTINUOUS
10
166.764
20
-76.3652
11
167.227
21
-76.2912
0
LINE
8
BLACK
6
CONTINUOUS
10
166.3
20
-76.2912
11
166.764
21
-76.3652
0
LINE
8
BLACK
6
CONTINUOUS
10
347.065
20
-194.664
11
347.065
21
-78.3652
0
LINE
8
BLACK
6
CONTINUOUS
10
352.214
20
-71.5932
11
352.426
21
-71.6912
0
LINE
8
BLACK
6
CONTINUOUS
10
354.029
20
-73.8942
11
354.055
21
-74.1282
0
LINE
8
BLACK
6
CONTINUOUS
10
104.429
20
-78.3652
11
104.429
21
-71.3642
0
LINE
8
BLACK
6
CONTINUOUS
10
167.646
20
-73.6502
11
167.227
21
-73.4382
0
LINE
8
BLACK
6
CONTINUOUS
10
167.227
20
-76.2912
11
167.646
21
-76.0772
0
LINE
8
BLACK
6
CONTINUOUS
10
92.4294
20
-78.3652
11
78.3641
21
-78.3652
0
LINE
8
BLACK
6
CONTINUOUS
10
351.992
20
-71.5112
11
352.214
21
-71.5932
0
LINE
8
BLACK
6
CONTINUOUS
10
78.3641
20
-194.664
11
347.065
21
-194.664
0
LINE
8
BLACK
6
CONTINUOUS
10
353.982
20
-73.6642
11
354.029
21
-73.8942
0
LINE
8
BLACK
6
CONTINUOUS
10
353.918
20
-73.4372
11
353.982
21
-73.6642
0
LINE
8
BLACK
6
CONTINUOUS
10
353.837
20
-73.2172
11
353.918
21
-73.4372
0
LINE
8
BLACK
6
CONTINUOUS
10
165.882
20
-76.0772
11
166.3
21
-76.2912
0
LINE
8
BLACK
6
CONTINUOUS
10
351.766
20
-71.4472
11
351.992
21
-71.5112
0
LINE
8
BLACK
6
CONTINUOUS
10
351.3
20
-71.3742
11
351.534
21
-71.4002
0
LINE
8
BLACK
6
CONTINUOUS
10
351.534
20
-71.4002
11
351.766
21
-71.4472
0
LINE
8
BLACK
6
CONTINUOUS
10
167.227
20
-73.4382
11
166.764
21
-73.3652
0
LINE
8
BLACK
6
CONTINUOUS
10
168.19
20
-74.4002
11
167.977
21
-73.9822
0
LINE
8
BLACK
6
CONTINUOUS
10
353.738
20
-73.0032
11
353.837
21
-73.2172
0
LINE
8
BLACK
6
CONTINUOUS
10
353.622
20
-72.7962
11
353.738
21
-73.0032
0
LINE
8
BLACK
6
CONTINUOUS
10
353.493
20
-72.6002
11
353.622
21
-72.7962
0
LINE
8
BLACK
6
CONTINUOUS
10
168.19
20
-75.3282
11
168.265
21
-74.8642
0
LINE
8
BLACK
6
CONTINUOUS
10
353.347
20
-72.4162
11
353.493
21
-72.6002
0
LINE
8
BLACK
6
CONTINUOUS
10
353.187
20
-72.2422
11
353.347
21
-72.4162
0
LINE
8
BLACK
6
CONTINUOUS
10
352.828
20
-71.9362
11
353.013
21
-72.0822
0
LINE
8
BLACK
6
CONTINUOUS
10
353.013
20
-72.0822
11
353.187
21
-72.2422
0
LINE
8
BLACK
6
CONTINUOUS
10
167.646
20
-76.0772
11
167.977
21
-75.7452
0
LINE
8
BLACK
6
CONTINUOUS
10
351.066
20
-71.3642
11
351.3
21
-71.3742
0
LINE
8
BLACK
6
CONTINUOUS
10
166.764
20
-73.3652
11
166.3
21
-73.4382
0
LINE
8
BLACK
6
CONTINUOUS
10
347.065
20
-78.3652
11
104.429
21
-78.3652
0
LINE
8
BLACK
6
CONTINUOUS
10
78.3641
20
-78.3652
11
78.3641
21
-194.664
0
LINE
8
BLACK
6
CONTINUOUS
10
104.429
20
-71.3642
11
351.066
21
-71.3642
0
LINE
8
BLACK
6
CONTINUOUS
10
167.977
20
-73.9822
11
167.646
21
-73.6502
0
LINE
8
BLACK
6
CONTINUOUS
10
167.977
20
-75.7452
11
168.19
21
-75.3282
0
LINE
8
BLACK
6
CONTINUOUS
10
352.633
20
-71.8072
11
352.828
21
-71.9362
0
LINE
8
BLACK
6
CONTINUOUS
10
352.426
20
-71.6912
11
352.633
21
-71.8072
0
LINE
8
BLACK
6
CONTINUOUS
10
351.992
20
-75.3282
11
352.065
21
-74.8642
0
LINE
8
BLACK
6
CONTINUOUS
10
75.3269
20
-76.2912
11
75.7445
21
-76.0772
0
LINE
8
BLACK
6
CONTINUOUS
10
257.782
20
-73.6502
11
257.452
21
-73.9822
0
LINE
8
BLACK
6
CONTINUOUS
10
351.446
20
-73.6502
11
351.029
21
-73.4382
0
LINE
8
BLACK
6
CONTINUOUS
10
258.201
20
-73.4382
11
257.782
21
-73.6502
0
LINE
8
BLACK
6
CONTINUOUS
10
351.778
20
-75.7452
11
351.992
21
-75.3282
0
LINE
8
BLACK
6
CONTINUOUS
10
349.138
20
-75.3282
11
349.352
21
-75.7452
0
LINE
8
BLACK
6
CONTINUOUS
10
350.101
20
-76.2912
11
350.566
21
-76.3652
0
LINE
8
BLACK
6
CONTINUOUS
10
76.2902
20
-75.3282
11
76.3632
21
-74.8642
0
LINE
8
BLACK
6
CONTINUOUS
10
74.3995
20
-76.2912
11
74.8625
21
-76.3652
0
LINE
8
BLACK
6
CONTINUOUS
10
349.352
20
-75.7452
11
349.684
21
-76.0772
0
LINE
8
BLACK
6
CONTINUOUS
10
260.092
20
-75.3282
11
260.165
21
-74.8642
0
LINE
8
BLACK
6
CONTINUOUS
10
76.3632
20
-74.8642
11
76.2902
21
-74.4002
0
LINE
8
BLACK
6
CONTINUOUS
10
257.238
20
-75.3282
11
257.452
21
-75.7452
0
LINE
8
BLACK
6
CONTINUOUS
10
76.0766
20
-73.9822
11
75.7445
21
-73.6502
0
LINE
8
BLACK
6
CONTINUOUS
10
351.029
20
-76.2912
11
351.446
21
-76.0772
0
LINE
8
BLACK
6
CONTINUOUS
10
165.55
20
-75.7452
11
165.882
21
-76.0772
0
LINE
8
BLACK
6
CONTINUOUS
10
257.782
20
-76.0772
11
258.201
21
-76.2912
0
LINE
8
BLACK
6
CONTINUOUS
10
75.7445
20
-73.6502
11
75.3269
21
-73.4382
0
LINE
8
BLACK
6
CONTINUOUS
10
259.878
20
-75.7452
11
260.092
21
-75.3282
0
LINE
8
BLACK
6
CONTINUOUS
10
350.566
20
-73.3652
11
350.101
21
-73.4382
0
LINE
8
BLACK
6
CONTINUOUS
10
165.265
20
-74.8642
11
165.338
21
-75.3282
0
LINE
8
BLACK
6
CONTINUOUS
10
76.2902
20
-74.4002
11
76.0766
21
-73.9822
0
LINE
8
BLACK
6
CONTINUOUS
10
73.982
20
-76.0772
11
74.3995
21
-76.2912
0
LINE
8
BLACK
6
CONTINUOUS
10
73.6499
20
-75.7452
11
73.982
21
-76.0772
0
LINE
8
BLACK
6
CONTINUOUS
10
73.3632
20
-74.8642
11
73.4376
21
-75.3282
0
LINE
8
BLACK
6
CONTINUOUS
10
349.684
20
-76.0772
11
350.101
21
-76.2912
0
LINE
8
BLACK
6
CONTINUOUS
10
165.338
20
-75.3282
11
165.55
21
-75.7452
0
LINE
8
BLACK
6
CONTINUOUS
10
165.55
20
-73.9822
11
165.338
21
-74.4002
0
LINE
8
BLACK
6
CONTINUOUS
10
351.992
20
-74.4002
11
351.778
21
-73.9822
0
LINE
8
BLACK
6
CONTINUOUS
10
74.8625
20
-76.3652
11
75.3269
21
-76.2912
0
LINE
8
BLACK
6
CONTINUOUS
10
165.338
20
-74.4002
11
165.265
21
-74.8642
0
LINE
8
BLACK
6
CONTINUOUS
10
74.8625
20
-73.3652
11
74.3995
21
-73.4382
0
LINE
8
BLACK
6
CONTINUOUS
10
165.882
20
-73.6502
11
165.55
21
-73.9822
0
LINE
8
BLACK
6
CONTINUOUS
10
166.3
20
-73.4382
11
165.882
21
-73.6502
0
LINE
8
BLACK
6
CONTINUOUS
10
349.352
20
-73.9822
11
349.138
21
-74.4002
0
LINE
8
BLACK
6
CONTINUOUS
10
259.546
20
-73.6502
11
259.129
21
-73.4382
0
LINE
8
BLACK
6
CONTINUOUS
10
258.664
20
-73.3652
11
258.201
21
-73.4382
0
LINE
8
BLACK
6
CONTINUOUS
10
259.129
20
-73.4382
11
258.664
21
-73.3652
0
LINE
8
BLACK
6
CONTINUOUS
10
259.878
20
-73.9822
11
259.546
21
-73.6502
0
LINE
8
BLACK
6
CONTINUOUS
10
260.092
20
-74.4002
11
259.878
21
-73.9822
0
LINE
8
BLACK
6
CONTINUOUS
10
350.101
20
-73.4382
11
349.684
21
-73.6502
0
LINE
8
BLACK
6
CONTINUOUS
10
260.165
20
-74.8642
11
260.092
21
-74.4002
0
LINE
8
BLACK
6
CONTINUOUS
10
257.452
20
-75.7452
11
257.782
21
-76.0772
0
LINE
8
BLACK
6
CONTINUOUS
10
257.238
20
-74.4002
11
257.165
21
-74.8642
0
LINE
8
BLACK
6
CONTINUOUS
10
349.684
20
-73.6502
11
349.352
21
-73.9822
0
LINE
8
BLACK
6
CONTINUOUS
10
75.7445
20
-76.0772
11
76.0766
21
-75.7452
0
LINE
8
BLACK
6
CONTINUOUS
10
73.4376
20
-74.4002
11
73.3632
21
-74.8642
0
LINE
8
BLACK
6
CONTINUOUS
10
349.138
20
-74.4002
11
349.065
21
-74.8642
0
LINE
8
BLACK
6
CONTINUOUS
10
350.566
20
-76.3652
11
351.029
21
-76.2912
0
LINE
8
BLACK
6
CONTINUOUS
10
259.546
20
-76.0772
11
259.878
21
-75.7452
0
LINE
8
BLACK
6
CONTINUOUS
10
75.3269
20
-73.4382
11
74.8625
21
-73.3652
0
LINE
8
BLACK
6
CONTINUOUS
10
351.778
20
-73.9822
11
351.446
21
-73.6502
0
LINE
8
BLACK
6
CONTINUOUS
10
352.065
20
-74.8642
11
351.992
21
-74.4002
0
LINE
8
BLACK
6
CONTINUOUS
10
349.065
20
-74.8642
11
349.138
21
-75.3282
0
LINE
8
BLACK
6
CONTINUOUS
10
73.4376
20
-75.3282
11
73.6499
21
-75.7452
0
LINE
8
BLACK
6
CONTINUOUS
10
257.165
20
-74.8642
11
257.238
21
-75.3282
0
LINE
8
BLACK
6
CONTINUOUS
10
351.446
20
-76.0772
11
351.778
21
-75.7452
0
LINE
8
BLACK
6
CONTINUOUS
10
76.0766
20
-75.7452
11
76.2902
21
-75.3282
0
LINE
8
BLACK
6
CONTINUOUS
10
259.129
20
-76.2912
11
259.546
21
-76.0772
0
LINE
8
BLACK
6
CONTINUOUS
10
258.201
20
-76.2912
11
258.664
21
-76.3652
0
LINE
8
BLACK
6
CONTINUOUS
10
258.664
20
-76.3652
11
259.129
21
-76.2912
0
LINE
8
BLACK
6
CONTINUOUS
10
351.029
20
-73.4382
11
350.566
21
-73.3652
0
LINE
8
BLACK
6
CONTINUOUS
10
257.452
20
-73.9822
11
257.238
21
-74.4002
0
LINE
8
BLACK
6
CONTINUOUS
10
166.764
20
-199.665
11
167.227
21
-199.592
0
LINE
8
BLACK
6
CONTINUOUS
10
168.265
20
-198.166
11
168.19
21
-197.702
0
LINE
8
BLACK
6
CONTINUOUS
10
257.165
20
-198.166
11
257.238
21
-198.629
0
LINE
8
BLACK
6
CONTINUOUS
10
167.227
20
-199.592
11
167.646
21
-199.379
0
LINE
8
BLACK
6
CONTINUOUS
10
167.977
20
-199.047
11
168.19
21
-198.629
0
LINE
8
BLACK
6
CONTINUOUS
10
166.3
20
-199.592
11
166.764
21
-199.665
0
LINE
8
BLACK
6
CONTINUOUS
10
165.55
20
-199.047
11
165.882
21
-199.379
0
LINE
8
BLACK
6
CONTINUOUS
10
165.882
20
-199.379
11
166.3
21
-199.592
0
LINE
8
BLACK
6
CONTINUOUS
10
167.646
20
-196.951
11
167.227
21
-196.738
0
LINE
8
BLACK
6
CONTINUOUS
10
257.238
20
-197.702
11
257.165
21
-198.166
0
LINE
8
BLACK
6
CONTINUOUS
10
257.452
20
-197.284
11
257.238
21
-197.702
0
LINE
8
BLACK
6
CONTINUOUS
10
257.782
20
-196.951
11
257.452
21
-197.284
0
LINE
8
BLACK
6
CONTINUOUS
10
165.265
20
-198.166
11
165.338
21
-198.629
0
LINE
8
BLACK
6
CONTINUOUS
10
167.227
20
-196.738
11
166.764
21
-196.665
0
LINE
8
BLACK
6
CONTINUOUS
10
167.646
20
-199.379
11
167.977
21
-199.047
0
LINE
8
BLACK
6
CONTINUOUS
10
165.55
20
-197.284
11
165.338
21
-197.702
0
LINE
8
BLACK
6
CONTINUOUS
10
165.338
20
-197.702
11
165.265
21
-198.166
0
LINE
8
BLACK
6
CONTINUOUS
10
165.338
20
-198.629
11
165.55
21
-199.047
0
LINE
8
BLACK
6
CONTINUOUS
10
167.977
20
-197.284
11
167.646
21
-196.951
0
LINE
8
BLACK
6
CONTINUOUS
10
258.201
20
-196.738
11
257.782
21
-196.951
0
LINE
8
BLACK
6
CONTINUOUS
10
166.764
20
-196.665
11
166.3
21
-196.738
0
LINE
8
BLACK
6
CONTINUOUS
10
168.19
20
-198.629
11
168.265
21
-198.166
0
LINE
8
BLACK
6
CONTINUOUS
10
168.19
20
-197.702
11
167.977
21
-197.284
0
LINE
8
BLACK
6
CONTINUOUS
10
350.101
20
-196.738
11
349.684
21
-196.951
0
LINE
8
BLACK
6
CONTINUOUS
10
260.092
20
-197.702
11
259.878
21
-197.284
0
LINE
8
BLACK
6
CONTINUOUS
10
260.165
20
-198.166
11
260.092
21
-197.702
0
LINE
8
BLACK
6
CONTINUOUS
10
259.878
20
-197.284
11
259.546
21
-196.951
0
LINE
8
BLACK
6
CONTINUOUS
10
260.092
20
-198.629
11
260.165
21
-198.166
0
LINE
8
BLACK
6
CONTINUOUS
10
259.546
20
-199.379
11
259.878
21
-199.047
0
LINE
8
BLACK
6
CONTINUOUS
10
257.452
20
-199.047
11
257.782
21
-199.379
0
LINE
8
BLACK
6
CONTINUOUS
10
257.782
20
-199.379
11
258.201
21
-199.592
0
LINE
8
BLACK
6
CONTINUOUS
10
259.878
20
-199.047
11
260.092
21
-198.629
0
LINE
8
BLACK
6
CONTINUOUS
10
258.201
20
-199.592
11
258.664
21
-199.665
0
LINE
8
BLACK
6
CONTINUOUS
10
257.238
20
-198.629
11
257.452
21
-199.047
0
LINE
8
BLACK
6
CONTINUOUS
10
349.138
20
-198.629
11
349.352
21
-199.047
0
LINE
8
BLACK
6
CONTINUOUS
10
349.065
20
-198.166
11
349.138
21
-198.629
0
LINE
8
BLACK
6
CONTINUOUS
10
259.129
20
-199.592
11
259.546
21
-199.379
0
LINE
8
BLACK
6
CONTINUOUS
10
349.684
20
-199.379
11
350.101
21
-199.592
0
LINE
8
BLACK
6
CONTINUOUS
10
258.664
20
-196.665
11
258.201
21
-196.738
0
LINE
8
BLACK
6
CONTINUOUS
10
349.352
20
-199.047
11
349.684
21
-199.379
0
LINE
8
BLACK
6
CONTINUOUS
10
259.546
20
-196.951
11
259.129
21
-196.738
0
LINE
8
BLACK
6
CONTINUOUS
10
259.129
20
-196.738
11
258.664
21
-196.665
0
LINE
8
BLACK
6
CONTINUOUS
10
349.138
20
-197.702
11
349.065
21
-198.166
0
LINE
8
BLACK
6
CONTINUOUS
10
258.664
20
-199.665
11
259.129
21
-199.592
0
LINE
8
BLACK
6
CONTINUOUS
10
349.352
20
-197.284
11
349.138
21
-197.702
0
LINE
8
BLACK
6
CONTINUOUS
10
349.684
20
-196.951
11
349.352
21
-197.284
0
LINE
8
BLACK
6
CONTINUOUS
10
351.766
20
-71.4472
11
351.992
21
-71.5112
0
LINE
8
BLACK
6
CONTINUOUS
10
351.066
20
-71.3642
11
351.3
21
-71.3742
0
LINE
8
BLACK
6
CONTINUOUS
10
351.3
20
-71.3742
11
351.534
21
-71.4002
0
LINE
8
BLACK
6
CONTINUOUS
10
351.992
20
-71.5112
11
352.214
21
-71.5932
0
LINE
8
BLACK
6
CONTINUOUS
10
351.534
20
-71.4002
11
351.766
21
-71.4472
0
LINE
8
BLACK
6
CONTINUOUS
10
75.7445
20
-199.379
11
76.0766
21
-199.047
0
LINE
8
BLACK
6
CONTINUOUS
10
75.3269
20
-199.592
11
75.7445
21
-199.379
0
LINE
8
BLACK
6
CONTINUOUS
10
165.338
20
-198.629
11
165.55
21
-199.047
0
LINE
8
BLACK
6
CONTINUOUS
10
73.6499
20
-197.284
11
73.4376
21
-197.702
0
LINE
8
BLACK
6
CONTINUOUS
10
165.338
20
-197.702
11
165.265
21
-198.166
0
LINE
8
BLACK
6
CONTINUOUS
10
166.3
20
-196.738
11
165.882
21
-196.951
0
LINE
8
BLACK
6
CONTINUOUS
10
76.0766
20
-199.047
11
76.2902
21
-198.629
0
LINE
8
BLACK
6
CONTINUOUS
10
75.7445
20
-196.951
11
75.3269
21
-196.738
0
LINE
8
BLACK
6
CONTINUOUS
10
165.265
20
-198.166
11
165.338
21
-198.629
0
LINE
8
BLACK
6
CONTINUOUS
10
165.882
20
-196.951
11
165.55
21
-197.284
0
LINE
8
BLACK
6
CONTINUOUS
10
74.8625
20
-199.665
11
75.3269
21
-199.592
0
LINE
8
BLACK
6
CONTINUOUS
10
73.6499
20
-199.047
11
73.982
21
-199.379
0
LINE
8
BLACK
6
CONTINUOUS
10
73.982
20
-199.379
11
74.3995
21
-199.592
0
LINE
8
BLACK
6
CONTINUOUS
10
73.3632
20
-198.166
11
73.4376
21
-198.629
0
LINE
8
BLACK
6
CONTINUOUS
10
76.2902
20
-197.702
11
76.0766
21
-197.284
0
LINE
8
BLACK
6
CONTINUOUS
10
73.4376
20
-198.629
11
73.6499
21
-199.047
0
LINE
8
BLACK
6
CONTINUOUS
10
92.4294
20
-71.3642
11
92.4294
21
-78.3652
0
LINE
8
BLACK
6
CONTINUOUS
10
73.982
20
-196.951
11
73.6499
21
-197.284
0
LINE
8
BLACK
6
CONTINUOUS
10
75.3269
20
-196.738
11
74.8625
21
-196.665
0
LINE
8
BLACK
6
CONTINUOUS
10
165.55
20
-197.284
11
165.338
21
-197.702
0
LINE
8
BLACK
6
CONTINUOUS
10
74.8625
20
-196.665
11
74.3995
21
-196.738
0
LINE
8
BLACK
6
CONTINUOUS
10
76.2902
20
-198.629
11
76.3632
21
-198.166
0
LINE
8
BLACK
6
CONTINUOUS
10
74.3995
20
-199.592
11
74.8625
21
-199.665
0
LINE
8
BLACK
6
CONTINUOUS
10
73.4376
20
-197.702
11
73.3632
21
-198.166
0
LINE
8
BLACK
6
CONTINUOUS
10
74.3637
20
-71.3642
11
92.4294
21
-71.3642
0
LINE
8
BLACK
6
CONTINUOUS
10
74.3995
20
-196.738
11
73.982
21
-196.951
0
LINE
8
BLACK
6
CONTINUOUS
10
76.3632
20
-198.166
11
76.2902
21
-197.702
0
LINE
8
BLACK
6
CONTINUOUS
10
76.0766
20
-197.284
11
75.7445
21
-196.951
0
LINE
8
BLACK
6
CONTINUOUS
10
71.3995
20
-199.135
11
71.3733
21
-198.901
0
LINE
8
BLACK
6
CONTINUOUS
10
351.992
20
-201.519
11
351.766
21
-201.582
0
LINE
8
BLACK
6
CONTINUOUS
10
71.4464
20
-199.366
11
71.3995
21
-199.135
0
LINE
8
BLACK
6
CONTINUOUS
10
353.837
20
-199.814
11
353.738
21
-200.026
0
LINE
8
BLACK
6
CONTINUOUS
10
353.622
20
-200.233
11
353.493
21
-200.429
0
LINE
8
BLACK
6
CONTINUOUS
10
71.806
20
-200.233
11
71.6903
21
-200.026
0
LINE
8
BLACK
6
CONTINUOUS
10
72.2415
20
-200.787
11
72.0816
21
-200.613
0
LINE
8
BLACK
6
CONTINUOUS
10
72.0816
20
-200.613
11
71.9356
21
-200.429
0
LINE
8
BLACK
6
CONTINUOUS
10
351.3
20
-201.655
11
351.066
21
-201.666
0
LINE
8
BLACK
6
CONTINUOUS
10
352.426
20
-201.338
11
352.214
21
-201.438
0
LINE
8
BLACK
6
CONTINUOUS
10
353.493
20
-200.429
11
353.347
21
-200.613
0
LINE
8
BLACK
6
CONTINUOUS
10
351.066
20
-201.666
11
74.3637
21
-201.666
0
LINE
8
BLACK
6
CONTINUOUS
10
353.918
20
-199.592
11
353.837
21
-199.814
0
LINE
8
BLACK
6
CONTINUOUS
10
71.5924
20
-199.814
11
71.5098
21
-199.592
0
LINE
8
BLACK
6
CONTINUOUS
10
74.128
20
-201.655
11
73.8938
21
-201.629
0
LINE
8
BLACK
6
CONTINUOUS
10
354.029
20
-199.135
11
353.982
21
-199.366
0
LINE
8
BLACK
6
CONTINUOUS
10
74.128
20
-71.3742
11
74.3637
21
-71.3642
0
LINE
8
BLACK
6
CONTINUOUS
10
72.4151
20
-72.0822
11
72.5998
21
-71.9362
0
LINE
8
BLACK
6
CONTINUOUS
10
73.8938
20
-201.629
11
73.6636
21
-201.582
0
LINE
8
BLACK
6
CONTINUOUS
10
73.4363
20
-71.5112
11
73.6636
21
-71.4472
0
LINE
8
BLACK
6
CONTINUOUS
10
71.4464
20
-73.6642
11
71.5098
21
-73.4372
0
LINE
8
BLACK
6
CONTINUOUS
10
73.8938
20
-71.4002
11
74.128
21
-71.3742
0
LINE
8
BLACK
6
CONTINUOUS
10
74.3637
20
-201.666
11
74.128
21
-201.655
0
LINE
8
BLACK
6
CONTINUOUS
10
352.633
20
-201.223
11
352.426
21
-201.338
0
LINE
8
BLACK
6
CONTINUOUS
10
352.828
20
-201.093
11
352.633
21
-201.223
0
LINE
8
BLACK
6
CONTINUOUS
10
353.187
20
-200.787
11
353.013
21
-200.947
0
LINE
8
BLACK
6
CONTINUOUS
10
71.9356
20
-200.429
11
71.806
21
-200.233
0
LINE
8
BLACK
6
CONTINUOUS
10
73.6636
20
-71.4472
11
73.8938
21
-71.4002
0
LINE
8
BLACK
6
CONTINUOUS
10
73.2158
20
-71.5932
11
73.4363
21
-71.5112
0
LINE
8
BLACK
6
CONTINUOUS
10
71.3637
20
-198.665
11
71.3637
21
-74.3642
0
LINE
8
BLACK
6
CONTINUOUS
10
352.214
20
-201.438
11
351.992
21
-201.519
0
LINE
8
BLACK
6
CONTINUOUS
10
73.4363
20
-201.519
11
73.2158
21
-201.438
0
LINE
8
BLACK
6
CONTINUOUS
10
354.055
20
-74.1282
11
354.066
21
-74.3642
0
LINE
8
BLACK
6
CONTINUOUS
10
72.7955
20
-201.223
11
72.5998
21
-201.093
0
LINE
8
BLACK
6
CONTINUOUS
10
354.066
20
-198.666
11
354.055
21
-198.901
0
LINE
8
BLACK
6
CONTINUOUS
10
354.055
20
-198.901
11
354.029
21
-199.135
0
LINE
8
BLACK
6
CONTINUOUS
10
73.0022
20
-71.6912
11
73.2158
21
-71.5932
0
LINE
8
BLACK
6
CONTINUOUS
10
353.982
20
-199.366
11
353.918
21
-199.592
0
LINE
8
BLACK
6
CONTINUOUS
10
72.7955
20
-71.8072
11
73.0022
21
-71.6912
0
LINE
8
BLACK
6
CONTINUOUS
10
354.066
20
-74.3642
11
354.066
21
-198.666
0
LINE
8
BLACK
6
CONTINUOUS
10
72.5998
20
-71.9362
11
72.7955
21
-71.8072
0
LINE
8
BLACK
6
CONTINUOUS
10
73.2158
20
-201.438
11
73.0022
21
-201.338
0
LINE
8
BLACK
6
CONTINUOUS
10
72.2415
20
-72.2422
11
72.4151
21
-72.0822
0
LINE
8
BLACK
6
CONTINUOUS
10
71.806
20
-72.7962
11
71.9356
21
-72.6002
0
LINE
8
BLACK
6
CONTINUOUS
10
71.6903
20
-200.026
11
71.5924
21
-199.814
0
LINE
8
BLACK
6
CONTINUOUS
10
73.0022
20
-201.338
11
72.7955
21
-201.223
0
LINE
8
BLACK
6
CONTINUOUS
10
351.766
20
-201.582
11
351.534
21
-201.629
0
LINE
8
BLACK
6
CONTINUOUS
10
353.347
20
-200.613
11
353.187
21
-200.787
0
LINE
8
BLACK
6
CONTINUOUS
10
72.5998
20
-201.093
11
72.4151
21
-200.947
0
LINE
8
BLACK
6
CONTINUOUS
10
353.738
20
-200.026
11
353.622
21
-200.233
0
LINE
8
BLACK
6
CONTINUOUS
10
72.0816
20
-72.4162
11
72.2415
21
-72.2422
0
LINE
8
BLACK
6
CONTINUOUS
10
73.6636
20
-201.582
11
73.4363
21
-201.519
0
LINE
8
BLACK
6
CONTINUOUS
10
71.3637
20
-74.3642
11
71.3733
21
-74.1282
0
LINE
8
BLACK
6
CONTINUOUS
10
71.3733
20
-198.901
11
71.3637
21
-198.665
0
LINE
8
BLACK
6
CONTINUOUS
10
72.4151
20
-200.947
11
72.2415
21
-200.787
0
LINE
8
BLACK
6
CONTINUOUS
10
353.013
20
-200.947
11
352.828
21
-201.093
0
LINE
8
BLACK
6
CONTINUOUS
10
71.9356
20
-72.6002
11
72.0816
21
-72.4162
0
LINE
8
BLACK
6
CONTINUOUS
10
71.5098
20
-199.592
11
71.4464
21
-199.366
0
LINE
8
BLACK
6
CONTINUOUS
10
351.534
20
-201.629
11
351.3
21
-201.655
0
LINE
8
BLACK
6
CONTINUOUS
10
71.6903
20
-73.0032
11
71.806
21
-72.7962
0
LINE
8
BLACK
6
CONTINUOUS
10
71.5924
20
-73.2172
11
71.6903
21
-73.0032
0
LINE
8
BLACK
6
CONTINUOUS
10
71.5098
20
-73.4372
11
71.5924
21
-73.2172
0
LINE
8
BLACK
6
CONTINUOUS
10
71.3995
20
-73.8942
11
71.4464
21
-73.6642
0
LINE
8
BLACK
6
CONTINUOUS
10
71.3733
20
-74.1282
11
71.3995
21
-73.8942
0
LINE
8
BLACK
6
CONTINUOUS
10
351.992
20
-75.3282
11
352.065
21
-74.8642
0
LINE
8
BLACK
6
CONTINUOUS
10
75.7445
20
-76.0772
11
76.0766
21
-75.7452
0
LINE
8
BLACK
6
CONTINUOUS
10
351.778
20
-75.7452
11
351.992
21
-75.3282
0
LINE
8
BLACK
6
CONTINUOUS
10
350.566
20
-76.3652
11
351.029
21
-76.2912
0
LINE
8
BLACK
6
CONTINUOUS
10
76.3632
20
-74.8642
11
76.2902
21
-74.4002
0
LINE
8
BLACK
6
CONTINUOUS
10
349.138
20
-75.3282
11
349.352
21
-75.7452
0
LINE
8
BLACK
6
CONTINUOUS
10
352.065
20
-74.8642
11
351.992
21
-74.4002
0
LINE
8
BLACK
6
CONTINUOUS
10
351.446
20
-76.0772
11
351.778
21
-75.7452
0
LINE
8
BLACK
6
CONTINUOUS
10
351.029
20
-76.2912
11
351.446
21
-76.0772
0
LINE
8
BLACK
6
CONTINUOUS
10
75.3269
20
-73.4382
11
74.8625
21
-73.3652
0
LINE
8
BLACK
6
CONTINUOUS
10
350.101
20
-73.4382
11
349.684
21
-73.6502
0
LINE
8
BLACK
6
CONTINUOUS
10
76.2902
20
-75.3282
11
76.3632
21
-74.8642
0
LINE
8
BLACK
6
CONTINUOUS
10
349.065
20
-74.8642
11
349.138
21
-75.3282
0
LINE
8
BLACK
6
CONTINUOUS
10
349.138
20
-74.4002
11
349.065
21
-74.8642
0
LINE
8
BLACK
6
CONTINUOUS
10
349.684
20
-73.6502
11
349.352
21
-73.9822
0
LINE
8
BLACK
6
CONTINUOUS
10
74.8625
20
-73.3652
11
74.3995
21
-73.4382
0
LINE
8
BLACK
6
CONTINUOUS
10
350.101
20
-76.2912
11
350.566
21
-76.3652
0
LINE
8
BLACK
6
CONTINUOUS
10
349.684
20
-76.0772
11
350.101
21
-76.2912
0
LINE
8
BLACK
6
CONTINUOUS
10
75.3269
20
-76.2912
11
75.7445
21
-76.0772
0
LINE
8
BLACK
6
CONTINUOUS
10
349.352
20
-75.7452
11
349.684
21
-76.0772
0
LINE
8
BLACK
6
CONTINUOUS
10
76.2902
20
-74.4002
11
76.0766
21
-73.9822
0
LINE
8
BLACK
6
CONTINUOUS
10
76.0766
20
-75.7452
11
76.2902
21
-75.3282
0
LINE
8
BLACK
6
CONTINUOUS
10
349.352
20
-73.9822
11
349.138
21
-74.4002
0
LINE
8
BLACK
6
CONTINUOUS
10
75.7445
20
-73.6502
11
75.3269
21
-73.4382
0
LINE
8
BLACK
6
CONTINUOUS
10
76.0766
20
-73.9822
11
75.7445
21
-73.6502
0
LINE
8
BLACK
6
CONTINUOUS
10
351.446
20
-73.6502
11
351.029
21
-73.4382
0
LINE
8
BLACK
6
CONTINUOUS
10
351.778
20
-73.9822
11
351.446
21
-73.6502
0
LINE
8
BLACK
6
CONTINUOUS
10
351.992
20
-74.4002
11
351.778
21
-73.9822
0
LINE
8
BLACK
6
CONTINUOUS
10
351.446
20
-196.951
11
351.029
21
-196.738
0
LINE
8
BLACK
6
CONTINUOUS
10
351.778
20
-197.284
11
351.446
21
-196.951
0
LINE
8
BLACK
6
CONTINUOUS
10
350.566
20
-199.665
11
351.029
21
-199.592
0
LINE
8
BLACK
6
CONTINUOUS
10
349.138
20
-198.629
11
349.352
21
-199.047
0
LINE
8
BLACK
6
CONTINUOUS
10
349.065
20
-198.166
11
349.138
21
-198.629
0
LINE
8
BLACK
6
CONTINUOUS
10
259.546
20
-196.951
11
259.129
21
-196.738
0
LINE
8
BLACK
6
CONTINUOUS
10
167.227
20
-196.738
11
166.764
21
-196.665
0
LINE
8
BLACK
6
CONTINUOUS
10
166.764
20
-196.665
11
166.3
21
-196.738
0
LINE
8
BLACK
6
CONTINUOUS
10
351.992
20
-197.702
11
351.778
21
-197.284
0
LINE
8
BLACK
6
CONTINUOUS
10
351.446
20
-199.379
11
351.778
21
-199.047
0
LINE
8
BLACK
6
CONTINUOUS
10
349.352
20
-199.047
11
349.684
21
-199.379
0
LINE
8
BLACK
6
CONTINUOUS
10
349.352
20
-197.284
11
349.138
21
-197.702
0
LINE
8
BLACK
6
CONTINUOUS
10
168.19
20
-197.702
11
167.977
21
-197.284
0
LINE
8
BLACK
6
CONTINUOUS
10
258.664
20
-196.665
11
258.201
21
-196.738
0
LINE
8
BLACK
6
CONTINUOUS
10
167.977
20
-197.284
11
167.646
21
-196.951
0
LINE
8
BLACK
6
CONTINUOUS
10
259.878
20
-199.047
11
260.092
21
-198.629
0
LINE
8
BLACK
6
CONTINUOUS
10
257.782
20
-196.951
11
257.452
21
-197.284
0
LINE
8
BLACK
6
CONTINUOUS
10
352.065
20
-198.166
11
351.992
21
-197.702
0
LINE
8
BLACK
6
CONTINUOUS
10
351.992
20
-198.629
11
352.065
21
-198.166
0
LINE
8
BLACK
6
CONTINUOUS
10
350.101
20
-199.592
11
350.566
21
-199.665
0
LINE
8
BLACK
6
CONTINUOUS
10
260.165
20
-198.166
11
260.092
21
-197.702
0
LINE
8
BLACK
6
CONTINUOUS
10
351.778
20
-199.047
11
351.992
21
-198.629
0
LINE
8
BLACK
6
CONTINUOUS
10
260.092
20
-198.629
11
260.165
21
-198.166
0
LINE
8
BLACK
6
CONTINUOUS
10
351.029
20
-199.592
11
351.446
21
-199.379
0
LINE
8
BLACK
6
CONTINUOUS
10
259.129
20
-196.738
11
258.664
21
-196.665
0
LINE
8
BLACK
6
CONTINUOUS
10
258.201
20
-199.592
11
258.664
21
-199.665
0
LINE
8
BLACK
6
CONTINUOUS
10
257.238
20
-197.702
11
257.165
21
-198.166
0
LINE
8
BLACK
6
CONTINUOUS
10
258.201
20
-196.738
11
257.782
21
-196.951
0
LINE
8
BLACK
6
CONTINUOUS
10
168.19
20
-198.629
11
168.265
21
-198.166
0
LINE
8
BLACK
6
CONTINUOUS
10
166.3
20
-199.592
11
166.764
21
-199.665
0
LINE
8
BLACK
6
CONTINUOUS
10
165.882
20
-199.379
11
166.3
21
-199.592
0
LINE
8
BLACK
6
CONTINUOUS
10
167.227
20
-199.592
11
167.646
21
-199.379
0
LINE
8
BLACK
6
CONTINUOUS
10
165.55
20
-199.047
11
165.882
21
-199.379
0
LINE
8
BLACK
6
CONTINUOUS
10
257.452
20
-197.284
11
257.238
21
-197.702
0
LINE
8
BLACK
6
CONTINUOUS
10
259.129
20
-199.592
11
259.546
21
-199.379
0
LINE
8
BLACK
6
CONTINUOUS
10
259.546
20
-199.379
11
259.878
21
-199.047
0
LINE
8
BLACK
6
CONTINUOUS
10
258.664
20
-199.665
11
259.129
21
-199.592
0
LINE
8
BLACK
6
CONTINUOUS
10
167.646
20
-196.951
11
167.227
21
-196.738
0
LINE
8
BLACK
6
CONTINUOUS
10
257.165
20
-198.166
11
257.238
21
-198.629
0
LINE
8
BLACK
6
CONTINUOUS
10
167.646
20
-199.379
11
167.977
21
-199.047
0
LINE
8
BLACK
6
CONTINUOUS
10
74.8625
20
-76.3652
11
75.3269
21
-76.2912
0
LINE
8
BLACK
6
CONTINUOUS
10
74.3995
20
-76.2912
11
74.8625
21
-76.3652
0
LINE
8
BLACK
6
CONTINUOUS
10
73.982
20
-76.0772
11
74.3995
21
-76.2912
0
LINE
8
BLACK
6
CONTINUOUS
10
257.782
20
-199.379
11
258.201
21
-199.592
0
LINE
8
BLACK
6
CONTINUOUS
10
73.6499
20
-75.7452
11
73.982
21
-76.0772
0
LINE
8
BLACK
6
CONTINUOUS
10
73.4376
20
-75.3282
11
73.6499
21
-75.7452
0
LINE
8
BLACK
6
CONTINUOUS
10
349.138
20
-197.702
11
349.065
21
-198.166
0
LINE
8
BLACK
6
CONTINUOUS
10
257.238
20
-198.629
11
257.452
21
-199.047
0
LINE
8
BLACK
6
CONTINUOUS
10
73.3632
20
-74.8642
11
73.4376
21
-75.3282
0
LINE
8
BLACK
6
CONTINUOUS
10
349.684
20
-199.379
11
350.101
21
-199.592
0
LINE
8
BLACK
6
CONTINUOUS
10
349.684
20
-196.951
11
349.352
21
-197.284
0
LINE
8
BLACK
6
CONTINUOUS
10
350.101
20
-196.738
11
349.684
21
-196.951
0
LINE
8
BLACK
6
CONTINUOUS
10
259.878
20
-197.284
11
259.546
21
-196.951
0
LINE
8
BLACK
6
CONTINUOUS
10
257.452
20
-199.047
11
257.782
21
-199.379
0
LINE
8
BLACK
6
CONTINUOUS
10
260.092
20
-197.702
11
259.878
21
-197.284
0
LINE
8
BLACK
6
CONTINUOUS
10
168.265
20
-198.166
11
168.19
21
-197.702
0
LINE
8
BLACK
6
CONTINUOUS
10
167.977
20
-199.047
11
168.19
21
-198.629
0
LINE
8
BLACK
6
CONTINUOUS
10
166.764
20
-199.665
11
167.227
21
-199.592
0
LINE
8
BLACK
6
CONTINUOUS
10
73.4376
20
-74.4002
11
73.3632
21
-74.8642
0
LINE
8
BLACK
6
CONTINUOUS
10
73.6499
20
-73.9822
11
73.4376
21
-74.4002
0
LINE
8
BLACK
6
CONTINUOUS
10
73.982
20
-73.6502
11
73.6499
21
-73.9822
0
LINE
8
BLACK
6
CONTINUOUS
10
74.3995
20
-73.4382
11
73.982
21
-73.6502
0
LINE
8
BLACK
6
CONTINUOUS
10
350.566
20
-196.665
11
350.101
21
-196.738
0
LINE
8
BLACK
6
CONTINUOUS
10
351.029
20
-196.738
11
350.566
21
-196.665
0
LINE
8
BLACK
6
CONTINUOUS
10
351.778
20
-197.284
11
351.446
21
-196.951
0
LINE
8
BLACK
6
CONTINUOUS
10
352.065
20
-198.166
11
351.992
21
-197.702
0
LINE
8
BLACK
6
CONTINUOUS
10
350.566
20
-199.665
11
351.029
21
-199.592
0
LINE
8
BLACK
6
CONTINUOUS
10
350.566
20
-196.665
11
350.101
21
-196.738
0
LINE
8
BLACK
6
CONTINUOUS
10
351.446
20
-196.951
11
351.029
21
-196.738
0
LINE
8
BLACK
6
CONTINUOUS
10
351.992
20
-198.629
11
352.065
21
-198.166
0
LINE
8
BLACK
6
CONTINUOUS
10
351.446
20
-199.379
11
351.778
21
-199.047
0
LINE
8
BLACK
6
CONTINUOUS
10
351.778
20
-199.047
11
351.992
21
-198.629
0
LINE
8
BLACK
6
CONTINUOUS
10
351.992
20
-197.702
11
351.778
21
-197.284
0
LINE
8
BLACK
6
CONTINUOUS
10
351.029
20
-199.592
11
351.446
21
-199.379
0
LINE
8
BLACK
6
CONTINUOUS
10
351.029
20
-196.738
11
350.566
21
-196.665
0
LINE
8
BLACK
6
CONTINUOUS
10
350.101
20
-199.592
11
350.566
21
-199.665
0
LINE
8
BLACK
6
CONTINUOUS
10
259.546
20
-76.0772
11
259.878
21
-75.7452
0
LINE
8
BLACK
6
CONTINUOUS
10
257.238
20
-75.3282
11
257.452
21
-75.7452
0
LINE
8
BLACK
6
CONTINUOUS
10
350.566
20
-73.3652
11
350.101
21
-73.4382
0
LINE
8
BLACK
6
CONTINUOUS
10
257.452
20
-75.7452
11
257.782
21
-76.0772
0
LINE
8
BLACK
6
CONTINUOUS
10
258.664
20
-76.3652
11
259.129
21
-76.2912
0
LINE
8
BLACK
6
CONTINUOUS
10
257.782
20
-76.0772
11
258.201
21
-76.2912
0
LINE
8
BLACK
6
CONTINUOUS
10
257.782
20
-73.6502
11
257.452
21
-73.9822
0
LINE
8
BLACK
6
CONTINUOUS
10
165.338
20
-75.3282
11
165.55
21
-75.7452
0
LINE
8
BLACK
6
CONTINUOUS
10
165.265
20
-74.8642
11
165.338
21
-75.3282
0
LINE
8
BLACK
6
CONTINUOUS
10
165.55
20
-73.9822
11
165.338
21
-74.4002
0
LINE
8
BLACK
6
CONTINUOUS
10
259.129
20
-73.4382
11
258.664
21
-73.3652
0
LINE
8
BLACK
6
CONTINUOUS
10
257.165
20
-74.8642
11
257.238
21
-75.3282
0
LINE
8
BLACK
6
CONTINUOUS
10
259.546
20
-73.6502
11
259.129
21
-73.4382
0
LINE
8
BLACK
6
CONTINUOUS
10
258.201
20
-76.2912
11
258.664
21
-76.3652
0
LINE
8
BLACK
6
CONTINUOUS
10
260.092
20
-75.3282
11
260.165
21
-74.8642
0
LINE
8
BLACK
6
CONTINUOUS
10
259.129
20
-76.2912
11
259.546
21
-76.0772
0
LINE
8
BLACK
6
CONTINUOUS
10
258.664
20
-73.3652
11
258.201
21
-73.4382
0
LINE
8
BLACK
6
CONTINUOUS
10
260.165
20
-74.8642
11
260.092
21
-74.4002
0
LINE
8
BLACK
6
CONTINUOUS
10
259.878
20
-75.7452
11
260.092
21
-75.3282
0
LINE
8
BLACK
6
CONTINUOUS
10
257.238
20
-74.4002
11
257.165
21
-74.8642
0
LINE
8
BLACK
6
CONTINUOUS
10
351.029
20
-73.4382
11
350.566
21
-73.3652
0
LINE
8
BLACK
6
CONTINUOUS
10
257.452
20
-73.9822
11
257.238
21
-74.4002
0
LINE
8
BLACK
6
CONTINUOUS
10
165.338
20
-74.4002
11
165.265
21
-74.8642
0
LINE
8
BLACK
6
CONTINUOUS
10
260.092
20
-74.4002
11
259.878
21
-73.9822
0
LINE
8
BLACK
6
CONTINUOUS
10
165.882
20
-73.6502
11
165.55
21
-73.9822
0
LINE
8
BLACK
6
CONTINUOUS
10
166.3
20
-73.4382
11
165.882
21
-73.6502
0
LINE
8
BLACK
6
CONTINUOUS
10
259.878
20
-73.9822
11
259.546
21
-73.6502
0
LINE
8
BLACK
6
CONTINUOUS
10
258.201
20
-73.4382
11
257.782
21
-73.6502
0
LINE
8
BLACK
6
CONTINUOUS
10
165.55
20
-75.7452
11
165.882
21
-76.0772
0
LINE
8
BLACK
6
CONTINUOUS
10
167.227
20
-73.4382
11
166.764
21
-73.3652
0
LINE
8
BLACK
6
CONTINUOUS
10
166.764
20
-76.3652
11
167.227
21
-76.2912
0
LINE
8
BLACK
6
CONTINUOUS
10
167.977
20
-75.7452
11
168.19
21
-75.3282
0
LINE
8
BLACK
6
CONTINUOUS
10
166.3
20
-76.2912
11
166.764
21
-76.3652
0
LINE
8
BLACK
6
CONTINUOUS
10
165.882
20
-76.0772
11
166.3
21
-76.2912
0
LINE
8
BLACK
6
CONTINUOUS
10
167.227
20
-76.2912
11
167.646
21
-76.0772
0
LINE
8
BLACK
6
CONTINUOUS
10
168.19
20
-74.4002
11
167.977
21
-73.9822
0
LINE
8
BLACK
6
CONTINUOUS
10
168.19
20
-75.3282
11
168.265
21
-74.8642
0
LINE
8
BLACK
6
CONTINUOUS
10
167.646
20
-76.0772
11
167.977
21
-75.7452
0
LINE
8
BLACK
6
CONTINUOUS
10
167.977
20
-73.9822
11
167.646
21
-73.6502
0
LINE
8
BLACK
6
CONTINUOUS
10
167.646
20
-73.6502
11
167.227
21
-73.4382
0
LINE
8
BLACK
6
CONTINUOUS
10
168.265
20
-74.8642
11
168.19
21
-74.4002
0
LINE
8
BLACK
6
CONTINUOUS
10
166.764
20
-73.3652
11
166.3
21
-73.4382
0
LINE
8
BLACK
6
CONTINUOUS
10
73.6636
20
-71.4472
11
73.8938
21
-71.4002
0
LINE
8
BLACK
6
CONTINUOUS
10
71.806
20
-72.7962
11
71.9356
21
-72.6002
0
LINE
8
BLACK
6
CONTINUOUS
10
71.3995
20
-199.135
11
71.3733
21
-198.901
0
LINE
8
BLACK
6
CONTINUOUS
10
71.3637
20
-74.3642
11
71.3733
21
-74.1282
0
LINE
8
BLACK
6
CONTINUOUS
10
73.2158
20
-71.5932
11
73.4363
21
-71.5112
0
LINE
8
BLACK
6
CONTINUOUS
10
73.0022
20
-71.6912
11
73.2158
21
-71.5932
0
LINE
8
BLACK
6
CONTINUOUS
10
71.9356
20
-72.6002
11
72.0816
21
-72.4162
0
LINE
8
BLACK
6
CONTINUOUS
10
71.3637
20
-198.665
11
71.3637
21
-74.3642
0
LINE
8
BLACK
6
CONTINUOUS
10
72.2415
20
-72.2422
11
72.4151
21
-72.0822
0
LINE
8
BLACK
6
CONTINUOUS
10
72.7955
20
-71.8072
11
73.0022
21
-71.6912
0
LINE
8
BLACK
6
CONTINUOUS
10
71.3733
20
-198.901
11
71.3637
21
-198.665
0
LINE
8
BLACK
6
CONTINUOUS
10
72.4151
20
-72.0822
11
72.5998
21
-71.9362
0
LINE
8
BLACK
6
CONTINUOUS
10
72.0816
20
-72.4162
11
72.2415
21
-72.2422
0
LINE
8
BLACK
6
CONTINUOUS
10
71.5924
20
-73.2172
11
71.6903
21
-73.0032
0
LINE
8
BLACK
6
CONTINUOUS
10
73.4363
20
-71.5112
11
73.6636
21
-71.4472
0
LINE
8
BLACK
6
CONTINUOUS
10
71.6903
20
-73.0032
11
71.806
21
-72.7962
0
LINE
8
BLACK
6
CONTINUOUS
10
71.5098
20
-73.4372
11
71.5924
21
-73.2172
0
LINE
8
BLACK
6
CONTINUOUS
10
71.4464
20
-73.6642
11
71.5098
21
-73.4372
0
LINE
8
BLACK
6
CONTINUOUS
10
72.5998
20
-71.9362
11
72.7955
21
-71.8072
0
LINE
8
BLACK
6
CONTINUOUS
10
71.3995
20
-73.8942
11
71.4464
21
-73.6642
0
LINE
8
BLACK
6
CONTINUOUS
10
71.3733
20
-74.1282
11
71.3995
21
-73.8942
0
LINE
8
BLACK
6
CONTINUOUS
10
74.128
20
-71.3742
11
74.3637
21
-71.3642
0
LINE
8
BLACK
6
CONTINUOUS
10
73.8938
20
-71.4002
11
74.128
21
-71.3742
0
LINE
8
BLACK
6
CONTINUOUS
10
345.555
20
-81.9114
11
345.555
21
-191.162
0
ARC
8
BLACK
10
81.9044
20
-81.9114
40
2
50
90
51
180
0
LINE
8
BLACK
6
CONTINUOUS
10
103.429
20
-71.3642
11
103.429
21
-79.9114
0
LINE
8
BLACK
6
CONTINUOUS
10
343.555
20
-193.162
11
81.9044
21
-193.162
0
ARC
8
BLACK
10
343.555
20
-81.9114
40
2
50
-0
51
90
0
ARC
8
BLACK
10
343.555
20
-191.162
40
2
50
-90
51
2.27374e-13
0
LINE
8
BLACK
6
CONTINUOUS
10
103.429
20
-71.3642
11
93.4294
21
-71.3642
0
LINE
8
BLACK
6
CONTINUOUS
10
93.4294
20
-71.3642
11
93.4294
21
-79.9114
0
LINE
8
BLACK
6
CONTINUOUS
10
103.429
20
-79.9114
11
343.555
21
-79.9114
0
LINE
8
BLACK
6
CONTINUOUS
10
79.9044
20
-191.162
11
79.9044
21
-81.9114
0
LINE
8
BLACK
6
CONTINUOUS
10
81.9044
20
-79.9114
11
93.4294
21
-79.9114
0
ARC
8
BLACK
10
81.9044
20
-191.162
40
2
50
180
51
270
0
LINE
8
BLACK
6
CONTINUOUS
10
353.013
20
-72.0822
11
353.187
21
-72.2422
0
LINE
8
BLACK
6
CONTINUOUS
10
352.828
20
-71.9362
11
353.013
21
-72.0822
0
LINE
8
BLACK
6
CONTINUOUS
10
352.426
20
-71.6912
11
352.633
21
-71.8072
0
LINE
8
BLACK
6
CONTINUOUS
10
352.633
20
-71.8072
11
352.828
21
-71.9362
0
LINE
8
BLACK
6
CONTINUOUS
10
352.214
20
-71.5932
11
352.426
21
-71.6912
0
LINE
8
BLACK
6
CONTINUOUS
10
353.493
20
-72.6002
11
353.622
21
-72.7962
0
LINE
8
BLACK
6
CONTINUOUS
10
353.738
20
-73.0032
11
353.837
21
-73.2172
0
LINE
8
BLACK
6
CONTINUOUS
10
353.622
20
-72.7962
11
353.738
21
-73.0032
0
LINE
8
BLACK
6
CONTINUOUS
10
353.347
20
-72.4162
11
353.493
21
-72.6002
0
LINE
8
BLACK
6
CONTINUOUS
10
353.187
20
-72.2422
11
353.347
21
-72.4162
0
LINE
8
BLACK
6
CONTINUOUS
10
354.029
20
-73.8942
11
354.055
21
-74.1282
0
LINE
8
BLACK
6
CONTINUOUS
10
353.982
20
-73.6642
11
354.029
21
-73.8942
0
LINE
8
BLACK
6
CONTINUOUS
10
353.918
20
-73.4372
11
353.982
21
-73.6642
0
LINE
8
BLACK
6
CONTINUOUS
10
353.837
20
-73.2172
11
353.918
21
-73.4372
0
LINE
8
BLACK
6
CONTINUOUS
10
354.055
20
-74.1282
11
354.066
21
-74.3642
0
LINE
8
BLACK
6
CONTINUOUS
10
353.982
20
-199.366
11
353.918
21
-199.592
0
LINE
8
BLACK
6
CONTINUOUS
10
354.029
20
-199.135
11
353.982
21
-199.366
0
LINE
8
BLACK
6
CONTINUOUS
10
354.055
20
-198.901
11
354.029
21
-199.135
0
LINE
8
BLACK
6
CONTINUOUS
10
354.066
20
-198.666
11
354.055
21
-198.901
0
LINE
8
BLACK
6
CONTINUOUS
10
354.066
20
-74.3642
11
354.066
21
-198.666
0
LINE
8
BLACK
6
CONTINUOUS
10
353.837
20
-199.814
11
353.738
21
-200.026
0
LINE
8
BLACK
6
CONTINUOUS
10
353.918
20
-199.592
11
353.837
21
-199.814
0
LINE
8
BLACK
6
CONTINUOUS
10
353.493
20
-200.429
11
353.347
21
-200.613
0
LINE
8
BLACK
6
CONTINUOUS
10
353.622
20
-200.233
11
353.493
21
-200.429
0
LINE
8
BLACK
6
CONTINUOUS
10
353.738
20
-200.026
11
353.622
21
-200.233
0
LINE
8
BLACK
6
CONTINUOUS
10
353.347
20
-200.613
11
353.187
21
-200.787
0
LINE
8
BLACK
6
CONTINUOUS
10
352.828
20
-201.093
11
352.633
21
-201.223
0
LINE
8
BLACK
6
CONTINUOUS
10
352.633
20
-201.223
11
352.426
21
-201.338
0
LINE
8
BLACK
6
CONTINUOUS
10
353.013
20
-200.947
11
352.828
21
-201.093
0
LINE
8
BLACK
6
CONTINUOUS
10
353.187
20
-200.787
11
353.013
21
-200.947
0
LINE
8
BLACK
6
CONTINUOUS
10
351.992
20
-201.519
11
351.766
21
-201.582
0
LINE
8
BLACK
6
CONTINUOUS
10
352.426
20
-201.338
11
352.214
21
-201.438
0
LINE
8
BLACK
6
CONTINUOUS
10
351.766
20
-201.582
11
351.534
21
-201.629
0
LINE
8
BLACK
6
CONTINUOUS
10
351.534
20
-201.629
11
351.3
21
-201.655
0
LINE
8
BLACK
6
CONTINUOUS
10
352.214
20
-201.438
11
351.992
21
-201.519
0
LINE
8
BLACK
6
CONTINUOUS
10
74.3637
20
-201.666
11
74.128
21
-201.655
0
LINE
8
BLACK
6
CONTINUOUS
10
73.8938
20
-201.629
11
73.6636
21
-201.582
0
LINE
8
BLACK
6
CONTINUOUS
10
74.128
20
-201.655
11
73.8938
21
-201.629
0
LINE
8
BLACK
6
CONTINUOUS
10
351.066
20
-201.666
11
74.3637
21
-201.666
0
LINE
8
BLACK
6
CONTINUOUS
10
351.3
20
-201.655
11
351.066
21
-201.666
0
LINE
8
BLACK
6
CONTINUOUS
10
73.4363
20
-201.519
11
73.2158
21
-201.438
0
LINE
8
BLACK
6
CONTINUOUS
10
73.6636
20
-201.582
11
73.4363
21
-201.519
0
LINE
8
BLACK
6
CONTINUOUS
10
72.7955
20
-201.223
11
72.5998
21
-201.093
0
LINE
8
BLACK
6
CONTINUOUS
10
73.0022
20
-201.338
11
72.7955
21
-201.223
0
LINE
8
BLACK
6
CONTINUOUS
10
73.2158
20
-201.438
11
73.0022
21
-201.338
0
LINE
8
BLACK
6
CONTINUOUS
10
72.2415
20
-200.787
11
72.0816
21
-200.613
0
LINE
8
BLACK
6
CONTINUOUS
10
72.4151
20
-200.947
11
72.2415
21
-200.787
0
LINE
8
BLACK
6
CONTINUOUS
10
72.5998
20
-201.093
11
72.4151
21
-200.947
0
LINE
8
BLACK
6
CONTINUOUS
10
71.9356
20
-200.429
11
71.806
21
-200.233
0
LINE
8
BLACK
6
CONTINUOUS
10
72.0816
20
-200.613
11
71.9356
21
-200.429
0
LINE
8
BLACK
6
CONTINUOUS
10
71.6903
20
-200.026
11
71.5924
21
-199.814
0
LINE
8
BLACK
6
CONTINUOUS
10
71.5098
20
-199.592
11
71.4464
21
-199.366
0
LINE
8
BLACK
6
CONTINUOUS
10
71.806
20
-200.233
11
71.6903
21
-200.026
0
LINE
8
BLACK
6
CONTINUOUS
10
71.4464
20
-199.366
11
71.3995
21
-199.135
0
LINE
8
BLACK
6
CONTINUOUS
10
71.5924
20
-199.814
11
71.5098
21
-199.592
  0
ENDSEC
  0
EOF
