G04 #@! TF.GenerationSoftware,KiCad,Pcbnew,(5.1.4)-1*
G04 #@! TF.CreationDate,2020-08-21T19:52:54-07:00*
G04 #@! TF.ProjectId,B3PKey,4233504b-6579-42e6-9b69-6361645f7063,1*
G04 #@! TF.SameCoordinates,Original*
G04 #@! TF.FileFunction,Paste,Bot*
G04 #@! TF.FilePolarity,Positive*
%FSLAX46Y46*%
G04 Gerber Fmt 4.6, Leading zero omitted, Abs format (unit mm)*
G04 Created by KiCad (PCBNEW (5.1.4)-1) date 2020-08-21 19:52:54*
%MOMM*%
%LPD*%
G04 APERTURE LIST*
%ADD10R,1.200000X0.900000*%
%ADD11C,0.100000*%
%ADD12C,0.975000*%
%ADD13R,0.300000X2.450000*%
%ADD14R,0.600000X2.450000*%
%ADD15C,1.200000*%
%ADD16C,0.550000*%
%ADD17R,1.100000X1.800000*%
G04 APERTURE END LIST*
D10*
X92075000Y-92012500D03*
X92075000Y-95312500D03*
D11*
G36*
X236540478Y-190810314D02*
G01*
X236564139Y-190813824D01*
X236587343Y-190819636D01*
X236609865Y-190827694D01*
X236631489Y-190837922D01*
X236652006Y-190850219D01*
X236671219Y-190864469D01*
X236688943Y-190880533D01*
X237033658Y-191225248D01*
X237049722Y-191242972D01*
X237063972Y-191262185D01*
X237076269Y-191282702D01*
X237086497Y-191304326D01*
X237094555Y-191326848D01*
X237100367Y-191350052D01*
X237103877Y-191373713D01*
X237105051Y-191397605D01*
X237103877Y-191421497D01*
X237100367Y-191445158D01*
X237094555Y-191468362D01*
X237086497Y-191490884D01*
X237076269Y-191512508D01*
X237063972Y-191533025D01*
X237049722Y-191552238D01*
X237033658Y-191569962D01*
X236388423Y-192215197D01*
X236370699Y-192231261D01*
X236351486Y-192245511D01*
X236330969Y-192257808D01*
X236309345Y-192268036D01*
X236286823Y-192276094D01*
X236263619Y-192281906D01*
X236239958Y-192285416D01*
X236216066Y-192286590D01*
X236192174Y-192285416D01*
X236168513Y-192281906D01*
X236145309Y-192276094D01*
X236122787Y-192268036D01*
X236101163Y-192257808D01*
X236080646Y-192245511D01*
X236061433Y-192231261D01*
X236043709Y-192215197D01*
X235698994Y-191870482D01*
X235682930Y-191852758D01*
X235668680Y-191833545D01*
X235656383Y-191813028D01*
X235646155Y-191791404D01*
X235638097Y-191768882D01*
X235632285Y-191745678D01*
X235628775Y-191722017D01*
X235627601Y-191698125D01*
X235628775Y-191674233D01*
X235632285Y-191650572D01*
X235638097Y-191627368D01*
X235646155Y-191604846D01*
X235656383Y-191583222D01*
X235668680Y-191562705D01*
X235682930Y-191543492D01*
X235698994Y-191525768D01*
X236344229Y-190880533D01*
X236361953Y-190864469D01*
X236381166Y-190850219D01*
X236401683Y-190837922D01*
X236423307Y-190827694D01*
X236445829Y-190819636D01*
X236469033Y-190813824D01*
X236492694Y-190810314D01*
X236516586Y-190809140D01*
X236540478Y-190810314D01*
X236540478Y-190810314D01*
G37*
D12*
X236366326Y-191547865D03*
D11*
G36*
X235214652Y-189484488D02*
G01*
X235238313Y-189487998D01*
X235261517Y-189493810D01*
X235284039Y-189501868D01*
X235305663Y-189512096D01*
X235326180Y-189524393D01*
X235345393Y-189538643D01*
X235363117Y-189554707D01*
X235707832Y-189899422D01*
X235723896Y-189917146D01*
X235738146Y-189936359D01*
X235750443Y-189956876D01*
X235760671Y-189978500D01*
X235768729Y-190001022D01*
X235774541Y-190024226D01*
X235778051Y-190047887D01*
X235779225Y-190071779D01*
X235778051Y-190095671D01*
X235774541Y-190119332D01*
X235768729Y-190142536D01*
X235760671Y-190165058D01*
X235750443Y-190186682D01*
X235738146Y-190207199D01*
X235723896Y-190226412D01*
X235707832Y-190244136D01*
X235062597Y-190889371D01*
X235044873Y-190905435D01*
X235025660Y-190919685D01*
X235005143Y-190931982D01*
X234983519Y-190942210D01*
X234960997Y-190950268D01*
X234937793Y-190956080D01*
X234914132Y-190959590D01*
X234890240Y-190960764D01*
X234866348Y-190959590D01*
X234842687Y-190956080D01*
X234819483Y-190950268D01*
X234796961Y-190942210D01*
X234775337Y-190931982D01*
X234754820Y-190919685D01*
X234735607Y-190905435D01*
X234717883Y-190889371D01*
X234373168Y-190544656D01*
X234357104Y-190526932D01*
X234342854Y-190507719D01*
X234330557Y-190487202D01*
X234320329Y-190465578D01*
X234312271Y-190443056D01*
X234306459Y-190419852D01*
X234302949Y-190396191D01*
X234301775Y-190372299D01*
X234302949Y-190348407D01*
X234306459Y-190324746D01*
X234312271Y-190301542D01*
X234320329Y-190279020D01*
X234330557Y-190257396D01*
X234342854Y-190236879D01*
X234357104Y-190217666D01*
X234373168Y-190199942D01*
X235018403Y-189554707D01*
X235036127Y-189538643D01*
X235055340Y-189524393D01*
X235075857Y-189512096D01*
X235097481Y-189501868D01*
X235120003Y-189493810D01*
X235143207Y-189487998D01*
X235166868Y-189484488D01*
X235190760Y-189483314D01*
X235214652Y-189484488D01*
X235214652Y-189484488D01*
G37*
D12*
X235040500Y-190222039D03*
D11*
G36*
X102581142Y-92519174D02*
G01*
X102604803Y-92522684D01*
X102628007Y-92528496D01*
X102650529Y-92536554D01*
X102672153Y-92546782D01*
X102692670Y-92559079D01*
X102711883Y-92573329D01*
X102729607Y-92589393D01*
X102745671Y-92607117D01*
X102759921Y-92626330D01*
X102772218Y-92646847D01*
X102782446Y-92668471D01*
X102790504Y-92690993D01*
X102796316Y-92714197D01*
X102799826Y-92737858D01*
X102801000Y-92761750D01*
X102801000Y-93674250D01*
X102799826Y-93698142D01*
X102796316Y-93721803D01*
X102790504Y-93745007D01*
X102782446Y-93767529D01*
X102772218Y-93789153D01*
X102759921Y-93809670D01*
X102745671Y-93828883D01*
X102729607Y-93846607D01*
X102711883Y-93862671D01*
X102692670Y-93876921D01*
X102672153Y-93889218D01*
X102650529Y-93899446D01*
X102628007Y-93907504D01*
X102604803Y-93913316D01*
X102581142Y-93916826D01*
X102557250Y-93918000D01*
X102069750Y-93918000D01*
X102045858Y-93916826D01*
X102022197Y-93913316D01*
X101998993Y-93907504D01*
X101976471Y-93899446D01*
X101954847Y-93889218D01*
X101934330Y-93876921D01*
X101915117Y-93862671D01*
X101897393Y-93846607D01*
X101881329Y-93828883D01*
X101867079Y-93809670D01*
X101854782Y-93789153D01*
X101844554Y-93767529D01*
X101836496Y-93745007D01*
X101830684Y-93721803D01*
X101827174Y-93698142D01*
X101826000Y-93674250D01*
X101826000Y-92761750D01*
X101827174Y-92737858D01*
X101830684Y-92714197D01*
X101836496Y-92690993D01*
X101844554Y-92668471D01*
X101854782Y-92646847D01*
X101867079Y-92626330D01*
X101881329Y-92607117D01*
X101897393Y-92589393D01*
X101915117Y-92573329D01*
X101934330Y-92559079D01*
X101954847Y-92546782D01*
X101976471Y-92536554D01*
X101998993Y-92528496D01*
X102022197Y-92522684D01*
X102045858Y-92519174D01*
X102069750Y-92518000D01*
X102557250Y-92518000D01*
X102581142Y-92519174D01*
X102581142Y-92519174D01*
G37*
D12*
X102313500Y-93218000D03*
D11*
G36*
X104456142Y-92519174D02*
G01*
X104479803Y-92522684D01*
X104503007Y-92528496D01*
X104525529Y-92536554D01*
X104547153Y-92546782D01*
X104567670Y-92559079D01*
X104586883Y-92573329D01*
X104604607Y-92589393D01*
X104620671Y-92607117D01*
X104634921Y-92626330D01*
X104647218Y-92646847D01*
X104657446Y-92668471D01*
X104665504Y-92690993D01*
X104671316Y-92714197D01*
X104674826Y-92737858D01*
X104676000Y-92761750D01*
X104676000Y-93674250D01*
X104674826Y-93698142D01*
X104671316Y-93721803D01*
X104665504Y-93745007D01*
X104657446Y-93767529D01*
X104647218Y-93789153D01*
X104634921Y-93809670D01*
X104620671Y-93828883D01*
X104604607Y-93846607D01*
X104586883Y-93862671D01*
X104567670Y-93876921D01*
X104547153Y-93889218D01*
X104525529Y-93899446D01*
X104503007Y-93907504D01*
X104479803Y-93913316D01*
X104456142Y-93916826D01*
X104432250Y-93918000D01*
X103944750Y-93918000D01*
X103920858Y-93916826D01*
X103897197Y-93913316D01*
X103873993Y-93907504D01*
X103851471Y-93899446D01*
X103829847Y-93889218D01*
X103809330Y-93876921D01*
X103790117Y-93862671D01*
X103772393Y-93846607D01*
X103756329Y-93828883D01*
X103742079Y-93809670D01*
X103729782Y-93789153D01*
X103719554Y-93767529D01*
X103711496Y-93745007D01*
X103705684Y-93721803D01*
X103702174Y-93698142D01*
X103701000Y-93674250D01*
X103701000Y-92761750D01*
X103702174Y-92737858D01*
X103705684Y-92714197D01*
X103711496Y-92690993D01*
X103719554Y-92668471D01*
X103729782Y-92646847D01*
X103742079Y-92626330D01*
X103756329Y-92607117D01*
X103772393Y-92589393D01*
X103790117Y-92573329D01*
X103809330Y-92559079D01*
X103829847Y-92546782D01*
X103851471Y-92536554D01*
X103873993Y-92528496D01*
X103897197Y-92522684D01*
X103920858Y-92519174D01*
X103944750Y-92518000D01*
X104432250Y-92518000D01*
X104456142Y-92519174D01*
X104456142Y-92519174D01*
G37*
D12*
X104188500Y-93218000D03*
D11*
G36*
X102581142Y-90487174D02*
G01*
X102604803Y-90490684D01*
X102628007Y-90496496D01*
X102650529Y-90504554D01*
X102672153Y-90514782D01*
X102692670Y-90527079D01*
X102711883Y-90541329D01*
X102729607Y-90557393D01*
X102745671Y-90575117D01*
X102759921Y-90594330D01*
X102772218Y-90614847D01*
X102782446Y-90636471D01*
X102790504Y-90658993D01*
X102796316Y-90682197D01*
X102799826Y-90705858D01*
X102801000Y-90729750D01*
X102801000Y-91642250D01*
X102799826Y-91666142D01*
X102796316Y-91689803D01*
X102790504Y-91713007D01*
X102782446Y-91735529D01*
X102772218Y-91757153D01*
X102759921Y-91777670D01*
X102745671Y-91796883D01*
X102729607Y-91814607D01*
X102711883Y-91830671D01*
X102692670Y-91844921D01*
X102672153Y-91857218D01*
X102650529Y-91867446D01*
X102628007Y-91875504D01*
X102604803Y-91881316D01*
X102581142Y-91884826D01*
X102557250Y-91886000D01*
X102069750Y-91886000D01*
X102045858Y-91884826D01*
X102022197Y-91881316D01*
X101998993Y-91875504D01*
X101976471Y-91867446D01*
X101954847Y-91857218D01*
X101934330Y-91844921D01*
X101915117Y-91830671D01*
X101897393Y-91814607D01*
X101881329Y-91796883D01*
X101867079Y-91777670D01*
X101854782Y-91757153D01*
X101844554Y-91735529D01*
X101836496Y-91713007D01*
X101830684Y-91689803D01*
X101827174Y-91666142D01*
X101826000Y-91642250D01*
X101826000Y-90729750D01*
X101827174Y-90705858D01*
X101830684Y-90682197D01*
X101836496Y-90658993D01*
X101844554Y-90636471D01*
X101854782Y-90614847D01*
X101867079Y-90594330D01*
X101881329Y-90575117D01*
X101897393Y-90557393D01*
X101915117Y-90541329D01*
X101934330Y-90527079D01*
X101954847Y-90514782D01*
X101976471Y-90504554D01*
X101998993Y-90496496D01*
X102022197Y-90490684D01*
X102045858Y-90487174D01*
X102069750Y-90486000D01*
X102557250Y-90486000D01*
X102581142Y-90487174D01*
X102581142Y-90487174D01*
G37*
D12*
X102313500Y-91186000D03*
D11*
G36*
X104456142Y-90487174D02*
G01*
X104479803Y-90490684D01*
X104503007Y-90496496D01*
X104525529Y-90504554D01*
X104547153Y-90514782D01*
X104567670Y-90527079D01*
X104586883Y-90541329D01*
X104604607Y-90557393D01*
X104620671Y-90575117D01*
X104634921Y-90594330D01*
X104647218Y-90614847D01*
X104657446Y-90636471D01*
X104665504Y-90658993D01*
X104671316Y-90682197D01*
X104674826Y-90705858D01*
X104676000Y-90729750D01*
X104676000Y-91642250D01*
X104674826Y-91666142D01*
X104671316Y-91689803D01*
X104665504Y-91713007D01*
X104657446Y-91735529D01*
X104647218Y-91757153D01*
X104634921Y-91777670D01*
X104620671Y-91796883D01*
X104604607Y-91814607D01*
X104586883Y-91830671D01*
X104567670Y-91844921D01*
X104547153Y-91857218D01*
X104525529Y-91867446D01*
X104503007Y-91875504D01*
X104479803Y-91881316D01*
X104456142Y-91884826D01*
X104432250Y-91886000D01*
X103944750Y-91886000D01*
X103920858Y-91884826D01*
X103897197Y-91881316D01*
X103873993Y-91875504D01*
X103851471Y-91867446D01*
X103829847Y-91857218D01*
X103809330Y-91844921D01*
X103790117Y-91830671D01*
X103772393Y-91814607D01*
X103756329Y-91796883D01*
X103742079Y-91777670D01*
X103729782Y-91757153D01*
X103719554Y-91735529D01*
X103711496Y-91713007D01*
X103705684Y-91689803D01*
X103702174Y-91666142D01*
X103701000Y-91642250D01*
X103701000Y-90729750D01*
X103702174Y-90705858D01*
X103705684Y-90682197D01*
X103711496Y-90658993D01*
X103719554Y-90636471D01*
X103729782Y-90614847D01*
X103742079Y-90594330D01*
X103756329Y-90575117D01*
X103772393Y-90557393D01*
X103790117Y-90541329D01*
X103809330Y-90527079D01*
X103829847Y-90514782D01*
X103851471Y-90504554D01*
X103873993Y-90496496D01*
X103897197Y-90490684D01*
X103920858Y-90487174D01*
X103944750Y-90486000D01*
X104432250Y-90486000D01*
X104456142Y-90487174D01*
X104456142Y-90487174D01*
G37*
D12*
X104188500Y-91186000D03*
D11*
G36*
X221875230Y-181816008D02*
G01*
X221898891Y-181819518D01*
X221922095Y-181825330D01*
X221944617Y-181833388D01*
X221966241Y-181843616D01*
X221986758Y-181855913D01*
X222005971Y-181870163D01*
X222023695Y-181886227D01*
X222668930Y-182531462D01*
X222684994Y-182549186D01*
X222699244Y-182568399D01*
X222711541Y-182588916D01*
X222721769Y-182610540D01*
X222729827Y-182633062D01*
X222735639Y-182656266D01*
X222739149Y-182679927D01*
X222740323Y-182703819D01*
X222739149Y-182727711D01*
X222735639Y-182751372D01*
X222729827Y-182774576D01*
X222721769Y-182797098D01*
X222711541Y-182818722D01*
X222699244Y-182839239D01*
X222684994Y-182858452D01*
X222668930Y-182876176D01*
X222324215Y-183220891D01*
X222306491Y-183236955D01*
X222287278Y-183251205D01*
X222266761Y-183263502D01*
X222245137Y-183273730D01*
X222222615Y-183281788D01*
X222199411Y-183287600D01*
X222175750Y-183291110D01*
X222151858Y-183292284D01*
X222127966Y-183291110D01*
X222104305Y-183287600D01*
X222081101Y-183281788D01*
X222058579Y-183273730D01*
X222036955Y-183263502D01*
X222016438Y-183251205D01*
X221997225Y-183236955D01*
X221979501Y-183220891D01*
X221334266Y-182575656D01*
X221318202Y-182557932D01*
X221303952Y-182538719D01*
X221291655Y-182518202D01*
X221281427Y-182496578D01*
X221273369Y-182474056D01*
X221267557Y-182450852D01*
X221264047Y-182427191D01*
X221262873Y-182403299D01*
X221264047Y-182379407D01*
X221267557Y-182355746D01*
X221273369Y-182332542D01*
X221281427Y-182310020D01*
X221291655Y-182288396D01*
X221303952Y-182267879D01*
X221318202Y-182248666D01*
X221334266Y-182230942D01*
X221678981Y-181886227D01*
X221696705Y-181870163D01*
X221715918Y-181855913D01*
X221736435Y-181843616D01*
X221758059Y-181833388D01*
X221780581Y-181825330D01*
X221803785Y-181819518D01*
X221827446Y-181816008D01*
X221851338Y-181814834D01*
X221875230Y-181816008D01*
X221875230Y-181816008D01*
G37*
D12*
X222001598Y-182553559D03*
D11*
G36*
X220549404Y-183141834D02*
G01*
X220573065Y-183145344D01*
X220596269Y-183151156D01*
X220618791Y-183159214D01*
X220640415Y-183169442D01*
X220660932Y-183181739D01*
X220680145Y-183195989D01*
X220697869Y-183212053D01*
X221343104Y-183857288D01*
X221359168Y-183875012D01*
X221373418Y-183894225D01*
X221385715Y-183914742D01*
X221395943Y-183936366D01*
X221404001Y-183958888D01*
X221409813Y-183982092D01*
X221413323Y-184005753D01*
X221414497Y-184029645D01*
X221413323Y-184053537D01*
X221409813Y-184077198D01*
X221404001Y-184100402D01*
X221395943Y-184122924D01*
X221385715Y-184144548D01*
X221373418Y-184165065D01*
X221359168Y-184184278D01*
X221343104Y-184202002D01*
X220998389Y-184546717D01*
X220980665Y-184562781D01*
X220961452Y-184577031D01*
X220940935Y-184589328D01*
X220919311Y-184599556D01*
X220896789Y-184607614D01*
X220873585Y-184613426D01*
X220849924Y-184616936D01*
X220826032Y-184618110D01*
X220802140Y-184616936D01*
X220778479Y-184613426D01*
X220755275Y-184607614D01*
X220732753Y-184599556D01*
X220711129Y-184589328D01*
X220690612Y-184577031D01*
X220671399Y-184562781D01*
X220653675Y-184546717D01*
X220008440Y-183901482D01*
X219992376Y-183883758D01*
X219978126Y-183864545D01*
X219965829Y-183844028D01*
X219955601Y-183822404D01*
X219947543Y-183799882D01*
X219941731Y-183776678D01*
X219938221Y-183753017D01*
X219937047Y-183729125D01*
X219938221Y-183705233D01*
X219941731Y-183681572D01*
X219947543Y-183658368D01*
X219955601Y-183635846D01*
X219965829Y-183614222D01*
X219978126Y-183593705D01*
X219992376Y-183574492D01*
X220008440Y-183556768D01*
X220353155Y-183212053D01*
X220370879Y-183195989D01*
X220390092Y-183181739D01*
X220410609Y-183169442D01*
X220432233Y-183159214D01*
X220454755Y-183151156D01*
X220477959Y-183145344D01*
X220501620Y-183141834D01*
X220525512Y-183140660D01*
X220549404Y-183141834D01*
X220549404Y-183141834D01*
G37*
D12*
X220675772Y-183879385D03*
D11*
G36*
X97381142Y-90778174D02*
G01*
X97404803Y-90781684D01*
X97428007Y-90787496D01*
X97450529Y-90795554D01*
X97472153Y-90805782D01*
X97492670Y-90818079D01*
X97511883Y-90832329D01*
X97529607Y-90848393D01*
X97545671Y-90866117D01*
X97559921Y-90885330D01*
X97572218Y-90905847D01*
X97582446Y-90927471D01*
X97590504Y-90949993D01*
X97596316Y-90973197D01*
X97599826Y-90996858D01*
X97601000Y-91020750D01*
X97601000Y-91508250D01*
X97599826Y-91532142D01*
X97596316Y-91555803D01*
X97590504Y-91579007D01*
X97582446Y-91601529D01*
X97572218Y-91623153D01*
X97559921Y-91643670D01*
X97545671Y-91662883D01*
X97529607Y-91680607D01*
X97511883Y-91696671D01*
X97492670Y-91710921D01*
X97472153Y-91723218D01*
X97450529Y-91733446D01*
X97428007Y-91741504D01*
X97404803Y-91747316D01*
X97381142Y-91750826D01*
X97357250Y-91752000D01*
X96444750Y-91752000D01*
X96420858Y-91750826D01*
X96397197Y-91747316D01*
X96373993Y-91741504D01*
X96351471Y-91733446D01*
X96329847Y-91723218D01*
X96309330Y-91710921D01*
X96290117Y-91696671D01*
X96272393Y-91680607D01*
X96256329Y-91662883D01*
X96242079Y-91643670D01*
X96229782Y-91623153D01*
X96219554Y-91601529D01*
X96211496Y-91579007D01*
X96205684Y-91555803D01*
X96202174Y-91532142D01*
X96201000Y-91508250D01*
X96201000Y-91020750D01*
X96202174Y-90996858D01*
X96205684Y-90973197D01*
X96211496Y-90949993D01*
X96219554Y-90927471D01*
X96229782Y-90905847D01*
X96242079Y-90885330D01*
X96256329Y-90866117D01*
X96272393Y-90848393D01*
X96290117Y-90832329D01*
X96309330Y-90818079D01*
X96329847Y-90805782D01*
X96351471Y-90795554D01*
X96373993Y-90787496D01*
X96397197Y-90781684D01*
X96420858Y-90778174D01*
X96444750Y-90777000D01*
X97357250Y-90777000D01*
X97381142Y-90778174D01*
X97381142Y-90778174D01*
G37*
D12*
X96901000Y-91264500D03*
D11*
G36*
X97381142Y-92653174D02*
G01*
X97404803Y-92656684D01*
X97428007Y-92662496D01*
X97450529Y-92670554D01*
X97472153Y-92680782D01*
X97492670Y-92693079D01*
X97511883Y-92707329D01*
X97529607Y-92723393D01*
X97545671Y-92741117D01*
X97559921Y-92760330D01*
X97572218Y-92780847D01*
X97582446Y-92802471D01*
X97590504Y-92824993D01*
X97596316Y-92848197D01*
X97599826Y-92871858D01*
X97601000Y-92895750D01*
X97601000Y-93383250D01*
X97599826Y-93407142D01*
X97596316Y-93430803D01*
X97590504Y-93454007D01*
X97582446Y-93476529D01*
X97572218Y-93498153D01*
X97559921Y-93518670D01*
X97545671Y-93537883D01*
X97529607Y-93555607D01*
X97511883Y-93571671D01*
X97492670Y-93585921D01*
X97472153Y-93598218D01*
X97450529Y-93608446D01*
X97428007Y-93616504D01*
X97404803Y-93622316D01*
X97381142Y-93625826D01*
X97357250Y-93627000D01*
X96444750Y-93627000D01*
X96420858Y-93625826D01*
X96397197Y-93622316D01*
X96373993Y-93616504D01*
X96351471Y-93608446D01*
X96329847Y-93598218D01*
X96309330Y-93585921D01*
X96290117Y-93571671D01*
X96272393Y-93555607D01*
X96256329Y-93537883D01*
X96242079Y-93518670D01*
X96229782Y-93498153D01*
X96219554Y-93476529D01*
X96211496Y-93454007D01*
X96205684Y-93430803D01*
X96202174Y-93407142D01*
X96201000Y-93383250D01*
X96201000Y-92895750D01*
X96202174Y-92871858D01*
X96205684Y-92848197D01*
X96211496Y-92824993D01*
X96219554Y-92802471D01*
X96229782Y-92780847D01*
X96242079Y-92760330D01*
X96256329Y-92741117D01*
X96272393Y-92723393D01*
X96290117Y-92707329D01*
X96309330Y-92693079D01*
X96329847Y-92680782D01*
X96351471Y-92670554D01*
X96373993Y-92662496D01*
X96397197Y-92656684D01*
X96420858Y-92653174D01*
X96444750Y-92652000D01*
X97357250Y-92652000D01*
X97381142Y-92653174D01*
X97381142Y-92653174D01*
G37*
D12*
X96901000Y-93139500D03*
D11*
G36*
X99413142Y-90778174D02*
G01*
X99436803Y-90781684D01*
X99460007Y-90787496D01*
X99482529Y-90795554D01*
X99504153Y-90805782D01*
X99524670Y-90818079D01*
X99543883Y-90832329D01*
X99561607Y-90848393D01*
X99577671Y-90866117D01*
X99591921Y-90885330D01*
X99604218Y-90905847D01*
X99614446Y-90927471D01*
X99622504Y-90949993D01*
X99628316Y-90973197D01*
X99631826Y-90996858D01*
X99633000Y-91020750D01*
X99633000Y-91508250D01*
X99631826Y-91532142D01*
X99628316Y-91555803D01*
X99622504Y-91579007D01*
X99614446Y-91601529D01*
X99604218Y-91623153D01*
X99591921Y-91643670D01*
X99577671Y-91662883D01*
X99561607Y-91680607D01*
X99543883Y-91696671D01*
X99524670Y-91710921D01*
X99504153Y-91723218D01*
X99482529Y-91733446D01*
X99460007Y-91741504D01*
X99436803Y-91747316D01*
X99413142Y-91750826D01*
X99389250Y-91752000D01*
X98476750Y-91752000D01*
X98452858Y-91750826D01*
X98429197Y-91747316D01*
X98405993Y-91741504D01*
X98383471Y-91733446D01*
X98361847Y-91723218D01*
X98341330Y-91710921D01*
X98322117Y-91696671D01*
X98304393Y-91680607D01*
X98288329Y-91662883D01*
X98274079Y-91643670D01*
X98261782Y-91623153D01*
X98251554Y-91601529D01*
X98243496Y-91579007D01*
X98237684Y-91555803D01*
X98234174Y-91532142D01*
X98233000Y-91508250D01*
X98233000Y-91020750D01*
X98234174Y-90996858D01*
X98237684Y-90973197D01*
X98243496Y-90949993D01*
X98251554Y-90927471D01*
X98261782Y-90905847D01*
X98274079Y-90885330D01*
X98288329Y-90866117D01*
X98304393Y-90848393D01*
X98322117Y-90832329D01*
X98341330Y-90818079D01*
X98361847Y-90805782D01*
X98383471Y-90795554D01*
X98405993Y-90787496D01*
X98429197Y-90781684D01*
X98452858Y-90778174D01*
X98476750Y-90777000D01*
X99389250Y-90777000D01*
X99413142Y-90778174D01*
X99413142Y-90778174D01*
G37*
D12*
X98933000Y-91264500D03*
D11*
G36*
X99413142Y-92653174D02*
G01*
X99436803Y-92656684D01*
X99460007Y-92662496D01*
X99482529Y-92670554D01*
X99504153Y-92680782D01*
X99524670Y-92693079D01*
X99543883Y-92707329D01*
X99561607Y-92723393D01*
X99577671Y-92741117D01*
X99591921Y-92760330D01*
X99604218Y-92780847D01*
X99614446Y-92802471D01*
X99622504Y-92824993D01*
X99628316Y-92848197D01*
X99631826Y-92871858D01*
X99633000Y-92895750D01*
X99633000Y-93383250D01*
X99631826Y-93407142D01*
X99628316Y-93430803D01*
X99622504Y-93454007D01*
X99614446Y-93476529D01*
X99604218Y-93498153D01*
X99591921Y-93518670D01*
X99577671Y-93537883D01*
X99561607Y-93555607D01*
X99543883Y-93571671D01*
X99524670Y-93585921D01*
X99504153Y-93598218D01*
X99482529Y-93608446D01*
X99460007Y-93616504D01*
X99436803Y-93622316D01*
X99413142Y-93625826D01*
X99389250Y-93627000D01*
X98476750Y-93627000D01*
X98452858Y-93625826D01*
X98429197Y-93622316D01*
X98405993Y-93616504D01*
X98383471Y-93608446D01*
X98361847Y-93598218D01*
X98341330Y-93585921D01*
X98322117Y-93571671D01*
X98304393Y-93555607D01*
X98288329Y-93537883D01*
X98274079Y-93518670D01*
X98261782Y-93498153D01*
X98251554Y-93476529D01*
X98243496Y-93454007D01*
X98237684Y-93430803D01*
X98234174Y-93407142D01*
X98233000Y-93383250D01*
X98233000Y-92895750D01*
X98234174Y-92871858D01*
X98237684Y-92848197D01*
X98243496Y-92824993D01*
X98251554Y-92802471D01*
X98261782Y-92780847D01*
X98274079Y-92760330D01*
X98288329Y-92741117D01*
X98304393Y-92723393D01*
X98322117Y-92707329D01*
X98341330Y-92693079D01*
X98361847Y-92680782D01*
X98383471Y-92670554D01*
X98405993Y-92662496D01*
X98429197Y-92656684D01*
X98452858Y-92653174D01*
X98476750Y-92652000D01*
X99389250Y-92652000D01*
X99413142Y-92653174D01*
X99413142Y-92653174D01*
G37*
D12*
X98933000Y-93139500D03*
D11*
G36*
X243170142Y-182562174D02*
G01*
X243193803Y-182565684D01*
X243217007Y-182571496D01*
X243239529Y-182579554D01*
X243261153Y-182589782D01*
X243281670Y-182602079D01*
X243300883Y-182616329D01*
X243318607Y-182632393D01*
X243334671Y-182650117D01*
X243348921Y-182669330D01*
X243361218Y-182689847D01*
X243371446Y-182711471D01*
X243379504Y-182733993D01*
X243385316Y-182757197D01*
X243388826Y-182780858D01*
X243390000Y-182804750D01*
X243390000Y-183717250D01*
X243388826Y-183741142D01*
X243385316Y-183764803D01*
X243379504Y-183788007D01*
X243371446Y-183810529D01*
X243361218Y-183832153D01*
X243348921Y-183852670D01*
X243334671Y-183871883D01*
X243318607Y-183889607D01*
X243300883Y-183905671D01*
X243281670Y-183919921D01*
X243261153Y-183932218D01*
X243239529Y-183942446D01*
X243217007Y-183950504D01*
X243193803Y-183956316D01*
X243170142Y-183959826D01*
X243146250Y-183961000D01*
X242658750Y-183961000D01*
X242634858Y-183959826D01*
X242611197Y-183956316D01*
X242587993Y-183950504D01*
X242565471Y-183942446D01*
X242543847Y-183932218D01*
X242523330Y-183919921D01*
X242504117Y-183905671D01*
X242486393Y-183889607D01*
X242470329Y-183871883D01*
X242456079Y-183852670D01*
X242443782Y-183832153D01*
X242433554Y-183810529D01*
X242425496Y-183788007D01*
X242419684Y-183764803D01*
X242416174Y-183741142D01*
X242415000Y-183717250D01*
X242415000Y-182804750D01*
X242416174Y-182780858D01*
X242419684Y-182757197D01*
X242425496Y-182733993D01*
X242433554Y-182711471D01*
X242443782Y-182689847D01*
X242456079Y-182669330D01*
X242470329Y-182650117D01*
X242486393Y-182632393D01*
X242504117Y-182616329D01*
X242523330Y-182602079D01*
X242543847Y-182589782D01*
X242565471Y-182579554D01*
X242587993Y-182571496D01*
X242611197Y-182565684D01*
X242634858Y-182562174D01*
X242658750Y-182561000D01*
X243146250Y-182561000D01*
X243170142Y-182562174D01*
X243170142Y-182562174D01*
G37*
D12*
X242902500Y-183261000D03*
D11*
G36*
X245045142Y-182562174D02*
G01*
X245068803Y-182565684D01*
X245092007Y-182571496D01*
X245114529Y-182579554D01*
X245136153Y-182589782D01*
X245156670Y-182602079D01*
X245175883Y-182616329D01*
X245193607Y-182632393D01*
X245209671Y-182650117D01*
X245223921Y-182669330D01*
X245236218Y-182689847D01*
X245246446Y-182711471D01*
X245254504Y-182733993D01*
X245260316Y-182757197D01*
X245263826Y-182780858D01*
X245265000Y-182804750D01*
X245265000Y-183717250D01*
X245263826Y-183741142D01*
X245260316Y-183764803D01*
X245254504Y-183788007D01*
X245246446Y-183810529D01*
X245236218Y-183832153D01*
X245223921Y-183852670D01*
X245209671Y-183871883D01*
X245193607Y-183889607D01*
X245175883Y-183905671D01*
X245156670Y-183919921D01*
X245136153Y-183932218D01*
X245114529Y-183942446D01*
X245092007Y-183950504D01*
X245068803Y-183956316D01*
X245045142Y-183959826D01*
X245021250Y-183961000D01*
X244533750Y-183961000D01*
X244509858Y-183959826D01*
X244486197Y-183956316D01*
X244462993Y-183950504D01*
X244440471Y-183942446D01*
X244418847Y-183932218D01*
X244398330Y-183919921D01*
X244379117Y-183905671D01*
X244361393Y-183889607D01*
X244345329Y-183871883D01*
X244331079Y-183852670D01*
X244318782Y-183832153D01*
X244308554Y-183810529D01*
X244300496Y-183788007D01*
X244294684Y-183764803D01*
X244291174Y-183741142D01*
X244290000Y-183717250D01*
X244290000Y-182804750D01*
X244291174Y-182780858D01*
X244294684Y-182757197D01*
X244300496Y-182733993D01*
X244308554Y-182711471D01*
X244318782Y-182689847D01*
X244331079Y-182669330D01*
X244345329Y-182650117D01*
X244361393Y-182632393D01*
X244379117Y-182616329D01*
X244398330Y-182602079D01*
X244418847Y-182589782D01*
X244440471Y-182579554D01*
X244462993Y-182571496D01*
X244486197Y-182565684D01*
X244509858Y-182562174D01*
X244533750Y-182561000D01*
X245021250Y-182561000D01*
X245045142Y-182562174D01*
X245045142Y-182562174D01*
G37*
D12*
X244777500Y-183261000D03*
D13*
X97667000Y-86096800D03*
X98167000Y-86096800D03*
X98667000Y-86096800D03*
X97167000Y-86096800D03*
X99167000Y-86096800D03*
X96667000Y-86096800D03*
X99667000Y-86096800D03*
X96167000Y-86096800D03*
D14*
X95467000Y-86096800D03*
X100367000Y-86096800D03*
X94692000Y-86096800D03*
X101142000Y-86096800D03*
D11*
G36*
X95349142Y-90778174D02*
G01*
X95372803Y-90781684D01*
X95396007Y-90787496D01*
X95418529Y-90795554D01*
X95440153Y-90805782D01*
X95460670Y-90818079D01*
X95479883Y-90832329D01*
X95497607Y-90848393D01*
X95513671Y-90866117D01*
X95527921Y-90885330D01*
X95540218Y-90905847D01*
X95550446Y-90927471D01*
X95558504Y-90949993D01*
X95564316Y-90973197D01*
X95567826Y-90996858D01*
X95569000Y-91020750D01*
X95569000Y-91508250D01*
X95567826Y-91532142D01*
X95564316Y-91555803D01*
X95558504Y-91579007D01*
X95550446Y-91601529D01*
X95540218Y-91623153D01*
X95527921Y-91643670D01*
X95513671Y-91662883D01*
X95497607Y-91680607D01*
X95479883Y-91696671D01*
X95460670Y-91710921D01*
X95440153Y-91723218D01*
X95418529Y-91733446D01*
X95396007Y-91741504D01*
X95372803Y-91747316D01*
X95349142Y-91750826D01*
X95325250Y-91752000D01*
X94412750Y-91752000D01*
X94388858Y-91750826D01*
X94365197Y-91747316D01*
X94341993Y-91741504D01*
X94319471Y-91733446D01*
X94297847Y-91723218D01*
X94277330Y-91710921D01*
X94258117Y-91696671D01*
X94240393Y-91680607D01*
X94224329Y-91662883D01*
X94210079Y-91643670D01*
X94197782Y-91623153D01*
X94187554Y-91601529D01*
X94179496Y-91579007D01*
X94173684Y-91555803D01*
X94170174Y-91532142D01*
X94169000Y-91508250D01*
X94169000Y-91020750D01*
X94170174Y-90996858D01*
X94173684Y-90973197D01*
X94179496Y-90949993D01*
X94187554Y-90927471D01*
X94197782Y-90905847D01*
X94210079Y-90885330D01*
X94224329Y-90866117D01*
X94240393Y-90848393D01*
X94258117Y-90832329D01*
X94277330Y-90818079D01*
X94297847Y-90805782D01*
X94319471Y-90795554D01*
X94341993Y-90787496D01*
X94365197Y-90781684D01*
X94388858Y-90778174D01*
X94412750Y-90777000D01*
X95325250Y-90777000D01*
X95349142Y-90778174D01*
X95349142Y-90778174D01*
G37*
D12*
X94869000Y-91264500D03*
D11*
G36*
X95349142Y-92653174D02*
G01*
X95372803Y-92656684D01*
X95396007Y-92662496D01*
X95418529Y-92670554D01*
X95440153Y-92680782D01*
X95460670Y-92693079D01*
X95479883Y-92707329D01*
X95497607Y-92723393D01*
X95513671Y-92741117D01*
X95527921Y-92760330D01*
X95540218Y-92780847D01*
X95550446Y-92802471D01*
X95558504Y-92824993D01*
X95564316Y-92848197D01*
X95567826Y-92871858D01*
X95569000Y-92895750D01*
X95569000Y-93383250D01*
X95567826Y-93407142D01*
X95564316Y-93430803D01*
X95558504Y-93454007D01*
X95550446Y-93476529D01*
X95540218Y-93498153D01*
X95527921Y-93518670D01*
X95513671Y-93537883D01*
X95497607Y-93555607D01*
X95479883Y-93571671D01*
X95460670Y-93585921D01*
X95440153Y-93598218D01*
X95418529Y-93608446D01*
X95396007Y-93616504D01*
X95372803Y-93622316D01*
X95349142Y-93625826D01*
X95325250Y-93627000D01*
X94412750Y-93627000D01*
X94388858Y-93625826D01*
X94365197Y-93622316D01*
X94341993Y-93616504D01*
X94319471Y-93608446D01*
X94297847Y-93598218D01*
X94277330Y-93585921D01*
X94258117Y-93571671D01*
X94240393Y-93555607D01*
X94224329Y-93537883D01*
X94210079Y-93518670D01*
X94197782Y-93498153D01*
X94187554Y-93476529D01*
X94179496Y-93454007D01*
X94173684Y-93430803D01*
X94170174Y-93407142D01*
X94169000Y-93383250D01*
X94169000Y-92895750D01*
X94170174Y-92871858D01*
X94173684Y-92848197D01*
X94179496Y-92824993D01*
X94187554Y-92802471D01*
X94197782Y-92780847D01*
X94210079Y-92760330D01*
X94224329Y-92741117D01*
X94240393Y-92723393D01*
X94258117Y-92707329D01*
X94277330Y-92693079D01*
X94297847Y-92680782D01*
X94319471Y-92670554D01*
X94341993Y-92662496D01*
X94365197Y-92656684D01*
X94388858Y-92653174D01*
X94412750Y-92652000D01*
X95325250Y-92652000D01*
X95349142Y-92653174D01*
X95349142Y-92653174D01*
G37*
D12*
X94869000Y-93139500D03*
D10*
X196850000Y-187262500D03*
X196850000Y-190562500D03*
X339725000Y-187262500D03*
X339725000Y-190562500D03*
X320675000Y-187200000D03*
X320675000Y-190500000D03*
X301625000Y-187262500D03*
X301625000Y-190562500D03*
X282575000Y-187262500D03*
X282575000Y-190562500D03*
X263525000Y-187262500D03*
X263525000Y-190562500D03*
X130175000Y-187262500D03*
X130175000Y-190562500D03*
X111125000Y-187262500D03*
X111125000Y-190562500D03*
X92075000Y-187262500D03*
X92075000Y-190562500D03*
X339725000Y-168212500D03*
X339725000Y-171512500D03*
X320675000Y-168212500D03*
X320675000Y-171512500D03*
X301625000Y-168212500D03*
X301625000Y-171512500D03*
X282575000Y-168212500D03*
X282575000Y-171512500D03*
X263525000Y-168212500D03*
X263525000Y-171512500D03*
X244475000Y-168212500D03*
X244475000Y-171512500D03*
X225425000Y-168212500D03*
X225425000Y-171512500D03*
X206375000Y-168212500D03*
X206375000Y-171512500D03*
X187325000Y-168212500D03*
X187325000Y-171512500D03*
X168275000Y-168212500D03*
X168275000Y-171512500D03*
X149225000Y-168212500D03*
X149225000Y-171512500D03*
X130175000Y-168212500D03*
X130175000Y-171512500D03*
X111125000Y-168212500D03*
X111125000Y-171512500D03*
X92075000Y-168212500D03*
X92075000Y-171512500D03*
X330200000Y-149162500D03*
X330200000Y-152462500D03*
X301625000Y-149162500D03*
X301625000Y-152462500D03*
X282575000Y-149162500D03*
X282575000Y-152462500D03*
X263525000Y-149162500D03*
X263525000Y-152462500D03*
X244475000Y-149162500D03*
X244475000Y-152462500D03*
X225425000Y-149225000D03*
X225425000Y-152525000D03*
X206375000Y-149162500D03*
X206375000Y-152462500D03*
X187325000Y-149162500D03*
X187325000Y-152462500D03*
X168275000Y-149162500D03*
X168275000Y-152462500D03*
X149225000Y-149162500D03*
X149225000Y-152462500D03*
X130175000Y-149162500D03*
X130175000Y-152462500D03*
X111125000Y-152462500D03*
X111125000Y-149162500D03*
X92075000Y-149162500D03*
X92075000Y-152462500D03*
X339725000Y-130112500D03*
X339725000Y-133412500D03*
X320675000Y-130112500D03*
X320675000Y-133412500D03*
X301625000Y-130112500D03*
X301625000Y-133412500D03*
X282575000Y-130112500D03*
X282575000Y-133412500D03*
X263525000Y-130112500D03*
X263525000Y-133412500D03*
X244475000Y-130112500D03*
X244475000Y-133412500D03*
X225425000Y-130112500D03*
X225425000Y-133412500D03*
X206375000Y-130112500D03*
X206375000Y-133412500D03*
X187325000Y-130112500D03*
X187325000Y-133412500D03*
X168275000Y-130112500D03*
X168275000Y-133412500D03*
X149225000Y-130112500D03*
X149225000Y-133412500D03*
X130175000Y-130112500D03*
X130175000Y-133412500D03*
X111125000Y-130112500D03*
X111125000Y-133412500D03*
X92075000Y-130112500D03*
X92075000Y-133412500D03*
X339725000Y-111062500D03*
X339725000Y-114362500D03*
X320675000Y-111062500D03*
X320675000Y-114362500D03*
X301625000Y-111062500D03*
X301625000Y-114362500D03*
X282575000Y-111062500D03*
X282575000Y-114362500D03*
X263525000Y-111062500D03*
X263525000Y-114362500D03*
X244475000Y-111062500D03*
X244475000Y-114362500D03*
X225425000Y-111062500D03*
X225425000Y-114362500D03*
X206375000Y-111062500D03*
X206375000Y-114362500D03*
X187325000Y-111062500D03*
X187325000Y-114362500D03*
X168275000Y-111062500D03*
X168275000Y-114362500D03*
X149225000Y-111062500D03*
X149225000Y-114362500D03*
X130175000Y-111062500D03*
X130175000Y-114362500D03*
X111125000Y-111062500D03*
X111125000Y-114362500D03*
X92075000Y-111062500D03*
X92075000Y-114362500D03*
X339725000Y-92012500D03*
X339725000Y-95312500D03*
X320675000Y-92012500D03*
X320675000Y-95312500D03*
X301625000Y-92012500D03*
X301625000Y-95312500D03*
X282575000Y-92012500D03*
X282575000Y-95312500D03*
X263525000Y-92012500D03*
X263525000Y-95312500D03*
X244475000Y-92012500D03*
X244475000Y-95312500D03*
X225425000Y-92012500D03*
X225425000Y-95312500D03*
X206375000Y-92012500D03*
X206375000Y-95312500D03*
X187325000Y-92012500D03*
X187325000Y-95312500D03*
X168275000Y-92012500D03*
X168275000Y-95312500D03*
X149225000Y-92012500D03*
X149225000Y-95312500D03*
X130175000Y-92012500D03*
X130175000Y-95312500D03*
X111125000Y-92012500D03*
X111125000Y-95312500D03*
D15*
X237771700Y-190018746D03*
D11*
G36*
X237700989Y-190937985D02*
G01*
X236852461Y-190089457D01*
X237842411Y-189099507D01*
X238690939Y-189948035D01*
X237700989Y-190937985D01*
X237700989Y-190937985D01*
G37*
D15*
X239327335Y-188463111D03*
D11*
G36*
X239256624Y-189382350D02*
G01*
X238408096Y-188533822D01*
X239398046Y-187543872D01*
X240246574Y-188392400D01*
X239256624Y-189382350D01*
X239256624Y-189382350D01*
G37*
D15*
X238125254Y-187261030D03*
D11*
G36*
X238054543Y-188180269D02*
G01*
X237206015Y-187331741D01*
X238195965Y-186341791D01*
X239044493Y-187190319D01*
X238054543Y-188180269D01*
X238054543Y-188180269D01*
G37*
D15*
X236569619Y-188816665D03*
D11*
G36*
X236498908Y-189735904D02*
G01*
X235650380Y-188887376D01*
X236640330Y-187897426D01*
X237488858Y-188745954D01*
X236498908Y-189735904D01*
X236498908Y-189735904D01*
G37*
D16*
X231498573Y-175257455D03*
D11*
G36*
X231834449Y-174532671D02*
G01*
X232223357Y-174921579D01*
X231162697Y-175982239D01*
X230773789Y-175593331D01*
X231834449Y-174532671D01*
X231834449Y-174532671D01*
G37*
D16*
X232064258Y-175823141D03*
D11*
G36*
X232400134Y-175098357D02*
G01*
X232789042Y-175487265D01*
X231728382Y-176547925D01*
X231339474Y-176159017D01*
X232400134Y-175098357D01*
X232400134Y-175098357D01*
G37*
D16*
X232629943Y-176388826D03*
D11*
G36*
X232965819Y-175664042D02*
G01*
X233354727Y-176052950D01*
X232294067Y-177113610D01*
X231905159Y-176724702D01*
X232965819Y-175664042D01*
X232965819Y-175664042D01*
G37*
D16*
X233195629Y-176954511D03*
D11*
G36*
X233531505Y-176229727D02*
G01*
X233920413Y-176618635D01*
X232859753Y-177679295D01*
X232470845Y-177290387D01*
X233531505Y-176229727D01*
X233531505Y-176229727D01*
G37*
D16*
X233761314Y-177520197D03*
D11*
G36*
X234097190Y-176795413D02*
G01*
X234486098Y-177184321D01*
X233425438Y-178244981D01*
X233036530Y-177856073D01*
X234097190Y-176795413D01*
X234097190Y-176795413D01*
G37*
D16*
X234327000Y-178085882D03*
D11*
G36*
X234662876Y-177361098D02*
G01*
X235051784Y-177750006D01*
X233991124Y-178810666D01*
X233602216Y-178421758D01*
X234662876Y-177361098D01*
X234662876Y-177361098D01*
G37*
D16*
X234892685Y-178651568D03*
D11*
G36*
X235228561Y-177926784D02*
G01*
X235617469Y-178315692D01*
X234556809Y-179376352D01*
X234167901Y-178987444D01*
X235228561Y-177926784D01*
X235228561Y-177926784D01*
G37*
D16*
X235458371Y-179217253D03*
D11*
G36*
X235794247Y-178492469D02*
G01*
X236183155Y-178881377D01*
X235122495Y-179942037D01*
X234733587Y-179553129D01*
X235794247Y-178492469D01*
X235794247Y-178492469D01*
G37*
D16*
X236024056Y-179782939D03*
D11*
G36*
X236359932Y-179058155D02*
G01*
X236748840Y-179447063D01*
X235688180Y-180507723D01*
X235299272Y-180118815D01*
X236359932Y-179058155D01*
X236359932Y-179058155D01*
G37*
D16*
X236589741Y-180348624D03*
D11*
G36*
X236925617Y-179623840D02*
G01*
X237314525Y-180012748D01*
X236253865Y-181073408D01*
X235864957Y-180684500D01*
X236925617Y-179623840D01*
X236925617Y-179623840D01*
G37*
D16*
X237155427Y-180914309D03*
D11*
G36*
X237491303Y-180189525D02*
G01*
X237880211Y-180578433D01*
X236819551Y-181639093D01*
X236430643Y-181250185D01*
X237491303Y-180189525D01*
X237491303Y-180189525D01*
G37*
D16*
X237155427Y-183318473D03*
D11*
G36*
X237880211Y-183654349D02*
G01*
X237491303Y-184043257D01*
X236430643Y-182982597D01*
X236819551Y-182593689D01*
X237880211Y-183654349D01*
X237880211Y-183654349D01*
G37*
D16*
X236589741Y-183884158D03*
D11*
G36*
X237314525Y-184220034D02*
G01*
X236925617Y-184608942D01*
X235864957Y-183548282D01*
X236253865Y-183159374D01*
X237314525Y-184220034D01*
X237314525Y-184220034D01*
G37*
D16*
X236024056Y-184449843D03*
D11*
G36*
X236748840Y-184785719D02*
G01*
X236359932Y-185174627D01*
X235299272Y-184113967D01*
X235688180Y-183725059D01*
X236748840Y-184785719D01*
X236748840Y-184785719D01*
G37*
D16*
X235458371Y-185015529D03*
D11*
G36*
X236183155Y-185351405D02*
G01*
X235794247Y-185740313D01*
X234733587Y-184679653D01*
X235122495Y-184290745D01*
X236183155Y-185351405D01*
X236183155Y-185351405D01*
G37*
D16*
X234892685Y-185581214D03*
D11*
G36*
X235617469Y-185917090D02*
G01*
X235228561Y-186305998D01*
X234167901Y-185245338D01*
X234556809Y-184856430D01*
X235617469Y-185917090D01*
X235617469Y-185917090D01*
G37*
D16*
X234327000Y-186146900D03*
D11*
G36*
X235051784Y-186482776D02*
G01*
X234662876Y-186871684D01*
X233602216Y-185811024D01*
X233991124Y-185422116D01*
X235051784Y-186482776D01*
X235051784Y-186482776D01*
G37*
D16*
X233761314Y-186712585D03*
D11*
G36*
X234486098Y-187048461D02*
G01*
X234097190Y-187437369D01*
X233036530Y-186376709D01*
X233425438Y-185987801D01*
X234486098Y-187048461D01*
X234486098Y-187048461D01*
G37*
D16*
X233195629Y-187278271D03*
D11*
G36*
X233920413Y-187614147D02*
G01*
X233531505Y-188003055D01*
X232470845Y-186942395D01*
X232859753Y-186553487D01*
X233920413Y-187614147D01*
X233920413Y-187614147D01*
G37*
D16*
X232629943Y-187843956D03*
D11*
G36*
X233354727Y-188179832D02*
G01*
X232965819Y-188568740D01*
X231905159Y-187508080D01*
X232294067Y-187119172D01*
X233354727Y-188179832D01*
X233354727Y-188179832D01*
G37*
D16*
X232064258Y-188409641D03*
D11*
G36*
X232789042Y-188745517D02*
G01*
X232400134Y-189134425D01*
X231339474Y-188073765D01*
X231728382Y-187684857D01*
X232789042Y-188745517D01*
X232789042Y-188745517D01*
G37*
D16*
X231498573Y-188975327D03*
D11*
G36*
X232223357Y-189311203D02*
G01*
X231834449Y-189700111D01*
X230773789Y-188639451D01*
X231162697Y-188250543D01*
X232223357Y-189311203D01*
X232223357Y-189311203D01*
G37*
D16*
X229094409Y-188975327D03*
D11*
G36*
X229430285Y-188250543D02*
G01*
X229819193Y-188639451D01*
X228758533Y-189700111D01*
X228369625Y-189311203D01*
X229430285Y-188250543D01*
X229430285Y-188250543D01*
G37*
D16*
X228528724Y-188409641D03*
D11*
G36*
X228864600Y-187684857D02*
G01*
X229253508Y-188073765D01*
X228192848Y-189134425D01*
X227803940Y-188745517D01*
X228864600Y-187684857D01*
X228864600Y-187684857D01*
G37*
D16*
X227963039Y-187843956D03*
D11*
G36*
X228298915Y-187119172D02*
G01*
X228687823Y-187508080D01*
X227627163Y-188568740D01*
X227238255Y-188179832D01*
X228298915Y-187119172D01*
X228298915Y-187119172D01*
G37*
D16*
X227397353Y-187278271D03*
D11*
G36*
X227733229Y-186553487D02*
G01*
X228122137Y-186942395D01*
X227061477Y-188003055D01*
X226672569Y-187614147D01*
X227733229Y-186553487D01*
X227733229Y-186553487D01*
G37*
D16*
X226831668Y-186712585D03*
D11*
G36*
X227167544Y-185987801D02*
G01*
X227556452Y-186376709D01*
X226495792Y-187437369D01*
X226106884Y-187048461D01*
X227167544Y-185987801D01*
X227167544Y-185987801D01*
G37*
D16*
X226265982Y-186146900D03*
D11*
G36*
X226601858Y-185422116D02*
G01*
X226990766Y-185811024D01*
X225930106Y-186871684D01*
X225541198Y-186482776D01*
X226601858Y-185422116D01*
X226601858Y-185422116D01*
G37*
D16*
X225700297Y-185581214D03*
D11*
G36*
X226036173Y-184856430D02*
G01*
X226425081Y-185245338D01*
X225364421Y-186305998D01*
X224975513Y-185917090D01*
X226036173Y-184856430D01*
X226036173Y-184856430D01*
G37*
D16*
X225134611Y-185015529D03*
D11*
G36*
X225470487Y-184290745D02*
G01*
X225859395Y-184679653D01*
X224798735Y-185740313D01*
X224409827Y-185351405D01*
X225470487Y-184290745D01*
X225470487Y-184290745D01*
G37*
D16*
X224568926Y-184449843D03*
D11*
G36*
X224904802Y-183725059D02*
G01*
X225293710Y-184113967D01*
X224233050Y-185174627D01*
X223844142Y-184785719D01*
X224904802Y-183725059D01*
X224904802Y-183725059D01*
G37*
D16*
X224003241Y-183884158D03*
D11*
G36*
X224339117Y-183159374D02*
G01*
X224728025Y-183548282D01*
X223667365Y-184608942D01*
X223278457Y-184220034D01*
X224339117Y-183159374D01*
X224339117Y-183159374D01*
G37*
D16*
X223437555Y-183318473D03*
D11*
G36*
X223773431Y-182593689D02*
G01*
X224162339Y-182982597D01*
X223101679Y-184043257D01*
X222712771Y-183654349D01*
X223773431Y-182593689D01*
X223773431Y-182593689D01*
G37*
D16*
X223437555Y-180914309D03*
D11*
G36*
X224162339Y-181250185D02*
G01*
X223773431Y-181639093D01*
X222712771Y-180578433D01*
X223101679Y-180189525D01*
X224162339Y-181250185D01*
X224162339Y-181250185D01*
G37*
D16*
X224003241Y-180348624D03*
D11*
G36*
X224728025Y-180684500D02*
G01*
X224339117Y-181073408D01*
X223278457Y-180012748D01*
X223667365Y-179623840D01*
X224728025Y-180684500D01*
X224728025Y-180684500D01*
G37*
D16*
X224568926Y-179782939D03*
D11*
G36*
X225293710Y-180118815D02*
G01*
X224904802Y-180507723D01*
X223844142Y-179447063D01*
X224233050Y-179058155D01*
X225293710Y-180118815D01*
X225293710Y-180118815D01*
G37*
D16*
X225134611Y-179217253D03*
D11*
G36*
X225859395Y-179553129D02*
G01*
X225470487Y-179942037D01*
X224409827Y-178881377D01*
X224798735Y-178492469D01*
X225859395Y-179553129D01*
X225859395Y-179553129D01*
G37*
D16*
X225700297Y-178651568D03*
D11*
G36*
X226425081Y-178987444D02*
G01*
X226036173Y-179376352D01*
X224975513Y-178315692D01*
X225364421Y-177926784D01*
X226425081Y-178987444D01*
X226425081Y-178987444D01*
G37*
D16*
X226265982Y-178085882D03*
D11*
G36*
X226990766Y-178421758D02*
G01*
X226601858Y-178810666D01*
X225541198Y-177750006D01*
X225930106Y-177361098D01*
X226990766Y-178421758D01*
X226990766Y-178421758D01*
G37*
D16*
X226831668Y-177520197D03*
D11*
G36*
X227556452Y-177856073D02*
G01*
X227167544Y-178244981D01*
X226106884Y-177184321D01*
X226495792Y-176795413D01*
X227556452Y-177856073D01*
X227556452Y-177856073D01*
G37*
D16*
X227397353Y-176954511D03*
D11*
G36*
X228122137Y-177290387D02*
G01*
X227733229Y-177679295D01*
X226672569Y-176618635D01*
X227061477Y-176229727D01*
X228122137Y-177290387D01*
X228122137Y-177290387D01*
G37*
D16*
X227963039Y-176388826D03*
D11*
G36*
X228687823Y-176724702D02*
G01*
X228298915Y-177113610D01*
X227238255Y-176052950D01*
X227627163Y-175664042D01*
X228687823Y-176724702D01*
X228687823Y-176724702D01*
G37*
D16*
X228528724Y-175823141D03*
D11*
G36*
X229253508Y-176159017D02*
G01*
X228864600Y-176547925D01*
X227803940Y-175487265D01*
X228192848Y-175098357D01*
X229253508Y-176159017D01*
X229253508Y-176159017D01*
G37*
D16*
X229094409Y-175257455D03*
D11*
G36*
X229819193Y-175593331D02*
G01*
X229430285Y-175982239D01*
X228369625Y-174921579D01*
X228758533Y-174532671D01*
X229819193Y-175593331D01*
X229819193Y-175593331D01*
G37*
D17*
X250135000Y-190679000D03*
X246435000Y-184479000D03*
X246435000Y-190679000D03*
X250135000Y-184479000D03*
D11*
G36*
X230089142Y-169735174D02*
G01*
X230112803Y-169738684D01*
X230136007Y-169744496D01*
X230158529Y-169752554D01*
X230180153Y-169762782D01*
X230200670Y-169775079D01*
X230219883Y-169789329D01*
X230237607Y-169805393D01*
X230253671Y-169823117D01*
X230267921Y-169842330D01*
X230280218Y-169862847D01*
X230290446Y-169884471D01*
X230298504Y-169906993D01*
X230304316Y-169930197D01*
X230307826Y-169953858D01*
X230309000Y-169977750D01*
X230309000Y-170890250D01*
X230307826Y-170914142D01*
X230304316Y-170937803D01*
X230298504Y-170961007D01*
X230290446Y-170983529D01*
X230280218Y-171005153D01*
X230267921Y-171025670D01*
X230253671Y-171044883D01*
X230237607Y-171062607D01*
X230219883Y-171078671D01*
X230200670Y-171092921D01*
X230180153Y-171105218D01*
X230158529Y-171115446D01*
X230136007Y-171123504D01*
X230112803Y-171129316D01*
X230089142Y-171132826D01*
X230065250Y-171134000D01*
X229577750Y-171134000D01*
X229553858Y-171132826D01*
X229530197Y-171129316D01*
X229506993Y-171123504D01*
X229484471Y-171115446D01*
X229462847Y-171105218D01*
X229442330Y-171092921D01*
X229423117Y-171078671D01*
X229405393Y-171062607D01*
X229389329Y-171044883D01*
X229375079Y-171025670D01*
X229362782Y-171005153D01*
X229352554Y-170983529D01*
X229344496Y-170961007D01*
X229338684Y-170937803D01*
X229335174Y-170914142D01*
X229334000Y-170890250D01*
X229334000Y-169977750D01*
X229335174Y-169953858D01*
X229338684Y-169930197D01*
X229344496Y-169906993D01*
X229352554Y-169884471D01*
X229362782Y-169862847D01*
X229375079Y-169842330D01*
X229389329Y-169823117D01*
X229405393Y-169805393D01*
X229423117Y-169789329D01*
X229442330Y-169775079D01*
X229462847Y-169762782D01*
X229484471Y-169752554D01*
X229506993Y-169744496D01*
X229530197Y-169738684D01*
X229553858Y-169735174D01*
X229577750Y-169734000D01*
X230065250Y-169734000D01*
X230089142Y-169735174D01*
X230089142Y-169735174D01*
G37*
D12*
X229821500Y-170434000D03*
D11*
G36*
X231964142Y-169735174D02*
G01*
X231987803Y-169738684D01*
X232011007Y-169744496D01*
X232033529Y-169752554D01*
X232055153Y-169762782D01*
X232075670Y-169775079D01*
X232094883Y-169789329D01*
X232112607Y-169805393D01*
X232128671Y-169823117D01*
X232142921Y-169842330D01*
X232155218Y-169862847D01*
X232165446Y-169884471D01*
X232173504Y-169906993D01*
X232179316Y-169930197D01*
X232182826Y-169953858D01*
X232184000Y-169977750D01*
X232184000Y-170890250D01*
X232182826Y-170914142D01*
X232179316Y-170937803D01*
X232173504Y-170961007D01*
X232165446Y-170983529D01*
X232155218Y-171005153D01*
X232142921Y-171025670D01*
X232128671Y-171044883D01*
X232112607Y-171062607D01*
X232094883Y-171078671D01*
X232075670Y-171092921D01*
X232055153Y-171105218D01*
X232033529Y-171115446D01*
X232011007Y-171123504D01*
X231987803Y-171129316D01*
X231964142Y-171132826D01*
X231940250Y-171134000D01*
X231452750Y-171134000D01*
X231428858Y-171132826D01*
X231405197Y-171129316D01*
X231381993Y-171123504D01*
X231359471Y-171115446D01*
X231337847Y-171105218D01*
X231317330Y-171092921D01*
X231298117Y-171078671D01*
X231280393Y-171062607D01*
X231264329Y-171044883D01*
X231250079Y-171025670D01*
X231237782Y-171005153D01*
X231227554Y-170983529D01*
X231219496Y-170961007D01*
X231213684Y-170937803D01*
X231210174Y-170914142D01*
X231209000Y-170890250D01*
X231209000Y-169977750D01*
X231210174Y-169953858D01*
X231213684Y-169930197D01*
X231219496Y-169906993D01*
X231227554Y-169884471D01*
X231237782Y-169862847D01*
X231250079Y-169842330D01*
X231264329Y-169823117D01*
X231280393Y-169805393D01*
X231298117Y-169789329D01*
X231317330Y-169775079D01*
X231337847Y-169762782D01*
X231359471Y-169752554D01*
X231381993Y-169744496D01*
X231405197Y-169738684D01*
X231428858Y-169735174D01*
X231452750Y-169734000D01*
X231940250Y-169734000D01*
X231964142Y-169735174D01*
X231964142Y-169735174D01*
G37*
D12*
X231696500Y-170434000D03*
D11*
G36*
X220549404Y-180088547D02*
G01*
X220573065Y-180092057D01*
X220596269Y-180097869D01*
X220618791Y-180105927D01*
X220640415Y-180116155D01*
X220660932Y-180128452D01*
X220680145Y-180142702D01*
X220697869Y-180158766D01*
X221343104Y-180804001D01*
X221359168Y-180821725D01*
X221373418Y-180840938D01*
X221385715Y-180861455D01*
X221395943Y-180883079D01*
X221404001Y-180905601D01*
X221409813Y-180928805D01*
X221413323Y-180952466D01*
X221414497Y-180976358D01*
X221413323Y-181000250D01*
X221409813Y-181023911D01*
X221404001Y-181047115D01*
X221395943Y-181069637D01*
X221385715Y-181091261D01*
X221373418Y-181111778D01*
X221359168Y-181130991D01*
X221343104Y-181148715D01*
X220998389Y-181493430D01*
X220980665Y-181509494D01*
X220961452Y-181523744D01*
X220940935Y-181536041D01*
X220919311Y-181546269D01*
X220896789Y-181554327D01*
X220873585Y-181560139D01*
X220849924Y-181563649D01*
X220826032Y-181564823D01*
X220802140Y-181563649D01*
X220778479Y-181560139D01*
X220755275Y-181554327D01*
X220732753Y-181546269D01*
X220711129Y-181536041D01*
X220690612Y-181523744D01*
X220671399Y-181509494D01*
X220653675Y-181493430D01*
X220008440Y-180848195D01*
X219992376Y-180830471D01*
X219978126Y-180811258D01*
X219965829Y-180790741D01*
X219955601Y-180769117D01*
X219947543Y-180746595D01*
X219941731Y-180723391D01*
X219938221Y-180699730D01*
X219937047Y-180675838D01*
X219938221Y-180651946D01*
X219941731Y-180628285D01*
X219947543Y-180605081D01*
X219955601Y-180582559D01*
X219965829Y-180560935D01*
X219978126Y-180540418D01*
X219992376Y-180521205D01*
X220008440Y-180503481D01*
X220353155Y-180158766D01*
X220370879Y-180142702D01*
X220390092Y-180128452D01*
X220410609Y-180116155D01*
X220432233Y-180105927D01*
X220454755Y-180097869D01*
X220477959Y-180092057D01*
X220501620Y-180088547D01*
X220525512Y-180087373D01*
X220549404Y-180088547D01*
X220549404Y-180088547D01*
G37*
D12*
X220675772Y-180826098D03*
D11*
G36*
X221875230Y-178762721D02*
G01*
X221898891Y-178766231D01*
X221922095Y-178772043D01*
X221944617Y-178780101D01*
X221966241Y-178790329D01*
X221986758Y-178802626D01*
X222005971Y-178816876D01*
X222023695Y-178832940D01*
X222668930Y-179478175D01*
X222684994Y-179495899D01*
X222699244Y-179515112D01*
X222711541Y-179535629D01*
X222721769Y-179557253D01*
X222729827Y-179579775D01*
X222735639Y-179602979D01*
X222739149Y-179626640D01*
X222740323Y-179650532D01*
X222739149Y-179674424D01*
X222735639Y-179698085D01*
X222729827Y-179721289D01*
X222721769Y-179743811D01*
X222711541Y-179765435D01*
X222699244Y-179785952D01*
X222684994Y-179805165D01*
X222668930Y-179822889D01*
X222324215Y-180167604D01*
X222306491Y-180183668D01*
X222287278Y-180197918D01*
X222266761Y-180210215D01*
X222245137Y-180220443D01*
X222222615Y-180228501D01*
X222199411Y-180234313D01*
X222175750Y-180237823D01*
X222151858Y-180238997D01*
X222127966Y-180237823D01*
X222104305Y-180234313D01*
X222081101Y-180228501D01*
X222058579Y-180220443D01*
X222036955Y-180210215D01*
X222016438Y-180197918D01*
X221997225Y-180183668D01*
X221979501Y-180167604D01*
X221334266Y-179522369D01*
X221318202Y-179504645D01*
X221303952Y-179485432D01*
X221291655Y-179464915D01*
X221281427Y-179443291D01*
X221273369Y-179420769D01*
X221267557Y-179397565D01*
X221264047Y-179373904D01*
X221262873Y-179350012D01*
X221264047Y-179326120D01*
X221267557Y-179302459D01*
X221273369Y-179279255D01*
X221281427Y-179256733D01*
X221291655Y-179235109D01*
X221303952Y-179214592D01*
X221318202Y-179195379D01*
X221334266Y-179177655D01*
X221678981Y-178832940D01*
X221696705Y-178816876D01*
X221715918Y-178802626D01*
X221736435Y-178790329D01*
X221758059Y-178780101D01*
X221780581Y-178772043D01*
X221803785Y-178766231D01*
X221827446Y-178762721D01*
X221851338Y-178761547D01*
X221875230Y-178762721D01*
X221875230Y-178762721D01*
G37*
D12*
X222001598Y-179500272D03*
D11*
G36*
X228879830Y-171758121D02*
G01*
X228903491Y-171761631D01*
X228926695Y-171767443D01*
X228949217Y-171775501D01*
X228970841Y-171785729D01*
X228991358Y-171798026D01*
X229010571Y-171812276D01*
X229028295Y-171828340D01*
X229673530Y-172473575D01*
X229689594Y-172491299D01*
X229703844Y-172510512D01*
X229716141Y-172531029D01*
X229726369Y-172552653D01*
X229734427Y-172575175D01*
X229740239Y-172598379D01*
X229743749Y-172622040D01*
X229744923Y-172645932D01*
X229743749Y-172669824D01*
X229740239Y-172693485D01*
X229734427Y-172716689D01*
X229726369Y-172739211D01*
X229716141Y-172760835D01*
X229703844Y-172781352D01*
X229689594Y-172800565D01*
X229673530Y-172818289D01*
X229328815Y-173163004D01*
X229311091Y-173179068D01*
X229291878Y-173193318D01*
X229271361Y-173205615D01*
X229249737Y-173215843D01*
X229227215Y-173223901D01*
X229204011Y-173229713D01*
X229180350Y-173233223D01*
X229156458Y-173234397D01*
X229132566Y-173233223D01*
X229108905Y-173229713D01*
X229085701Y-173223901D01*
X229063179Y-173215843D01*
X229041555Y-173205615D01*
X229021038Y-173193318D01*
X229001825Y-173179068D01*
X228984101Y-173163004D01*
X228338866Y-172517769D01*
X228322802Y-172500045D01*
X228308552Y-172480832D01*
X228296255Y-172460315D01*
X228286027Y-172438691D01*
X228277969Y-172416169D01*
X228272157Y-172392965D01*
X228268647Y-172369304D01*
X228267473Y-172345412D01*
X228268647Y-172321520D01*
X228272157Y-172297859D01*
X228277969Y-172274655D01*
X228286027Y-172252133D01*
X228296255Y-172230509D01*
X228308552Y-172209992D01*
X228322802Y-172190779D01*
X228338866Y-172173055D01*
X228683581Y-171828340D01*
X228701305Y-171812276D01*
X228720518Y-171798026D01*
X228741035Y-171785729D01*
X228762659Y-171775501D01*
X228785181Y-171767443D01*
X228808385Y-171761631D01*
X228832046Y-171758121D01*
X228855938Y-171756947D01*
X228879830Y-171758121D01*
X228879830Y-171758121D01*
G37*
D12*
X229006198Y-172495672D03*
D11*
G36*
X227554004Y-173083947D02*
G01*
X227577665Y-173087457D01*
X227600869Y-173093269D01*
X227623391Y-173101327D01*
X227645015Y-173111555D01*
X227665532Y-173123852D01*
X227684745Y-173138102D01*
X227702469Y-173154166D01*
X228347704Y-173799401D01*
X228363768Y-173817125D01*
X228378018Y-173836338D01*
X228390315Y-173856855D01*
X228400543Y-173878479D01*
X228408601Y-173901001D01*
X228414413Y-173924205D01*
X228417923Y-173947866D01*
X228419097Y-173971758D01*
X228417923Y-173995650D01*
X228414413Y-174019311D01*
X228408601Y-174042515D01*
X228400543Y-174065037D01*
X228390315Y-174086661D01*
X228378018Y-174107178D01*
X228363768Y-174126391D01*
X228347704Y-174144115D01*
X228002989Y-174488830D01*
X227985265Y-174504894D01*
X227966052Y-174519144D01*
X227945535Y-174531441D01*
X227923911Y-174541669D01*
X227901389Y-174549727D01*
X227878185Y-174555539D01*
X227854524Y-174559049D01*
X227830632Y-174560223D01*
X227806740Y-174559049D01*
X227783079Y-174555539D01*
X227759875Y-174549727D01*
X227737353Y-174541669D01*
X227715729Y-174531441D01*
X227695212Y-174519144D01*
X227675999Y-174504894D01*
X227658275Y-174488830D01*
X227013040Y-173843595D01*
X226996976Y-173825871D01*
X226982726Y-173806658D01*
X226970429Y-173786141D01*
X226960201Y-173764517D01*
X226952143Y-173741995D01*
X226946331Y-173718791D01*
X226942821Y-173695130D01*
X226941647Y-173671238D01*
X226942821Y-173647346D01*
X226946331Y-173623685D01*
X226952143Y-173600481D01*
X226960201Y-173577959D01*
X226970429Y-173556335D01*
X226982726Y-173535818D01*
X226996976Y-173516605D01*
X227013040Y-173498881D01*
X227357755Y-173154166D01*
X227375479Y-173138102D01*
X227394692Y-173123852D01*
X227415209Y-173111555D01*
X227436833Y-173101327D01*
X227459355Y-173093269D01*
X227482559Y-173087457D01*
X227506220Y-173083947D01*
X227530112Y-173082773D01*
X227554004Y-173083947D01*
X227554004Y-173083947D01*
G37*
D12*
X227680372Y-173821498D03*
D11*
G36*
X227857239Y-189718633D02*
G01*
X227880900Y-189722143D01*
X227904104Y-189727955D01*
X227926626Y-189736013D01*
X227948250Y-189746241D01*
X227968767Y-189758538D01*
X227987980Y-189772788D01*
X228005704Y-189788852D01*
X228350419Y-190133567D01*
X228366483Y-190151291D01*
X228380733Y-190170504D01*
X228393030Y-190191021D01*
X228403258Y-190212645D01*
X228411316Y-190235167D01*
X228417128Y-190258371D01*
X228420638Y-190282032D01*
X228421812Y-190305924D01*
X228420638Y-190329816D01*
X228417128Y-190353477D01*
X228411316Y-190376681D01*
X228403258Y-190399203D01*
X228393030Y-190420827D01*
X228380733Y-190441344D01*
X228366483Y-190460557D01*
X228350419Y-190478281D01*
X227705184Y-191123516D01*
X227687460Y-191139580D01*
X227668247Y-191153830D01*
X227647730Y-191166127D01*
X227626106Y-191176355D01*
X227603584Y-191184413D01*
X227580380Y-191190225D01*
X227556719Y-191193735D01*
X227532827Y-191194909D01*
X227508935Y-191193735D01*
X227485274Y-191190225D01*
X227462070Y-191184413D01*
X227439548Y-191176355D01*
X227417924Y-191166127D01*
X227397407Y-191153830D01*
X227378194Y-191139580D01*
X227360470Y-191123516D01*
X227015755Y-190778801D01*
X226999691Y-190761077D01*
X226985441Y-190741864D01*
X226973144Y-190721347D01*
X226962916Y-190699723D01*
X226954858Y-190677201D01*
X226949046Y-190653997D01*
X226945536Y-190630336D01*
X226944362Y-190606444D01*
X226945536Y-190582552D01*
X226949046Y-190558891D01*
X226954858Y-190535687D01*
X226962916Y-190513165D01*
X226973144Y-190491541D01*
X226985441Y-190471024D01*
X226999691Y-190451811D01*
X227015755Y-190434087D01*
X227660990Y-189788852D01*
X227678714Y-189772788D01*
X227697927Y-189758538D01*
X227718444Y-189746241D01*
X227740068Y-189736013D01*
X227762590Y-189727955D01*
X227785794Y-189722143D01*
X227809455Y-189718633D01*
X227833347Y-189717459D01*
X227857239Y-189718633D01*
X227857239Y-189718633D01*
G37*
D12*
X227683087Y-190456184D03*
D11*
G36*
X229183065Y-191044459D02*
G01*
X229206726Y-191047969D01*
X229229930Y-191053781D01*
X229252452Y-191061839D01*
X229274076Y-191072067D01*
X229294593Y-191084364D01*
X229313806Y-191098614D01*
X229331530Y-191114678D01*
X229676245Y-191459393D01*
X229692309Y-191477117D01*
X229706559Y-191496330D01*
X229718856Y-191516847D01*
X229729084Y-191538471D01*
X229737142Y-191560993D01*
X229742954Y-191584197D01*
X229746464Y-191607858D01*
X229747638Y-191631750D01*
X229746464Y-191655642D01*
X229742954Y-191679303D01*
X229737142Y-191702507D01*
X229729084Y-191725029D01*
X229718856Y-191746653D01*
X229706559Y-191767170D01*
X229692309Y-191786383D01*
X229676245Y-191804107D01*
X229031010Y-192449342D01*
X229013286Y-192465406D01*
X228994073Y-192479656D01*
X228973556Y-192491953D01*
X228951932Y-192502181D01*
X228929410Y-192510239D01*
X228906206Y-192516051D01*
X228882545Y-192519561D01*
X228858653Y-192520735D01*
X228834761Y-192519561D01*
X228811100Y-192516051D01*
X228787896Y-192510239D01*
X228765374Y-192502181D01*
X228743750Y-192491953D01*
X228723233Y-192479656D01*
X228704020Y-192465406D01*
X228686296Y-192449342D01*
X228341581Y-192104627D01*
X228325517Y-192086903D01*
X228311267Y-192067690D01*
X228298970Y-192047173D01*
X228288742Y-192025549D01*
X228280684Y-192003027D01*
X228274872Y-191979823D01*
X228271362Y-191956162D01*
X228270188Y-191932270D01*
X228271362Y-191908378D01*
X228274872Y-191884717D01*
X228280684Y-191861513D01*
X228288742Y-191838991D01*
X228298970Y-191817367D01*
X228311267Y-191796850D01*
X228325517Y-191777637D01*
X228341581Y-191759913D01*
X228986816Y-191114678D01*
X229004540Y-191098614D01*
X229023753Y-191084364D01*
X229044270Y-191072067D01*
X229065894Y-191061839D01*
X229088416Y-191053781D01*
X229111620Y-191047969D01*
X229135281Y-191044459D01*
X229159173Y-191043285D01*
X229183065Y-191044459D01*
X229183065Y-191044459D01*
G37*
D12*
X229008913Y-191782010D03*
D11*
G36*
X236502545Y-174367536D02*
G01*
X236526206Y-174371046D01*
X236549410Y-174376858D01*
X236571932Y-174384916D01*
X236593556Y-174395144D01*
X236614073Y-174407441D01*
X236633286Y-174421691D01*
X236651010Y-174437755D01*
X237296245Y-175082990D01*
X237312309Y-175100714D01*
X237326559Y-175119927D01*
X237338856Y-175140444D01*
X237349084Y-175162068D01*
X237357142Y-175184590D01*
X237362954Y-175207794D01*
X237366464Y-175231455D01*
X237367638Y-175255347D01*
X237366464Y-175279239D01*
X237362954Y-175302900D01*
X237357142Y-175326104D01*
X237349084Y-175348626D01*
X237338856Y-175370250D01*
X237326559Y-175390767D01*
X237312309Y-175409980D01*
X237296245Y-175427704D01*
X236951530Y-175772419D01*
X236933806Y-175788483D01*
X236914593Y-175802733D01*
X236894076Y-175815030D01*
X236872452Y-175825258D01*
X236849930Y-175833316D01*
X236826726Y-175839128D01*
X236803065Y-175842638D01*
X236779173Y-175843812D01*
X236755281Y-175842638D01*
X236731620Y-175839128D01*
X236708416Y-175833316D01*
X236685894Y-175825258D01*
X236664270Y-175815030D01*
X236643753Y-175802733D01*
X236624540Y-175788483D01*
X236606816Y-175772419D01*
X235961581Y-175127184D01*
X235945517Y-175109460D01*
X235931267Y-175090247D01*
X235918970Y-175069730D01*
X235908742Y-175048106D01*
X235900684Y-175025584D01*
X235894872Y-175002380D01*
X235891362Y-174978719D01*
X235890188Y-174954827D01*
X235891362Y-174930935D01*
X235894872Y-174907274D01*
X235900684Y-174884070D01*
X235908742Y-174861548D01*
X235918970Y-174839924D01*
X235931267Y-174819407D01*
X235945517Y-174800194D01*
X235961581Y-174782470D01*
X236306296Y-174437755D01*
X236324020Y-174421691D01*
X236343233Y-174407441D01*
X236363750Y-174395144D01*
X236385374Y-174384916D01*
X236407896Y-174376858D01*
X236431100Y-174371046D01*
X236454761Y-174367536D01*
X236478653Y-174366362D01*
X236502545Y-174367536D01*
X236502545Y-174367536D01*
G37*
D12*
X236628913Y-175105087D03*
D11*
G36*
X235176719Y-175693362D02*
G01*
X235200380Y-175696872D01*
X235223584Y-175702684D01*
X235246106Y-175710742D01*
X235267730Y-175720970D01*
X235288247Y-175733267D01*
X235307460Y-175747517D01*
X235325184Y-175763581D01*
X235970419Y-176408816D01*
X235986483Y-176426540D01*
X236000733Y-176445753D01*
X236013030Y-176466270D01*
X236023258Y-176487894D01*
X236031316Y-176510416D01*
X236037128Y-176533620D01*
X236040638Y-176557281D01*
X236041812Y-176581173D01*
X236040638Y-176605065D01*
X236037128Y-176628726D01*
X236031316Y-176651930D01*
X236023258Y-176674452D01*
X236013030Y-176696076D01*
X236000733Y-176716593D01*
X235986483Y-176735806D01*
X235970419Y-176753530D01*
X235625704Y-177098245D01*
X235607980Y-177114309D01*
X235588767Y-177128559D01*
X235568250Y-177140856D01*
X235546626Y-177151084D01*
X235524104Y-177159142D01*
X235500900Y-177164954D01*
X235477239Y-177168464D01*
X235453347Y-177169638D01*
X235429455Y-177168464D01*
X235405794Y-177164954D01*
X235382590Y-177159142D01*
X235360068Y-177151084D01*
X235338444Y-177140856D01*
X235317927Y-177128559D01*
X235298714Y-177114309D01*
X235280990Y-177098245D01*
X234635755Y-176453010D01*
X234619691Y-176435286D01*
X234605441Y-176416073D01*
X234593144Y-176395556D01*
X234582916Y-176373932D01*
X234574858Y-176351410D01*
X234569046Y-176328206D01*
X234565536Y-176304545D01*
X234564362Y-176280653D01*
X234565536Y-176256761D01*
X234569046Y-176233100D01*
X234574858Y-176209896D01*
X234582916Y-176187374D01*
X234593144Y-176165750D01*
X234605441Y-176145233D01*
X234619691Y-176126020D01*
X234635755Y-176108296D01*
X234980470Y-175763581D01*
X234998194Y-175747517D01*
X235017407Y-175733267D01*
X235037924Y-175720970D01*
X235059548Y-175710742D01*
X235082070Y-175702684D01*
X235105274Y-175696872D01*
X235128935Y-175693362D01*
X235152827Y-175692188D01*
X235176719Y-175693362D01*
X235176719Y-175693362D01*
G37*
D12*
X235303087Y-176430913D03*
D11*
G36*
X239704780Y-184994360D02*
G01*
X239728441Y-184997870D01*
X239751645Y-185003682D01*
X239774167Y-185011740D01*
X239795791Y-185021968D01*
X239816308Y-185034265D01*
X239835521Y-185048515D01*
X239853245Y-185064579D01*
X240197960Y-185409294D01*
X240214024Y-185427018D01*
X240228274Y-185446231D01*
X240240571Y-185466748D01*
X240250799Y-185488372D01*
X240258857Y-185510894D01*
X240264669Y-185534098D01*
X240268179Y-185557759D01*
X240269353Y-185581651D01*
X240268179Y-185605543D01*
X240264669Y-185629204D01*
X240258857Y-185652408D01*
X240250799Y-185674930D01*
X240240571Y-185696554D01*
X240228274Y-185717071D01*
X240214024Y-185736284D01*
X240197960Y-185754008D01*
X239552725Y-186399243D01*
X239535001Y-186415307D01*
X239515788Y-186429557D01*
X239495271Y-186441854D01*
X239473647Y-186452082D01*
X239451125Y-186460140D01*
X239427921Y-186465952D01*
X239404260Y-186469462D01*
X239380368Y-186470636D01*
X239356476Y-186469462D01*
X239332815Y-186465952D01*
X239309611Y-186460140D01*
X239287089Y-186452082D01*
X239265465Y-186441854D01*
X239244948Y-186429557D01*
X239225735Y-186415307D01*
X239208011Y-186399243D01*
X238863296Y-186054528D01*
X238847232Y-186036804D01*
X238832982Y-186017591D01*
X238820685Y-185997074D01*
X238810457Y-185975450D01*
X238802399Y-185952928D01*
X238796587Y-185929724D01*
X238793077Y-185906063D01*
X238791903Y-185882171D01*
X238793077Y-185858279D01*
X238796587Y-185834618D01*
X238802399Y-185811414D01*
X238810457Y-185788892D01*
X238820685Y-185767268D01*
X238832982Y-185746751D01*
X238847232Y-185727538D01*
X238863296Y-185709814D01*
X239508531Y-185064579D01*
X239526255Y-185048515D01*
X239545468Y-185034265D01*
X239565985Y-185021968D01*
X239587609Y-185011740D01*
X239610131Y-185003682D01*
X239633335Y-184997870D01*
X239656996Y-184994360D01*
X239680888Y-184993186D01*
X239704780Y-184994360D01*
X239704780Y-184994360D01*
G37*
D12*
X239530628Y-185731911D03*
D11*
G36*
X241030606Y-186320186D02*
G01*
X241054267Y-186323696D01*
X241077471Y-186329508D01*
X241099993Y-186337566D01*
X241121617Y-186347794D01*
X241142134Y-186360091D01*
X241161347Y-186374341D01*
X241179071Y-186390405D01*
X241523786Y-186735120D01*
X241539850Y-186752844D01*
X241554100Y-186772057D01*
X241566397Y-186792574D01*
X241576625Y-186814198D01*
X241584683Y-186836720D01*
X241590495Y-186859924D01*
X241594005Y-186883585D01*
X241595179Y-186907477D01*
X241594005Y-186931369D01*
X241590495Y-186955030D01*
X241584683Y-186978234D01*
X241576625Y-187000756D01*
X241566397Y-187022380D01*
X241554100Y-187042897D01*
X241539850Y-187062110D01*
X241523786Y-187079834D01*
X240878551Y-187725069D01*
X240860827Y-187741133D01*
X240841614Y-187755383D01*
X240821097Y-187767680D01*
X240799473Y-187777908D01*
X240776951Y-187785966D01*
X240753747Y-187791778D01*
X240730086Y-187795288D01*
X240706194Y-187796462D01*
X240682302Y-187795288D01*
X240658641Y-187791778D01*
X240635437Y-187785966D01*
X240612915Y-187777908D01*
X240591291Y-187767680D01*
X240570774Y-187755383D01*
X240551561Y-187741133D01*
X240533837Y-187725069D01*
X240189122Y-187380354D01*
X240173058Y-187362630D01*
X240158808Y-187343417D01*
X240146511Y-187322900D01*
X240136283Y-187301276D01*
X240128225Y-187278754D01*
X240122413Y-187255550D01*
X240118903Y-187231889D01*
X240117729Y-187207997D01*
X240118903Y-187184105D01*
X240122413Y-187160444D01*
X240128225Y-187137240D01*
X240136283Y-187114718D01*
X240146511Y-187093094D01*
X240158808Y-187072577D01*
X240173058Y-187053364D01*
X240189122Y-187035640D01*
X240834357Y-186390405D01*
X240852081Y-186374341D01*
X240871294Y-186360091D01*
X240891811Y-186347794D01*
X240913435Y-186337566D01*
X240935957Y-186329508D01*
X240959161Y-186323696D01*
X240982822Y-186320186D01*
X241006714Y-186319012D01*
X241030606Y-186320186D01*
X241030606Y-186320186D01*
G37*
D12*
X240856454Y-187057737D03*
M02*
