<?xml version="1.0" standalone="no"?>
 <!DOCTYPE svg PUBLIC "-//W3C//DTD SVG 1.1//EN" 
 "http://www.w3.org/Graphics/SVG/1.1/DTD/svg11.dtd"> 
<svg xmlns="http://www.w3.org/2000/svg" version="1.1" 
    width="28.2804cm" height="13.0429cm" viewBox="0 0 111340 51350 ">
<title>SVG Picture created as B3PKey-Edge_Cuts.svg date 2020/08/31 17:42:26 </title>
  <desc>Picture generated by PCBNEW </desc>
<g style="fill:#000000; fill-opacity:1;stroke:#000000; stroke-opacity:1;
stroke-linecap:round; stroke-linejoin:round; "
 transform="translate(0 0) scale(1 1)">
</g>
<g style="fill:#000000; fill-opacity:0.0; 
stroke:#000000; stroke-width:-0.000393701; stroke-opacity:1; 
stroke-linecap:round; stroke-linejoin:round;">
</g>
<g style="fill:#C2C200; fill-opacity:0.0; 
stroke:#C2C200; stroke-width:-0.000393701; stroke-opacity:1; 
stroke-linecap:round; stroke-linejoin:round;">
</g>
<g style="fill:#C2C200; fill-opacity:0.0; 
stroke:#C2C200; stroke-width:50; stroke-opacity:1; 
stroke-linecap:round; stroke-linejoin:round;">
<path d="M1402 50537
L1585 50508
" />
<path d="M1993 49946
L1964 49764
" />
<path d="M1055 49468
L925 49599
" />
<path d="M1585 50508
L1749 50424
" />
<path d="M1220 49384
L1055 49468
" />
<path d="M37236 49468
L37106 49599
" />
<path d="M37401 49384
L37236 49468
" />
<path d="M1055 50424
L1220 50508
" />
<path d="M1964 50129
L1993 49946
" />
<path d="M1402 49356
L1220 49384
" />
<path d="M1585 49384
L1402 49356
" />
<path d="M1749 49468
L1585 49384
" />
<path d="M841 49764
L812 49946
" />
<path d="M1880 50293
L1964 50129
" />
<path d="M1749 50424
L1880 50293
" />
<path d="M925 50293
L1055 50424
" />
<path d="M812 49946
L841 50129
" />
<path d="M925 49599
L841 49764
" />
<path d="M841 50129
L925 50293
" />
<path d="M1880 49599
L1749 49468
" />
<path d="M1964 49764
L1880 49599
" />
<path d="M1220 50508
L1402 50537
" />
<path d="M925 1055
L841 1220
" />
<path d="M1055 925
L925 1055
" />
<path d="M1220 841
L1055 925
" />
<path d="M38174 1402
L38145 1220
" />
<path d="M37584 1993
L37766 1964
" />
<path d="M37401 1964
L37584 1993
" />
<path d="M108568 48568
L108568 2781
" />
<path d="M110595 115
L110679 153
" />
<path d="M111310 1021
L111320 1113
" />
<path d="M13043 2781
L13043 25
" />
<path d="M37931 925
L37766 841
" />
<path d="M37766 1964
L37931 1880
" />
<path d="M8318 2781
L2781 2781
" />
<path d="M110508 82
L110595 115
" />
<path d="M2781 48568
L108568 48568
" />
<path d="M111291 930
L111310 1021
" />
<path d="M111266 841
L111291 930
" />
<path d="M111234 754
L111266 841
" />
<path d="M37236 1880
L37401 1964
" />
<path d="M110419 57
L110508 82
" />
<path d="M110235 28
L110328 39
" />
<path d="M110328 39
L110419 57
" />
<path d="M37766 841
L37584 812
" />
<path d="M38145 1220
L38061 1055
" />
<path d="M111195 670
L111234 754
" />
<path d="M111150 588
L111195 670
" />
<path d="M111099 511
L111150 588
" />
<path d="M38145 1585
L38174 1402
" />
<path d="M111041 439
L111099 511
" />
<path d="M110978 370
L111041 439
" />
<path d="M110837 250
L110910 307
" />
<path d="M110910 307
L110978 370
" />
<path d="M37931 1880
L38061 1749
" />
<path d="M110143 25
L110235 28
" />
<path d="M37584 812
L37401 841
" />
<path d="M108568 2781
L13043 2781
" />
<path d="M2781 2781
L2781 48568
" />
<path d="M13043 25
L110143 25
" />
<path d="M38061 1055
L37931 925
" />
<path d="M38061 1749
L38145 1585
" />
<path d="M110760 199
L110837 250
" />
<path d="M110679 153
L110760 199
" />
<path d="M110508 1585
L110537 1402
" />
<path d="M1585 1964
L1749 1880
" />
<path d="M73417 925
L73287 1055
" />
<path d="M110293 925
L110129 841
" />
<path d="M73582 841
L73417 925
" />
<path d="M110424 1749
L110508 1585
" />
<path d="M109384 1585
L109469 1749
" />
<path d="M109763 1964
L109947 1993
" />
<path d="M1964 1585
L1993 1402
" />
<path d="M1220 1964
L1402 1993
" />
<path d="M109469 1749
L109599 1880
" />
<path d="M74327 1585
L74356 1402
" />
<path d="M1993 1402
L1964 1220
" />
<path d="M73203 1585
L73287 1749
" />
<path d="M1880 1055
L1749 925
" />
<path d="M110129 1964
L110293 1880
" />
<path d="M37106 1749
L37236 1880
" />
<path d="M73417 1880
L73582 1964
" />
<path d="M1749 925
L1585 841
" />
<path d="M74243 1749
L74327 1585
" />
<path d="M109947 812
L109763 841
" />
<path d="M36993 1402
L37022 1585
" />
<path d="M1964 1220
L1880 1055
" />
<path d="M1055 1880
L1220 1964
" />
<path d="M925 1749
L1055 1880
" />
<path d="M812 1402
L841 1585
" />
<path d="M109599 1880
L109763 1964
" />
<path d="M37022 1585
L37106 1749
" />
<path d="M37106 1055
L37022 1220
" />
<path d="M110508 1220
L110424 1055
" />
<path d="M1402 1993
L1585 1964
" />
<path d="M37022 1220
L36993 1402
" />
<path d="M1402 812
L1220 841
" />
<path d="M37236 925
L37106 1055
" />
<path d="M37401 841
L37236 925
" />
<path d="M109469 1055
L109384 1220
" />
<path d="M74112 925
L73948 841
" />
<path d="M73765 812
L73582 841
" />
<path d="M73948 841
L73765 812
" />
<path d="M74243 1055
L74112 925
" />
<path d="M74327 1220
L74243 1055
" />
<path d="M109763 841
L109599 925
" />
<path d="M74356 1402
L74327 1220
" />
<path d="M73287 1749
L73417 1880
" />
<path d="M73203 1220
L73174 1402
" />
<path d="M109599 925
L109469 1055
" />
<path d="M1749 1880
L1880 1749
" />
<path d="M841 1220
L812 1402
" />
<path d="M109384 1220
L109356 1402
" />
<path d="M109947 1993
L110129 1964
" />
<path d="M74112 1880
L74243 1749
" />
<path d="M1585 841
L1402 812
" />
<path d="M110424 1055
L110293 925
" />
<path d="M110537 1402
L110508 1220
" />
<path d="M109356 1402
L109384 1585
" />
<path d="M841 1585
L925 1749
" />
<path d="M73174 1402
L73203 1585
" />
<path d="M110293 1880
L110424 1749
" />
<path d="M1880 1749
L1964 1585
" />
<path d="M73948 1964
L74112 1880
" />
<path d="M73582 1964
L73765 1993
" />
<path d="M73765 1993
L73948 1964
" />
<path d="M110129 841
L109947 812
" />
<path d="M73287 1055
L73203 1220
" />
<path d="M37584 50537
L37766 50508
" />
<path d="M38174 49946
L38145 49764
" />
<path d="M73174 49946
L73203 50129
" />
<path d="M37766 50508
L37931 50424
" />
<path d="M38061 50293
L38145 50129
" />
<path d="M37401 50508
L37584 50537
" />
<path d="M37106 50293
L37236 50424
" />
<path d="M37236 50424
L37401 50508
" />
<path d="M37931 49468
L37766 49384
" />
<path d="M73203 49764
L73174 49946
" />
<path d="M73287 49599
L73203 49764
" />
<path d="M73417 49468
L73287 49599
" />
<path d="M36993 49946
L37022 50129
" />
<path d="M37766 49384
L37584 49356
" />
<path d="M37931 50424
L38061 50293
" />
<path d="M37106 49599
L37022 49764
" />
<path d="M37022 49764
L36993 49946
" />
<path d="M37022 50129
L37106 50293
" />
<path d="M38061 49599
L37931 49468
" />
<path d="M73582 49384
L73417 49468
" />
<path d="M37584 49356
L37401 49384
" />
<path d="M38145 50129
L38174 49946
" />
<path d="M38145 49764
L38061 49599
" />
<path d="M109763 49384
L109599 49468
" />
<path d="M74327 49764
L74243 49599
" />
<path d="M74356 49946
L74327 49764
" />
<path d="M74243 49599
L74112 49468
" />
<path d="M74327 50129
L74356 49946
" />
<path d="M74112 50424
L74243 50293
" />
<path d="M73287 50293
L73417 50424
" />
<path d="M73417 50424
L73582 50508
" />
<path d="M74243 50293
L74327 50129
" />
<path d="M73582 50508
L73765 50537
" />
<path d="M73203 50129
L73287 50293
" />
<path d="M109384 50129
L109469 50293
" />
<path d="M109356 49946
L109384 50129
" />
<path d="M73948 50508
L74112 50424
" />
<path d="M109599 50424
L109763 50508
" />
<path d="M73765 49356
L73582 49384
" />
<path d="M109469 50293
L109599 50424
" />
<path d="M74112 49468
L73948 49384
" />
<path d="M73948 49384
L73765 49356
" />
<path d="M109384 49764
L109356 49946
" />
<path d="M73765 50537
L73948 50508
" />
<path d="M109469 49599
L109384 49764
" />
<path d="M109599 49468
L109469 49599
" />
<path d="M110419 57
L110508 82
" />
<path d="M110143 25
L110235 28
" />
<path d="M110235 28
L110328 39
" />
<path d="M110508 82
L110595 115
" />
<path d="M110328 39
L110419 57
" />
<path d="M1749 50424
L1880 50293
" />
<path d="M1585 50508
L1749 50424
" />
<path d="M37022 50129
L37106 50293
" />
<path d="M925 49599
L841 49764
" />
<path d="M37022 49764
L36993 49946
" />
<path d="M37401 49384
L37236 49468
" />
<path d="M1880 50293
L1964 50129
" />
<path d="M1749 49468
L1585 49384
" />
<path d="M36993 49946
L37022 50129
" />
<path d="M37236 49468
L37106 49599
" />
<path d="M1402 50537
L1585 50508
" />
<path d="M925 50293
L1055 50424
" />
<path d="M1055 50424
L1220 50508
" />
<path d="M812 49946
L841 50129
" />
<path d="M1964 49764
L1880 49599
" />
<path d="M841 50129
L925 50293
" />
<path d="M8318 25
L8318 2781
" />
<path d="M1055 49468
L925 49599
" />
<path d="M1585 49384
L1402 49356
" />
<path d="M37106 49599
L37022 49764
" />
<path d="M1402 49356
L1220 49384
" />
<path d="M1964 50129
L1993 49946
" />
<path d="M1220 50508
L1402 50537
" />
<path d="M841 49764
L812 49946
" />
<path d="M1206 25
L8318 25
" />
<path d="M1220 49384
L1055 49468
" />
<path d="M1993 49946
L1964 49764
" />
<path d="M1880 49599
L1749 49468
" />
<path d="M39 50328
L28 50236
" />
<path d="M110508 51266
L110419 51291
" />
<path d="M57 50419
L39 50328
" />
<path d="M111234 50595
L111195 50679
" />
<path d="M111150 50760
L111099 50837
" />
<path d="M199 50760
L153 50679
" />
<path d="M370 50978
L307 50910
" />
<path d="M307 50910
L250 50837
" />
<path d="M110235 51320
L110143 51325
" />
<path d="M110679 51195
L110595 51234
" />
<path d="M111099 50837
L111041 50910
" />
<path d="M110143 51325
L1206 51325
" />
<path d="M111266 50508
L111234 50595
" />
<path d="M115 50595
L82 50508
" />
<path d="M1113 51320
L1021 51310
" />
<path d="M111310 50328
L111291 50419
" />
<path d="M1113 28
L1206 25
" />
<path d="M438 307
L511 250
" />
<path d="M1021 51310
L930 51291
" />
<path d="M840 82
L930 57
" />
<path d="M57 930
L82 841
" />
<path d="M1021 39
L1113 28
" />
<path d="M1206 51325
L1113 51320
" />
<path d="M110760 51150
L110679 51195
" />
<path d="M110837 51099
L110760 51150
" />
<path d="M110978 50978
L110910 51041
" />
<path d="M250 50837
L199 50760
" />
<path d="M930 57
L1021 39
" />
<path d="M754 115
L840 82
" />
<path d="M25 50143
L25 1206
" />
<path d="M110595 51234
L110508 51266
" />
<path d="M840 51266
L754 51234
" />
<path d="M111320 1113
L111324 1206
" />
<path d="M588 51150
L511 51099
" />
<path d="M111324 50143
L111320 50236
" />
<path d="M111320 50236
L111310 50328
" />
<path d="M670 153
L754 115
" />
<path d="M111291 50419
L111266 50508
" />
<path d="M588 199
L670 153
" />
<path d="M111324 1206
L111324 50143
" />
<path d="M511 250
L588 199
" />
<path d="M754 51234
L670 51195
" />
<path d="M370 370
L438 307
" />
<path d="M199 588
L250 511
" />
<path d="M153 50679
L115 50595
" />
<path d="M670 51195
L588 51150
" />
<path d="M110419 51291
L110328 51310
" />
<path d="M111041 50910
L110978 50978
" />
<path d="M511 51099
L438 51041
" />
<path d="M111195 50679
L111150 50760
" />
<path d="M307 439
L370 370
" />
<path d="M930 51291
L840 51266
" />
<path d="M25 1206
L28 1113
" />
<path d="M28 50236
L25 50143
" />
<path d="M438 51041
L370 50978
" />
<path d="M110910 51041
L110837 51099
" />
<path d="M250 511
L307 439
" />
<path d="M82 50508
L57 50419
" />
<path d="M110328 51310
L110235 51320
" />
<path d="M153 670
L199 588
" />
<path d="M115 754
L153 670
" />
<path d="M82 841
L115 754
" />
<path d="M39 1021
L57 930
" />
<path d="M28 1113
L39 1021
" />
<path d="M110508 1585
L110537 1402
" />
<path d="M1749 1880
L1880 1749
" />
<path d="M110424 1749
L110508 1585
" />
<path d="M109947 1993
L110129 1964
" />
<path d="M1993 1402
L1964 1220
" />
<path d="M109384 1585
L109469 1749
" />
<path d="M110537 1402
L110508 1220
" />
<path d="M110293 1880
L110424 1749
" />
<path d="M110129 1964
L110293 1880
" />
<path d="M1585 841
L1402 812
" />
<path d="M109763 841
L109599 925
" />
<path d="M1964 1585
L1993 1402
" />
<path d="M109356 1402
L109384 1585
" />
<path d="M109384 1220
L109356 1402
" />
<path d="M109599 925
L109469 1055
" />
<path d="M1402 812
L1220 841
" />
<path d="M109763 1964
L109947 1993
" />
<path d="M109599 1880
L109763 1964
" />
<path d="M1585 1964
L1749 1880
" />
<path d="M109469 1749
L109599 1880
" />
<path d="M1964 1220
L1880 1055
" />
<path d="M1880 1749
L1964 1585
" />
<path d="M109469 1055
L109384 1220
" />
<path d="M1749 925
L1585 841
" />
<path d="M1880 1055
L1749 925
" />
<path d="M110293 925
L110129 841
" />
<path d="M110424 1055
L110293 925
" />
<path d="M110508 1220
L110424 1055
" />
<path d="M110293 49468
L110129 49384
" />
<path d="M110424 49599
L110293 49468
" />
<path d="M109947 50537
L110129 50508
" />
<path d="M109384 50129
L109469 50293
" />
<path d="M109356 49946
L109384 50129
" />
<path d="M74112 49468
L73948 49384
" />
<path d="M37766 49384
L37584 49356
" />
<path d="M37584 49356
L37401 49384
" />
<path d="M110508 49764
L110424 49599
" />
<path d="M110293 50424
L110424 50293
" />
<path d="M109469 50293
L109599 50424
" />
<path d="M109469 49599
L109384 49764
" />
<path d="M38145 49764
L38061 49599
" />
<path d="M73765 49356
L73582 49384
" />
<path d="M38061 49599
L37931 49468
" />
<path d="M74243 50293
L74327 50129
" />
<path d="M73417 49468
L73287 49599
" />
<path d="M110537 49946
L110508 49764
" />
<path d="M110508 50129
L110537 49946
" />
<path d="M109763 50508
L109947 50537
" />
<path d="M74356 49946
L74327 49764
" />
<path d="M110424 50293
L110508 50129
" />
<path d="M74327 50129
L74356 49946
" />
<path d="M110129 50508
L110293 50424
" />
<path d="M73948 49384
L73765 49356
" />
<path d="M73582 50508
L73765 50537
" />
<path d="M73203 49764
L73174 49946
" />
<path d="M73582 49384
L73417 49468
" />
<path d="M38145 50129
L38174 49946
" />
<path d="M37401 50508
L37584 50537
" />
<path d="M37236 50424
L37401 50508
" />
<path d="M37766 50508
L37931 50424
" />
<path d="M37106 50293
L37236 50424
" />
<path d="M73287 49599
L73203 49764
" />
<path d="M73948 50508
L74112 50424
" />
<path d="M74112 50424
L74243 50293
" />
<path d="M73765 50537
L73948 50508
" />
<path d="M37931 49468
L37766 49384
" />
<path d="M73174 49946
L73203 50129
" />
<path d="M37931 50424
L38061 50293
" />
<path d="M1402 1993
L1585 1964
" />
<path d="M1220 1964
L1402 1993
" />
<path d="M1055 1880
L1220 1964
" />
<path d="M73417 50424
L73582 50508
" />
<path d="M925 1749
L1055 1880
" />
<path d="M841 1585
L925 1749
" />
<path d="M109384 49764
L109356 49946
" />
<path d="M73203 50129
L73287 50293
" />
<path d="M812 1402
L841 1585
" />
<path d="M109599 50424
L109763 50508
" />
<path d="M109599 49468
L109469 49599
" />
<path d="M109763 49384
L109599 49468
" />
<path d="M74243 49599
L74112 49468
" />
<path d="M73287 50293
L73417 50424
" />
<path d="M74327 49764
L74243 49599
" />
<path d="M38174 49946
L38145 49764
" />
<path d="M38061 50293
L38145 50129
" />
<path d="M37584 50537
L37766 50508
" />
<path d="M841 1220
L812 1402
" />
<path d="M925 1055
L841 1220
" />
<path d="M1055 925
L925 1055
" />
<path d="M1220 841
L1055 925
" />
<path d="M109947 49356
L109763 49384
" />
<path d="M110129 49384
L109947 49356
" />
<path d="M110424 49599
L110293 49468
" />
<path d="M110537 49946
L110508 49764
" />
<path d="M109947 50537
L110129 50508
" />
<path d="M109947 49356
L109763 49384
" />
<path d="M110293 49468
L110129 49384
" />
<path d="M110508 50129
L110537 49946
" />
<path d="M110293 50424
L110424 50293
" />
<path d="M110424 50293
L110508 50129
" />
<path d="M110508 49764
L110424 49599
" />
<path d="M110129 50508
L110293 50424
" />
<path d="M110129 49384
L109947 49356
" />
<path d="M109763 50508
L109947 50537
" />
<path d="M74112 1880
L74243 1749
" />
<path d="M73203 1585
L73287 1749
" />
<path d="M109947 812
L109763 841
" />
<path d="M73287 1749
L73417 1880
" />
<path d="M73765 1993
L73948 1964
" />
<path d="M73417 1880
L73582 1964
" />
<path d="M73417 925
L73287 1055
" />
<path d="M37022 1585
L37106 1749
" />
<path d="M36993 1402
L37022 1585
" />
<path d="M37106 1055
L37022 1220
" />
<path d="M73948 841
L73765 812
" />
<path d="M73174 1402
L73203 1585
" />
<path d="M74112 925
L73948 841
" />
<path d="M73582 1964
L73765 1993
" />
<path d="M74327 1585
L74356 1402
" />
<path d="M73948 1964
L74112 1880
" />
<path d="M73765 812
L73582 841
" />
<path d="M74356 1402
L74327 1220
" />
<path d="M74243 1749
L74327 1585
" />
<path d="M73203 1220
L73174 1402
" />
<path d="M110129 841
L109947 812
" />
<path d="M73287 1055
L73203 1220
" />
<path d="M37022 1220
L36993 1402
" />
<path d="M74327 1220
L74243 1055
" />
<path d="M37236 925
L37106 1055
" />
<path d="M37401 841
L37236 925
" />
<path d="M74243 1055
L74112 925
" />
<path d="M73582 841
L73417 925
" />
<path d="M37106 1749
L37236 1880
" />
<path d="M37766 841
L37584 812
" />
<path d="M37584 1993
L37766 1964
" />
<path d="M38061 1749
L38145 1585
" />
<path d="M37401 1964
L37584 1993
" />
<path d="M37236 1880
L37401 1964
" />
<path d="M37766 1964
L37931 1880
" />
<path d="M38145 1220
L38061 1055
" />
<path d="M38145 1585
L38174 1402
" />
<path d="M37931 1880
L38061 1749
" />
<path d="M38061 1055
L37931 925
" />
<path d="M37931 925
L37766 841
" />
<path d="M38174 1402
L38145 1220
" />
<path d="M37584 812
L37401 841
" />
<path d="M930 57
L1021 39
" />
<path d="M199 588
L250 511
" />
<path d="M39 50328
L28 50236
" />
<path d="M25 1206
L28 1113
" />
<path d="M754 115
L840 82
" />
<path d="M670 153
L754 115
" />
<path d="M250 511
L307 439
" />
<path d="M25 50143
L25 1206
" />
<path d="M370 370
L438 307
" />
<path d="M588 199
L670 153
" />
<path d="M28 50236
L25 50143
" />
<path d="M438 307
L511 250
" />
<path d="M307 439
L370 370
" />
<path d="M115 754
L153 670
" />
<path d="M840 82
L930 57
" />
<path d="M153 670
L199 588
" />
<path d="M82 841
L115 754
" />
<path d="M57 930
L82 841
" />
<path d="M511 250
L588 199
" />
<path d="M39 1021
L57 930
" />
<path d="M28 1113
L39 1021
" />
<path d="M1113 28
L1206 25
" />
<path d="M1021 39
L1113 28
" />
<path d="M107974 4177
L107974 47189
" />
<path d="M4174.88 3390.05 A787.402 787.402 0.0 0 0 3387.48 4177.45 " />
<path d="M12649 50
L12649 3390
" />
<path d="M107186 47976
L4174 47976
" />
<path d="M107974 4177.45 A787.402 787.402 0.0 0 0 107187 3390.05 " />
<path d="M107187 47976.7 A787.402 787.402 0.0 0 0 107974 47189.3 " />
<path d="M12649 50
L8712 50
" />
<path d="M8712 50
L8712 3390
" />
<path d="M12649 3390
L107186 3390
" />
<path d="M3387 47189
L3387 4177
" />
<path d="M4174 3390
L8712 3390
" />
<path d="M3387.48 47189.3 A787.402 787.402 0.0 0 0 4174.88 47976.7 " />
<path d="M110910 307
L110978 370
" />
<path d="M110837 250
L110910 307
" />
<path d="M110679 153
L110760 199
" />
<path d="M110760 199
L110837 250
" />
<path d="M110595 115
L110679 153
" />
<path d="M111099 511
L111150 588
" />
<path d="M111195 670
L111234 754
" />
<path d="M111150 588
L111195 670
" />
<path d="M111041 439
L111099 511
" />
<path d="M110978 370
L111041 439
" />
<path d="M111310 1021
L111320 1113
" />
<path d="M111291 930
L111310 1021
" />
<path d="M111266 841
L111291 930
" />
<path d="M111234 754
L111266 841
" />
<path d="M111320 1113
L111324 1206
" />
<path d="M111291 50419
L111266 50508
" />
<path d="M111310 50328
L111291 50419
" />
<path d="M111320 50236
L111310 50328
" />
<path d="M111324 50143
L111320 50236
" />
<path d="M111324 1206
L111324 50143
" />
<path d="M111234 50595
L111195 50679
" />
<path d="M111266 50508
L111234 50595
" />
<path d="M111099 50837
L111041 50910
" />
<path d="M111150 50760
L111099 50837
" />
<path d="M111195 50679
L111150 50760
" />
<path d="M111041 50910
L110978 50978
" />
<path d="M110837 51099
L110760 51150
" />
<path d="M110760 51150
L110679 51195
" />
<path d="M110910 51041
L110837 51099
" />
<path d="M110978 50978
L110910 51041
" />
<path d="M110508 51266
L110419 51291
" />
<path d="M110679 51195
L110595 51234
" />
<path d="M110419 51291
L110328 51310
" />
<path d="M110328 51310
L110235 51320
" />
<path d="M110595 51234
L110508 51266
" />
<path d="M1206 51325
L1113 51320
" />
<path d="M1021 51310
L930 51291
" />
<path d="M1113 51320
L1021 51310
" />
<path d="M110143 51325
L1206 51325
" />
<path d="M110235 51320
L110143 51325
" />
<path d="M840 51266
L754 51234
" />
<path d="M930 51291
L840 51266
" />
<path d="M588 51150
L511 51099
" />
<path d="M670 51195
L588 51150
" />
<path d="M754 51234
L670 51195
" />
<path d="M370 50978
L307 50910
" />
<path d="M438 51041
L370 50978
" />
<path d="M511 51099
L438 51041
" />
<path d="M250 50837
L199 50760
" />
<path d="M307 50910
L250 50837
" />
<path d="M153 50679
L115 50595
" />
<path d="M82 50508
L57 50419
" />
<path d="M199 50760
L153 50679
" />
<path d="M57 50419
L39 50328
" />
<path d="M115 50595
L82 50508
" />
<g >
</g>
<g >
</g>
<g >
</g>
<g >
</g>
<g >
</g>
<g >
</g>
<g >
</g>
<g >
</g>
<g >
</g>
<g >
</g>
<g >
</g>
<g >
</g>
<g >
</g>
<g >
</g>
<g >
</g>
<g >
</g>
<g >
</g>
<g >
</g>
<g >
</g>
<g >
</g>
<g >
</g>
<g >
</g>
<g >
</g>
<g >
</g>
<g >
</g>
<g >
</g>
<g >
</g>
<g >
</g>
<g >
</g>
<g >
</g>
<g >
</g>
<g >
</g>
<g >
</g>
<g >
</g>
<g >
</g>
<g >
</g>
<g >
</g>
<g >
</g>
<g >
</g>
<g >
</g>
<g >
</g>
<g >
</g>
<g >
</g>
<g >
</g>
<g >
</g>
<g >
</g>
<g >
</g>
<g >
</g>
<g >
</g>
<g >
</g>
<g >
</g>
<g >
</g>
<g >
</g>
<g >
</g>
<g >
</g>
<g >
</g>
<g >
</g>
<g >
</g>
<g >
</g>
<g >
</g>
<g >
</g>
<g >
</g>
<g >
</g>
<g >
</g>
<g >
</g>
<g >
</g>
<g >
</g>
<g >
</g>
<g >
</g>
<g >
</g>
<g >
</g>
<g >
</g>
<g >
</g>
<g >
</g>
<g >
</g>
<g >
</g>
<g >
</g>
<g >
</g>
<g >
</g>
<g >
</g>
<g >
</g>
<g >
</g>
<g >
</g>
<g >
</g>
<g >
</g>
<g >
</g>
<g >
</g>
<g >
</g>
<g >
</g>
<g >
</g>
<g >
</g>
<g >
</g>
<g >
</g>
<g >
</g>
<g >
</g>
<g >
</g>
<g >
</g>
<g >
</g>
<g >
</g>
<g >
</g>
<g >
</g>
<g >
</g>
<g >
</g>
<g >
</g>
<g >
</g>
<g >
</g>
<g >
</g>
<g >
</g>
<g >
</g>
<g >
</g>
<g >
</g>
<g >
</g>
<g >
</g>
<g >
</g>
<g >
</g>
<g >
</g>
<g >
</g>
<g >
</g>
<g >
</g>
<g >
</g>
<g >
</g>
<g >
</g>
<g >
</g>
<g >
</g>
<g >
</g>
<g >
</g>
<g >
</g>
<g >
</g>
<g >
</g>
<g >
</g>
<g >
</g>
<g >
</g>
<g >
</g>
<g >
</g>
<g >
</g>
<g >
</g>
<g >
</g>
<g >
</g>
<g >
</g>
<g >
</g>
<g >
</g>
<g >
</g>
<g >
</g>
<g >
</g>
<g >
</g>
<g >
</g>
<g >
</g>
<g >
</g>
<g >
</g>
<g >
</g>
<g >
</g>
<g >
</g>
<g >
</g>
<g >
</g>
<g >
</g>
<g >
</g>
<g >
</g>
<g >
</g>
<g >
</g>
<g >
</g>
<g >
</g>
<g >
</g>
<g >
</g>
<g >
</g>
<g >
</g>
<g >
</g>
<g >
</g>
<g >
</g>
<g >
</g>
<g >
</g>
<g >
</g>
<g >
</g>
<g >
</g>
<g >
</g>
<g >
</g>
<g >
</g>
</g> 
</svg>
