G04 #@! TF.GenerationSoftware,KiCad,Pcbnew,(5.1.4)-1*
G04 #@! TF.CreationDate,2020-08-15T02:07:02-07:00*
G04 #@! TF.ProjectId,B3PKey,4233504b-6579-42e6-9b69-6361645f7063,1*
G04 #@! TF.SameCoordinates,Original*
G04 #@! TF.FileFunction,Paste,Bot*
G04 #@! TF.FilePolarity,Positive*
%FSLAX46Y46*%
G04 Gerber Fmt 4.6, Leading zero omitted, Abs format (unit mm)*
G04 Created by KiCad (PCBNEW (5.1.4)-1) date 2020-08-15 02:07:02*
%MOMM*%
%LPD*%
G04 APERTURE LIST*
%ADD10R,0.500000X2.250000*%
%ADD11R,1.200000X0.900000*%
%ADD12C,0.100000*%
%ADD13C,0.975000*%
%ADD14R,1.400000X1.200000*%
%ADD15R,0.550000X1.500000*%
%ADD16R,1.500000X0.550000*%
%ADD17R,1.100000X1.800000*%
G04 APERTURE END LIST*
D10*
X96825000Y-69016000D03*
X97625000Y-69016000D03*
X98425000Y-69016000D03*
X99225000Y-69016000D03*
X100025000Y-69016000D03*
D11*
X149225000Y-187262500D03*
X149225000Y-190562500D03*
X339725000Y-190562500D03*
X339725000Y-187262500D03*
D12*
G36*
X95349142Y-74443674D02*
G01*
X95372803Y-74447184D01*
X95396007Y-74452996D01*
X95418529Y-74461054D01*
X95440153Y-74471282D01*
X95460670Y-74483579D01*
X95479883Y-74497829D01*
X95497607Y-74513893D01*
X95513671Y-74531617D01*
X95527921Y-74550830D01*
X95540218Y-74571347D01*
X95550446Y-74592971D01*
X95558504Y-74615493D01*
X95564316Y-74638697D01*
X95567826Y-74662358D01*
X95569000Y-74686250D01*
X95569000Y-75173750D01*
X95567826Y-75197642D01*
X95564316Y-75221303D01*
X95558504Y-75244507D01*
X95550446Y-75267029D01*
X95540218Y-75288653D01*
X95527921Y-75309170D01*
X95513671Y-75328383D01*
X95497607Y-75346107D01*
X95479883Y-75362171D01*
X95460670Y-75376421D01*
X95440153Y-75388718D01*
X95418529Y-75398946D01*
X95396007Y-75407004D01*
X95372803Y-75412816D01*
X95349142Y-75416326D01*
X95325250Y-75417500D01*
X94412750Y-75417500D01*
X94388858Y-75416326D01*
X94365197Y-75412816D01*
X94341993Y-75407004D01*
X94319471Y-75398946D01*
X94297847Y-75388718D01*
X94277330Y-75376421D01*
X94258117Y-75362171D01*
X94240393Y-75346107D01*
X94224329Y-75328383D01*
X94210079Y-75309170D01*
X94197782Y-75288653D01*
X94187554Y-75267029D01*
X94179496Y-75244507D01*
X94173684Y-75221303D01*
X94170174Y-75197642D01*
X94169000Y-75173750D01*
X94169000Y-74686250D01*
X94170174Y-74662358D01*
X94173684Y-74638697D01*
X94179496Y-74615493D01*
X94187554Y-74592971D01*
X94197782Y-74571347D01*
X94210079Y-74550830D01*
X94224329Y-74531617D01*
X94240393Y-74513893D01*
X94258117Y-74497829D01*
X94277330Y-74483579D01*
X94297847Y-74471282D01*
X94319471Y-74461054D01*
X94341993Y-74452996D01*
X94365197Y-74447184D01*
X94388858Y-74443674D01*
X94412750Y-74442500D01*
X95325250Y-74442500D01*
X95349142Y-74443674D01*
X95349142Y-74443674D01*
G37*
D13*
X94869000Y-74930000D03*
D12*
G36*
X95349142Y-76318674D02*
G01*
X95372803Y-76322184D01*
X95396007Y-76327996D01*
X95418529Y-76336054D01*
X95440153Y-76346282D01*
X95460670Y-76358579D01*
X95479883Y-76372829D01*
X95497607Y-76388893D01*
X95513671Y-76406617D01*
X95527921Y-76425830D01*
X95540218Y-76446347D01*
X95550446Y-76467971D01*
X95558504Y-76490493D01*
X95564316Y-76513697D01*
X95567826Y-76537358D01*
X95569000Y-76561250D01*
X95569000Y-77048750D01*
X95567826Y-77072642D01*
X95564316Y-77096303D01*
X95558504Y-77119507D01*
X95550446Y-77142029D01*
X95540218Y-77163653D01*
X95527921Y-77184170D01*
X95513671Y-77203383D01*
X95497607Y-77221107D01*
X95479883Y-77237171D01*
X95460670Y-77251421D01*
X95440153Y-77263718D01*
X95418529Y-77273946D01*
X95396007Y-77282004D01*
X95372803Y-77287816D01*
X95349142Y-77291326D01*
X95325250Y-77292500D01*
X94412750Y-77292500D01*
X94388858Y-77291326D01*
X94365197Y-77287816D01*
X94341993Y-77282004D01*
X94319471Y-77273946D01*
X94297847Y-77263718D01*
X94277330Y-77251421D01*
X94258117Y-77237171D01*
X94240393Y-77221107D01*
X94224329Y-77203383D01*
X94210079Y-77184170D01*
X94197782Y-77163653D01*
X94187554Y-77142029D01*
X94179496Y-77119507D01*
X94173684Y-77096303D01*
X94170174Y-77072642D01*
X94169000Y-77048750D01*
X94169000Y-76561250D01*
X94170174Y-76537358D01*
X94173684Y-76513697D01*
X94179496Y-76490493D01*
X94187554Y-76467971D01*
X94197782Y-76446347D01*
X94210079Y-76425830D01*
X94224329Y-76406617D01*
X94240393Y-76388893D01*
X94258117Y-76372829D01*
X94277330Y-76358579D01*
X94297847Y-76346282D01*
X94319471Y-76336054D01*
X94341993Y-76327996D01*
X94365197Y-76322184D01*
X94388858Y-76318674D01*
X94412750Y-76317500D01*
X95325250Y-76317500D01*
X95349142Y-76318674D01*
X95349142Y-76318674D01*
G37*
D13*
X94869000Y-76805000D03*
D11*
X320675000Y-187262500D03*
X320675000Y-190562500D03*
X301625000Y-187262500D03*
X301625000Y-190562500D03*
X282575000Y-187262500D03*
X282575000Y-190562500D03*
X263525000Y-187200000D03*
X263525000Y-190500000D03*
X244475000Y-187262500D03*
X244475000Y-190562500D03*
X215900000Y-187262500D03*
X215900000Y-190562500D03*
X177800000Y-187262500D03*
X177800000Y-190562500D03*
X130175000Y-187262500D03*
X130175000Y-190562500D03*
X111125000Y-187262500D03*
X111125000Y-190562500D03*
X92075000Y-187262500D03*
X92075000Y-190562500D03*
X339725000Y-168212500D03*
X339725000Y-171512500D03*
X320675000Y-168212500D03*
X320675000Y-171512500D03*
X301625000Y-168212500D03*
X301625000Y-171512500D03*
X282575000Y-168212500D03*
X282575000Y-171512500D03*
X263525000Y-168212500D03*
X263525000Y-171512500D03*
X244475000Y-168212500D03*
X244475000Y-171512500D03*
X225425000Y-168212500D03*
X225425000Y-171512500D03*
X206375000Y-168212500D03*
X206375000Y-171512500D03*
X187325000Y-168212500D03*
X187325000Y-171512500D03*
X168275000Y-168212500D03*
X168275000Y-171512500D03*
X149225000Y-168212500D03*
X149225000Y-171512500D03*
X130175000Y-168212500D03*
X130175000Y-171512500D03*
X111125000Y-168212500D03*
X111125000Y-171512500D03*
X92075000Y-168212500D03*
X92075000Y-171512500D03*
X330200000Y-149162500D03*
X330200000Y-152462500D03*
X301625000Y-149162500D03*
X301625000Y-152462500D03*
X282575000Y-149162500D03*
X282575000Y-152462500D03*
X263525000Y-149162500D03*
X263525000Y-152462500D03*
X244475000Y-149162500D03*
X244475000Y-152462500D03*
X225425000Y-149225000D03*
X225425000Y-152525000D03*
X206375000Y-149162500D03*
X206375000Y-152462500D03*
X187325000Y-149162500D03*
X187325000Y-152462500D03*
X168275000Y-149162500D03*
X168275000Y-152462500D03*
X149225000Y-149162500D03*
X149225000Y-152462500D03*
X130175000Y-149162500D03*
X130175000Y-152462500D03*
X111125000Y-152462500D03*
X111125000Y-149162500D03*
X92075000Y-149162500D03*
X92075000Y-152462500D03*
X339725000Y-130112500D03*
X339725000Y-133412500D03*
X320675000Y-130112500D03*
X320675000Y-133412500D03*
X301625000Y-130112500D03*
X301625000Y-133412500D03*
X282575000Y-130112500D03*
X282575000Y-133412500D03*
X263525000Y-130112500D03*
X263525000Y-133412500D03*
X244475000Y-130112500D03*
X244475000Y-133412500D03*
X225425000Y-130112500D03*
X225425000Y-133412500D03*
X206375000Y-130112500D03*
X206375000Y-133412500D03*
X187325000Y-130112500D03*
X187325000Y-133412500D03*
X168275000Y-130112500D03*
X168275000Y-133412500D03*
X149225000Y-130112500D03*
X149225000Y-133412500D03*
X130175000Y-130112500D03*
X130175000Y-133412500D03*
X111125000Y-130112500D03*
X111125000Y-133412500D03*
X92075000Y-130112500D03*
X92075000Y-133412500D03*
X339725000Y-111062500D03*
X339725000Y-114362500D03*
X320675000Y-111062500D03*
X320675000Y-114362500D03*
X301625000Y-111062500D03*
X301625000Y-114362500D03*
X282575000Y-111062500D03*
X282575000Y-114362500D03*
X263525000Y-111062500D03*
X263525000Y-114362500D03*
X244475000Y-111062500D03*
X244475000Y-114362500D03*
X225425000Y-111062500D03*
X225425000Y-114362500D03*
X206375000Y-111062500D03*
X206375000Y-114362500D03*
X187325000Y-111062500D03*
X187325000Y-114362500D03*
X168275000Y-111062500D03*
X168275000Y-114362500D03*
X149225000Y-111062500D03*
X149225000Y-114362500D03*
X130175000Y-111062500D03*
X130175000Y-114362500D03*
X111125000Y-111062500D03*
X111125000Y-114362500D03*
X92075000Y-111062500D03*
X92075000Y-114362500D03*
X339725000Y-92012500D03*
X339725000Y-95312500D03*
X320675000Y-92012500D03*
X320675000Y-95312500D03*
X301625000Y-92012500D03*
X301625000Y-95312500D03*
X282575000Y-92012500D03*
X282575000Y-95312500D03*
X263525000Y-92012500D03*
X263525000Y-95312500D03*
X244475000Y-92012500D03*
X244475000Y-95312500D03*
X225425000Y-92012500D03*
X225425000Y-95312500D03*
X206375000Y-92012500D03*
X206375000Y-95312500D03*
X187325000Y-92012500D03*
X187325000Y-95312500D03*
X168275000Y-92012500D03*
X168275000Y-95312500D03*
X149225000Y-92012500D03*
X149225000Y-95312500D03*
X130175000Y-92012500D03*
X130175000Y-95312500D03*
X111125000Y-92012500D03*
X111125000Y-95312500D03*
X92075000Y-92012500D03*
X92075000Y-95312500D03*
D14*
X117073090Y-65162222D03*
X114873090Y-65162222D03*
X114873090Y-66862222D03*
X117073090Y-66862222D03*
D15*
X112713000Y-82916000D03*
X113513000Y-82916000D03*
X114313000Y-82916000D03*
X115113000Y-82916000D03*
X115913000Y-82916000D03*
X116713000Y-82916000D03*
X117513000Y-82916000D03*
X118313000Y-82916000D03*
X119113000Y-82916000D03*
X119913000Y-82916000D03*
X120713000Y-82916000D03*
D16*
X122413000Y-81216000D03*
X122413000Y-80416000D03*
X122413000Y-79616000D03*
X122413000Y-78816000D03*
X122413000Y-78016000D03*
X122413000Y-77216000D03*
X122413000Y-76416000D03*
X122413000Y-75616000D03*
X122413000Y-74816000D03*
X122413000Y-74016000D03*
X122413000Y-73216000D03*
D15*
X120713000Y-71516000D03*
X119913000Y-71516000D03*
X119113000Y-71516000D03*
X118313000Y-71516000D03*
X117513000Y-71516000D03*
X116713000Y-71516000D03*
X115913000Y-71516000D03*
X115113000Y-71516000D03*
X114313000Y-71516000D03*
X113513000Y-71516000D03*
X112713000Y-71516000D03*
D16*
X111013000Y-73216000D03*
X111013000Y-74016000D03*
X111013000Y-74816000D03*
X111013000Y-75616000D03*
X111013000Y-76416000D03*
X111013000Y-77216000D03*
X111013000Y-78016000D03*
X111013000Y-78816000D03*
X111013000Y-79616000D03*
X111013000Y-80416000D03*
X111013000Y-81216000D03*
D17*
X105846000Y-70791000D03*
X109546000Y-64591000D03*
X109546000Y-70791000D03*
X105846000Y-64591000D03*
D12*
G36*
X125695142Y-82867174D02*
G01*
X125718803Y-82870684D01*
X125742007Y-82876496D01*
X125764529Y-82884554D01*
X125786153Y-82894782D01*
X125806670Y-82907079D01*
X125825883Y-82921329D01*
X125843607Y-82937393D01*
X125859671Y-82955117D01*
X125873921Y-82974330D01*
X125886218Y-82994847D01*
X125896446Y-83016471D01*
X125904504Y-83038993D01*
X125910316Y-83062197D01*
X125913826Y-83085858D01*
X125915000Y-83109750D01*
X125915000Y-84022250D01*
X125913826Y-84046142D01*
X125910316Y-84069803D01*
X125904504Y-84093007D01*
X125896446Y-84115529D01*
X125886218Y-84137153D01*
X125873921Y-84157670D01*
X125859671Y-84176883D01*
X125843607Y-84194607D01*
X125825883Y-84210671D01*
X125806670Y-84224921D01*
X125786153Y-84237218D01*
X125764529Y-84247446D01*
X125742007Y-84255504D01*
X125718803Y-84261316D01*
X125695142Y-84264826D01*
X125671250Y-84266000D01*
X125183750Y-84266000D01*
X125159858Y-84264826D01*
X125136197Y-84261316D01*
X125112993Y-84255504D01*
X125090471Y-84247446D01*
X125068847Y-84237218D01*
X125048330Y-84224921D01*
X125029117Y-84210671D01*
X125011393Y-84194607D01*
X124995329Y-84176883D01*
X124981079Y-84157670D01*
X124968782Y-84137153D01*
X124958554Y-84115529D01*
X124950496Y-84093007D01*
X124944684Y-84069803D01*
X124941174Y-84046142D01*
X124940000Y-84022250D01*
X124940000Y-83109750D01*
X124941174Y-83085858D01*
X124944684Y-83062197D01*
X124950496Y-83038993D01*
X124958554Y-83016471D01*
X124968782Y-82994847D01*
X124981079Y-82974330D01*
X124995329Y-82955117D01*
X125011393Y-82937393D01*
X125029117Y-82921329D01*
X125048330Y-82907079D01*
X125068847Y-82894782D01*
X125090471Y-82884554D01*
X125112993Y-82876496D01*
X125136197Y-82870684D01*
X125159858Y-82867174D01*
X125183750Y-82866000D01*
X125671250Y-82866000D01*
X125695142Y-82867174D01*
X125695142Y-82867174D01*
G37*
D13*
X125427500Y-83566000D03*
D12*
G36*
X127570142Y-82867174D02*
G01*
X127593803Y-82870684D01*
X127617007Y-82876496D01*
X127639529Y-82884554D01*
X127661153Y-82894782D01*
X127681670Y-82907079D01*
X127700883Y-82921329D01*
X127718607Y-82937393D01*
X127734671Y-82955117D01*
X127748921Y-82974330D01*
X127761218Y-82994847D01*
X127771446Y-83016471D01*
X127779504Y-83038993D01*
X127785316Y-83062197D01*
X127788826Y-83085858D01*
X127790000Y-83109750D01*
X127790000Y-84022250D01*
X127788826Y-84046142D01*
X127785316Y-84069803D01*
X127779504Y-84093007D01*
X127771446Y-84115529D01*
X127761218Y-84137153D01*
X127748921Y-84157670D01*
X127734671Y-84176883D01*
X127718607Y-84194607D01*
X127700883Y-84210671D01*
X127681670Y-84224921D01*
X127661153Y-84237218D01*
X127639529Y-84247446D01*
X127617007Y-84255504D01*
X127593803Y-84261316D01*
X127570142Y-84264826D01*
X127546250Y-84266000D01*
X127058750Y-84266000D01*
X127034858Y-84264826D01*
X127011197Y-84261316D01*
X126987993Y-84255504D01*
X126965471Y-84247446D01*
X126943847Y-84237218D01*
X126923330Y-84224921D01*
X126904117Y-84210671D01*
X126886393Y-84194607D01*
X126870329Y-84176883D01*
X126856079Y-84157670D01*
X126843782Y-84137153D01*
X126833554Y-84115529D01*
X126825496Y-84093007D01*
X126819684Y-84069803D01*
X126816174Y-84046142D01*
X126815000Y-84022250D01*
X126815000Y-83109750D01*
X126816174Y-83085858D01*
X126819684Y-83062197D01*
X126825496Y-83038993D01*
X126833554Y-83016471D01*
X126843782Y-82994847D01*
X126856079Y-82974330D01*
X126870329Y-82955117D01*
X126886393Y-82937393D01*
X126904117Y-82921329D01*
X126923330Y-82907079D01*
X126943847Y-82894782D01*
X126965471Y-82884554D01*
X126987993Y-82876496D01*
X127011197Y-82870684D01*
X127034858Y-82867174D01*
X127058750Y-82866000D01*
X127546250Y-82866000D01*
X127570142Y-82867174D01*
X127570142Y-82867174D01*
G37*
D13*
X127302500Y-83566000D03*
D12*
G36*
X97508142Y-74395174D02*
G01*
X97531803Y-74398684D01*
X97555007Y-74404496D01*
X97577529Y-74412554D01*
X97599153Y-74422782D01*
X97619670Y-74435079D01*
X97638883Y-74449329D01*
X97656607Y-74465393D01*
X97672671Y-74483117D01*
X97686921Y-74502330D01*
X97699218Y-74522847D01*
X97709446Y-74544471D01*
X97717504Y-74566993D01*
X97723316Y-74590197D01*
X97726826Y-74613858D01*
X97728000Y-74637750D01*
X97728000Y-75125250D01*
X97726826Y-75149142D01*
X97723316Y-75172803D01*
X97717504Y-75196007D01*
X97709446Y-75218529D01*
X97699218Y-75240153D01*
X97686921Y-75260670D01*
X97672671Y-75279883D01*
X97656607Y-75297607D01*
X97638883Y-75313671D01*
X97619670Y-75327921D01*
X97599153Y-75340218D01*
X97577529Y-75350446D01*
X97555007Y-75358504D01*
X97531803Y-75364316D01*
X97508142Y-75367826D01*
X97484250Y-75369000D01*
X96571750Y-75369000D01*
X96547858Y-75367826D01*
X96524197Y-75364316D01*
X96500993Y-75358504D01*
X96478471Y-75350446D01*
X96456847Y-75340218D01*
X96436330Y-75327921D01*
X96417117Y-75313671D01*
X96399393Y-75297607D01*
X96383329Y-75279883D01*
X96369079Y-75260670D01*
X96356782Y-75240153D01*
X96346554Y-75218529D01*
X96338496Y-75196007D01*
X96332684Y-75172803D01*
X96329174Y-75149142D01*
X96328000Y-75125250D01*
X96328000Y-74637750D01*
X96329174Y-74613858D01*
X96332684Y-74590197D01*
X96338496Y-74566993D01*
X96346554Y-74544471D01*
X96356782Y-74522847D01*
X96369079Y-74502330D01*
X96383329Y-74483117D01*
X96399393Y-74465393D01*
X96417117Y-74449329D01*
X96436330Y-74435079D01*
X96456847Y-74422782D01*
X96478471Y-74412554D01*
X96500993Y-74404496D01*
X96524197Y-74398684D01*
X96547858Y-74395174D01*
X96571750Y-74394000D01*
X97484250Y-74394000D01*
X97508142Y-74395174D01*
X97508142Y-74395174D01*
G37*
D13*
X97028000Y-74881500D03*
D12*
G36*
X97508142Y-76270174D02*
G01*
X97531803Y-76273684D01*
X97555007Y-76279496D01*
X97577529Y-76287554D01*
X97599153Y-76297782D01*
X97619670Y-76310079D01*
X97638883Y-76324329D01*
X97656607Y-76340393D01*
X97672671Y-76358117D01*
X97686921Y-76377330D01*
X97699218Y-76397847D01*
X97709446Y-76419471D01*
X97717504Y-76441993D01*
X97723316Y-76465197D01*
X97726826Y-76488858D01*
X97728000Y-76512750D01*
X97728000Y-77000250D01*
X97726826Y-77024142D01*
X97723316Y-77047803D01*
X97717504Y-77071007D01*
X97709446Y-77093529D01*
X97699218Y-77115153D01*
X97686921Y-77135670D01*
X97672671Y-77154883D01*
X97656607Y-77172607D01*
X97638883Y-77188671D01*
X97619670Y-77202921D01*
X97599153Y-77215218D01*
X97577529Y-77225446D01*
X97555007Y-77233504D01*
X97531803Y-77239316D01*
X97508142Y-77242826D01*
X97484250Y-77244000D01*
X96571750Y-77244000D01*
X96547858Y-77242826D01*
X96524197Y-77239316D01*
X96500993Y-77233504D01*
X96478471Y-77225446D01*
X96456847Y-77215218D01*
X96436330Y-77202921D01*
X96417117Y-77188671D01*
X96399393Y-77172607D01*
X96383329Y-77154883D01*
X96369079Y-77135670D01*
X96356782Y-77115153D01*
X96346554Y-77093529D01*
X96338496Y-77071007D01*
X96332684Y-77047803D01*
X96329174Y-77024142D01*
X96328000Y-77000250D01*
X96328000Y-76512750D01*
X96329174Y-76488858D01*
X96332684Y-76465197D01*
X96338496Y-76441993D01*
X96346554Y-76419471D01*
X96356782Y-76397847D01*
X96369079Y-76377330D01*
X96383329Y-76358117D01*
X96399393Y-76340393D01*
X96417117Y-76324329D01*
X96436330Y-76310079D01*
X96456847Y-76297782D01*
X96478471Y-76287554D01*
X96500993Y-76279496D01*
X96524197Y-76273684D01*
X96547858Y-76270174D01*
X96571750Y-76269000D01*
X97484250Y-76269000D01*
X97508142Y-76270174D01*
X97508142Y-76270174D01*
G37*
D13*
X97028000Y-76756500D03*
D12*
G36*
X99540142Y-74395174D02*
G01*
X99563803Y-74398684D01*
X99587007Y-74404496D01*
X99609529Y-74412554D01*
X99631153Y-74422782D01*
X99651670Y-74435079D01*
X99670883Y-74449329D01*
X99688607Y-74465393D01*
X99704671Y-74483117D01*
X99718921Y-74502330D01*
X99731218Y-74522847D01*
X99741446Y-74544471D01*
X99749504Y-74566993D01*
X99755316Y-74590197D01*
X99758826Y-74613858D01*
X99760000Y-74637750D01*
X99760000Y-75125250D01*
X99758826Y-75149142D01*
X99755316Y-75172803D01*
X99749504Y-75196007D01*
X99741446Y-75218529D01*
X99731218Y-75240153D01*
X99718921Y-75260670D01*
X99704671Y-75279883D01*
X99688607Y-75297607D01*
X99670883Y-75313671D01*
X99651670Y-75327921D01*
X99631153Y-75340218D01*
X99609529Y-75350446D01*
X99587007Y-75358504D01*
X99563803Y-75364316D01*
X99540142Y-75367826D01*
X99516250Y-75369000D01*
X98603750Y-75369000D01*
X98579858Y-75367826D01*
X98556197Y-75364316D01*
X98532993Y-75358504D01*
X98510471Y-75350446D01*
X98488847Y-75340218D01*
X98468330Y-75327921D01*
X98449117Y-75313671D01*
X98431393Y-75297607D01*
X98415329Y-75279883D01*
X98401079Y-75260670D01*
X98388782Y-75240153D01*
X98378554Y-75218529D01*
X98370496Y-75196007D01*
X98364684Y-75172803D01*
X98361174Y-75149142D01*
X98360000Y-75125250D01*
X98360000Y-74637750D01*
X98361174Y-74613858D01*
X98364684Y-74590197D01*
X98370496Y-74566993D01*
X98378554Y-74544471D01*
X98388782Y-74522847D01*
X98401079Y-74502330D01*
X98415329Y-74483117D01*
X98431393Y-74465393D01*
X98449117Y-74449329D01*
X98468330Y-74435079D01*
X98488847Y-74422782D01*
X98510471Y-74412554D01*
X98532993Y-74404496D01*
X98556197Y-74398684D01*
X98579858Y-74395174D01*
X98603750Y-74394000D01*
X99516250Y-74394000D01*
X99540142Y-74395174D01*
X99540142Y-74395174D01*
G37*
D13*
X99060000Y-74881500D03*
D12*
G36*
X99540142Y-76270174D02*
G01*
X99563803Y-76273684D01*
X99587007Y-76279496D01*
X99609529Y-76287554D01*
X99631153Y-76297782D01*
X99651670Y-76310079D01*
X99670883Y-76324329D01*
X99688607Y-76340393D01*
X99704671Y-76358117D01*
X99718921Y-76377330D01*
X99731218Y-76397847D01*
X99741446Y-76419471D01*
X99749504Y-76441993D01*
X99755316Y-76465197D01*
X99758826Y-76488858D01*
X99760000Y-76512750D01*
X99760000Y-77000250D01*
X99758826Y-77024142D01*
X99755316Y-77047803D01*
X99749504Y-77071007D01*
X99741446Y-77093529D01*
X99731218Y-77115153D01*
X99718921Y-77135670D01*
X99704671Y-77154883D01*
X99688607Y-77172607D01*
X99670883Y-77188671D01*
X99651670Y-77202921D01*
X99631153Y-77215218D01*
X99609529Y-77225446D01*
X99587007Y-77233504D01*
X99563803Y-77239316D01*
X99540142Y-77242826D01*
X99516250Y-77244000D01*
X98603750Y-77244000D01*
X98579858Y-77242826D01*
X98556197Y-77239316D01*
X98532993Y-77233504D01*
X98510471Y-77225446D01*
X98488847Y-77215218D01*
X98468330Y-77202921D01*
X98449117Y-77188671D01*
X98431393Y-77172607D01*
X98415329Y-77154883D01*
X98401079Y-77135670D01*
X98388782Y-77115153D01*
X98378554Y-77093529D01*
X98370496Y-77071007D01*
X98364684Y-77047803D01*
X98361174Y-77024142D01*
X98360000Y-77000250D01*
X98360000Y-76512750D01*
X98361174Y-76488858D01*
X98364684Y-76465197D01*
X98370496Y-76441993D01*
X98378554Y-76419471D01*
X98388782Y-76397847D01*
X98401079Y-76377330D01*
X98415329Y-76358117D01*
X98431393Y-76340393D01*
X98449117Y-76324329D01*
X98468330Y-76310079D01*
X98488847Y-76297782D01*
X98510471Y-76287554D01*
X98532993Y-76279496D01*
X98556197Y-76273684D01*
X98579858Y-76270174D01*
X98603750Y-76269000D01*
X99516250Y-76269000D01*
X99540142Y-76270174D01*
X99540142Y-76270174D01*
G37*
D13*
X99060000Y-76756500D03*
D12*
G36*
X113473142Y-68262174D02*
G01*
X113496803Y-68265684D01*
X113520007Y-68271496D01*
X113542529Y-68279554D01*
X113564153Y-68289782D01*
X113584670Y-68302079D01*
X113603883Y-68316329D01*
X113621607Y-68332393D01*
X113637671Y-68350117D01*
X113651921Y-68369330D01*
X113664218Y-68389847D01*
X113674446Y-68411471D01*
X113682504Y-68433993D01*
X113688316Y-68457197D01*
X113691826Y-68480858D01*
X113693000Y-68504750D01*
X113693000Y-69417250D01*
X113691826Y-69441142D01*
X113688316Y-69464803D01*
X113682504Y-69488007D01*
X113674446Y-69510529D01*
X113664218Y-69532153D01*
X113651921Y-69552670D01*
X113637671Y-69571883D01*
X113621607Y-69589607D01*
X113603883Y-69605671D01*
X113584670Y-69619921D01*
X113564153Y-69632218D01*
X113542529Y-69642446D01*
X113520007Y-69650504D01*
X113496803Y-69656316D01*
X113473142Y-69659826D01*
X113449250Y-69661000D01*
X112961750Y-69661000D01*
X112937858Y-69659826D01*
X112914197Y-69656316D01*
X112890993Y-69650504D01*
X112868471Y-69642446D01*
X112846847Y-69632218D01*
X112826330Y-69619921D01*
X112807117Y-69605671D01*
X112789393Y-69589607D01*
X112773329Y-69571883D01*
X112759079Y-69552670D01*
X112746782Y-69532153D01*
X112736554Y-69510529D01*
X112728496Y-69488007D01*
X112722684Y-69464803D01*
X112719174Y-69441142D01*
X112718000Y-69417250D01*
X112718000Y-68504750D01*
X112719174Y-68480858D01*
X112722684Y-68457197D01*
X112728496Y-68433993D01*
X112736554Y-68411471D01*
X112746782Y-68389847D01*
X112759079Y-68369330D01*
X112773329Y-68350117D01*
X112789393Y-68332393D01*
X112807117Y-68316329D01*
X112826330Y-68302079D01*
X112846847Y-68289782D01*
X112868471Y-68279554D01*
X112890993Y-68271496D01*
X112914197Y-68265684D01*
X112937858Y-68262174D01*
X112961750Y-68261000D01*
X113449250Y-68261000D01*
X113473142Y-68262174D01*
X113473142Y-68262174D01*
G37*
D13*
X113205500Y-68961000D03*
D12*
G36*
X111598142Y-68262174D02*
G01*
X111621803Y-68265684D01*
X111645007Y-68271496D01*
X111667529Y-68279554D01*
X111689153Y-68289782D01*
X111709670Y-68302079D01*
X111728883Y-68316329D01*
X111746607Y-68332393D01*
X111762671Y-68350117D01*
X111776921Y-68369330D01*
X111789218Y-68389847D01*
X111799446Y-68411471D01*
X111807504Y-68433993D01*
X111813316Y-68457197D01*
X111816826Y-68480858D01*
X111818000Y-68504750D01*
X111818000Y-69417250D01*
X111816826Y-69441142D01*
X111813316Y-69464803D01*
X111807504Y-69488007D01*
X111799446Y-69510529D01*
X111789218Y-69532153D01*
X111776921Y-69552670D01*
X111762671Y-69571883D01*
X111746607Y-69589607D01*
X111728883Y-69605671D01*
X111709670Y-69619921D01*
X111689153Y-69632218D01*
X111667529Y-69642446D01*
X111645007Y-69650504D01*
X111621803Y-69656316D01*
X111598142Y-69659826D01*
X111574250Y-69661000D01*
X111086750Y-69661000D01*
X111062858Y-69659826D01*
X111039197Y-69656316D01*
X111015993Y-69650504D01*
X110993471Y-69642446D01*
X110971847Y-69632218D01*
X110951330Y-69619921D01*
X110932117Y-69605671D01*
X110914393Y-69589607D01*
X110898329Y-69571883D01*
X110884079Y-69552670D01*
X110871782Y-69532153D01*
X110861554Y-69510529D01*
X110853496Y-69488007D01*
X110847684Y-69464803D01*
X110844174Y-69441142D01*
X110843000Y-69417250D01*
X110843000Y-68504750D01*
X110844174Y-68480858D01*
X110847684Y-68457197D01*
X110853496Y-68433993D01*
X110861554Y-68411471D01*
X110871782Y-68389847D01*
X110884079Y-68369330D01*
X110898329Y-68350117D01*
X110914393Y-68332393D01*
X110932117Y-68316329D01*
X110951330Y-68302079D01*
X110971847Y-68289782D01*
X110993471Y-68279554D01*
X111015993Y-68271496D01*
X111039197Y-68265684D01*
X111062858Y-68262174D01*
X111086750Y-68261000D01*
X111574250Y-68261000D01*
X111598142Y-68262174D01*
X111598142Y-68262174D01*
G37*
D13*
X111330500Y-68961000D03*
D12*
G36*
X105001142Y-82112174D02*
G01*
X105024803Y-82115684D01*
X105048007Y-82121496D01*
X105070529Y-82129554D01*
X105092153Y-82139782D01*
X105112670Y-82152079D01*
X105131883Y-82166329D01*
X105149607Y-82182393D01*
X105165671Y-82200117D01*
X105179921Y-82219330D01*
X105192218Y-82239847D01*
X105202446Y-82261471D01*
X105210504Y-82283993D01*
X105216316Y-82307197D01*
X105219826Y-82330858D01*
X105221000Y-82354750D01*
X105221000Y-82842250D01*
X105219826Y-82866142D01*
X105216316Y-82889803D01*
X105210504Y-82913007D01*
X105202446Y-82935529D01*
X105192218Y-82957153D01*
X105179921Y-82977670D01*
X105165671Y-82996883D01*
X105149607Y-83014607D01*
X105131883Y-83030671D01*
X105112670Y-83044921D01*
X105092153Y-83057218D01*
X105070529Y-83067446D01*
X105048007Y-83075504D01*
X105024803Y-83081316D01*
X105001142Y-83084826D01*
X104977250Y-83086000D01*
X104064750Y-83086000D01*
X104040858Y-83084826D01*
X104017197Y-83081316D01*
X103993993Y-83075504D01*
X103971471Y-83067446D01*
X103949847Y-83057218D01*
X103929330Y-83044921D01*
X103910117Y-83030671D01*
X103892393Y-83014607D01*
X103876329Y-82996883D01*
X103862079Y-82977670D01*
X103849782Y-82957153D01*
X103839554Y-82935529D01*
X103831496Y-82913007D01*
X103825684Y-82889803D01*
X103822174Y-82866142D01*
X103821000Y-82842250D01*
X103821000Y-82354750D01*
X103822174Y-82330858D01*
X103825684Y-82307197D01*
X103831496Y-82283993D01*
X103839554Y-82261471D01*
X103849782Y-82239847D01*
X103862079Y-82219330D01*
X103876329Y-82200117D01*
X103892393Y-82182393D01*
X103910117Y-82166329D01*
X103929330Y-82152079D01*
X103949847Y-82139782D01*
X103971471Y-82129554D01*
X103993993Y-82121496D01*
X104017197Y-82115684D01*
X104040858Y-82112174D01*
X104064750Y-82111000D01*
X104977250Y-82111000D01*
X105001142Y-82112174D01*
X105001142Y-82112174D01*
G37*
D13*
X104521000Y-82598500D03*
D12*
G36*
X105001142Y-80237174D02*
G01*
X105024803Y-80240684D01*
X105048007Y-80246496D01*
X105070529Y-80254554D01*
X105092153Y-80264782D01*
X105112670Y-80277079D01*
X105131883Y-80291329D01*
X105149607Y-80307393D01*
X105165671Y-80325117D01*
X105179921Y-80344330D01*
X105192218Y-80364847D01*
X105202446Y-80386471D01*
X105210504Y-80408993D01*
X105216316Y-80432197D01*
X105219826Y-80455858D01*
X105221000Y-80479750D01*
X105221000Y-80967250D01*
X105219826Y-80991142D01*
X105216316Y-81014803D01*
X105210504Y-81038007D01*
X105202446Y-81060529D01*
X105192218Y-81082153D01*
X105179921Y-81102670D01*
X105165671Y-81121883D01*
X105149607Y-81139607D01*
X105131883Y-81155671D01*
X105112670Y-81169921D01*
X105092153Y-81182218D01*
X105070529Y-81192446D01*
X105048007Y-81200504D01*
X105024803Y-81206316D01*
X105001142Y-81209826D01*
X104977250Y-81211000D01*
X104064750Y-81211000D01*
X104040858Y-81209826D01*
X104017197Y-81206316D01*
X103993993Y-81200504D01*
X103971471Y-81192446D01*
X103949847Y-81182218D01*
X103929330Y-81169921D01*
X103910117Y-81155671D01*
X103892393Y-81139607D01*
X103876329Y-81121883D01*
X103862079Y-81102670D01*
X103849782Y-81082153D01*
X103839554Y-81060529D01*
X103831496Y-81038007D01*
X103825684Y-81014803D01*
X103822174Y-80991142D01*
X103821000Y-80967250D01*
X103821000Y-80479750D01*
X103822174Y-80455858D01*
X103825684Y-80432197D01*
X103831496Y-80408993D01*
X103839554Y-80386471D01*
X103849782Y-80364847D01*
X103862079Y-80344330D01*
X103876329Y-80325117D01*
X103892393Y-80307393D01*
X103910117Y-80291329D01*
X103929330Y-80277079D01*
X103949847Y-80264782D01*
X103971471Y-80254554D01*
X103993993Y-80246496D01*
X104017197Y-80240684D01*
X104040858Y-80237174D01*
X104064750Y-80236000D01*
X104977250Y-80236000D01*
X105001142Y-80237174D01*
X105001142Y-80237174D01*
G37*
D13*
X104521000Y-80723500D03*
D12*
G36*
X124141142Y-82867174D02*
G01*
X124164803Y-82870684D01*
X124188007Y-82876496D01*
X124210529Y-82884554D01*
X124232153Y-82894782D01*
X124252670Y-82907079D01*
X124271883Y-82921329D01*
X124289607Y-82937393D01*
X124305671Y-82955117D01*
X124319921Y-82974330D01*
X124332218Y-82994847D01*
X124342446Y-83016471D01*
X124350504Y-83038993D01*
X124356316Y-83062197D01*
X124359826Y-83085858D01*
X124361000Y-83109750D01*
X124361000Y-84022250D01*
X124359826Y-84046142D01*
X124356316Y-84069803D01*
X124350504Y-84093007D01*
X124342446Y-84115529D01*
X124332218Y-84137153D01*
X124319921Y-84157670D01*
X124305671Y-84176883D01*
X124289607Y-84194607D01*
X124271883Y-84210671D01*
X124252670Y-84224921D01*
X124232153Y-84237218D01*
X124210529Y-84247446D01*
X124188007Y-84255504D01*
X124164803Y-84261316D01*
X124141142Y-84264826D01*
X124117250Y-84266000D01*
X123629750Y-84266000D01*
X123605858Y-84264826D01*
X123582197Y-84261316D01*
X123558993Y-84255504D01*
X123536471Y-84247446D01*
X123514847Y-84237218D01*
X123494330Y-84224921D01*
X123475117Y-84210671D01*
X123457393Y-84194607D01*
X123441329Y-84176883D01*
X123427079Y-84157670D01*
X123414782Y-84137153D01*
X123404554Y-84115529D01*
X123396496Y-84093007D01*
X123390684Y-84069803D01*
X123387174Y-84046142D01*
X123386000Y-84022250D01*
X123386000Y-83109750D01*
X123387174Y-83085858D01*
X123390684Y-83062197D01*
X123396496Y-83038993D01*
X123404554Y-83016471D01*
X123414782Y-82994847D01*
X123427079Y-82974330D01*
X123441329Y-82955117D01*
X123457393Y-82937393D01*
X123475117Y-82921329D01*
X123494330Y-82907079D01*
X123514847Y-82894782D01*
X123536471Y-82884554D01*
X123558993Y-82876496D01*
X123582197Y-82870684D01*
X123605858Y-82867174D01*
X123629750Y-82866000D01*
X124117250Y-82866000D01*
X124141142Y-82867174D01*
X124141142Y-82867174D01*
G37*
D13*
X123873500Y-83566000D03*
D12*
G36*
X122266142Y-82867174D02*
G01*
X122289803Y-82870684D01*
X122313007Y-82876496D01*
X122335529Y-82884554D01*
X122357153Y-82894782D01*
X122377670Y-82907079D01*
X122396883Y-82921329D01*
X122414607Y-82937393D01*
X122430671Y-82955117D01*
X122444921Y-82974330D01*
X122457218Y-82994847D01*
X122467446Y-83016471D01*
X122475504Y-83038993D01*
X122481316Y-83062197D01*
X122484826Y-83085858D01*
X122486000Y-83109750D01*
X122486000Y-84022250D01*
X122484826Y-84046142D01*
X122481316Y-84069803D01*
X122475504Y-84093007D01*
X122467446Y-84115529D01*
X122457218Y-84137153D01*
X122444921Y-84157670D01*
X122430671Y-84176883D01*
X122414607Y-84194607D01*
X122396883Y-84210671D01*
X122377670Y-84224921D01*
X122357153Y-84237218D01*
X122335529Y-84247446D01*
X122313007Y-84255504D01*
X122289803Y-84261316D01*
X122266142Y-84264826D01*
X122242250Y-84266000D01*
X121754750Y-84266000D01*
X121730858Y-84264826D01*
X121707197Y-84261316D01*
X121683993Y-84255504D01*
X121661471Y-84247446D01*
X121639847Y-84237218D01*
X121619330Y-84224921D01*
X121600117Y-84210671D01*
X121582393Y-84194607D01*
X121566329Y-84176883D01*
X121552079Y-84157670D01*
X121539782Y-84137153D01*
X121529554Y-84115529D01*
X121521496Y-84093007D01*
X121515684Y-84069803D01*
X121512174Y-84046142D01*
X121511000Y-84022250D01*
X121511000Y-83109750D01*
X121512174Y-83085858D01*
X121515684Y-83062197D01*
X121521496Y-83038993D01*
X121529554Y-83016471D01*
X121539782Y-82994847D01*
X121552079Y-82974330D01*
X121566329Y-82955117D01*
X121582393Y-82937393D01*
X121600117Y-82921329D01*
X121619330Y-82907079D01*
X121639847Y-82894782D01*
X121661471Y-82884554D01*
X121683993Y-82876496D01*
X121707197Y-82870684D01*
X121730858Y-82867174D01*
X121754750Y-82866000D01*
X122242250Y-82866000D01*
X122266142Y-82867174D01*
X122266142Y-82867174D01*
G37*
D13*
X121998500Y-83566000D03*
D12*
G36*
X113383142Y-86049174D02*
G01*
X113406803Y-86052684D01*
X113430007Y-86058496D01*
X113452529Y-86066554D01*
X113474153Y-86076782D01*
X113494670Y-86089079D01*
X113513883Y-86103329D01*
X113531607Y-86119393D01*
X113547671Y-86137117D01*
X113561921Y-86156330D01*
X113574218Y-86176847D01*
X113584446Y-86198471D01*
X113592504Y-86220993D01*
X113598316Y-86244197D01*
X113601826Y-86267858D01*
X113603000Y-86291750D01*
X113603000Y-86779250D01*
X113601826Y-86803142D01*
X113598316Y-86826803D01*
X113592504Y-86850007D01*
X113584446Y-86872529D01*
X113574218Y-86894153D01*
X113561921Y-86914670D01*
X113547671Y-86933883D01*
X113531607Y-86951607D01*
X113513883Y-86967671D01*
X113494670Y-86981921D01*
X113474153Y-86994218D01*
X113452529Y-87004446D01*
X113430007Y-87012504D01*
X113406803Y-87018316D01*
X113383142Y-87021826D01*
X113359250Y-87023000D01*
X112446750Y-87023000D01*
X112422858Y-87021826D01*
X112399197Y-87018316D01*
X112375993Y-87012504D01*
X112353471Y-87004446D01*
X112331847Y-86994218D01*
X112311330Y-86981921D01*
X112292117Y-86967671D01*
X112274393Y-86951607D01*
X112258329Y-86933883D01*
X112244079Y-86914670D01*
X112231782Y-86894153D01*
X112221554Y-86872529D01*
X112213496Y-86850007D01*
X112207684Y-86826803D01*
X112204174Y-86803142D01*
X112203000Y-86779250D01*
X112203000Y-86291750D01*
X112204174Y-86267858D01*
X112207684Y-86244197D01*
X112213496Y-86220993D01*
X112221554Y-86198471D01*
X112231782Y-86176847D01*
X112244079Y-86156330D01*
X112258329Y-86137117D01*
X112274393Y-86119393D01*
X112292117Y-86103329D01*
X112311330Y-86089079D01*
X112331847Y-86076782D01*
X112353471Y-86066554D01*
X112375993Y-86058496D01*
X112399197Y-86052684D01*
X112422858Y-86049174D01*
X112446750Y-86048000D01*
X113359250Y-86048000D01*
X113383142Y-86049174D01*
X113383142Y-86049174D01*
G37*
D13*
X112903000Y-86535500D03*
D12*
G36*
X113383142Y-84174174D02*
G01*
X113406803Y-84177684D01*
X113430007Y-84183496D01*
X113452529Y-84191554D01*
X113474153Y-84201782D01*
X113494670Y-84214079D01*
X113513883Y-84228329D01*
X113531607Y-84244393D01*
X113547671Y-84262117D01*
X113561921Y-84281330D01*
X113574218Y-84301847D01*
X113584446Y-84323471D01*
X113592504Y-84345993D01*
X113598316Y-84369197D01*
X113601826Y-84392858D01*
X113603000Y-84416750D01*
X113603000Y-84904250D01*
X113601826Y-84928142D01*
X113598316Y-84951803D01*
X113592504Y-84975007D01*
X113584446Y-84997529D01*
X113574218Y-85019153D01*
X113561921Y-85039670D01*
X113547671Y-85058883D01*
X113531607Y-85076607D01*
X113513883Y-85092671D01*
X113494670Y-85106921D01*
X113474153Y-85119218D01*
X113452529Y-85129446D01*
X113430007Y-85137504D01*
X113406803Y-85143316D01*
X113383142Y-85146826D01*
X113359250Y-85148000D01*
X112446750Y-85148000D01*
X112422858Y-85146826D01*
X112399197Y-85143316D01*
X112375993Y-85137504D01*
X112353471Y-85129446D01*
X112331847Y-85119218D01*
X112311330Y-85106921D01*
X112292117Y-85092671D01*
X112274393Y-85076607D01*
X112258329Y-85058883D01*
X112244079Y-85039670D01*
X112231782Y-85019153D01*
X112221554Y-84997529D01*
X112213496Y-84975007D01*
X112207684Y-84951803D01*
X112204174Y-84928142D01*
X112203000Y-84904250D01*
X112203000Y-84416750D01*
X112204174Y-84392858D01*
X112207684Y-84369197D01*
X112213496Y-84345993D01*
X112221554Y-84323471D01*
X112231782Y-84301847D01*
X112244079Y-84281330D01*
X112258329Y-84262117D01*
X112274393Y-84244393D01*
X112292117Y-84228329D01*
X112311330Y-84214079D01*
X112331847Y-84201782D01*
X112353471Y-84191554D01*
X112375993Y-84183496D01*
X112399197Y-84177684D01*
X112422858Y-84174174D01*
X112446750Y-84173000D01*
X113359250Y-84173000D01*
X113383142Y-84174174D01*
X113383142Y-84174174D01*
G37*
D13*
X112903000Y-84660500D03*
D12*
G36*
X124425142Y-72961174D02*
G01*
X124448803Y-72964684D01*
X124472007Y-72970496D01*
X124494529Y-72978554D01*
X124516153Y-72988782D01*
X124536670Y-73001079D01*
X124555883Y-73015329D01*
X124573607Y-73031393D01*
X124589671Y-73049117D01*
X124603921Y-73068330D01*
X124616218Y-73088847D01*
X124626446Y-73110471D01*
X124634504Y-73132993D01*
X124640316Y-73156197D01*
X124643826Y-73179858D01*
X124645000Y-73203750D01*
X124645000Y-74116250D01*
X124643826Y-74140142D01*
X124640316Y-74163803D01*
X124634504Y-74187007D01*
X124626446Y-74209529D01*
X124616218Y-74231153D01*
X124603921Y-74251670D01*
X124589671Y-74270883D01*
X124573607Y-74288607D01*
X124555883Y-74304671D01*
X124536670Y-74318921D01*
X124516153Y-74331218D01*
X124494529Y-74341446D01*
X124472007Y-74349504D01*
X124448803Y-74355316D01*
X124425142Y-74358826D01*
X124401250Y-74360000D01*
X123913750Y-74360000D01*
X123889858Y-74358826D01*
X123866197Y-74355316D01*
X123842993Y-74349504D01*
X123820471Y-74341446D01*
X123798847Y-74331218D01*
X123778330Y-74318921D01*
X123759117Y-74304671D01*
X123741393Y-74288607D01*
X123725329Y-74270883D01*
X123711079Y-74251670D01*
X123698782Y-74231153D01*
X123688554Y-74209529D01*
X123680496Y-74187007D01*
X123674684Y-74163803D01*
X123671174Y-74140142D01*
X123670000Y-74116250D01*
X123670000Y-73203750D01*
X123671174Y-73179858D01*
X123674684Y-73156197D01*
X123680496Y-73132993D01*
X123688554Y-73110471D01*
X123698782Y-73088847D01*
X123711079Y-73068330D01*
X123725329Y-73049117D01*
X123741393Y-73031393D01*
X123759117Y-73015329D01*
X123778330Y-73001079D01*
X123798847Y-72988782D01*
X123820471Y-72978554D01*
X123842993Y-72970496D01*
X123866197Y-72964684D01*
X123889858Y-72961174D01*
X123913750Y-72960000D01*
X124401250Y-72960000D01*
X124425142Y-72961174D01*
X124425142Y-72961174D01*
G37*
D13*
X124157500Y-73660000D03*
D12*
G36*
X126300142Y-72961174D02*
G01*
X126323803Y-72964684D01*
X126347007Y-72970496D01*
X126369529Y-72978554D01*
X126391153Y-72988782D01*
X126411670Y-73001079D01*
X126430883Y-73015329D01*
X126448607Y-73031393D01*
X126464671Y-73049117D01*
X126478921Y-73068330D01*
X126491218Y-73088847D01*
X126501446Y-73110471D01*
X126509504Y-73132993D01*
X126515316Y-73156197D01*
X126518826Y-73179858D01*
X126520000Y-73203750D01*
X126520000Y-74116250D01*
X126518826Y-74140142D01*
X126515316Y-74163803D01*
X126509504Y-74187007D01*
X126501446Y-74209529D01*
X126491218Y-74231153D01*
X126478921Y-74251670D01*
X126464671Y-74270883D01*
X126448607Y-74288607D01*
X126430883Y-74304671D01*
X126411670Y-74318921D01*
X126391153Y-74331218D01*
X126369529Y-74341446D01*
X126347007Y-74349504D01*
X126323803Y-74355316D01*
X126300142Y-74358826D01*
X126276250Y-74360000D01*
X125788750Y-74360000D01*
X125764858Y-74358826D01*
X125741197Y-74355316D01*
X125717993Y-74349504D01*
X125695471Y-74341446D01*
X125673847Y-74331218D01*
X125653330Y-74318921D01*
X125634117Y-74304671D01*
X125616393Y-74288607D01*
X125600329Y-74270883D01*
X125586079Y-74251670D01*
X125573782Y-74231153D01*
X125563554Y-74209529D01*
X125555496Y-74187007D01*
X125549684Y-74163803D01*
X125546174Y-74140142D01*
X125545000Y-74116250D01*
X125545000Y-73203750D01*
X125546174Y-73179858D01*
X125549684Y-73156197D01*
X125555496Y-73132993D01*
X125563554Y-73110471D01*
X125573782Y-73088847D01*
X125586079Y-73068330D01*
X125600329Y-73049117D01*
X125616393Y-73031393D01*
X125634117Y-73015329D01*
X125653330Y-73001079D01*
X125673847Y-72988782D01*
X125695471Y-72978554D01*
X125717993Y-72970496D01*
X125741197Y-72964684D01*
X125764858Y-72961174D01*
X125788750Y-72960000D01*
X126276250Y-72960000D01*
X126300142Y-72961174D01*
X126300142Y-72961174D01*
G37*
D13*
X126032500Y-73660000D03*
D12*
G36*
X107407142Y-77152174D02*
G01*
X107430803Y-77155684D01*
X107454007Y-77161496D01*
X107476529Y-77169554D01*
X107498153Y-77179782D01*
X107518670Y-77192079D01*
X107537883Y-77206329D01*
X107555607Y-77222393D01*
X107571671Y-77240117D01*
X107585921Y-77259330D01*
X107598218Y-77279847D01*
X107608446Y-77301471D01*
X107616504Y-77323993D01*
X107622316Y-77347197D01*
X107625826Y-77370858D01*
X107627000Y-77394750D01*
X107627000Y-78307250D01*
X107625826Y-78331142D01*
X107622316Y-78354803D01*
X107616504Y-78378007D01*
X107608446Y-78400529D01*
X107598218Y-78422153D01*
X107585921Y-78442670D01*
X107571671Y-78461883D01*
X107555607Y-78479607D01*
X107537883Y-78495671D01*
X107518670Y-78509921D01*
X107498153Y-78522218D01*
X107476529Y-78532446D01*
X107454007Y-78540504D01*
X107430803Y-78546316D01*
X107407142Y-78549826D01*
X107383250Y-78551000D01*
X106895750Y-78551000D01*
X106871858Y-78549826D01*
X106848197Y-78546316D01*
X106824993Y-78540504D01*
X106802471Y-78532446D01*
X106780847Y-78522218D01*
X106760330Y-78509921D01*
X106741117Y-78495671D01*
X106723393Y-78479607D01*
X106707329Y-78461883D01*
X106693079Y-78442670D01*
X106680782Y-78422153D01*
X106670554Y-78400529D01*
X106662496Y-78378007D01*
X106656684Y-78354803D01*
X106653174Y-78331142D01*
X106652000Y-78307250D01*
X106652000Y-77394750D01*
X106653174Y-77370858D01*
X106656684Y-77347197D01*
X106662496Y-77323993D01*
X106670554Y-77301471D01*
X106680782Y-77279847D01*
X106693079Y-77259330D01*
X106707329Y-77240117D01*
X106723393Y-77222393D01*
X106741117Y-77206329D01*
X106760330Y-77192079D01*
X106780847Y-77179782D01*
X106802471Y-77169554D01*
X106824993Y-77161496D01*
X106848197Y-77155684D01*
X106871858Y-77152174D01*
X106895750Y-77151000D01*
X107383250Y-77151000D01*
X107407142Y-77152174D01*
X107407142Y-77152174D01*
G37*
D13*
X107139500Y-77851000D03*
D12*
G36*
X109282142Y-77152174D02*
G01*
X109305803Y-77155684D01*
X109329007Y-77161496D01*
X109351529Y-77169554D01*
X109373153Y-77179782D01*
X109393670Y-77192079D01*
X109412883Y-77206329D01*
X109430607Y-77222393D01*
X109446671Y-77240117D01*
X109460921Y-77259330D01*
X109473218Y-77279847D01*
X109483446Y-77301471D01*
X109491504Y-77323993D01*
X109497316Y-77347197D01*
X109500826Y-77370858D01*
X109502000Y-77394750D01*
X109502000Y-78307250D01*
X109500826Y-78331142D01*
X109497316Y-78354803D01*
X109491504Y-78378007D01*
X109483446Y-78400529D01*
X109473218Y-78422153D01*
X109460921Y-78442670D01*
X109446671Y-78461883D01*
X109430607Y-78479607D01*
X109412883Y-78495671D01*
X109393670Y-78509921D01*
X109373153Y-78522218D01*
X109351529Y-78532446D01*
X109329007Y-78540504D01*
X109305803Y-78546316D01*
X109282142Y-78549826D01*
X109258250Y-78551000D01*
X108770750Y-78551000D01*
X108746858Y-78549826D01*
X108723197Y-78546316D01*
X108699993Y-78540504D01*
X108677471Y-78532446D01*
X108655847Y-78522218D01*
X108635330Y-78509921D01*
X108616117Y-78495671D01*
X108598393Y-78479607D01*
X108582329Y-78461883D01*
X108568079Y-78442670D01*
X108555782Y-78422153D01*
X108545554Y-78400529D01*
X108537496Y-78378007D01*
X108531684Y-78354803D01*
X108528174Y-78331142D01*
X108527000Y-78307250D01*
X108527000Y-77394750D01*
X108528174Y-77370858D01*
X108531684Y-77347197D01*
X108537496Y-77323993D01*
X108545554Y-77301471D01*
X108555782Y-77279847D01*
X108568079Y-77259330D01*
X108582329Y-77240117D01*
X108598393Y-77222393D01*
X108616117Y-77206329D01*
X108635330Y-77192079D01*
X108655847Y-77179782D01*
X108677471Y-77169554D01*
X108699993Y-77161496D01*
X108723197Y-77155684D01*
X108746858Y-77152174D01*
X108770750Y-77151000D01*
X109258250Y-77151000D01*
X109282142Y-77152174D01*
X109282142Y-77152174D01*
G37*
D13*
X109014500Y-77851000D03*
D12*
G36*
X113278232Y-66463396D02*
G01*
X113301893Y-66466906D01*
X113325097Y-66472718D01*
X113347619Y-66480776D01*
X113369243Y-66491004D01*
X113389760Y-66503301D01*
X113408973Y-66517551D01*
X113426697Y-66533615D01*
X113442761Y-66551339D01*
X113457011Y-66570552D01*
X113469308Y-66591069D01*
X113479536Y-66612693D01*
X113487594Y-66635215D01*
X113493406Y-66658419D01*
X113496916Y-66682080D01*
X113498090Y-66705972D01*
X113498090Y-67193472D01*
X113496916Y-67217364D01*
X113493406Y-67241025D01*
X113487594Y-67264229D01*
X113479536Y-67286751D01*
X113469308Y-67308375D01*
X113457011Y-67328892D01*
X113442761Y-67348105D01*
X113426697Y-67365829D01*
X113408973Y-67381893D01*
X113389760Y-67396143D01*
X113369243Y-67408440D01*
X113347619Y-67418668D01*
X113325097Y-67426726D01*
X113301893Y-67432538D01*
X113278232Y-67436048D01*
X113254340Y-67437222D01*
X112341840Y-67437222D01*
X112317948Y-67436048D01*
X112294287Y-67432538D01*
X112271083Y-67426726D01*
X112248561Y-67418668D01*
X112226937Y-67408440D01*
X112206420Y-67396143D01*
X112187207Y-67381893D01*
X112169483Y-67365829D01*
X112153419Y-67348105D01*
X112139169Y-67328892D01*
X112126872Y-67308375D01*
X112116644Y-67286751D01*
X112108586Y-67264229D01*
X112102774Y-67241025D01*
X112099264Y-67217364D01*
X112098090Y-67193472D01*
X112098090Y-66705972D01*
X112099264Y-66682080D01*
X112102774Y-66658419D01*
X112108586Y-66635215D01*
X112116644Y-66612693D01*
X112126872Y-66591069D01*
X112139169Y-66570552D01*
X112153419Y-66551339D01*
X112169483Y-66533615D01*
X112187207Y-66517551D01*
X112206420Y-66503301D01*
X112226937Y-66491004D01*
X112248561Y-66480776D01*
X112271083Y-66472718D01*
X112294287Y-66466906D01*
X112317948Y-66463396D01*
X112341840Y-66462222D01*
X113254340Y-66462222D01*
X113278232Y-66463396D01*
X113278232Y-66463396D01*
G37*
D13*
X112798090Y-66949722D03*
D12*
G36*
X113278232Y-64588396D02*
G01*
X113301893Y-64591906D01*
X113325097Y-64597718D01*
X113347619Y-64605776D01*
X113369243Y-64616004D01*
X113389760Y-64628301D01*
X113408973Y-64642551D01*
X113426697Y-64658615D01*
X113442761Y-64676339D01*
X113457011Y-64695552D01*
X113469308Y-64716069D01*
X113479536Y-64737693D01*
X113487594Y-64760215D01*
X113493406Y-64783419D01*
X113496916Y-64807080D01*
X113498090Y-64830972D01*
X113498090Y-65318472D01*
X113496916Y-65342364D01*
X113493406Y-65366025D01*
X113487594Y-65389229D01*
X113479536Y-65411751D01*
X113469308Y-65433375D01*
X113457011Y-65453892D01*
X113442761Y-65473105D01*
X113426697Y-65490829D01*
X113408973Y-65506893D01*
X113389760Y-65521143D01*
X113369243Y-65533440D01*
X113347619Y-65543668D01*
X113325097Y-65551726D01*
X113301893Y-65557538D01*
X113278232Y-65561048D01*
X113254340Y-65562222D01*
X112341840Y-65562222D01*
X112317948Y-65561048D01*
X112294287Y-65557538D01*
X112271083Y-65551726D01*
X112248561Y-65543668D01*
X112226937Y-65533440D01*
X112206420Y-65521143D01*
X112187207Y-65506893D01*
X112169483Y-65490829D01*
X112153419Y-65473105D01*
X112139169Y-65453892D01*
X112126872Y-65433375D01*
X112116644Y-65411751D01*
X112108586Y-65389229D01*
X112102774Y-65366025D01*
X112099264Y-65342364D01*
X112098090Y-65318472D01*
X112098090Y-64830972D01*
X112099264Y-64807080D01*
X112102774Y-64783419D01*
X112108586Y-64760215D01*
X112116644Y-64737693D01*
X112126872Y-64716069D01*
X112139169Y-64695552D01*
X112153419Y-64676339D01*
X112169483Y-64658615D01*
X112187207Y-64642551D01*
X112206420Y-64628301D01*
X112226937Y-64616004D01*
X112248561Y-64605776D01*
X112271083Y-64597718D01*
X112294287Y-64591906D01*
X112317948Y-64588396D01*
X112341840Y-64587222D01*
X113254340Y-64587222D01*
X113278232Y-64588396D01*
X113278232Y-64588396D01*
G37*
D13*
X112798090Y-65074722D03*
D12*
G36*
X119628232Y-64588396D02*
G01*
X119651893Y-64591906D01*
X119675097Y-64597718D01*
X119697619Y-64605776D01*
X119719243Y-64616004D01*
X119739760Y-64628301D01*
X119758973Y-64642551D01*
X119776697Y-64658615D01*
X119792761Y-64676339D01*
X119807011Y-64695552D01*
X119819308Y-64716069D01*
X119829536Y-64737693D01*
X119837594Y-64760215D01*
X119843406Y-64783419D01*
X119846916Y-64807080D01*
X119848090Y-64830972D01*
X119848090Y-65318472D01*
X119846916Y-65342364D01*
X119843406Y-65366025D01*
X119837594Y-65389229D01*
X119829536Y-65411751D01*
X119819308Y-65433375D01*
X119807011Y-65453892D01*
X119792761Y-65473105D01*
X119776697Y-65490829D01*
X119758973Y-65506893D01*
X119739760Y-65521143D01*
X119719243Y-65533440D01*
X119697619Y-65543668D01*
X119675097Y-65551726D01*
X119651893Y-65557538D01*
X119628232Y-65561048D01*
X119604340Y-65562222D01*
X118691840Y-65562222D01*
X118667948Y-65561048D01*
X118644287Y-65557538D01*
X118621083Y-65551726D01*
X118598561Y-65543668D01*
X118576937Y-65533440D01*
X118556420Y-65521143D01*
X118537207Y-65506893D01*
X118519483Y-65490829D01*
X118503419Y-65473105D01*
X118489169Y-65453892D01*
X118476872Y-65433375D01*
X118466644Y-65411751D01*
X118458586Y-65389229D01*
X118452774Y-65366025D01*
X118449264Y-65342364D01*
X118448090Y-65318472D01*
X118448090Y-64830972D01*
X118449264Y-64807080D01*
X118452774Y-64783419D01*
X118458586Y-64760215D01*
X118466644Y-64737693D01*
X118476872Y-64716069D01*
X118489169Y-64695552D01*
X118503419Y-64676339D01*
X118519483Y-64658615D01*
X118537207Y-64642551D01*
X118556420Y-64628301D01*
X118576937Y-64616004D01*
X118598561Y-64605776D01*
X118621083Y-64597718D01*
X118644287Y-64591906D01*
X118667948Y-64588396D01*
X118691840Y-64587222D01*
X119604340Y-64587222D01*
X119628232Y-64588396D01*
X119628232Y-64588396D01*
G37*
D13*
X119148090Y-65074722D03*
D12*
G36*
X119628232Y-66463396D02*
G01*
X119651893Y-66466906D01*
X119675097Y-66472718D01*
X119697619Y-66480776D01*
X119719243Y-66491004D01*
X119739760Y-66503301D01*
X119758973Y-66517551D01*
X119776697Y-66533615D01*
X119792761Y-66551339D01*
X119807011Y-66570552D01*
X119819308Y-66591069D01*
X119829536Y-66612693D01*
X119837594Y-66635215D01*
X119843406Y-66658419D01*
X119846916Y-66682080D01*
X119848090Y-66705972D01*
X119848090Y-67193472D01*
X119846916Y-67217364D01*
X119843406Y-67241025D01*
X119837594Y-67264229D01*
X119829536Y-67286751D01*
X119819308Y-67308375D01*
X119807011Y-67328892D01*
X119792761Y-67348105D01*
X119776697Y-67365829D01*
X119758973Y-67381893D01*
X119739760Y-67396143D01*
X119719243Y-67408440D01*
X119697619Y-67418668D01*
X119675097Y-67426726D01*
X119651893Y-67432538D01*
X119628232Y-67436048D01*
X119604340Y-67437222D01*
X118691840Y-67437222D01*
X118667948Y-67436048D01*
X118644287Y-67432538D01*
X118621083Y-67426726D01*
X118598561Y-67418668D01*
X118576937Y-67408440D01*
X118556420Y-67396143D01*
X118537207Y-67381893D01*
X118519483Y-67365829D01*
X118503419Y-67348105D01*
X118489169Y-67328892D01*
X118476872Y-67308375D01*
X118466644Y-67286751D01*
X118458586Y-67264229D01*
X118452774Y-67241025D01*
X118449264Y-67217364D01*
X118448090Y-67193472D01*
X118448090Y-66705972D01*
X118449264Y-66682080D01*
X118452774Y-66658419D01*
X118458586Y-66635215D01*
X118466644Y-66612693D01*
X118476872Y-66591069D01*
X118489169Y-66570552D01*
X118503419Y-66551339D01*
X118519483Y-66533615D01*
X118537207Y-66517551D01*
X118556420Y-66503301D01*
X118576937Y-66491004D01*
X118598561Y-66480776D01*
X118621083Y-66472718D01*
X118644287Y-66466906D01*
X118667948Y-66463396D01*
X118691840Y-66462222D01*
X119604340Y-66462222D01*
X119628232Y-66463396D01*
X119628232Y-66463396D01*
G37*
D13*
X119148090Y-66949722D03*
M02*
