M48
; DRILL file {KiCad (5.1.4)-1} date 15/08/2020 11:53:12
; FORMAT={-:-/ absolute / inch / decimal}
; #@! TF.CreationDate,2020-08-15T11:53:12-07:00
; #@! TF.GenerationSoftware,Kicad,Pcbnew,(5.1.4)-1
; #@! TF.FileFunction,Plated,1,2,PTH
FMAT,2
INCH
T1C0.0157
T2C0.0236
T3C0.0579
%
G90
G05
T1
X3.7175Y-2.7925
X3.7175Y-2.8725
X3.8125Y-2.7925
X3.9331Y-2.8725
X4.21Y-3.295
X4.215Y-3.205
X4.27Y-2.885
X4.2702Y-2.9252
X4.305Y-3.01
X4.375Y-2.655
X4.405Y-3.45
X4.42Y-3.57
X4.5Y-2.76
X4.5Y-3.37
X4.5425Y-4.5025
X4.545Y-3.605
X4.5825Y-5.2525
X4.585Y-3.605
X4.6225Y-6.0025
X4.625Y-3.605
X4.6625Y-6.7525
X4.665Y-3.605
X4.7025Y-7.5025
X4.705Y-3.605
X4.79Y-3.35
X4.925Y-2.845
X5.0293Y-3.3593
X5.045Y-2.685
X5.045Y-2.875
T3
X10.1Y-5.65
X10.35Y-5.55
X7.1Y-4.15
X7.35Y-4.05
X12.35Y-6.4
X12.6Y-6.3
X13.1Y-4.9
X13.35Y-4.8
X5.6Y-6.4
X5.85Y-6.3
X10.1Y-3.4
X10.35Y-3.3
X3.35Y-3.4
X3.6Y-3.3
X6.35Y-6.4
X6.6Y-6.3
X11.6Y-4.15
X11.85Y-4.05
X4.85Y-6.4
X5.1Y-6.3
X12.35Y-3.4
X12.6Y-3.3
X10.1Y-4.15
X10.35Y-4.05
X6.35Y-3.4
X6.6Y-3.3
X4.85Y-7.15
X5.1Y-7.05
X10.1Y-4.9
X10.35Y-4.8
X11.6Y-7.15
X11.85Y-7.05
X4.85Y-4.9
X5.1Y-4.8
X13.1Y-7.15
X13.35Y-7.05
X9.35Y-5.65
X9.6Y-5.55
X12.35Y-4.15
X12.6Y-4.05
X7.85Y-5.65
X8.1Y-5.55
X8.6Y-4.15
X8.85Y-4.05
X3.35Y-7.15
X3.6Y-7.05
X9.35Y-4.9
X9.6Y-4.8
X5.6Y-3.4
X5.85Y-3.3
X4.85Y-5.65
X5.1Y-5.55
X5.6Y-4.15
X5.85Y-4.05
X8.225Y-7.15
X8.475Y-7.05
X4.1Y-7.15
X4.35Y-7.05
X6.35Y-4.9
X6.6Y-4.8
X10.85Y-3.4
X11.1Y-3.3
X10.1Y-6.4
X10.35Y-6.3
X7.85Y-4.9
X8.1Y-4.8
X4.1Y-6.4
X4.35Y-6.3
X10.85Y-4.1512
X11.1Y-4.0512
X12.725Y-5.65
X12.975Y-5.55
X4.85Y-4.15
X5.1Y-4.05
X3.35Y-6.4
X3.6Y-6.3
X9.35Y-4.15
X9.6Y-4.05
X12.35Y-7.15
X12.6Y-7.05
X4.1Y-3.4
X4.35Y-3.3
X4.1Y-5.65
X4.35Y-5.55
X10.1Y-7.15
X10.35Y-7.05
X13.1Y-4.15
X13.35Y-4.05
X8.6Y-3.4
X8.85Y-3.3
X8.6Y-5.65
X8.85Y-5.55
X11.6Y-6.4
X11.85Y-6.3
X3.35Y-5.65
X3.6Y-5.55
X4.85Y-3.4
X5.1Y-3.3
X6.35Y-5.65
X6.6Y-5.55
X7.85Y-4.15
X8.1Y-4.05
X9.35Y-6.4
X9.6Y-6.3
X8.6Y-4.9
X8.85Y-4.8
X7.1Y-3.4
X7.35Y-3.3
X10.85Y-5.65
X11.1Y-5.55
X4.1Y-4.15
X4.35Y-4.05
X6.725Y-7.15
X6.975Y-7.05
X10.85Y-6.4
X11.1Y-6.3
X4.1Y-4.9
X4.35Y-4.8
X11.6Y-5.65
X11.85Y-5.55
X11.6Y-3.4
X11.85Y-3.3
X5.6Y-4.9
X5.85Y-4.8
X7.1Y-6.4
X7.35Y-6.3
X9.35Y-3.4
X9.6Y-3.3
X7.85Y-6.4
X8.1Y-6.3
X3.35Y-4.15
X3.6Y-4.05
X13.1Y-3.4
X13.35Y-3.3
X10.85Y-7.15
X11.1Y-7.05
X3.35Y-4.9
X3.6Y-4.8
X9.35Y-7.15
X9.6Y-7.05
X7.1Y-4.9
X7.35Y-4.8
X5.6Y-7.15
X5.85Y-7.05
X11.6Y-4.9
X11.85Y-4.8
X7.1Y-5.65
X7.35Y-5.55
X8.6Y-6.4
X8.85Y-6.3
X12.35Y-4.9
X12.6Y-4.8
X5.6Y-5.65
X5.85Y-5.55
X6.35Y-4.15
X6.6Y-4.05
X13.1Y-6.4
X13.35Y-6.3
X10.85Y-4.9
X11.1Y-4.8
X7.85Y-3.4
X8.1Y-3.3
T2
G00X3.7049Y-2.4806
M15
G01X3.7049Y-2.5042
M16
G05
G00X3.7049Y-2.6353
M15
G01X3.7049Y-2.6786
M16
G05
G00X4.0451Y-2.4806
M15
G01X4.0451Y-2.5042
M16
G05
G00X4.0451Y-2.6353
M15
G01X4.0451Y-2.6786
M16
G05
T0
M30
