G04 #@! TF.GenerationSoftware,KiCad,Pcbnew,(5.1.4)-1*
G04 #@! TF.CreationDate,2020-08-23T17:11:36-07:00*
G04 #@! TF.ProjectId,B3PKey,4233504b-6579-42e6-9b69-6361645f7063,1*
G04 #@! TF.SameCoordinates,Original*
G04 #@! TF.FileFunction,Copper,L1,Top*
G04 #@! TF.FilePolarity,Positive*
%FSLAX46Y46*%
G04 Gerber Fmt 4.6, Leading zero omitted, Abs format (unit mm)*
G04 Created by KiCad (PCBNEW (5.1.4)-1) date 2020-08-23 17:11:36*
%MOMM*%
%LPD*%
G04 APERTURE LIST*
%ADD10C,2.250000*%
%ADD11O,1.000000X1.600000*%
%ADD12O,1.000000X2.100000*%
%ADD13C,0.800000*%
%ADD14C,0.381000*%
%ADD15C,0.254000*%
G04 APERTURE END LIST*
D10*
X196215000Y-179070000D03*
X189865000Y-181610000D03*
X275590000Y-181610000D03*
X281940000Y-179070000D03*
X256540000Y-181610000D03*
X262890000Y-179070000D03*
D11*
X102237000Y-80501800D03*
X93597000Y-80501800D03*
D12*
X102237000Y-84681800D03*
X93597000Y-84681800D03*
D10*
X85090000Y-86360000D03*
X91440000Y-83820000D03*
X332740000Y-181610000D03*
X339090000Y-179070000D03*
X313690000Y-181610000D03*
X320040000Y-179070000D03*
X294640000Y-181610000D03*
X300990000Y-179070000D03*
X123190000Y-181610000D03*
X129540000Y-179070000D03*
X104140000Y-181610000D03*
X110490000Y-179070000D03*
X85090000Y-181610000D03*
X91440000Y-179070000D03*
X332740000Y-162560000D03*
X339090000Y-160020000D03*
X313690000Y-162560000D03*
X320040000Y-160020000D03*
X294640000Y-162560000D03*
X300990000Y-160020000D03*
X275590000Y-162560000D03*
X281940000Y-160020000D03*
X256540000Y-162560000D03*
X262890000Y-160020000D03*
X237490000Y-162560000D03*
X243840000Y-160020000D03*
X218440000Y-162560000D03*
X224790000Y-160020000D03*
X199390000Y-162560000D03*
X205740000Y-160020000D03*
X180340000Y-162560000D03*
X186690000Y-160020000D03*
X161290000Y-162560000D03*
X167640000Y-160020000D03*
X142240000Y-162560000D03*
X148590000Y-160020000D03*
X123190000Y-162560000D03*
X129540000Y-160020000D03*
X104140000Y-162560000D03*
X110490000Y-160020000D03*
X85090000Y-162560000D03*
X91440000Y-160020000D03*
X323215000Y-143510000D03*
X329565000Y-140970000D03*
X294640000Y-143510000D03*
X300990000Y-140970000D03*
X275590000Y-143510000D03*
X281940000Y-140970000D03*
X256540000Y-143510000D03*
X262890000Y-140970000D03*
X237490000Y-143510000D03*
X243840000Y-140970000D03*
X218440000Y-143510000D03*
X224790000Y-140970000D03*
X199390000Y-143510000D03*
X205740000Y-140970000D03*
X180340000Y-143510000D03*
X186690000Y-140970000D03*
X161290000Y-143510000D03*
X167640000Y-140970000D03*
X142240000Y-143510000D03*
X148590000Y-140970000D03*
X123190000Y-143510000D03*
X129540000Y-140970000D03*
X104140000Y-143510000D03*
X110490000Y-140970000D03*
X85090000Y-143510000D03*
X91440000Y-140970000D03*
X332740000Y-124460000D03*
X339090000Y-121920000D03*
X313690000Y-124460000D03*
X320040000Y-121920000D03*
X294640000Y-124460000D03*
X300990000Y-121920000D03*
X275590000Y-124460000D03*
X281940000Y-121920000D03*
X256540000Y-124460000D03*
X262890000Y-121920000D03*
X237490000Y-124460000D03*
X243840000Y-121920000D03*
X218440000Y-124460000D03*
X224790000Y-121920000D03*
X199390000Y-124460000D03*
X205740000Y-121920000D03*
X180340000Y-124460000D03*
X186690000Y-121920000D03*
X161290000Y-124460000D03*
X167640000Y-121920000D03*
X142240000Y-124460000D03*
X148590000Y-121920000D03*
X123190000Y-124460000D03*
X129540000Y-121920000D03*
X104140000Y-124460000D03*
X110490000Y-121920000D03*
X85090000Y-124460000D03*
X91440000Y-121920000D03*
X332740000Y-105410000D03*
X339090000Y-102870000D03*
X313690000Y-105410000D03*
X320040000Y-102870000D03*
X294640000Y-105410000D03*
X300990000Y-102870000D03*
X275590000Y-105441250D03*
X281940000Y-102901250D03*
X256540000Y-105410000D03*
X262890000Y-102870000D03*
X237490000Y-105410000D03*
X243840000Y-102870000D03*
X218440000Y-105410000D03*
X224790000Y-102870000D03*
X199390000Y-105410000D03*
X205740000Y-102870000D03*
X180340000Y-105410000D03*
X186690000Y-102870000D03*
X161290000Y-105410000D03*
X167640000Y-102870000D03*
X142240000Y-105410000D03*
X148590000Y-102870000D03*
X123190000Y-105410000D03*
X129540000Y-102870000D03*
X104140000Y-105410000D03*
X110490000Y-102870000D03*
X85090000Y-105410000D03*
X91440000Y-102870000D03*
X332740000Y-86360000D03*
X339090000Y-83820000D03*
X313690000Y-86360000D03*
X320040000Y-83820000D03*
X294640000Y-86360000D03*
X300990000Y-83820000D03*
X275590000Y-86360000D03*
X281940000Y-83820000D03*
X256540000Y-86360000D03*
X262890000Y-83820000D03*
X237490000Y-86360000D03*
X243840000Y-83820000D03*
X218440000Y-86360000D03*
X224790000Y-83820000D03*
X199390000Y-86360000D03*
X205740000Y-83820000D03*
X180340000Y-86360000D03*
X186690000Y-83820000D03*
X161290000Y-86360000D03*
X167640000Y-83820000D03*
X142240000Y-86360000D03*
X148590000Y-83820000D03*
X123190000Y-86360000D03*
X129540000Y-83820000D03*
X104140000Y-86360000D03*
X110490000Y-83820000D03*
D13*
X226277826Y-191029295D03*
X227086049Y-172440165D03*
X233102821Y-174685229D03*
X236964331Y-185371733D03*
X220400607Y-179125607D03*
X246126000Y-182753000D03*
X231665980Y-171631942D03*
X236028301Y-177610709D03*
X231267000Y-112014000D03*
X231648000Y-168910000D03*
X209931000Y-96266000D03*
X93472000Y-95250000D03*
X103378000Y-95250000D03*
X214376000Y-176530000D03*
X210693000Y-115316000D03*
X154432000Y-115316000D03*
X214376000Y-175514000D03*
X211455000Y-134366000D03*
X214376000Y-174498000D03*
X212217000Y-153416000D03*
X214376000Y-173482000D03*
X242824000Y-171450000D03*
X227076000Y-170942000D03*
X261392499Y-189283999D03*
X225171000Y-191770000D03*
X217684067Y-184397933D03*
X217678000Y-192278000D03*
X217678000Y-191135000D03*
X217678000Y-189992000D03*
X217678000Y-188849000D03*
X217678000Y-187706000D03*
X217678000Y-186563000D03*
X189865000Y-172466000D03*
X217678000Y-185420000D03*
X222504000Y-177644500D03*
X233354505Y-173355000D03*
X236220000Y-171450000D03*
X256540000Y-174244000D03*
X275590000Y-175006000D03*
X294640000Y-175768000D03*
X313690000Y-176530000D03*
X332740000Y-177292000D03*
X233445000Y-112014000D03*
X235322646Y-168410354D03*
X232391000Y-112014000D03*
X234577354Y-169155646D03*
X96393000Y-88900000D03*
X100965000Y-93218000D03*
D14*
X219003819Y-180522395D02*
X219003819Y-183755287D01*
X219003819Y-183755287D02*
X226277826Y-191029295D01*
X238490975Y-183845090D02*
X236964331Y-185371733D01*
X220400607Y-179125607D02*
X219003819Y-180522395D01*
X221091214Y-178435000D02*
X220400607Y-179125607D01*
X222885000Y-178435000D02*
X221091214Y-178435000D01*
X227086049Y-172440165D02*
X227086049Y-174233951D01*
X227086049Y-174233951D02*
X222885000Y-178435000D01*
X246110975Y-182768025D02*
X246126000Y-182753000D01*
X238490975Y-182768025D02*
X246110975Y-182768025D01*
X238490975Y-182768025D02*
X238490975Y-183845090D01*
X232564005Y-174146413D02*
X233102821Y-174685229D01*
X232564005Y-172529967D02*
X232564005Y-174146413D01*
X227894272Y-171631942D02*
X227086049Y-172440165D01*
X231665980Y-171631942D02*
X227894272Y-171631942D01*
X231665980Y-171631942D02*
X232564005Y-172529967D01*
X238490975Y-180073382D02*
X236428300Y-178010708D01*
X238490975Y-180073382D02*
X238490975Y-182768025D01*
X236428300Y-178010708D02*
X236028301Y-177610709D01*
X233102821Y-174685229D02*
X236028301Y-177610709D01*
X231267000Y-112014000D02*
X231267000Y-168529000D01*
X231267000Y-168529000D02*
X231648000Y-168910000D01*
D15*
X209931000Y-171577000D02*
X209931000Y-172466000D01*
X209931000Y-96266000D02*
X209931000Y-171577000D01*
X209931000Y-172466000D02*
X213995000Y-176530000D01*
X213995000Y-176530000D02*
X214376000Y-176530000D01*
X93472000Y-95250000D02*
X103378000Y-95250000D01*
X154432000Y-115316000D02*
X154432000Y-116713000D01*
X154432000Y-116262685D02*
X154432000Y-116713000D01*
X210693000Y-116713000D02*
X210693000Y-115316000D01*
X210693000Y-172540096D02*
X210693000Y-116713000D01*
X214376000Y-175514000D02*
X213666904Y-175514000D01*
X213666904Y-175514000D02*
X210693000Y-172540096D01*
X211455000Y-172660029D02*
X213292971Y-174498000D01*
X211455000Y-172466000D02*
X211455000Y-172660029D01*
X213292971Y-174498000D02*
X214376000Y-174498000D01*
X211455000Y-134366000D02*
X211455000Y-136906000D01*
X211455000Y-136906000D02*
X211455000Y-172466000D01*
X212217000Y-172466000D02*
X212217000Y-172779962D01*
X212919038Y-173482000D02*
X214376000Y-173482000D01*
X212217000Y-153416000D02*
X212217000Y-172466000D01*
X212217000Y-172779962D02*
X212919038Y-173482000D01*
X241916001Y-170542001D02*
X242824000Y-171450000D01*
X227076000Y-170942000D02*
X227475999Y-170542001D01*
X227475999Y-170542001D02*
X241916001Y-170542001D01*
X260826814Y-189283999D02*
X261392499Y-189283999D01*
X240411519Y-189283999D02*
X260826814Y-189283999D01*
X225171000Y-191770000D02*
X237925518Y-191770000D01*
X237925518Y-191770000D02*
X240411519Y-189283999D01*
X225171000Y-191770000D02*
X217798933Y-184397933D01*
X217798933Y-184397933D02*
X217684067Y-184397933D01*
X85090000Y-184023000D02*
X87884000Y-186817000D01*
X85090000Y-181610000D02*
X85090000Y-184023000D01*
X85090000Y-86360000D02*
X85090000Y-181610000D01*
X87884000Y-186817000D02*
X89408000Y-188341000D01*
X89408000Y-188341000D02*
X138049000Y-188341000D01*
X138049000Y-188341000D02*
X139192000Y-188341000D01*
X139192000Y-188341000D02*
X151003000Y-176530000D01*
X151003000Y-176530000D02*
X151257000Y-176276000D01*
X151257000Y-176276000D02*
X188087000Y-176276000D01*
X188087000Y-176276000D02*
X201676000Y-176276000D01*
X201676000Y-176276000D02*
X217678000Y-192278000D01*
X104140000Y-184023000D02*
X106934000Y-186817000D01*
X104140000Y-181610000D02*
X104140000Y-184023000D01*
X104140000Y-165608962D02*
X104140000Y-181610000D01*
X104140000Y-86360000D02*
X104140000Y-165608962D01*
X106934000Y-186817000D02*
X107696000Y-187579000D01*
X107696000Y-187579000D02*
X138049000Y-187579000D01*
X138049000Y-187579000D02*
X138938000Y-187579000D01*
X138938000Y-187579000D02*
X150876000Y-175641000D01*
X150876000Y-175641000D02*
X151003000Y-175514000D01*
X151003000Y-175514000D02*
X200660000Y-175514000D01*
X200660000Y-175514000D02*
X202057000Y-175514000D01*
X202057000Y-175514000D02*
X217678000Y-191135000D01*
X123190000Y-177292000D02*
X123190000Y-181610000D01*
X123190000Y-86360000D02*
X123190000Y-177292000D01*
X202438000Y-174752000D02*
X217678000Y-189992000D01*
X150876000Y-174752000D02*
X202438000Y-174752000D01*
X138811000Y-186817000D02*
X150876000Y-174752000D01*
X125984000Y-186817000D02*
X138811000Y-186817000D01*
X123190000Y-181610000D02*
X123190000Y-184023000D01*
X123190000Y-184023000D02*
X125984000Y-186817000D01*
X142240000Y-164150990D02*
X142240000Y-162560000D01*
X142240000Y-146558962D02*
X142240000Y-162560000D01*
X142240000Y-86360000D02*
X142240000Y-146558962D01*
X148336000Y-173990000D02*
X142240000Y-167894000D01*
X202819000Y-173990000D02*
X148336000Y-173990000D01*
X217678000Y-188849000D02*
X202819000Y-173990000D01*
X142240000Y-167894000D02*
X142240000Y-164150990D01*
X161290000Y-170494010D02*
X161290000Y-164150990D01*
X161290000Y-164150990D02*
X161290000Y-162560000D01*
X163291995Y-172496005D02*
X161290000Y-170494010D01*
X161290000Y-86360000D02*
X161290000Y-162560000D01*
X163291995Y-172496005D02*
X164023990Y-173228000D01*
X164023990Y-173228000D02*
X203200000Y-173228000D01*
X203200000Y-173228000D02*
X217678000Y-187706000D01*
X180340000Y-86360000D02*
X180340000Y-162560000D01*
X217678000Y-186563000D02*
X203581000Y-172466000D01*
X203581000Y-172466000D02*
X189865000Y-172466000D01*
X180340000Y-164150990D02*
X180340000Y-162560000D01*
X180340000Y-170494010D02*
X180340000Y-164150990D01*
X189865000Y-172466000D02*
X182311990Y-172466000D01*
X182311990Y-172466000D02*
X180340000Y-170494010D01*
X199390000Y-87950990D02*
X199390000Y-162560000D01*
X199390000Y-86360000D02*
X199390000Y-87950990D01*
X199390000Y-162560000D02*
X199390000Y-167132000D01*
X199390000Y-167132000D02*
X217678000Y-185420000D01*
X217678000Y-185420000D02*
X217678000Y-185420000D01*
X218440000Y-146558962D02*
X218440000Y-162560000D01*
X218440000Y-86360000D02*
X218440000Y-146558962D01*
X218440000Y-162560000D02*
X218440000Y-173580500D01*
X218440000Y-173580500D02*
X222504000Y-177644500D01*
X237490000Y-146558962D02*
X237490000Y-162560000D01*
X237490000Y-86360000D02*
X237490000Y-146558962D01*
X234315000Y-173355000D02*
X233354505Y-173355000D01*
X236220000Y-171450000D02*
X234315000Y-173355000D01*
X256540000Y-86360000D02*
X256540000Y-87950990D01*
X256540000Y-87950990D02*
X256540000Y-172339000D01*
X256540000Y-173990000D02*
X256540000Y-174244000D01*
X256540000Y-173990000D02*
X256540000Y-181610000D01*
X256540000Y-172339000D02*
X256540000Y-173990000D01*
X275590000Y-86360000D02*
X275590000Y-172339000D01*
X275590000Y-175006000D02*
X275590000Y-181610000D01*
X275590000Y-172339000D02*
X275590000Y-175006000D01*
X294640000Y-86360000D02*
X294640000Y-165608962D01*
X294640000Y-175641000D02*
X294640000Y-175768000D01*
X294640000Y-175641000D02*
X294640000Y-181610000D01*
X294640000Y-165608962D02*
X294640000Y-175641000D01*
X313690000Y-86360000D02*
X313690000Y-124460000D01*
X313690000Y-133985000D02*
X323215000Y-143510000D01*
X313690000Y-124460000D02*
X313690000Y-133985000D01*
X321624010Y-143510000D02*
X312166000Y-152968010D01*
X323215000Y-143510000D02*
X321624010Y-143510000D01*
X312166000Y-161036000D02*
X313690000Y-162560000D01*
X312166000Y-152968010D02*
X312166000Y-161036000D01*
X313690000Y-162560000D02*
X313690000Y-164150990D01*
X313690000Y-176403000D02*
X313690000Y-176530000D01*
X313690000Y-176403000D02*
X313690000Y-181610000D01*
X313690000Y-164150990D02*
X313690000Y-176403000D01*
X332740000Y-108458962D02*
X332740000Y-124460000D01*
X332740000Y-86360000D02*
X332740000Y-108458962D01*
X332740000Y-126050990D02*
X334010000Y-127320990D01*
X332740000Y-124460000D02*
X332740000Y-126050990D01*
X334010000Y-161290000D02*
X332740000Y-162560000D01*
X334010000Y-127320990D02*
X334010000Y-161290000D01*
X332740000Y-177292000D02*
X332740000Y-181610000D01*
X332740000Y-162560000D02*
X332740000Y-177292000D01*
X233172000Y-112287000D02*
X233172000Y-166645789D01*
X233445000Y-112014000D02*
X233172000Y-112287000D01*
X233172000Y-166645789D02*
X234936565Y-168410354D01*
X234936565Y-168410354D02*
X235322646Y-168410354D01*
X232391000Y-112014000D02*
X232664000Y-112287000D01*
X232664000Y-112287000D02*
X232664000Y-166856211D01*
X232664000Y-166856211D02*
X234577354Y-168769565D01*
X234577354Y-168769565D02*
X234577354Y-169155646D01*
X96393000Y-88900000D02*
X100711000Y-93218000D01*
X100711000Y-93218000D02*
X100965000Y-93218000D01*
M02*
