M48
; DRILL file {KiCad (5.1.4)-1} date 31/08/2020 18:20:25
; FORMAT={-:-/ absolute / inch / decimal}
; #@! TF.CreationDate,2020-08-31T18:20:25-07:00
; #@! TF.GenerationSoftware,Kicad,Pcbnew,(5.1.4)-1
; #@! TF.FileFunction,NonPlated,1,2,NPTH
FMAT,2
INCH
T1C0.0256
T2C0.0689
T3C0.1200
T4C0.1570
%
G90
G05
T1
X3.7614Y-3.0555
X3.989Y-3.0555
T2
X4.8Y-5.0
X5.2Y-5.0
X10.8Y-7.25
X11.2Y-7.25
X7.8Y-4.25
X8.2Y-4.25
X6.3Y-5.0
X6.7Y-5.0
X8.55Y-4.25
X8.95Y-4.25
X4.05Y-5.75
X4.45Y-5.75
X11.55Y-7.25
X11.95Y-7.25
X4.05Y-4.25
X4.45Y-4.25
X7.8Y-6.5
X8.2Y-6.5
X10.05Y-3.5
X10.45Y-3.5
X3.3Y-5.75
X3.7Y-5.75
X12.3Y-6.5
X12.7Y-6.5
X3.3Y-5.0
X3.7Y-5.0
X7.8Y-5.75
X8.2Y-5.75
X8.55Y-3.5
X8.95Y-3.5
X7.8Y-5.0
X8.2Y-5.0
X7.05Y-5.75
X7.45Y-5.75
X4.8Y-3.5
X5.2Y-3.5
X6.3Y-5.75
X6.7Y-5.75
X11.55Y-5.75
X11.95Y-5.75
X9.3Y-5.75
X9.7Y-5.75
X8.55Y-5.75
X8.95Y-5.75
X11.55Y-4.25
X11.95Y-4.25
X4.05Y-3.5
X4.45Y-3.5
X7.05Y-5.0
X7.45Y-5.0
X13.05Y-4.25
X13.45Y-4.25
X5.55Y-5.75
X5.95Y-5.75
X12.3Y-7.25
X12.7Y-7.25
X4.8Y-4.25
X5.2Y-4.25
X9.3Y-3.5
X9.7Y-3.5
X4.05Y-5.0
X4.45Y-5.0
X10.05Y-7.25
X10.45Y-7.25
X10.05Y-4.25
X10.45Y-4.25
X7.8Y-7.25
X8.2Y-7.25
X11.55Y-5.0
X11.95Y-5.0
X3.3Y-7.25
X3.7Y-7.25
X13.05Y-3.5
X13.45Y-3.5
X6.3Y-6.5
X6.7Y-6.5
X7.05Y-3.5
X7.45Y-3.5
X13.05Y-5.0
X13.45Y-5.0
X11.55Y-3.5
X11.95Y-3.5
X10.8Y-6.5
X11.2Y-6.5
X5.55Y-3.5
X5.95Y-3.5
X9.3Y-5.0
X9.7Y-5.0
X4.8Y-6.5
X5.2Y-6.5
X10.8Y-5.75
X11.2Y-5.75
X5.55Y-6.5
X5.95Y-6.5
X10.8Y-4.2512
X11.2Y-4.2512
X13.05Y-7.25
X13.45Y-7.25
X8.55Y-6.5
X8.95Y-6.5
X6.3Y-4.25
X6.7Y-4.25
X6.3Y-3.5
X6.7Y-3.5
X5.55Y-5.0
X5.95Y-5.0
X3.3Y-3.5
X3.7Y-3.5
X12.3Y-4.25
X12.7Y-4.25
X4.8Y-5.75
X5.2Y-5.75
X4.8Y-7.25
X5.2Y-7.25
X3.3Y-4.25
X3.7Y-4.25
X12.3Y-5.0
X12.7Y-5.0
X4.05Y-7.25
X4.45Y-7.25
X7.05Y-4.25
X7.45Y-4.25
X10.8Y-5.0
X11.2Y-5.0
X12.3Y-3.5
X12.7Y-3.5
X10.05Y-5.75
X10.45Y-5.75
X10.8Y-3.5
X11.2Y-3.5
X8.55Y-5.0
X8.95Y-5.0
X10.05Y-6.5
X10.45Y-6.5
X7.8Y-3.5
X8.2Y-3.5
X10.05Y-5.0
X10.45Y-5.0
X12.675Y-5.75
X13.075Y-5.75
X4.05Y-6.5
X4.45Y-6.5
X9.3Y-6.5
X9.7Y-6.5
X13.05Y-6.5
X13.45Y-6.5
X3.3Y-6.5
X3.7Y-6.5
X9.3Y-4.25
X9.7Y-4.25
X11.55Y-6.5
X11.95Y-6.5
X7.05Y-6.5
X7.45Y-6.5
X5.55Y-4.25
X5.95Y-4.25
T3
X5.75Y-7.525
X9.5Y-7.525
X12.4062Y-5.475
X13.3438Y-5.475
T4
X5.0Y-4.25
X9.5Y-3.5
X4.25Y-5.0
X10.25Y-7.25
X10.25Y-4.25
X5.75Y-6.925
X8.0Y-7.25
X9.5Y-6.925
X11.75Y-5.0
X3.5Y-7.25
X13.25Y-3.5
X6.5Y-6.5
X7.25Y-3.5
X13.25Y-5.0
X11.75Y-3.5
X11.0Y-6.5
X5.75Y-3.5
X9.5Y-5.0
X5.0Y-6.5
X11.0Y-5.75
X5.75Y-6.5
X11.0Y-4.2512
X13.25Y-7.25
X8.75Y-6.5
X6.5Y-4.25
X6.5Y-3.5
X5.75Y-5.0
X3.5Y-3.5
X12.5Y-4.25
X5.0Y-5.75
X5.0Y-7.25
X3.5Y-4.25
X12.5Y-5.0
X4.25Y-7.25
X7.25Y-4.25
X11.0Y-5.0
X12.5Y-3.5
X10.25Y-5.75
X11.0Y-3.5
X8.75Y-5.0
X10.25Y-6.5
X8.0Y-3.5
X10.25Y-5.0
X12.4062Y-6.075
X12.875Y-5.75
X13.3438Y-6.075
X4.25Y-6.5
X9.5Y-6.5
X13.25Y-6.5
X3.5Y-6.5
X9.5Y-4.25
X11.75Y-6.5
X7.25Y-6.5
X5.75Y-4.25
X5.0Y-5.0
X11.0Y-7.25
X8.0Y-4.25
X6.5Y-5.0
X8.75Y-4.25
X4.25Y-5.75
X11.75Y-7.25
X4.25Y-4.25
X8.0Y-6.5
X10.25Y-3.5
X3.5Y-5.75
X12.5Y-6.5
X3.5Y-5.0
X8.0Y-5.75
X8.75Y-3.5
X8.0Y-5.0
X7.25Y-5.75
X5.0Y-3.5
X6.5Y-5.75
X11.75Y-5.75
X9.5Y-5.75
X8.75Y-5.75
X11.75Y-4.25
X4.25Y-3.5
X7.25Y-5.0
X13.25Y-4.25
X5.75Y-5.75
X12.5Y-7.25
T0
M30
