G04 #@! TF.GenerationSoftware,KiCad,Pcbnew,(5.1.4)-1*
G04 #@! TF.CreationDate,2020-08-31T17:56:08-07:00*
G04 #@! TF.ProjectId,B3PKey,4233504b-6579-42e6-9b69-6361645f7063,1*
G04 #@! TF.SameCoordinates,Original*
G04 #@! TF.FileFunction,Profile,NP*
%FSLAX46Y46*%
G04 Gerber Fmt 4.6, Leading zero omitted, Abs format (unit mm)*
G04 Created by KiCad (PCBNEW (5.1.4)-1) date 2020-08-31 17:56:08*
%MOMM*%
%LPD*%
G04 APERTURE LIST*
%ADD10C,0.127000*%
G04 APERTURE END LIST*
D10*
X74862521Y-199665350D02*
X75326921Y-199592320D01*
X76363201Y-198166040D02*
X76290181Y-197701641D01*
X73981961Y-196950610D02*
X73649851Y-197284090D01*
X75326921Y-199592320D02*
X75744471Y-199378720D01*
X74399501Y-196738420D02*
X73981961Y-196950610D01*
X165881801Y-196950610D02*
X165549901Y-197284090D01*
X166299501Y-196738420D02*
X165881801Y-196950610D01*
X73981961Y-199378720D02*
X74399501Y-199592320D01*
X76290181Y-198629070D02*
X76363201Y-198166040D01*
X74862521Y-196665360D02*
X74399501Y-196738420D01*
X75326921Y-196738420D02*
X74862521Y-196665360D01*
X75744471Y-196950610D02*
X75326921Y-196738420D01*
X73437631Y-197701641D02*
X73363221Y-198166040D01*
X76076571Y-199046610D02*
X76290181Y-198629070D01*
X75744471Y-199378720D02*
X76076571Y-199046610D01*
X73649851Y-199046610D02*
X73981961Y-199378720D01*
X73363221Y-198166040D02*
X73437631Y-198629070D01*
X73649851Y-197284090D02*
X73437631Y-197701641D01*
X73437631Y-198629070D02*
X73649851Y-199046610D01*
X76076571Y-197284090D02*
X75744471Y-196950610D01*
X76290181Y-197701641D02*
X76076571Y-197284090D01*
X74399501Y-199592320D02*
X74862521Y-199665350D01*
X73649851Y-73982180D02*
X73437631Y-74400180D01*
X73981961Y-73650181D02*
X73649851Y-73982180D01*
X74399501Y-73438180D02*
X73981961Y-73650181D01*
X168264501Y-74864180D02*
X168190101Y-74400180D01*
X166763801Y-76365180D02*
X167227001Y-76291180D01*
X166299501Y-76291180D02*
X166763801Y-76365180D01*
X347064601Y-194664440D02*
X347064601Y-78365180D01*
X352213601Y-71593180D02*
X352425601Y-71691180D01*
X354028601Y-73894180D02*
X354054601Y-74128180D01*
X104429412Y-78365180D02*
X104429412Y-71364180D01*
X167645701Y-73650181D02*
X167227001Y-73438180D01*
X167227001Y-76291180D02*
X167645701Y-76077180D01*
X92429412Y-78365180D02*
X78364131Y-78365180D01*
X351991601Y-71511180D02*
X352213601Y-71593180D01*
X78364131Y-194664440D02*
X347064601Y-194664440D01*
X353981601Y-73664180D02*
X354028601Y-73894180D01*
X353917601Y-73437180D02*
X353981601Y-73664180D01*
X353836601Y-73217180D02*
X353917601Y-73437180D01*
X165881801Y-76077180D02*
X166299501Y-76291180D01*
X351765601Y-71447180D02*
X351991601Y-71511180D01*
X351299601Y-71374180D02*
X351533601Y-71400181D01*
X351533601Y-71400181D02*
X351765601Y-71447180D01*
X167227001Y-73438180D02*
X166763801Y-73365181D01*
X168190101Y-74400180D02*
X167976601Y-73982180D01*
X353737601Y-73003180D02*
X353836601Y-73217180D01*
X353621601Y-72796180D02*
X353737601Y-73003180D01*
X353492601Y-72600180D02*
X353621601Y-72796180D01*
X168190101Y-75328180D02*
X168264501Y-74864180D01*
X353346601Y-72416180D02*
X353492601Y-72600180D01*
X353186601Y-72242180D02*
X353346601Y-72416180D01*
X352827601Y-71936181D02*
X353012601Y-72082180D01*
X353012601Y-72082180D02*
X353186601Y-72242180D01*
X167645701Y-76077180D02*
X167976601Y-75745180D01*
X351065601Y-71364180D02*
X351299601Y-71374180D01*
X166763801Y-73365181D02*
X166299501Y-73438180D01*
X347064601Y-78365180D02*
X104429412Y-78365180D01*
X78364131Y-78365180D02*
X78364131Y-194664440D01*
X104429412Y-71364180D02*
X351065601Y-71364180D01*
X167976601Y-73982180D02*
X167645701Y-73650181D01*
X167976601Y-75745180D02*
X168190101Y-75328180D01*
X352632601Y-71807180D02*
X352827601Y-71936181D01*
X352425601Y-71691180D02*
X352632601Y-71807180D01*
X351991601Y-75328180D02*
X352064601Y-74864180D01*
X75326921Y-76291180D02*
X75744471Y-76077180D01*
X257781601Y-73650181D02*
X257451601Y-73982180D01*
X351445601Y-73650181D02*
X351028601Y-73438180D01*
X258200601Y-73438180D02*
X257781601Y-73650181D01*
X351777601Y-75745180D02*
X351991601Y-75328180D01*
X349137601Y-75328180D02*
X349351601Y-75745180D01*
X350100601Y-76291180D02*
X350565601Y-76365180D01*
X76290181Y-75328180D02*
X76363201Y-74864180D01*
X74399501Y-76291180D02*
X74862521Y-76365180D01*
X349351601Y-75745180D02*
X349683601Y-76077180D01*
X260091601Y-75328180D02*
X260164601Y-74864180D01*
X76363201Y-74864180D02*
X76290181Y-74400180D01*
X257237601Y-75328180D02*
X257451601Y-75745180D01*
X76076571Y-73982180D02*
X75744471Y-73650181D01*
X351028601Y-76291180D02*
X351445601Y-76077180D01*
X165549901Y-75745180D02*
X165881801Y-76077180D01*
X257781601Y-76077180D02*
X258200601Y-76291180D01*
X75744471Y-73650181D02*
X75326921Y-73438180D01*
X259877601Y-75745180D02*
X260091601Y-75328180D01*
X350565601Y-73365181D02*
X350100601Y-73438180D01*
X165264501Y-74864180D02*
X165337501Y-75328180D01*
X76290181Y-74400180D02*
X76076571Y-73982180D01*
X73981961Y-76077180D02*
X74399501Y-76291180D01*
X73649851Y-75745180D02*
X73981961Y-76077180D01*
X73363221Y-74864180D02*
X73437631Y-75328180D01*
X349683601Y-76077180D02*
X350100601Y-76291180D01*
X165337501Y-75328180D02*
X165549901Y-75745180D01*
X165549901Y-73982180D02*
X165337501Y-74400180D01*
X351991601Y-74400180D02*
X351777601Y-73982180D01*
X74862521Y-76365180D02*
X75326921Y-76291180D01*
X165337501Y-74400180D02*
X165264501Y-74864180D01*
X74862521Y-73365181D02*
X74399501Y-73438180D01*
X165881801Y-73650181D02*
X165549901Y-73982180D01*
X166299501Y-73438180D02*
X165881801Y-73650181D01*
X349351601Y-73982180D02*
X349137601Y-74400180D01*
X259545601Y-73650181D02*
X259128601Y-73438180D01*
X258663601Y-73365181D02*
X258200601Y-73438180D01*
X259128601Y-73438180D02*
X258663601Y-73365181D01*
X259877601Y-73982180D02*
X259545601Y-73650181D01*
X260091601Y-74400180D02*
X259877601Y-73982180D01*
X350100601Y-73438180D02*
X349683601Y-73650181D01*
X260164601Y-74864180D02*
X260091601Y-74400180D01*
X257451601Y-75745180D02*
X257781601Y-76077180D01*
X257237601Y-74400180D02*
X257164601Y-74864180D01*
X349683601Y-73650181D02*
X349351601Y-73982180D01*
X75744471Y-76077180D02*
X76076571Y-75745180D01*
X73437631Y-74400180D02*
X73363221Y-74864180D01*
X349137601Y-74400180D02*
X349064601Y-74864180D01*
X350565601Y-76365180D02*
X351028601Y-76291180D01*
X259545601Y-76077180D02*
X259877601Y-75745180D01*
X75326921Y-73438180D02*
X74862521Y-73365181D01*
X351777601Y-73982180D02*
X351445601Y-73650181D01*
X352064601Y-74864180D02*
X351991601Y-74400180D01*
X349064601Y-74864180D02*
X349137601Y-75328180D01*
X73437631Y-75328180D02*
X73649851Y-75745180D01*
X257164601Y-74864180D02*
X257237601Y-75328180D01*
X351445601Y-76077180D02*
X351777601Y-75745180D01*
X76076571Y-75745180D02*
X76290181Y-75328180D01*
X259128601Y-76291180D02*
X259545601Y-76077180D01*
X258200601Y-76291180D02*
X258663601Y-76365180D01*
X258663601Y-76365180D02*
X259128601Y-76291180D01*
X351028601Y-73438180D02*
X350565601Y-73365181D01*
X257451601Y-73982180D02*
X257237601Y-74400180D01*
X166763801Y-199665350D02*
X167227001Y-199592320D01*
X168264501Y-198166040D02*
X168190101Y-197701641D01*
X257164601Y-198166040D02*
X257237601Y-198629070D01*
X167227001Y-199592320D02*
X167645701Y-199378720D01*
X167976601Y-199046610D02*
X168190101Y-198629070D01*
X166299501Y-199592320D02*
X166763801Y-199665350D01*
X165549901Y-199046610D02*
X165881801Y-199378720D01*
X165881801Y-199378720D02*
X166299501Y-199592320D01*
X167645701Y-196950610D02*
X167227001Y-196738420D01*
X257237601Y-197701641D02*
X257164601Y-198166040D01*
X257451601Y-197284090D02*
X257237601Y-197701641D01*
X257781601Y-196950610D02*
X257451601Y-197284090D01*
X165264501Y-198166040D02*
X165337501Y-198629070D01*
X167227001Y-196738420D02*
X166763801Y-196665360D01*
X167645701Y-199378720D02*
X167976601Y-199046610D01*
X165549901Y-197284090D02*
X165337501Y-197701641D01*
X165337501Y-197701641D02*
X165264501Y-198166040D01*
X165337501Y-198629070D02*
X165549901Y-199046610D01*
X167976601Y-197284090D02*
X167645701Y-196950610D01*
X258200601Y-196738420D02*
X257781601Y-196950610D01*
X166763801Y-196665360D02*
X166299501Y-196738420D01*
X168190101Y-198629070D02*
X168264501Y-198166040D01*
X168190101Y-197701641D02*
X167976601Y-197284090D01*
X350100601Y-196738420D02*
X349683601Y-196950610D01*
X260091601Y-197701641D02*
X259877601Y-197284090D01*
X260164601Y-198166040D02*
X260091601Y-197701641D01*
X259877601Y-197284090D02*
X259545601Y-196950610D01*
X260091601Y-198629070D02*
X260164601Y-198166040D01*
X259545601Y-199378720D02*
X259877601Y-199046610D01*
X257451601Y-199046610D02*
X257781601Y-199378720D01*
X257781601Y-199378720D02*
X258200601Y-199592320D01*
X259877601Y-199046610D02*
X260091601Y-198629070D01*
X258200601Y-199592320D02*
X258663601Y-199665350D01*
X257237601Y-198629070D02*
X257451601Y-199046610D01*
X349137601Y-198629070D02*
X349351601Y-199046610D01*
X349064601Y-198166040D02*
X349137601Y-198629070D01*
X259128601Y-199592320D02*
X259545601Y-199378720D01*
X349683601Y-199378720D02*
X350100601Y-199592320D01*
X258663601Y-196665360D02*
X258200601Y-196738420D01*
X349351601Y-199046610D02*
X349683601Y-199378720D01*
X259545601Y-196950610D02*
X259128601Y-196738420D01*
X259128601Y-196738420D02*
X258663601Y-196665360D01*
X349137601Y-197701641D02*
X349064601Y-198166040D01*
X258663601Y-199665350D02*
X259128601Y-199592320D01*
X349351601Y-197284090D02*
X349137601Y-197701641D01*
X349683601Y-196950610D02*
X349351601Y-197284090D01*
X351765601Y-71447180D02*
X351991601Y-71511180D01*
X351065601Y-71364180D02*
X351299601Y-71374180D01*
X351299601Y-71374180D02*
X351533601Y-71400181D01*
X351991601Y-71511180D02*
X352213601Y-71593180D01*
X351533601Y-71400181D02*
X351765601Y-71447180D01*
X75744471Y-199378720D02*
X76076571Y-199046610D01*
X75326921Y-199592320D02*
X75744471Y-199378720D01*
X165337501Y-198629070D02*
X165549901Y-199046610D01*
X73649851Y-197284090D02*
X73437631Y-197701641D01*
X165337501Y-197701641D02*
X165264501Y-198166040D01*
X166299501Y-196738420D02*
X165881801Y-196950610D01*
X76076571Y-199046610D02*
X76290181Y-198629070D01*
X75744471Y-196950610D02*
X75326921Y-196738420D01*
X165264501Y-198166040D02*
X165337501Y-198629070D01*
X165881801Y-196950610D02*
X165549901Y-197284090D01*
X74862521Y-199665350D02*
X75326921Y-199592320D01*
X73649851Y-199046610D02*
X73981961Y-199378720D01*
X73981961Y-199378720D02*
X74399501Y-199592320D01*
X73363221Y-198166040D02*
X73437631Y-198629070D01*
X76290181Y-197701641D02*
X76076571Y-197284090D01*
X73437631Y-198629070D02*
X73649851Y-199046610D01*
X92429412Y-71364180D02*
X92429412Y-78365180D01*
X73981961Y-196950610D02*
X73649851Y-197284090D01*
X75326921Y-196738420D02*
X74862521Y-196665360D01*
X165549901Y-197284090D02*
X165337501Y-197701641D01*
X74862521Y-196665360D02*
X74399501Y-196738420D01*
X76290181Y-198629070D02*
X76363201Y-198166040D01*
X74399501Y-199592320D02*
X74862521Y-199665350D01*
X73437631Y-197701641D02*
X73363221Y-198166040D01*
X74363671Y-71364180D02*
X92429412Y-71364180D01*
X74399501Y-196738420D02*
X73981961Y-196950610D01*
X76363201Y-198166040D02*
X76290181Y-197701641D01*
X76076571Y-197284090D02*
X75744471Y-196950610D01*
X71399515Y-199134810D02*
X71373332Y-198900540D01*
X351991601Y-201518816D02*
X351765601Y-201582206D01*
X71446368Y-199366320D02*
X71399515Y-199134810D01*
X353836601Y-199814180D02*
X353737601Y-200026400D01*
X353621601Y-200233110D02*
X353492601Y-200428790D01*
X71806037Y-200233110D02*
X71690280Y-200026400D01*
X72241495Y-200787080D02*
X72081644Y-200613440D01*
X72081644Y-200613440D02*
X71935573Y-200428790D01*
X351299601Y-201655242D02*
X351065601Y-201666266D01*
X352425601Y-201338294D02*
X352213601Y-201437512D01*
X353492601Y-200428790D02*
X353346601Y-200613440D01*
X351065601Y-201666266D02*
X74363671Y-201666266D01*
X353917601Y-199592320D02*
X353836601Y-199814180D01*
X71592440Y-199814180D02*
X71509758Y-199592320D01*
X74128031Y-201655242D02*
X73893761Y-201629059D01*
X354028601Y-199134810D02*
X353981601Y-199366320D01*
X74128031Y-71374180D02*
X74363671Y-71364180D01*
X72415131Y-72082180D02*
X72599791Y-71936181D01*
X73893761Y-201629059D02*
X73663631Y-201582206D01*
X73436251Y-71511180D02*
X73663631Y-71447180D01*
X71446368Y-73664180D02*
X71509758Y-73437180D01*
X73893761Y-71400181D02*
X74128031Y-71374180D01*
X74363671Y-201666266D02*
X74128031Y-201655242D01*
X352632601Y-201222537D02*
X352425601Y-201338294D01*
X352827601Y-201093004D02*
X352632601Y-201222537D01*
X353186601Y-200787080D02*
X353012601Y-200946929D01*
X71935573Y-200428790D02*
X71806037Y-200233110D01*
X73663631Y-71447180D02*
X73893761Y-71400181D01*
X73215771Y-71593180D02*
X73436251Y-71511180D01*
X71363685Y-198664900D02*
X71363685Y-74364180D01*
X352213601Y-201437512D02*
X351991601Y-201518816D01*
X73436251Y-201518816D02*
X73215771Y-201437512D01*
X354054601Y-74128180D02*
X354065601Y-74364180D01*
X72795471Y-201222537D02*
X72599791Y-201093004D01*
X354065601Y-198666280D02*
X354054601Y-198900540D01*
X354054601Y-198900540D02*
X354028601Y-199134810D01*
X73002171Y-71691180D02*
X73215771Y-71593180D01*
X353981601Y-199366320D02*
X353917601Y-199592320D01*
X72795471Y-71807180D02*
X73002171Y-71691180D01*
X354065601Y-74364180D02*
X354065601Y-198666280D01*
X72599791Y-71936181D02*
X72795471Y-71807180D01*
X73215771Y-201437512D02*
X73002171Y-201338294D01*
X72241495Y-72242180D02*
X72415131Y-72082180D01*
X71806037Y-72796180D02*
X71935573Y-72600180D01*
X71690280Y-200026400D02*
X71592440Y-199814180D01*
X73002171Y-201338294D02*
X72795471Y-201222537D01*
X351765601Y-201582206D02*
X351533601Y-201629059D01*
X353346601Y-200613440D02*
X353186601Y-200787080D01*
X72599791Y-201093004D02*
X72415131Y-200946929D01*
X353737601Y-200026400D02*
X353621601Y-200233110D01*
X72081644Y-72416180D02*
X72241495Y-72242180D01*
X73663631Y-201582206D02*
X73436251Y-201518816D01*
X71363685Y-74364180D02*
X71373332Y-74128180D01*
X71373332Y-198900540D02*
X71363685Y-198664900D01*
X72415131Y-200946929D02*
X72241495Y-200787080D01*
X353012601Y-200946929D02*
X352827601Y-201093004D01*
X71935573Y-72600180D02*
X72081644Y-72416180D01*
X71509758Y-199592320D02*
X71446368Y-199366320D01*
X351533601Y-201629059D02*
X351299601Y-201655242D01*
X71690280Y-73003180D02*
X71806037Y-72796180D01*
X71592440Y-73217180D02*
X71690280Y-73003180D01*
X71509758Y-73437180D02*
X71592440Y-73217180D01*
X71399515Y-73894180D02*
X71446368Y-73664180D01*
X71373332Y-74128180D02*
X71399515Y-73894180D01*
X351991601Y-75328180D02*
X352064601Y-74864180D01*
X75744471Y-76077180D02*
X76076571Y-75745180D01*
X351777601Y-75745180D02*
X351991601Y-75328180D01*
X350565601Y-76365180D02*
X351028601Y-76291180D01*
X76363201Y-74864180D02*
X76290181Y-74400180D01*
X349137601Y-75328180D02*
X349351601Y-75745180D01*
X352064601Y-74864180D02*
X351991601Y-74400180D01*
X351445601Y-76077180D02*
X351777601Y-75745180D01*
X351028601Y-76291180D02*
X351445601Y-76077180D01*
X75326921Y-73438180D02*
X74862521Y-73365181D01*
X350100601Y-73438180D02*
X349683601Y-73650181D01*
X76290181Y-75328180D02*
X76363201Y-74864180D01*
X349064601Y-74864180D02*
X349137601Y-75328180D01*
X349137601Y-74400180D02*
X349064601Y-74864180D01*
X349683601Y-73650181D02*
X349351601Y-73982180D01*
X74862521Y-73365181D02*
X74399501Y-73438180D01*
X350100601Y-76291180D02*
X350565601Y-76365180D01*
X349683601Y-76077180D02*
X350100601Y-76291180D01*
X75326921Y-76291180D02*
X75744471Y-76077180D01*
X349351601Y-75745180D02*
X349683601Y-76077180D01*
X76290181Y-74400180D02*
X76076571Y-73982180D01*
X76076571Y-75745180D02*
X76290181Y-75328180D01*
X349351601Y-73982180D02*
X349137601Y-74400180D01*
X75744471Y-73650181D02*
X75326921Y-73438180D01*
X76076571Y-73982180D02*
X75744471Y-73650181D01*
X351445601Y-73650181D02*
X351028601Y-73438180D01*
X351777601Y-73982180D02*
X351445601Y-73650181D01*
X351991601Y-74400180D02*
X351777601Y-73982180D01*
X351445601Y-196950610D02*
X351028601Y-196738420D01*
X351777601Y-197284090D02*
X351445601Y-196950610D01*
X350565601Y-199665350D02*
X351028601Y-199592320D01*
X349137601Y-198629070D02*
X349351601Y-199046610D01*
X349064601Y-198166040D02*
X349137601Y-198629070D01*
X259545601Y-196950610D02*
X259128601Y-196738420D01*
X167227001Y-196738420D02*
X166763801Y-196665360D01*
X166763801Y-196665360D02*
X166299501Y-196738420D01*
X351991601Y-197701641D02*
X351777601Y-197284090D01*
X351445601Y-199378720D02*
X351777601Y-199046610D01*
X349351601Y-199046610D02*
X349683601Y-199378720D01*
X349351601Y-197284090D02*
X349137601Y-197701641D01*
X168190101Y-197701641D02*
X167976601Y-197284090D01*
X258663601Y-196665360D02*
X258200601Y-196738420D01*
X167976601Y-197284090D02*
X167645701Y-196950610D01*
X259877601Y-199046610D02*
X260091601Y-198629070D01*
X257781601Y-196950610D02*
X257451601Y-197284090D01*
X352064601Y-198166040D02*
X351991601Y-197701641D01*
X351991601Y-198629070D02*
X352064601Y-198166040D01*
X350100601Y-199592320D02*
X350565601Y-199665350D01*
X260164601Y-198166040D02*
X260091601Y-197701641D01*
X351777601Y-199046610D02*
X351991601Y-198629070D01*
X260091601Y-198629070D02*
X260164601Y-198166040D01*
X351028601Y-199592320D02*
X351445601Y-199378720D01*
X259128601Y-196738420D02*
X258663601Y-196665360D01*
X258200601Y-199592320D02*
X258663601Y-199665350D01*
X257237601Y-197701641D02*
X257164601Y-198166040D01*
X258200601Y-196738420D02*
X257781601Y-196950610D01*
X168190101Y-198629070D02*
X168264501Y-198166040D01*
X166299501Y-199592320D02*
X166763801Y-199665350D01*
X165881801Y-199378720D02*
X166299501Y-199592320D01*
X167227001Y-199592320D02*
X167645701Y-199378720D01*
X165549901Y-199046610D02*
X165881801Y-199378720D01*
X257451601Y-197284090D02*
X257237601Y-197701641D01*
X259128601Y-199592320D02*
X259545601Y-199378720D01*
X259545601Y-199378720D02*
X259877601Y-199046610D01*
X258663601Y-199665350D02*
X259128601Y-199592320D01*
X167645701Y-196950610D02*
X167227001Y-196738420D01*
X257164601Y-198166040D02*
X257237601Y-198629070D01*
X167645701Y-199378720D02*
X167976601Y-199046610D01*
X74862521Y-76365180D02*
X75326921Y-76291180D01*
X74399501Y-76291180D02*
X74862521Y-76365180D01*
X73981961Y-76077180D02*
X74399501Y-76291180D01*
X257781601Y-199378720D02*
X258200601Y-199592320D01*
X73649851Y-75745180D02*
X73981961Y-76077180D01*
X73437631Y-75328180D02*
X73649851Y-75745180D01*
X349137601Y-197701641D02*
X349064601Y-198166040D01*
X257237601Y-198629070D02*
X257451601Y-199046610D01*
X73363221Y-74864180D02*
X73437631Y-75328180D01*
X349683601Y-199378720D02*
X350100601Y-199592320D01*
X349683601Y-196950610D02*
X349351601Y-197284090D01*
X350100601Y-196738420D02*
X349683601Y-196950610D01*
X259877601Y-197284090D02*
X259545601Y-196950610D01*
X257451601Y-199046610D02*
X257781601Y-199378720D01*
X260091601Y-197701641D02*
X259877601Y-197284090D01*
X168264501Y-198166040D02*
X168190101Y-197701641D01*
X167976601Y-199046610D02*
X168190101Y-198629070D01*
X166763801Y-199665350D02*
X167227001Y-199592320D01*
X73437631Y-74400180D02*
X73363221Y-74864180D01*
X73649851Y-73982180D02*
X73437631Y-74400180D01*
X73981961Y-73650181D02*
X73649851Y-73982180D01*
X74399501Y-73438180D02*
X73981961Y-73650181D01*
X350565601Y-196665360D02*
X350100601Y-196738420D01*
X351028601Y-196738420D02*
X350565601Y-196665360D01*
X351777601Y-197284090D02*
X351445601Y-196950610D01*
X352064601Y-198166040D02*
X351991601Y-197701641D01*
X350565601Y-199665350D02*
X351028601Y-199592320D01*
X350565601Y-196665360D02*
X350100601Y-196738420D01*
X351445601Y-196950610D02*
X351028601Y-196738420D01*
X351991601Y-198629070D02*
X352064601Y-198166040D01*
X351445601Y-199378720D02*
X351777601Y-199046610D01*
X351777601Y-199046610D02*
X351991601Y-198629070D01*
X351991601Y-197701641D02*
X351777601Y-197284090D01*
X351028601Y-199592320D02*
X351445601Y-199378720D01*
X351028601Y-196738420D02*
X350565601Y-196665360D01*
X350100601Y-199592320D02*
X350565601Y-199665350D01*
X259545601Y-76077180D02*
X259877601Y-75745180D01*
X257237601Y-75328180D02*
X257451601Y-75745180D01*
X350565601Y-73365181D02*
X350100601Y-73438180D01*
X257451601Y-75745180D02*
X257781601Y-76077180D01*
X258663601Y-76365180D02*
X259128601Y-76291180D01*
X257781601Y-76077180D02*
X258200601Y-76291180D01*
X257781601Y-73650181D02*
X257451601Y-73982180D01*
X165337501Y-75328180D02*
X165549901Y-75745180D01*
X165264501Y-74864180D02*
X165337501Y-75328180D01*
X165549901Y-73982180D02*
X165337501Y-74400180D01*
X259128601Y-73438180D02*
X258663601Y-73365181D01*
X257164601Y-74864180D02*
X257237601Y-75328180D01*
X259545601Y-73650181D02*
X259128601Y-73438180D01*
X258200601Y-76291180D02*
X258663601Y-76365180D01*
X260091601Y-75328180D02*
X260164601Y-74864180D01*
X259128601Y-76291180D02*
X259545601Y-76077180D01*
X258663601Y-73365181D02*
X258200601Y-73438180D01*
X260164601Y-74864180D02*
X260091601Y-74400180D01*
X259877601Y-75745180D02*
X260091601Y-75328180D01*
X257237601Y-74400180D02*
X257164601Y-74864180D01*
X351028601Y-73438180D02*
X350565601Y-73365181D01*
X257451601Y-73982180D02*
X257237601Y-74400180D01*
X165337501Y-74400180D02*
X165264501Y-74864180D01*
X260091601Y-74400180D02*
X259877601Y-73982180D01*
X165881801Y-73650181D02*
X165549901Y-73982180D01*
X166299501Y-73438180D02*
X165881801Y-73650181D01*
X259877601Y-73982180D02*
X259545601Y-73650181D01*
X258200601Y-73438180D02*
X257781601Y-73650181D01*
X165549901Y-75745180D02*
X165881801Y-76077180D01*
X167227001Y-73438180D02*
X166763801Y-73365181D01*
X166763801Y-76365180D02*
X167227001Y-76291180D01*
X167976601Y-75745180D02*
X168190101Y-75328180D01*
X166299501Y-76291180D02*
X166763801Y-76365180D01*
X165881801Y-76077180D02*
X166299501Y-76291180D01*
X167227001Y-76291180D02*
X167645701Y-76077180D01*
X168190101Y-74400180D02*
X167976601Y-73982180D01*
X168190101Y-75328180D02*
X168264501Y-74864180D01*
X167645701Y-76077180D02*
X167976601Y-75745180D01*
X167976601Y-73982180D02*
X167645701Y-73650181D01*
X167645701Y-73650181D02*
X167227001Y-73438180D01*
X168264501Y-74864180D02*
X168190101Y-74400180D01*
X166763801Y-73365181D02*
X166299501Y-73438180D01*
X73663631Y-71447180D02*
X73893761Y-71400181D01*
X71806037Y-72796180D02*
X71935573Y-72600180D01*
X71399515Y-199134810D02*
X71373332Y-198900540D01*
X71363685Y-74364180D02*
X71373332Y-74128180D01*
X73215771Y-71593180D02*
X73436251Y-71511180D01*
X73002171Y-71691180D02*
X73215771Y-71593180D01*
X71935573Y-72600180D02*
X72081644Y-72416180D01*
X71363685Y-198664900D02*
X71363685Y-74364180D01*
X72241495Y-72242180D02*
X72415131Y-72082180D01*
X72795471Y-71807180D02*
X73002171Y-71691180D01*
X71373332Y-198900540D02*
X71363685Y-198664900D01*
X72415131Y-72082180D02*
X72599791Y-71936181D01*
X72081644Y-72416180D02*
X72241495Y-72242180D01*
X71592440Y-73217180D02*
X71690280Y-73003180D01*
X73436251Y-71511180D02*
X73663631Y-71447180D01*
X71690280Y-73003180D02*
X71806037Y-72796180D01*
X71509758Y-73437180D02*
X71592440Y-73217180D01*
X71446368Y-73664180D02*
X71509758Y-73437180D01*
X72599791Y-71936181D02*
X72795471Y-71807180D01*
X71399515Y-73894180D02*
X71446368Y-73664180D01*
X71373332Y-74128180D02*
X71399515Y-73894180D01*
X74128031Y-71374180D02*
X74363671Y-71364180D01*
X73893761Y-71400181D02*
X74128031Y-71374180D01*
X345554737Y-81911394D02*
X345554737Y-191161554D01*
X79904387Y-81911394D02*
G75*
G02X81904387Y-79911394I2000000J0D01*
G01*
X103429412Y-71364180D02*
X103429412Y-79911394D01*
X343554737Y-193161554D02*
X81904387Y-193161554D01*
X343554737Y-79911394D02*
G75*
G02X345554737Y-81911394I0J-2000000D01*
G01*
X345554737Y-191161554D02*
G75*
G02X343554737Y-193161554I-2000000J0D01*
G01*
X103429412Y-71364180D02*
X93429412Y-71364180D01*
X93429412Y-71364180D02*
X93429412Y-79911394D01*
X103429412Y-79911394D02*
X343554737Y-79911394D01*
X79904387Y-191161554D02*
X79904387Y-81911394D01*
X81904387Y-79911394D02*
X93429412Y-79911394D01*
X81904387Y-193161554D02*
G75*
G02X79904387Y-191161554I0J2000000D01*
G01*
X353012601Y-72082180D02*
X353186601Y-72242180D01*
X352827601Y-71936181D02*
X353012601Y-72082180D01*
X352425601Y-71691180D02*
X352632601Y-71807180D01*
X352632601Y-71807180D02*
X352827601Y-71936181D01*
X352213601Y-71593180D02*
X352425601Y-71691180D01*
X353492601Y-72600180D02*
X353621601Y-72796180D01*
X353737601Y-73003180D02*
X353836601Y-73217180D01*
X353621601Y-72796180D02*
X353737601Y-73003180D01*
X353346601Y-72416180D02*
X353492601Y-72600180D01*
X353186601Y-72242180D02*
X353346601Y-72416180D01*
X354028601Y-73894180D02*
X354054601Y-74128180D01*
X353981601Y-73664180D02*
X354028601Y-73894180D01*
X353917601Y-73437180D02*
X353981601Y-73664180D01*
X353836601Y-73217180D02*
X353917601Y-73437180D01*
X354054601Y-74128180D02*
X354065601Y-74364180D01*
X353981601Y-199366320D02*
X353917601Y-199592320D01*
X354028601Y-199134810D02*
X353981601Y-199366320D01*
X354054601Y-198900540D02*
X354028601Y-199134810D01*
X354065601Y-198666280D02*
X354054601Y-198900540D01*
X354065601Y-74364180D02*
X354065601Y-198666280D01*
X353836601Y-199814180D02*
X353737601Y-200026400D01*
X353917601Y-199592320D02*
X353836601Y-199814180D01*
X353492601Y-200428790D02*
X353346601Y-200613440D01*
X353621601Y-200233110D02*
X353492601Y-200428790D01*
X353737601Y-200026400D02*
X353621601Y-200233110D01*
X353346601Y-200613440D02*
X353186601Y-200787080D01*
X352827601Y-201093004D02*
X352632601Y-201222537D01*
X352632601Y-201222537D02*
X352425601Y-201338294D01*
X353012601Y-200946929D02*
X352827601Y-201093004D01*
X353186601Y-200787080D02*
X353012601Y-200946929D01*
X351991601Y-201518816D02*
X351765601Y-201582206D01*
X352425601Y-201338294D02*
X352213601Y-201437512D01*
X351765601Y-201582206D02*
X351533601Y-201629059D01*
X351533601Y-201629059D02*
X351299601Y-201655242D01*
X352213601Y-201437512D02*
X351991601Y-201518816D01*
X74363671Y-201666266D02*
X74128031Y-201655242D01*
X73893761Y-201629059D02*
X73663631Y-201582206D01*
X74128031Y-201655242D02*
X73893761Y-201629059D01*
X351065601Y-201666266D02*
X74363671Y-201666266D01*
X351299601Y-201655242D02*
X351065601Y-201666266D01*
X73436251Y-201518816D02*
X73215771Y-201437512D01*
X73663631Y-201582206D02*
X73436251Y-201518816D01*
X72795471Y-201222537D02*
X72599791Y-201093004D01*
X73002171Y-201338294D02*
X72795471Y-201222537D01*
X73215771Y-201437512D02*
X73002171Y-201338294D01*
X72241495Y-200787080D02*
X72081644Y-200613440D01*
X72415131Y-200946929D02*
X72241495Y-200787080D01*
X72599791Y-201093004D02*
X72415131Y-200946929D01*
X71935573Y-200428790D02*
X71806037Y-200233110D01*
X72081644Y-200613440D02*
X71935573Y-200428790D01*
X71690280Y-200026400D02*
X71592440Y-199814180D01*
X71509758Y-199592320D02*
X71446368Y-199366320D01*
X71806037Y-200233110D02*
X71690280Y-200026400D01*
X71446368Y-199366320D02*
X71399515Y-199134810D01*
X71592440Y-199814180D02*
X71509758Y-199592320D01*
M02*
