M48
; DRILL file {KiCad (5.1.4)-1} date 31/08/2020 18:20:25
; FORMAT={-:-/ absolute / inch / decimal}
; #@! TF.CreationDate,2020-08-31T18:20:25-07:00
; #@! TF.GenerationSoftware,Kicad,Pcbnew,(5.1.4)-1
; #@! TF.FileFunction,Plated,1,2,PTH
FMAT,2
INCH
T1C0.0157
T2C0.0236
T3C0.0579
%
G90
G05
T1
X3.68Y-3.75
X3.8124Y-3.21
X4.02Y-3.29
X4.07Y-3.75
X8.265Y-3.79
X8.295Y-4.54
X8.325Y-5.29
X8.355Y-6.04
X8.44Y-6.83
X8.44Y-6.87
X8.44Y-6.91
X8.44Y-6.95
X8.57Y-7.3
X8.57Y-7.345
X8.57Y-7.39
X8.57Y-7.435
X8.57Y-7.48
X8.57Y-7.525
X8.57Y-7.57
X8.5702Y-7.2598
X8.6772Y-7.0522
X8.745Y-6.985
X8.865Y-7.55
X8.9086Y-7.5208
X8.94Y-6.73
X8.9404Y-6.789
X9.105Y-4.41
X9.12Y-6.65
X9.1207Y-6.7572
X9.1493Y-4.41
X9.1773Y-6.8774
X9.1872Y-6.825
X9.1907Y-4.41
X9.2353Y-6.6597
X9.2647Y-6.6303
X9.2925Y-6.9925
X9.3Y-6.75
X9.3293Y-7.2981
X9.56Y-6.75
X9.69Y-7.195
X10.1Y-6.86
X10.291Y-7.4521
X10.85Y-6.89
X11.6Y-6.92
X12.35Y-6.95
X13.1Y-6.98
T3
X4.85Y-4.15
X5.1Y-4.05
X9.35Y-3.4
X9.6Y-3.3
X4.1Y-4.9
X4.35Y-4.8
X10.1Y-7.15
X10.35Y-7.05
X10.1Y-4.15
X10.35Y-4.05
X7.85Y-7.15
X8.1Y-7.05
X11.6Y-4.9
X11.85Y-4.8
X3.35Y-7.15
X3.6Y-7.05
X13.1Y-3.4
X13.35Y-3.3
X6.35Y-6.4
X6.6Y-6.3
X7.1Y-3.4
X7.35Y-3.3
X13.1Y-4.9
X13.35Y-4.8
X11.6Y-3.4
X11.85Y-3.3
X10.85Y-6.4
X11.1Y-6.3
X5.6Y-3.4
X5.85Y-3.3
X9.35Y-4.9
X9.6Y-4.8
X4.85Y-6.4
X5.1Y-6.3
X10.85Y-5.65
X11.1Y-5.55
X5.6Y-6.4
X5.85Y-6.3
X10.85Y-4.1512
X11.1Y-4.0512
X13.1Y-7.15
X13.35Y-7.05
X8.6Y-6.4
X8.85Y-6.3
X6.35Y-4.15
X6.6Y-4.05
X6.35Y-3.4
X6.6Y-3.3
X5.6Y-4.9
X5.85Y-4.8
X3.35Y-3.4
X3.6Y-3.3
X12.35Y-4.15
X12.6Y-4.05
X4.85Y-5.65
X5.1Y-5.55
X4.85Y-7.15
X5.1Y-7.05
X3.35Y-4.15
X3.6Y-4.05
X12.35Y-4.9
X12.6Y-4.8
X4.1Y-7.15
X4.35Y-7.05
X7.1Y-4.15
X7.35Y-4.05
X10.85Y-4.9
X11.1Y-4.8
X12.35Y-3.4
X12.6Y-3.3
X10.1Y-5.65
X10.35Y-5.55
X10.85Y-3.4
X11.1Y-3.3
X8.6Y-4.9
X8.85Y-4.8
X10.1Y-6.4
X10.35Y-6.3
X7.85Y-3.4
X8.1Y-3.3
X10.1Y-4.9
X10.35Y-4.8
X12.725Y-5.65
X12.975Y-5.55
X4.1Y-6.4
X4.35Y-6.3
X9.35Y-6.4
X9.6Y-6.3
X13.1Y-6.4
X13.35Y-6.3
X3.35Y-6.4
X3.6Y-6.3
X9.35Y-4.15
X9.6Y-4.05
X11.6Y-6.4
X11.85Y-6.3
X7.1Y-6.4
X7.35Y-6.3
X5.6Y-4.15
X5.85Y-4.05
X4.85Y-4.9
X5.1Y-4.8
X10.85Y-7.15
X11.1Y-7.05
X7.85Y-4.15
X8.1Y-4.05
X6.35Y-4.9
X6.6Y-4.8
X8.6Y-4.15
X8.85Y-4.05
X4.1Y-5.65
X4.35Y-5.55
X11.6Y-7.15
X11.85Y-7.05
X4.1Y-4.15
X4.35Y-4.05
X7.85Y-6.4
X8.1Y-6.3
X10.1Y-3.4
X10.35Y-3.3
X3.35Y-5.65
X3.6Y-5.55
X12.35Y-6.4
X12.6Y-6.3
X3.35Y-4.9
X3.6Y-4.8
X7.85Y-5.65
X8.1Y-5.55
X8.6Y-3.4
X8.85Y-3.3
X7.85Y-4.9
X8.1Y-4.8
X7.1Y-5.65
X7.35Y-5.55
X4.85Y-3.4
X5.1Y-3.3
X6.35Y-5.65
X6.6Y-5.55
X11.6Y-5.65
X11.85Y-5.55
X9.35Y-5.65
X9.6Y-5.55
X8.6Y-5.65
X8.85Y-5.55
X11.6Y-4.15
X11.85Y-4.05
X4.1Y-3.4
X4.35Y-3.3
X7.1Y-4.9
X7.35Y-4.8
X13.1Y-4.15
X13.35Y-4.05
X5.6Y-5.65
X5.85Y-5.55
X12.35Y-7.15
X12.6Y-7.05
T2
G00X3.7051Y-2.9
M15
G01X3.7051Y-2.9236
M16
G05
G00X3.7051Y-3.0547
M15
G01X3.7051Y-3.098
M16
G05
G00X4.0453Y-2.9
M15
G01X4.0453Y-2.9236
M16
G05
G00X4.0453Y-3.0547
M15
G01X4.0453Y-3.098
M16
G05
T0
M30
