G04 #@! TF.GenerationSoftware,KiCad,Pcbnew,(5.1.4)-1*
G04 #@! TF.CreationDate,2020-08-15T11:53:10-07:00*
G04 #@! TF.ProjectId,B3PKey,4233504b-6579-42e6-9b69-6361645f7063,1*
G04 #@! TF.SameCoordinates,Original*
G04 #@! TF.FileFunction,Copper,L1,Top*
G04 #@! TF.FilePolarity,Positive*
%FSLAX46Y46*%
G04 Gerber Fmt 4.6, Leading zero omitted, Abs format (unit mm)*
G04 Created by KiCad (PCBNEW (5.1.4)-1) date 2020-08-15 11:53:10*
%MOMM*%
%LPD*%
G04 APERTURE LIST*
%ADD10O,1.000000X2.100000*%
%ADD11O,1.000000X1.600000*%
%ADD12C,2.250000*%
%ADD13C,0.800000*%
%ADD14C,0.381000*%
%ADD15C,0.254000*%
G04 APERTURE END LIST*
D10*
X94105000Y-67486000D03*
X102745000Y-67486000D03*
D11*
X94105000Y-63306000D03*
X102745000Y-63306000D03*
D12*
X91440000Y-83820000D03*
X85090000Y-86360000D03*
X215265000Y-179070000D03*
X208915000Y-181610000D03*
X177165000Y-179070000D03*
X170815000Y-181610000D03*
X339090000Y-179070000D03*
X332740000Y-181610000D03*
X320040000Y-179070000D03*
X313690000Y-181610000D03*
X300990000Y-179070000D03*
X294640000Y-181610000D03*
X281940000Y-179070000D03*
X275590000Y-181610000D03*
X262890000Y-179070000D03*
X256540000Y-181610000D03*
X243840000Y-179070000D03*
X237490000Y-181610000D03*
X148590000Y-179070000D03*
X142240000Y-181610000D03*
X129540000Y-179070000D03*
X123190000Y-181610000D03*
X110490000Y-179070000D03*
X104140000Y-181610000D03*
X91440000Y-179070000D03*
X85090000Y-181610000D03*
X339090000Y-160020000D03*
X332740000Y-162560000D03*
X320040000Y-160020000D03*
X313690000Y-162560000D03*
X300990000Y-160020000D03*
X294640000Y-162560000D03*
X281940000Y-160020000D03*
X275590000Y-162560000D03*
X262890000Y-160020000D03*
X256540000Y-162560000D03*
X243840000Y-160020000D03*
X237490000Y-162560000D03*
X224790000Y-160020000D03*
X218440000Y-162560000D03*
X205740000Y-160020000D03*
X199390000Y-162560000D03*
X186690000Y-160020000D03*
X180340000Y-162560000D03*
X167640000Y-160020000D03*
X161290000Y-162560000D03*
X148590000Y-160020000D03*
X142240000Y-162560000D03*
X129540000Y-160020000D03*
X123190000Y-162560000D03*
X110490000Y-160020000D03*
X104140000Y-162560000D03*
X91440000Y-160020000D03*
X85090000Y-162560000D03*
X329565000Y-140970000D03*
X323215000Y-143510000D03*
X300990000Y-140970000D03*
X294640000Y-143510000D03*
X281940000Y-140970000D03*
X275590000Y-143510000D03*
X262890000Y-140970000D03*
X256540000Y-143510000D03*
X243840000Y-140970000D03*
X237490000Y-143510000D03*
X224790000Y-140970000D03*
X218440000Y-143510000D03*
X205740000Y-140970000D03*
X199390000Y-143510000D03*
X186690000Y-140970000D03*
X180340000Y-143510000D03*
X167640000Y-140970000D03*
X161290000Y-143510000D03*
X148590000Y-140970000D03*
X142240000Y-143510000D03*
X129540000Y-140970000D03*
X123190000Y-143510000D03*
X110490000Y-140970000D03*
X104140000Y-143510000D03*
X91440000Y-140970000D03*
X85090000Y-143510000D03*
X339090000Y-121920000D03*
X332740000Y-124460000D03*
X320040000Y-121920000D03*
X313690000Y-124460000D03*
X300990000Y-121920000D03*
X294640000Y-124460000D03*
X281940000Y-121920000D03*
X275590000Y-124460000D03*
X262890000Y-121920000D03*
X256540000Y-124460000D03*
X243840000Y-121920000D03*
X237490000Y-124460000D03*
X224790000Y-121920000D03*
X218440000Y-124460000D03*
X205740000Y-121920000D03*
X199390000Y-124460000D03*
X186690000Y-121920000D03*
X180340000Y-124460000D03*
X167640000Y-121920000D03*
X161290000Y-124460000D03*
X148590000Y-121920000D03*
X142240000Y-124460000D03*
X129540000Y-121920000D03*
X123190000Y-124460000D03*
X110490000Y-121920000D03*
X104140000Y-124460000D03*
X91440000Y-121920000D03*
X85090000Y-124460000D03*
X339090000Y-102870000D03*
X332740000Y-105410000D03*
X320040000Y-102870000D03*
X313690000Y-105410000D03*
X300990000Y-102870000D03*
X294640000Y-105410000D03*
X281940000Y-102901250D03*
X275590000Y-105441250D03*
X262890000Y-102870000D03*
X256540000Y-105410000D03*
X243840000Y-102870000D03*
X237490000Y-105410000D03*
X224790000Y-102870000D03*
X218440000Y-105410000D03*
X205740000Y-102870000D03*
X199390000Y-105410000D03*
X186690000Y-102870000D03*
X180340000Y-105410000D03*
X167640000Y-102870000D03*
X161290000Y-105410000D03*
X148590000Y-102870000D03*
X142240000Y-105410000D03*
X129540000Y-102870000D03*
X123190000Y-105410000D03*
X110490000Y-102870000D03*
X104140000Y-105410000D03*
X91440000Y-102870000D03*
X85090000Y-105410000D03*
X339090000Y-83820000D03*
X332740000Y-86360000D03*
X320040000Y-83820000D03*
X313690000Y-86360000D03*
X300990000Y-83820000D03*
X294640000Y-86360000D03*
X281940000Y-83820000D03*
X275590000Y-86360000D03*
X262890000Y-83820000D03*
X256540000Y-86360000D03*
X243840000Y-83820000D03*
X237490000Y-86360000D03*
X224790000Y-83820000D03*
X218440000Y-86360000D03*
X205740000Y-83820000D03*
X199390000Y-86360000D03*
X186690000Y-83820000D03*
X180340000Y-86360000D03*
X167640000Y-83820000D03*
X161290000Y-86360000D03*
X148590000Y-83820000D03*
X142240000Y-86360000D03*
X129540000Y-83820000D03*
X123190000Y-86360000D03*
X110490000Y-83820000D03*
X104140000Y-86360000D03*
D13*
X128143000Y-73025000D03*
X128143000Y-68199000D03*
X127743001Y-85325001D03*
X111887000Y-87630000D03*
X112268000Y-90678000D03*
X107061000Y-81407000D03*
X114300000Y-85598000D03*
X121666000Y-85090000D03*
X125095000Y-72263000D03*
X109347000Y-76454000D03*
X114300000Y-70104000D03*
X111125000Y-67437000D03*
X115443000Y-91567000D03*
X115378500Y-114362500D03*
X116459000Y-91567000D03*
X116396500Y-133412500D03*
X117475000Y-91567000D03*
X117412500Y-152462500D03*
X118491000Y-91567000D03*
X118428500Y-171512500D03*
X119444500Y-190562500D03*
X119507000Y-91567000D03*
X108458000Y-73279000D03*
X108464067Y-74301067D03*
X106934000Y-83693000D03*
X99902000Y-72961500D03*
X94424500Y-72961500D03*
X96837500Y-70929500D03*
X94424500Y-70929500D03*
D14*
X128143000Y-73025000D02*
X128143000Y-68199000D01*
X127743001Y-73424999D02*
X128143000Y-73025000D01*
X127743001Y-85325001D02*
X127743001Y-85325001D01*
X127743001Y-85325001D02*
X127743001Y-73424999D01*
X111487001Y-89897001D02*
X112268000Y-90678000D01*
X111887000Y-87630000D02*
X111487001Y-88029999D01*
X111487001Y-88029999D02*
X111487001Y-89897001D01*
X110025058Y-85598000D02*
X114300000Y-85598000D01*
X107061000Y-81407000D02*
X107061000Y-82633942D01*
X107061000Y-82633942D02*
X110025058Y-85598000D01*
X114300000Y-85598000D02*
X121158000Y-85598000D01*
X121158000Y-85598000D02*
X121666000Y-85090000D01*
X121666000Y-85090000D02*
X125095000Y-81661000D01*
X125095000Y-81661000D02*
X125095000Y-72263000D01*
X107061000Y-81407000D02*
X107061000Y-78740000D01*
X107061000Y-78740000D02*
X109347000Y-76454000D01*
X109347000Y-76454000D02*
X109347000Y-72898000D01*
X112141000Y-70104000D02*
X114300000Y-70104000D01*
X111252000Y-67564000D02*
X111125000Y-67437000D01*
X111252000Y-70993000D02*
X111252000Y-67564000D01*
X111252000Y-70993000D02*
X112141000Y-70104000D01*
X109347000Y-72898000D02*
X111252000Y-70993000D01*
D15*
X115443000Y-114298000D02*
X115378500Y-114362500D01*
X115443000Y-91567000D02*
X115443000Y-114298000D01*
X116459000Y-133350000D02*
X116396500Y-133412500D01*
X116459000Y-91567000D02*
X116459000Y-133350000D01*
X117475000Y-152400000D02*
X117412500Y-152462500D01*
X117475000Y-91567000D02*
X117475000Y-152400000D01*
X118491000Y-171450000D02*
X118428500Y-171512500D01*
X118491000Y-91567000D02*
X118491000Y-171450000D01*
X119507000Y-190500000D02*
X119444500Y-190562500D01*
X119507000Y-91567000D02*
X119507000Y-190500000D01*
X85090000Y-86360000D02*
X85090000Y-105410000D01*
X85090000Y-107000990D02*
X85090000Y-124460000D01*
X85090000Y-105410000D02*
X85090000Y-107000990D01*
X85090000Y-126050990D02*
X85090000Y-143510000D01*
X85090000Y-124460000D02*
X85090000Y-126050990D01*
X85090000Y-145100990D02*
X85090000Y-162560000D01*
X85090000Y-143510000D02*
X85090000Y-145100990D01*
X85090000Y-164150990D02*
X85090000Y-181610000D01*
X85090000Y-162560000D02*
X85090000Y-164150990D01*
X85090000Y-86360000D02*
X95377000Y-86360000D01*
X95377000Y-86360000D02*
X108458000Y-73279000D01*
X104140000Y-87950990D02*
X104140000Y-105410000D01*
X104140000Y-86360000D02*
X104140000Y-87950990D01*
X104140000Y-107000990D02*
X104140000Y-124460000D01*
X104140000Y-105410000D02*
X104140000Y-107000990D01*
X104140000Y-124460000D02*
X104140000Y-143510000D01*
X104140000Y-143510000D02*
X104140000Y-181610000D01*
X104140000Y-86360000D02*
X104140000Y-78625134D01*
X104140000Y-78625134D02*
X108464067Y-74301067D01*
X123190000Y-86360000D02*
X123190000Y-181610000D01*
X123190000Y-86360000D02*
X109601000Y-86360000D01*
X109601000Y-86360000D02*
X106934000Y-83693000D01*
X142240000Y-86360000D02*
X142240000Y-181610000D01*
X161290000Y-86360000D02*
X161290000Y-162560000D01*
X180340000Y-86360000D02*
X180340000Y-162560000D01*
X170815000Y-180019010D02*
X180340000Y-170494010D01*
X170815000Y-181610000D02*
X170815000Y-180019010D01*
X180340000Y-170494010D02*
X180340000Y-162560000D01*
X199390000Y-87950990D02*
X199390000Y-162560000D01*
X199390000Y-86360000D02*
X199390000Y-87950990D01*
X208915000Y-180019010D02*
X199390000Y-170494010D01*
X208915000Y-181610000D02*
X208915000Y-180019010D01*
X199390000Y-170494010D02*
X199390000Y-162560000D01*
X218440000Y-146558962D02*
X218440000Y-162560000D01*
X218440000Y-86360000D02*
X218440000Y-146558962D01*
X237490000Y-86360000D02*
X237490000Y-181610000D01*
X256540000Y-87950990D02*
X256540000Y-181610000D01*
X256540000Y-86360000D02*
X256540000Y-87950990D01*
X275590000Y-86360000D02*
X275590000Y-181610000D01*
X294640000Y-165608962D02*
X294640000Y-181610000D01*
X294640000Y-86360000D02*
X294640000Y-165608962D01*
X313690000Y-86360000D02*
X313690000Y-124460000D01*
X313690000Y-133985000D02*
X323215000Y-143510000D01*
X313690000Y-124460000D02*
X313690000Y-133985000D01*
X321624010Y-143510000D02*
X312166000Y-152968010D01*
X323215000Y-143510000D02*
X321624010Y-143510000D01*
X312166000Y-161036000D02*
X313690000Y-162560000D01*
X312166000Y-152968010D02*
X312166000Y-161036000D01*
X313690000Y-164150990D02*
X313690000Y-181610000D01*
X313690000Y-162560000D02*
X313690000Y-164150990D01*
X332740000Y-108458962D02*
X332740000Y-124460000D01*
X332740000Y-86360000D02*
X332740000Y-108458962D01*
X332740000Y-126050990D02*
X334010000Y-127320990D01*
X332740000Y-124460000D02*
X332740000Y-126050990D01*
X334010000Y-161290000D02*
X332740000Y-162560000D01*
X334010000Y-127320990D02*
X334010000Y-161290000D01*
X332740000Y-162560000D02*
X332740000Y-181610000D01*
X99902000Y-72961500D02*
X94424500Y-72961500D01*
X96837500Y-70929500D02*
X94424500Y-70929500D01*
M02*
