999
dxfrw 0.6.3
  0
SECTION
  2
HEADER
  9
$ACADVER
  1
AC1014
  9
$DWGCODEPAGE
  3
ANSI_1252
  9
$INSBASE
 10
0
 20
0
 30
0
  9
$EXTMIN
 10
0
 20
0
 30
0
  9
$EXTMAX
 10
275.70035
 20
125.3
 30
0
  9
$LIMMIN
 10
0
 20
0
  9
$LIMMAX
 10
420
 20
297
  9
$ORTHOMODE
 70
    0
  9
$REGENMODE
 70
    1
  9
$FILLMODE
 70
    0
  9
$QTEXTMODE
 70
    0
  9
$MIRRTEXT
 70
    0
  9
$LTSCALE
 40
1
  9
$ATTMODE
 70
    0
  9
$TEXTSIZE
 40
2.5
  9
$TRACEWID
 40
15.68
  9
$TEXTSTYLE
  7
STANDARD
  9
$CLAYER
  8
0
  9
$CELTYPE
  6
BYLAYER
  9
$CECOLOR
 62
  256
  9
$CELTSCALE
 40
1
  9
$DISPSILH
 70
    0
  9
$DIMSCALE
 40
2.5
  9
$DIMASZ
 40
2.5
  9
$DIMEXO
 40
0.625
  9
$DIMDLI
 40
3.75
  9
$DIMRND
 40
0
  9
$DIMDLE
 40
0
  9
$DIMEXE
 40
1.25
  9
$DIMTP
 40
0
  9
$DIMTM
 40
0
  9
$DIMTXT
 40
2.5
  9
$DIMCEN
 40
2.5
  9
$DIMTSZ
 40
0
  9
$DIMTOL
 70
    0
  9
$DIMLIM
 70
    0
  9
$DIMTIH
 70
    0
  9
$DIMTOH
 70
    0
  9
$DIMSE1
 70
    0
  9
$DIMSE2
 70
    0
  9
$DIMTAD
 70
    1
  9
$DIMZIN
 70
    8
  9
$DIMBLK
  1

  9
$DIMASO
 70
    1
  9
$DIMSHO
 70
    1
  9
$DIMPOST
  1

  9
$DIMAPOST
  1

  9
$DIMALT
 70
    0
  9
$DIMALTD
 70
    3
  9
$DIMALTF
 40
0.03937
  9
$DIMLFAC
 40
1
  9
$DIMTOFL
 70
    1
  9
$DIMTVP
 40
0
  9
$DIMTIX
 70
    0
  9
$DIMSOXD
 70
    0
  9
$DIMSAH
 70
    0
  9
$DIMBLK1
  1

  9
$DIMBLK2
  1

  9
$DIMSTYLE
  2
Standard
  9
$DIMCLRD
 70
    0
  9
$DIMCLRE
 70
    0
  9
$DIMCLRT
 70
    0
  9
$DIMTFAC
 40
1
  9
$DIMGAP
 40
0.625
  9
$DIMJUST
 70
    0
  9
$DIMSD1
 70
    0
  9
$DIMSD2
 70
    0
  9
$DIMTOLJ
 70
    0
  9
$DIMTZIN
 70
    8
  9
$DIMALTZ
 70
    0
  9
$DIMALTTZ
 70
    0
  9
$DIMUPT
 70
    0
  9
$DIMDEC
 70
    2
  9
$DIMTDEC
 70
    2
  9
$DIMALTU
 70
    2
  9
$DIMALTTD
 70
    3
  9
$DIMTXSTY
  7
STANDARD
  9
$DIMAUNIT
 70
    0
  9
$DIMADEC
 70
    0
  9
$DIMALTRND
 40
0
  9
$DIMAZIN
 70
    0
  9
$DIMDSEP
 70
   44
  9
$DIMATFIT
 70
    3
  9
$DIMFRAC
 70
    0
  9
$DIMLDRBLK
  1
STANDARD
  9
$DIMUNIT
 70
    2
  9
$DIMLWD
 70
   -2
  9
$DIMLWE
 70
   -2
  9
$DIMTMOVE
 70
    0
  9
$LUNITS
 70
    2
  9
$LUPREC
 70
    4
  9
$SKETCHINC
 40
1
  9
$FILLETRAD
 40
0
  9
$AUNITS
 70
    0
  9
$AUPREC
 70
    2
  9
$MENU
  1
.
  9
$ELEVATION
 40
0
  9
$PELEVATION
 40
0
  9
$THICKNESS
 40
0
  9
$LIMCHECK
 70
    0
  9
$BLIPMODE
 70
    0
  9
$CHAMFERA
 40
0
  9
$CHAMFERB
 40
0
  9
$CHAMFERC
 40
0
  9
$CHAMFERD
 40
0
  9
$SKPOLY
 70
    0
  9
$USRTIMER
 70
    1
  9
$ANGBASE
 50
0
  9
$ANGDIR
 70
    0
  9
$PDMODE
 70
   34
  9
$PDSIZE
 40
0
  9
$PLINEWID
 40
0
  9
$SPLFRAME
 70
    1
  9
$SPLINETYPE
 70
    2
  9
$SPLINESEGS
 70
    8
  9
$HANDSEED
  5
20000
  9
$SURFTAB1
 70
    6
  9
$SURFTAB2
 70
    6
  9
$SURFTYPE
 70
    6
  9
$SURFU
 70
    6
  9
$SURFV
 70
    6
  9
$UCSBASE
  2

  9
$UCSNAME
  2

  9
$UCSORG
 10
0
 20
0
 30
0
  9
$UCSXDIR
 10
1
 20
0
 30
0
  9
$UCSYDIR
 10
0
 20
1
 30
0
  9
$UCSORTHOREF
  2

  9
$UCSORTHOVIEW
 70
    0
  9
$UCSORGTOP
 10
0
 20
0
 30
0
  9
$UCSORGBOTTOM
 10
0
 20
0
 30
0
  9
$UCSORGLEFT
 10
0
 20
0
 30
0
  9
$UCSORGRIGHT
 10
0
 20
0
 30
0
  9
$UCSORGFRONT
 10
0
 20
0
 30
0
  9
$UCSORGBACK
 10
0
 20
0
 30
0
  9
$PUCSBASE
  2

  9
$PUCSNAME
  2

  9
$PUCSORG
 10
0
 20
0
 30
0
  9
$PUCSXDIR
 10
1
 20
0
 30
0
  9
$PUCSYDIR
 10
0
 20
1
 30
0
  9
$PUCSORTHOREF
  2

  9
$PUCSORTHOVIEW
 70
    0
  9
$PUCSORGTOP
 10
0
 20
0
 30
0
  9
$PUCSORGBOTTOM
 10
0
 20
0
 30
0
  9
$PUCSORGLEFT
 10
0
 20
0
 30
0
  9
$PUCSORGRIGHT
 10
0
 20
0
 30
0
  9
$PUCSORGFRONT
 10
0
 20
0
 30
0
  9
$PUCSORGBACK
 10
0
 20
0
 30
0
  9
$USERI1
 70
    0
  9
$USERI2
 70
    0
  9
$USERI3
 70
    0
  9
$USERI4
 70
    0
  9
$USERI5
 70
    0
  9
$USERR1
 40
0
  9
$USERR2
 40
0
  9
$USERR3
 40
0
  9
$USERR4
 40
0
  9
$USERR5
 40
0
  9
$WORLDVIEW
 70
    1
  9
$SHADEDGE
 70
    3
  9
$SHADEDIF
 70
   70
  9
$TILEMODE
 70
    1
  9
$MAXACTVP
 70
   64
  9
$PINSBASE
 10
0
 20
0
 30
0
  9
$PLIMCHECK
 70
    0
  9
$PEXTMIN
 10
0
 20
0
 30
0
  9
$PEXTMAX
 10
0
 20
0
 30
0
  9
$GRIDMODE
 70
    1
  9
$SNAPSTYLE
 70
    0
  9
$PLIMMIN
 10
0
 20
0
  9
$PLIMMAX
 10
10.9999997597041
 20
8.49999975970411
  9
$UNITMODE
 70
    0
  9
$VISRETAIN
 70
    1
  9
$PLINEGEN
 70
    0
  9
$PSLTSCALE
 70
    1
  9
$TREEDEPTH
 70
 3020
  9
$CMLSTYLE
  2
Standard
  9
$CMLJUST
 70
    0
  9
$CMLSCALE
 40
20
  9
$PROXYGRAPHICS
 70
    1
  9
$MEASUREMENT
 70
    1
  9
$CELWEIGHT
370
   -1
  9
$ENDCAPS
280
    0
  9
$JOINSTYLE
280
    0
  9
$LWDISPLAY
290
    0
  9
$HYPERLINKBASE
  1

  9
$STYLESHEET
  1

  9
$XEDIT
290
    1
  9
$CEPSNTYPE
380
    0
  9
$PSTYLEMODE
290
    1
  9
$EXTNAMES
290
    1
  9
$PSVPSCALE
 40
1
  9
$OLESTARTUP
290
    0
  0
ENDSEC
  0
SECTION
  2
CLASSES
  0
ENDSEC
  0
SECTION
  2
TABLES
  0
TABLE
  2
VPORT
  5
8
100
AcDbSymbolTable
 70
    1
  0
VPORT
  5
31
330
2
100
AcDbSymbolTableRecord
100
AcDbViewportTableRecord
  2
*ACTIVE
 70
    0
 10
0
 20
0
 11
1
 21
1
 12
180.5189094107326
 22
100.9234828496057
 13
0
 23
0
 14
10
 24
10
 15
10
 25
10
 16
0
 26
0
 36
1
 17
0
 27
0
 37
0
 40
254.3975373790713
 41
1.928262748487467
 42
50
 43
0
 44
0
 50
0
 51
0
 71
    0
 72
  100
 73
    1
 74
    3
 75
    0
 76
    1
 77
    0
 78
    0
  0
ENDTAB
  0
TABLE
  2
LTYPE
  5
5
100
AcDbSymbolTable
 70
    4
  0
LTYPE
  5
14
100
AcDbSymbolTableRecord
100
AcDbLinetypeTableRecord
  2
ByBlock
 70
    0
  3

 72
   65
 73
    0
 40
0
  0
LTYPE
  5
15
100
AcDbSymbolTableRecord
100
AcDbLinetypeTableRecord
  2
ByLayer
 70
    0
  3

 72
   65
 73
    0
 40
0
  0
LTYPE
  5
16
100
AcDbSymbolTableRecord
100
AcDbLinetypeTableRecord
  2
Continuous
 70
    0
  3
Solid line
 72
   65
 73
    0
 40
0
  0
LTYPE
  5
32
330
5
100
AcDbSymbolTableRecord
100
AcDbLinetypeTableRecord
  2
DOT
 70
    0
  3
Dot . . . . . . . . . . . . . . . . . . . . . .
 72
   65
 73
    2
 40
6.35
 49
0
 74
    0
 49
-6.35
 74
    0
  0
LTYPE
  5
33
330
5
100
AcDbSymbolTableRecord
100
AcDbLinetypeTableRecord
  2
DOTTINY
 70
    0
  3
Dot (.15x) .....................................
 72
   65
 73
    2
 40
0.9525
 49
0
 74
    0
 49
-0.9525
 74
    0
  0
LTYPE
  5
34
330
5
100
AcDbSymbolTableRecord
100
AcDbLinetypeTableRecord
  2
DOT2
 70
    0
  3
Dot (.5x) .....................................
 72
   65
 73
    2
 40
3.175
 49
0
 74
    0
 49
-3.175
 74
    0
  0
LTYPE
  5
35
330
5
100
AcDbSymbolTableRecord
100
AcDbLinetypeTableRecord
  2
DOTX2
 70
    0
  3
Dot (2x) .  .  .  .  .  .  .  .  .  .  .  .  .
 72
   65
 73
    2
 40
12.7
 49
0
 74
    0
 49
-12.7
 74
    0
  0
LTYPE
  5
36
330
5
100
AcDbSymbolTableRecord
100
AcDbLinetypeTableRecord
  2
DASHED
 70
    0
  3
Dashed _ _ _ _ _ _ _ _ _ _ _ _ _ _ _ _ _
 72
   65
 73
    2
 40
19.05
 49
12.7
 74
    0
 49
-6.35
 74
    0
  0
LTYPE
  5
37
330
5
100
AcDbSymbolTableRecord
100
AcDbLinetypeTableRecord
  2
DASHEDTINY
 70
    0
  3
Dashed (.15x) _ _ _ _ _ _ _ _ _ _ _ _ _ _ _ _ _
 72
   65
 73
    2
 40
2.8575
 49
1.905
 74
    0
 49
-0.9525
 74
    0
  0
LTYPE
  5
38
330
5
100
AcDbSymbolTableRecord
100
AcDbLinetypeTableRecord
  2
DASHED2
 70
    0
  3
Dashed (.5x) _ _ _ _ _ _ _ _ _ _ _ _ _ _ _ _ _
 72
   65
 73
    2
 40
9.524999999999999
 49
6.35
 74
    0
 49
-3.175
 74
    0
  0
LTYPE
  5
39
330
5
100
AcDbSymbolTableRecord
100
AcDbLinetypeTableRecord
  2
DASHEDX2
 70
    0
  3
Dashed (2x) ____  ____  ____  ____  ____  ___
 72
   65
 73
    2
 40
38.09999999999999
 49
25.4
 74
    0
 49
-12.7
 74
    0
  0
LTYPE
  5
3A
330
5
100
AcDbSymbolTableRecord
100
AcDbLinetypeTableRecord
  2
DASHDOT
 70
    0
  3
Dash dot __ . __ . __ . __ . __ . __ . __ . __
 72
   65
 73
    4
 40
25.4
 49
12.7
 74
    0
 49
-6.35
 74
    0
 49
0
 74
    0
 49
-6.35
 74
    0
  0
LTYPE
  5
3B
330
5
100
AcDbSymbolTableRecord
100
AcDbLinetypeTableRecord
  2
DASHDOTTINY
 70
    0
  3
Dash dot (.15x) _._._._._._._._._._._._._._._.
 72
   65
 73
    4
 40
3.81
 49
1.905
 74
    0
 49
-0.9525
 74
    0
 49
0
 74
    0
 49
-0.9525
 74
    0
  0
LTYPE
  5
3C
330
5
100
AcDbSymbolTableRecord
100
AcDbLinetypeTableRecord
  2
DASHDOT2
 70
    0
  3
Dash dot (.5x) _._._._._._._._._._._._._._._.
 72
   65
 73
    4
 40
12.7
 49
6.35
 74
    0
 49
-3.175
 74
    0
 49
0
 74
    0
 49
-3.175
 74
    0
  0
LTYPE
  5
3D
330
5
100
AcDbSymbolTableRecord
100
AcDbLinetypeTableRecord
  2
DASHDOTX2
 70
    0
  3
Dash dot (2x) ____  .  ____  .  ____  .  ___
 72
   65
 73
    4
 40
50.8
 49
25.4
 74
    0
 49
-12.7
 74
    0
 49
0
 74
    0
 49
-12.7
 74
    0
  0
LTYPE
  5
3E
330
5
100
AcDbSymbolTableRecord
100
AcDbLinetypeTableRecord
  2
DIVIDE
 70
    0
  3
Divide ____ . . ____ . . ____ . . ____ . . ____
 72
   65
 73
    6
 40
31.75
 49
12.7
 74
    0
 49
-6.35
 74
    0
 49
0
 74
    0
 49
-6.35
 74
    0
 49
0
 74
    0
 49
-6.35
 74
    0
  0
LTYPE
  5
3F
330
5
100
AcDbSymbolTableRecord
100
AcDbLinetypeTableRecord
  2
DIVIDETINY
 70
    0
  3
Divide (.15x) __..__..__..__..__..__..__..__.._
 72
   65
 73
    6
 40
4.7625
 49
1.905
 74
    0
 49
-0.9525
 74
    0
 49
0
 74
    0
 49
-0.9525
 74
    0
 49
0
 74
    0
 49
-0.9525
 74
    0
  0
LTYPE
  5
40
330
5
100
AcDbSymbolTableRecord
100
AcDbLinetypeTableRecord
  2
DIVIDE2
 70
    0
  3
Divide (.5x) __..__..__..__..__..__..__..__.._
 72
   65
 73
    6
 40
15.875
 49
6.35
 74
    0
 49
-3.175
 74
    0
 49
0
 74
    0
 49
-3.175
 74
    0
 49
0
 74
    0
 49
-3.175
 74
    0
  0
LTYPE
  5
41
330
5
100
AcDbSymbolTableRecord
100
AcDbLinetypeTableRecord
  2
DIVIDEX2
 70
    0
  3
Divide (2x) ________  .  .  ________  .  .  _
 72
   65
 73
    6
 40
63.5
 49
25.4
 74
    0
 49
-12.7
 74
    0
 49
0
 74
    0
 49
-12.7
 74
    0
 49
0
 74
    0
 49
-12.7
 74
    0
  0
LTYPE
  5
42
330
5
100
AcDbSymbolTableRecord
100
AcDbLinetypeTableRecord
  2
BORDER
 70
    0
  3
Border __ __ . __ __ . __ __ . __ __ . __ __ .
 72
   65
 73
    6
 40
44.45
 49
12.7
 74
    0
 49
-6.35
 74
    0
 49
12.7
 74
    0
 49
-6.35
 74
    0
 49
0
 74
    0
 49
-6.35
 74
    0
  0
LTYPE
  5
43
330
5
100
AcDbSymbolTableRecord
100
AcDbLinetypeTableRecord
  2
BORDERTINY
 70
    0
  3
Border (.15x) __.__.__.__.__.__.__.__.__.__.__.
 72
   65
 73
    6
 40
6.6675
 49
1.905
 74
    0
 49
-0.9525
 74
    0
 49
1.905
 74
    0
 49
-0.9525
 74
    0
 49
0
 74
    0
 49
-0.9525
 74
    0
  0
LTYPE
  5
44
330
5
100
AcDbSymbolTableRecord
100
AcDbLinetypeTableRecord
  2
BORDER2
 70
    0
  3
Border (.5x) __.__.__.__.__.__.__.__.__.__.__.
 72
   65
 73
    6
 40
22.225
 49
6.35
 74
    0
 49
-3.175
 74
    0
 49
6.35
 74
    0
 49
-3.175
 74
    0
 49
0
 74
    0
 49
-3.175
 74
    0
  0
LTYPE
  5
45
330
5
100
AcDbSymbolTableRecord
100
AcDbLinetypeTableRecord
  2
BORDERX2
 70
    0
  3
Border (2x) ____  ____  .  ____  ____  .  ___
 72
   65
 73
    6
 40
88.89999999999999
 49
25.4
 74
    0
 49
-12.7
 74
    0
 49
25.4
 74
    0
 49
-12.7
 74
    0
 49
0
 74
    0
 49
-12.7
 74
    0
  0
LTYPE
  5
46
330
5
100
AcDbSymbolTableRecord
100
AcDbLinetypeTableRecord
  2
CENTER
 70
    0
  3
Center ____ _ ____ _ ____ _ ____ _ ____ _ ____
 72
   65
 73
    4
 40
50.8
 49
31.75
 74
    0
 49
-6.35
 74
    0
 49
6.35
 74
    0
 49
-6.35
 74
    0
  0
LTYPE
  5
47
330
5
100
AcDbSymbolTableRecord
100
AcDbLinetypeTableRecord
  2
CENTERTINY
 70
    0
  3
Center (.15x) ___ _ ___ _ ___ _ ___ _ ___ _ ___
 72
   65
 73
    4
 40
7.62
 49
4.7625
 74
    0
 49
-0.9525
 74
    0
 49
0.9525
 74
    0
 49
-0.9525
 74
    0
  0
LTYPE
  5
48
330
5
100
AcDbSymbolTableRecord
100
AcDbLinetypeTableRecord
  2
CENTER2
 70
    0
  3
Center (.5x) ___ _ ___ _ ___ _ ___ _ ___ _ ___
 72
   65
 73
    4
 40
28.575
 49
19.05
 74
    0
 49
-3.175
 74
    0
 49
3.175
 74
    0
 49
-3.175
 74
    0
  0
LTYPE
  5
49
330
5
100
AcDbSymbolTableRecord
100
AcDbLinetypeTableRecord
  2
CENTERX2
 70
    0
  3
Center (2x) ________  __  ________  __  _____
 72
   65
 73
    4
 40
101.6
 49
63.5
 74
    0
 49
-12.7
 74
    0
 49
12.7
 74
    0
 49
-12.7
 74
    0
  0
ENDTAB
  0
TABLE
  2
LAYER
  5
2
100
AcDbSymbolTable
 70
    1
  0
LAYER
  5
10
330
2
100
AcDbSymbolTableRecord
100
AcDbLayerTableRecord
  2
0
 70
    0
 62
    7
  6
CONTINUOUS
370
   -3
390
F
  0
ENDTAB
  0
TABLE
  2
STYLE
  5
3
100
AcDbSymbolTable
 70
    3
  0
STYLE
  5
4A
330
2
100
AcDbSymbolTableRecord
100
AcDbTextStyleTableRecord
  2
Standard
 70
    0
 40
0
 41
1
 50
0
 71
    0
 42
1
  3
txt
  4

  0
ENDTAB
  0
TABLE
  2
VIEW
  5
6
100
AcDbSymbolTable
 70
    0
  0
ENDTAB
  0
TABLE
  2
UCS
  5
7
100
AcDbSymbolTable
 70
    0
  0
ENDTAB
  0
TABLE
  2
APPID
  5
9
100
AcDbSymbolTable
 70
    1
  0
APPID
  5
12
100
AcDbSymbolTableRecord
100
AcDbRegAppTableRecord
  2
ACAD
 70
    0
  0
APPID
  5
4B
100
AcDbSymbolTableRecord
100
AcDbRegAppTableRecord
  2
LibreCad
 70
    0
  0
ENDTAB
  0
TABLE
  2
DIMSTYLE
  5
A
100
AcDbSymbolTable
 70
    1
  0
DIMSTYLE
105
4C
330
A
100
AcDbSymbolTableRecord
100
AcDbDimStyleTableRecord
  2
Standard
 70
    0
 40
2.5
 41
2.5
 42
0.625
 43
0.38
 44
1.25
 45
0
 46
0
 47
0
 48
0
 49
1
140
2.5
141
0.09
142
0
143
25.4
144
1
145
0
146
1
147
0.625
 71
    0
 72
    0
 73
    0
 74
    1
 75
    0
 76
    0
 77
    0
 78
    8
170
    0
171
    2
172
    0
173
    0
174
    0
175
    0
176
    0
177
    0
178
    0
270
    2
271
    2
272
    4
273
    2
274
    2
275
    0
280
    0
281
    0
282
    0
283
    1
284
    0
285
    0
286
    0
287
    3
288
    0
340
STANDARD
  0
ENDTAB
  0
TABLE
  2
BLOCK_RECORD
  5
1
100
AcDbSymbolTable
 70
    2
  0
BLOCK_RECORD
  5
1F
100
AcDbSymbolTableRecord
100
AcDbBlockTableRecord
  2
*Model_Space
  0
BLOCK_RECORD
  5
1E
100
AcDbSymbolTableRecord
100
AcDbBlockTableRecord
  2
*Paper_Space
  0
BLOCK_RECORD
  5
4D
100
AcDbSymbolTableRecord
100
AcDbBlockTableRecord
  2
c7c528542e24f07160729ec88e356d852b43cec6_switch
  0
BLOCK_RECORD
  5
50
100
AcDbSymbolTableRecord
100
AcDbBlockTableRecord
  2
c7c528542e24f07160729ec88e356d852b43cec6_open(1)
  0
ENDTAB
  0
ENDSEC
  0
SECTION
  2
BLOCKS
  0
BLOCK
  5
20
100
AcDbEntity
  8
0
100
AcDbBlockBegin
  2
*Model_Space
 70
    0
 10
0
 20
0
 30
0
  3
*Model_Space
  1

  0
ENDBLK
  5
21
100
AcDbEntity
  8
0
100
AcDbBlockEnd
  0
BLOCK
  5
1C
100
AcDbEntity
  8
0
100
AcDbBlockBegin
  2
*Paper_Space
 70
    0
 10
0
 20
0
 30
0
  3
*Paper_Space
  1

  0
ENDBLK
  5
1D
100
AcDbEntity
  8
0
100
AcDbBlockEnd
  0
BLOCK
  5
4E
100
AcDbEntity
  8
0
100
AcDbBlockBegin
  2
c7c528542e24f07160729ec88e356d852b43cec6_switch
 70
    0
 10
0
 20
0
  3
c7c528542e24f07160729ec88e356d852b43cec6_switch
  1

  0
LINE
  5
53
100
AcDbEntity
  8
0
  6
ByLayer
 62
    0
100
AcDbLine
 10
279.797
 20
130.433
 11
280.031
 21
130.423
  0
LINE
  5
54
100
AcDbEntity
  8
0
  6
ByLayer
 62
    0
100
AcDbLine
 10
280.031
 20
130.423
 11
280.265
 21
130.397
  0
LINE
  5
55
100
AcDbEntity
  8
0
  6
ByLayer
 62
    0
100
AcDbLine
 10
280.265
 20
130.397
 11
280.497
 21
130.35
  0
LINE
  5
56
100
AcDbEntity
  8
0
  6
ByLayer
 62
    0
100
AcDbLine
 10
280.497
 20
130.35
 11
280.723
 21
130.286
  0
LINE
  5
57
100
AcDbEntity
  8
0
  6
ByLayer
 62
    0
100
AcDbLine
 10
280.723
 20
130.286
 11
280.945
 21
130.204
  0
LINE
  5
58
100
AcDbEntity
  8
0
  6
ByLayer
 62
    0
100
AcDbLine
 10
280.945
 20
130.204
 11
281.157
 21
130.106
  0
LINE
  5
59
100
AcDbEntity
  8
0
  6
ByLayer
 62
    0
100
AcDbLine
 10
281.157
 20
130.106
 11
281.364
 21
129.99
  0
LINE
  5
5A
100
AcDbEntity
  8
0
  6
ByLayer
 62
    0
100
AcDbLine
 10
281.364
 20
129.99
 11
281.559
 21
129.861
  0
LINE
  5
5B
100
AcDbEntity
  8
0
  6
ByLayer
 62
    0
100
AcDbLine
 10
281.559
 20
129.861
 11
281.744
 21
129.715
  0
LINE
  5
5C
100
AcDbEntity
  8
0
  6
ByLayer
 62
    0
100
AcDbLine
 10
281.744
 20
129.715
 11
281.918
 21
129.555
  0
LINE
  5
5D
100
AcDbEntity
  8
0
  6
ByLayer
 62
    0
100
AcDbLine
 10
281.918
 20
129.555
 11
282.078
 21
129.381
  0
LINE
  5
5E
100
AcDbEntity
  8
0
  6
ByLayer
 62
    0
100
AcDbLine
 10
282.078
 20
129.381
 11
282.224
 21
129.197
  0
LINE
  5
5F
100
AcDbEntity
  8
0
  6
ByLayer
 62
    0
100
AcDbLine
 10
282.224
 20
129.197
 11
282.353
 21
129.001
  0
LINE
  5
60
100
AcDbEntity
  8
0
  6
ByLayer
 62
    0
100
AcDbLine
 10
282.353
 20
129.001
 11
282.469
 21
128.794
  0
LINE
  5
61
100
AcDbEntity
  8
0
  6
ByLayer
 62
    0
100
AcDbLine
 10
282.469
 20
128.794
 11
282.568
 21
128.58
  0
LINE
  5
62
100
AcDbEntity
  8
0
  6
ByLayer
 62
    0
100
AcDbLine
 10
282.568
 20
128.58
 11
282.649
 21
128.36
  0
LINE
  5
63
100
AcDbEntity
  8
0
  6
ByLayer
 62
    0
100
AcDbLine
 10
282.649
 20
128.36
 11
282.713
 21
128.133
  0
LINE
  5
64
100
AcDbEntity
  8
0
  6
ByLayer
 62
    0
100
AcDbLine
 10
282.713
 20
128.133
 11
282.76
 21
127.903
  0
LINE
  5
65
100
AcDbEntity
  8
0
  6
ByLayer
 62
    0
100
AcDbLine
 10
282.76
 20
127.903
 11
282.786
 21
127.669
  0
LINE
  5
66
100
AcDbEntity
  8
0
  6
ByLayer
 62
    0
100
AcDbLine
 10
282.786
 20
127.669
 11
282.797
 21
127.433
  0
LINE
  5
67
100
AcDbEntity
  8
0
  6
ByLayer
 62
    0
100
AcDbLine
 10
282.797
 20
127.433
 11
282.797
 21
3.1309
  0
LINE
  5
68
100
AcDbEntity
  8
0
  6
ByLayer
 62
    0
100
AcDbLine
 10
282.797
 20
3.1309
 11
282.786
 21
2.89664
  0
LINE
  5
69
100
AcDbEntity
  8
0
  6
ByLayer
 62
    0
100
AcDbLine
 10
282.786
 20
2.89664
 11
282.76
 21
2.66237
  0
LINE
  5
6A
100
AcDbEntity
  8
0
  6
ByLayer
 62
    0
100
AcDbLine
 10
282.76
 20
2.66237
 11
282.713
 21
2.43086
  0
LINE
  5
6B
100
AcDbEntity
  8
0
  6
ByLayer
 62
    0
100
AcDbLine
 10
282.713
 20
2.43086
 11
282.649
 21
2.20486
  0
LINE
  5
6C
100
AcDbEntity
  8
0
  6
ByLayer
 62
    0
100
AcDbLine
 10
282.649
 20
2.20486
 11
282.568
 21
1.983
  0
LINE
  5
6D
100
AcDbEntity
  8
0
  6
ByLayer
 62
    0
100
AcDbLine
 10
282.568
 20
1.983
 11
282.469
 21
1.77078
  0
LINE
  5
6E
100
AcDbEntity
  8
0
  6
ByLayer
 62
    0
100
AcDbLine
 10
282.469
 20
1.77078
 11
282.353
 21
1.56407
  0
LINE
  5
6F
100
AcDbEntity
  8
0
  6
ByLayer
 62
    0
100
AcDbLine
 10
282.353
 20
1.56407
 11
282.224
 21
1.36839
  0
LINE
  5
70
100
AcDbEntity
  8
0
  6
ByLayer
 62
    0
100
AcDbLine
 10
282.224
 20
1.36839
 11
282.078
 21
1.18374
  0
LINE
  5
71
100
AcDbEntity
  8
0
  6
ByLayer
 62
    0
100
AcDbLine
 10
282.078
 20
1.18374
 11
281.918
 21
1.0101
  0
LINE
  5
72
100
AcDbEntity
  8
0
  6
ByLayer
 62
    0
100
AcDbLine
 10
281.918
 20
1.0101
 11
281.744
 21
0.850251
  0
LINE
  5
73
100
AcDbEntity
  8
0
  6
ByLayer
 62
    0
100
AcDbLine
 10
281.744
 20
0.850251
 11
281.559
 21
0.704176
  0
LINE
  5
74
100
AcDbEntity
  8
0
  6
ByLayer
 62
    0
100
AcDbLine
 10
281.559
 20
0.704176
 11
281.364
 21
0.574643
  0
LINE
  5
75
100
AcDbEntity
  8
0
  6
ByLayer
 62
    0
100
AcDbLine
 10
281.364
 20
0.574643
 11
281.157
 21
0.458886
  0
LINE
  5
76
100
AcDbEntity
  8
0
  6
ByLayer
 62
    0
100
AcDbLine
 10
281.157
 20
0.458886
 11
280.945
 21
0.359668
  0
LINE
  5
77
100
AcDbEntity
  8
0
  6
ByLayer
 62
    0
100
AcDbLine
 10
280.945
 20
0.359668
 11
280.723
 21
0.278364
  0
LINE
  5
78
100
AcDbEntity
  8
0
  6
ByLayer
 62
    0
100
AcDbLine
 10
280.723
 20
0.278364
 11
280.497
 21
0.214974
  0
LINE
  5
79
100
AcDbEntity
  8
0
  6
ByLayer
 62
    0
100
AcDbLine
 10
280.497
 20
0.214974
 11
280.265
 21
0.168121
  0
LINE
  5
7A
100
AcDbEntity
  8
0
  6
ByLayer
 62
    0
100
AcDbLine
 10
280.265
 20
0.168121
 11
280.031
 21
0.141938
  0
LINE
  5
7B
100
AcDbEntity
  8
0
  6
ByLayer
 62
    0
100
AcDbLine
 10
280.031
 20
0.141938
 11
279.797
 21
0.130914
  0
LINE
  5
7C
100
AcDbEntity
  8
0
  6
ByLayer
 62
    0
100
AcDbLine
 10
279.797
 20
0.130914
 11
3.09507
 21
0.130914
  0
LINE
  5
7D
100
AcDbEntity
  8
0
  6
ByLayer
 62
    0
100
AcDbLine
 10
3.09507
 20
0.130914
 11
2.85943
 21
0.141938
  0
LINE
  5
7E
100
AcDbEntity
  8
0
  6
ByLayer
 62
    0
100
AcDbLine
 10
2.85943
 20
0.141938
 11
2.62516
 21
0.168121
  0
LINE
  5
7F
100
AcDbEntity
  8
0
  6
ByLayer
 62
    0
100
AcDbLine
 10
2.62516
 20
0.168121
 11
2.39503
 21
0.214974
  0
LINE
  5
80
100
AcDbEntity
  8
0
  6
ByLayer
 62
    0
100
AcDbLine
 10
2.39503
 20
0.214974
 11
2.16765
 21
0.278364
  0
LINE
  5
81
100
AcDbEntity
  8
0
  6
ByLayer
 62
    0
100
AcDbLine
 10
2.16765
 20
0.278364
 11
1.94717
 21
0.359668
  0
LINE
  5
82
100
AcDbEntity
  8
0
  6
ByLayer
 62
    0
100
AcDbLine
 10
1.94717
 20
0.359668
 11
1.73357
 21
0.458886
  0
LINE
  5
83
100
AcDbEntity
  8
0
  6
ByLayer
 62
    0
100
AcDbLine
 10
1.73357
 20
0.458886
 11
1.52687
 21
0.574643
  0
LINE
  5
84
100
AcDbEntity
  8
0
  6
ByLayer
 62
    0
100
AcDbLine
 10
1.52687
 20
0.574643
 11
1.33119
 21
0.704176
  0
LINE
  5
85
100
AcDbEntity
  8
0
  6
ByLayer
 62
    0
100
AcDbLine
 10
1.33119
 20
0.704176
 11
1.14653
 21
0.850251
  0
LINE
  5
86
100
AcDbEntity
  8
0
  6
ByLayer
 62
    0
100
AcDbLine
 10
1.14653
 20
0.850251
 11
0.972894
 21
1.0101
  0
LINE
  5
87
100
AcDbEntity
  8
0
  6
ByLayer
 62
    0
100
AcDbLine
 10
0.972894
 20
1.0101
 11
0.813043
 21
1.18374
  0
LINE
  5
88
100
AcDbEntity
  8
0
  6
ByLayer
 62
    0
100
AcDbLine
 10
0.813043
 20
1.18374
 11
0.666972
 21
1.36839
  0
LINE
  5
89
100
AcDbEntity
  8
0
  6
ByLayer
 62
    0
100
AcDbLine
 10
0.666972
 20
1.36839
 11
0.537436
 21
1.56407
  0
LINE
  5
8A
100
AcDbEntity
  8
0
  6
ByLayer
 62
    0
100
AcDbLine
 10
0.537436
 20
1.56407
 11
0.421679
 21
1.77078
  0
LINE
  5
8B
100
AcDbEntity
  8
0
  6
ByLayer
 62
    0
100
AcDbLine
 10
0.421679
 20
1.77078
 11
0.323839
 21
1.983
  0
LINE
  5
8C
100
AcDbEntity
  8
0
  6
ByLayer
 62
    0
100
AcDbLine
 10
0.323839
 20
1.983
 11
0.241157
 21
2.20486
  0
LINE
  5
8D
100
AcDbEntity
  8
0
  6
ByLayer
 62
    0
100
AcDbLine
 10
0.241157
 20
2.20486
 11
0.177767
 21
2.43086
  0
LINE
  5
8E
100
AcDbEntity
  8
0
  6
ByLayer
 62
    0
100
AcDbLine
 10
0.177767
 20
2.43086
 11
0.130914
 21
2.66237
  0
LINE
  5
8F
100
AcDbEntity
  8
0
  6
ByLayer
 62
    0
100
AcDbLine
 10
0.130914
 20
2.66237
 11
0.104731
 21
2.89664
  0
LINE
  5
90
100
AcDbEntity
  8
0
  6
ByLayer
 62
    0
100
AcDbLine
 10
0.104731
 20
2.89664
 11
0.09508460000000001
 21
3.13228
  0
LINE
  5
91
100
AcDbEntity
  8
0
  6
ByLayer
 62
    0
100
AcDbLine
 10
0.09508460000000001
 20
3.13228
 11
0.09508460000000001
 21
127.433
  0
LINE
  5
92
100
AcDbEntity
  8
0
  6
ByLayer
 62
    0
100
AcDbLine
 10
0.09508460000000001
 20
127.433
 11
0.104731
 21
127.669
  0
LINE
  5
93
100
AcDbEntity
  8
0
  6
ByLayer
 62
    0
100
AcDbLine
 10
0.104731
 20
127.669
 11
0.130914
 21
127.903
  0
LINE
  5
94
100
AcDbEntity
  8
0
  6
ByLayer
 62
    0
100
AcDbLine
 10
0.130914
 20
127.903
 11
0.177767
 21
128.133
  0
LINE
  5
95
100
AcDbEntity
  8
0
  6
ByLayer
 62
    0
100
AcDbLine
 10
0.177767
 20
128.133
 11
0.241157
 21
128.36
  0
LINE
  5
96
100
AcDbEntity
  8
0
  6
ByLayer
 62
    0
100
AcDbLine
 10
0.241157
 20
128.36
 11
0.323839
 21
128.58
  0
LINE
  5
97
100
AcDbEntity
  8
0
  6
ByLayer
 62
    0
100
AcDbLine
 10
0.323839
 20
128.58
 11
0.421679
 21
128.794
  0
LINE
  5
98
100
AcDbEntity
  8
0
  6
ByLayer
 62
    0
100
AcDbLine
 10
0.421679
 20
128.794
 11
0.537436
 21
129.001
  0
LINE
  5
99
100
AcDbEntity
  8
0
  6
ByLayer
 62
    0
100
AcDbLine
 10
0.537436
 20
129.001
 11
0.666972
 21
129.197
  0
LINE
  5
9A
100
AcDbEntity
  8
0
  6
ByLayer
 62
    0
100
AcDbLine
 10
0.666972
 20
129.197
 11
0.813043
 21
129.381
  0
LINE
  5
9B
100
AcDbEntity
  8
0
  6
ByLayer
 62
    0
100
AcDbLine
 10
0.813043
 20
129.381
 11
0.972894
 21
129.555
  0
LINE
  5
9C
100
AcDbEntity
  8
0
  6
ByLayer
 62
    0
100
AcDbLine
 10
0.972894
 20
129.555
 11
1.14653
 21
129.715
  0
LINE
  5
9D
100
AcDbEntity
  8
0
  6
ByLayer
 62
    0
100
AcDbLine
 10
1.14653
 20
129.715
 11
1.33119
 21
129.861
  0
LINE
  5
9E
100
AcDbEntity
  8
0
  6
ByLayer
 62
    0
100
AcDbLine
 10
1.33119
 20
129.861
 11
1.52687
 21
129.99
  0
LINE
  5
9F
100
AcDbEntity
  8
0
  6
ByLayer
 62
    0
100
AcDbLine
 10
1.52687
 20
129.99
 11
1.73357
 21
130.106
  0
LINE
  5
A0
100
AcDbEntity
  8
0
  6
ByLayer
 62
    0
100
AcDbLine
 10
1.73357
 20
130.106
 11
1.94717
 21
130.204
  0
LINE
  5
A1
100
AcDbEntity
  8
0
  6
ByLayer
 62
    0
100
AcDbLine
 10
1.94717
 20
130.204
 11
2.16765
 21
130.286
  0
LINE
  5
A2
100
AcDbEntity
  8
0
  6
ByLayer
 62
    0
100
AcDbLine
 10
2.16765
 20
130.286
 11
2.39503
 21
130.35
  0
LINE
  5
A3
100
AcDbEntity
  8
0
  6
ByLayer
 62
    0
100
AcDbLine
 10
2.39503
 20
130.35
 11
2.62516
 21
130.397
  0
LINE
  5
A4
100
AcDbEntity
  8
0
  6
ByLayer
 62
    0
100
AcDbLine
 10
2.62516
 20
130.397
 11
2.85943
 21
130.423
  0
LINE
  5
A5
100
AcDbEntity
  8
0
  6
ByLayer
 62
    0
100
AcDbLine
 10
2.85943
 20
130.423
 11
3.09507
 21
130.433
  0
LINE
  5
A6
100
AcDbEntity
  8
0
  6
ByLayer
 62
    0
100
AcDbLine
 10
3.09507
 20
130.433
 11
279.797
 21
130.433
  0
LINE
  5
A7
100
AcDbEntity
  8
0
  6
ByLayer
 62
    0
100
AcDbLine
 10
3.1309
 20
5.05876
 11
2.71336
 21
4.84657
  0
LINE
  5
A8
100
AcDbEntity
  8
0
  6
ByLayer
 62
    0
100
AcDbLine
 10
2.71336
 20
4.84657
 11
2.38125
 21
4.51309
  0
LINE
  5
A9
100
AcDbEntity
  8
0
  6
ByLayer
 62
    0
100
AcDbLine
 10
2.38125
 20
4.51309
 11
2.16903
 21
4.09554
  0
LINE
  5
AA
100
AcDbEntity
  8
0
  6
ByLayer
 62
    0
100
AcDbLine
 10
2.16903
 20
4.09554
 11
2.09462
 21
3.63114
  0
LINE
  5
AB
100
AcDbEntity
  8
0
  6
ByLayer
 62
    0
100
AcDbLine
 10
2.09462
 20
3.63114
 11
2.16903
 21
3.16811
  0
LINE
  5
AC
100
AcDbEntity
  8
0
  6
ByLayer
 62
    0
100
AcDbLine
 10
2.16903
 20
3.16811
 11
2.38125
 21
2.75057
  0
LINE
  5
AD
100
AcDbEntity
  8
0
  6
ByLayer
 62
    0
100
AcDbLine
 10
2.38125
 20
2.75057
 11
2.71336
 21
2.41846
  0
LINE
  5
AE
100
AcDbEntity
  8
0
  6
ByLayer
 62
    0
100
AcDbLine
 10
2.71336
 20
2.41846
 11
3.1309
 21
2.20486
  0
LINE
  5
AF
100
AcDbEntity
  8
0
  6
ByLayer
 62
    0
100
AcDbLine
 10
3.1309
 20
2.20486
 11
3.59392
 21
2.13183
  0
LINE
  5
B0
100
AcDbEntity
  8
0
  6
ByLayer
 62
    0
100
AcDbLine
 10
3.59392
 20
2.13183
 11
4.05832
 21
2.20486
  0
LINE
  5
B1
100
AcDbEntity
  8
0
  6
ByLayer
 62
    0
100
AcDbLine
 10
4.05832
 20
2.20486
 11
4.47587
 21
2.41846
  0
LINE
  5
B2
100
AcDbEntity
  8
0
  6
ByLayer
 62
    0
100
AcDbLine
 10
4.47587
 20
2.41846
 11
4.80797
 21
2.75057
  0
LINE
  5
B3
100
AcDbEntity
  8
0
  6
ByLayer
 62
    0
100
AcDbLine
 10
4.80797
 20
2.75057
 11
5.02158
 21
3.16811
  0
LINE
  5
B4
100
AcDbEntity
  8
0
  6
ByLayer
 62
    0
100
AcDbLine
 10
5.02158
 20
3.16811
 11
5.0946
 21
3.63114
  0
LINE
  5
B5
100
AcDbEntity
  8
0
  6
ByLayer
 62
    0
100
AcDbLine
 10
5.0946
 20
3.63114
 11
5.02158
 21
4.09554
  0
LINE
  5
B6
100
AcDbEntity
  8
0
  6
ByLayer
 62
    0
100
AcDbLine
 10
5.02158
 20
4.09554
 11
4.80797
 21
4.51309
  0
LINE
  5
B7
100
AcDbEntity
  8
0
  6
ByLayer
 62
    0
100
AcDbLine
 10
4.80797
 20
4.51309
 11
4.47587
 21
4.84657
  0
LINE
  5
B8
100
AcDbEntity
  8
0
  6
ByLayer
 62
    0
100
AcDbLine
 10
4.47587
 20
4.84657
 11
4.05832
 21
5.05876
  0
LINE
  5
B9
100
AcDbEntity
  8
0
  6
ByLayer
 62
    0
100
AcDbLine
 10
4.05832
 20
5.05876
 11
3.59392
 21
5.13182
  0
LINE
  5
BA
100
AcDbEntity
  8
0
  6
ByLayer
 62
    0
100
AcDbLine
 10
3.59392
 20
5.13182
 11
3.1309
 21
5.05876
  0
LINE
  5
BB
100
AcDbEntity
  8
0
  6
ByLayer
 62
    0
100
AcDbLine
 10
95.0309
 20
5.05876
 11
94.61320000000001
 21
4.84657
  0
LINE
  5
BC
100
AcDbEntity
  8
0
  6
ByLayer
 62
    0
100
AcDbLine
 10
94.61320000000001
 20
4.84657
 11
94.2813
 21
4.51309
  0
LINE
  5
BD
100
AcDbEntity
  8
0
  6
ByLayer
 62
    0
100
AcDbLine
 10
94.2813
 20
4.51309
 11
94.0689
 21
4.09554
  0
LINE
  5
BE
100
AcDbEntity
  8
0
  6
ByLayer
 62
    0
100
AcDbLine
 10
94.0689
 20
4.09554
 11
93.99590000000001
 21
3.63114
  0
LINE
  5
BF
100
AcDbEntity
  8
0
  6
ByLayer
 62
    0
100
AcDbLine
 10
93.99590000000001
 20
3.63114
 11
94.0689
 21
3.16811
  0
LINE
  5
C0
100
AcDbEntity
  8
0
  6
ByLayer
 62
    0
100
AcDbLine
 10
94.0689
 20
3.16811
 11
94.2813
 21
2.75057
  0
LINE
  5
C1
100
AcDbEntity
  8
0
  6
ByLayer
 62
    0
100
AcDbLine
 10
94.2813
 20
2.75057
 11
94.61320000000001
 21
2.41846
  0
LINE
  5
C2
100
AcDbEntity
  8
0
  6
ByLayer
 62
    0
100
AcDbLine
 10
94.61320000000001
 20
2.41846
 11
95.0309
 21
2.20486
  0
LINE
  5
C3
100
AcDbEntity
  8
0
  6
ByLayer
 62
    0
100
AcDbLine
 10
95.0309
 20
2.20486
 11
95.4952
 21
2.13183
  0
LINE
  5
C4
100
AcDbEntity
  8
0
  6
ByLayer
 62
    0
100
AcDbLine
 10
95.4952
 20
2.13183
 11
95.9584
 21
2.20486
  0
LINE
  5
C5
100
AcDbEntity
  8
0
  6
ByLayer
 62
    0
100
AcDbLine
 10
95.9584
 20
2.20486
 11
96.3771
 21
2.41846
  0
LINE
  5
C6
100
AcDbEntity
  8
0
  6
ByLayer
 62
    0
100
AcDbLine
 10
96.3771
 20
2.41846
 11
96.708
 21
2.75057
  0
LINE
  5
C7
100
AcDbEntity
  8
0
  6
ByLayer
 62
    0
100
AcDbLine
 10
96.708
 20
2.75057
 11
96.92149999999999
 21
3.16811
  0
LINE
  5
C8
100
AcDbEntity
  8
0
  6
ByLayer
 62
    0
100
AcDbLine
 10
96.92149999999999
 20
3.16811
 11
96.99590000000001
 21
3.63114
  0
LINE
  5
C9
100
AcDbEntity
  8
0
  6
ByLayer
 62
    0
100
AcDbLine
 10
96.99590000000001
 20
3.63114
 11
96.92149999999999
 21
4.09554
  0
LINE
  5
CA
100
AcDbEntity
  8
0
  6
ByLayer
 62
    0
100
AcDbLine
 10
96.92149999999999
 20
4.09554
 11
96.708
 21
4.51309
  0
LINE
  5
CB
100
AcDbEntity
  8
0
  6
ByLayer
 62
    0
100
AcDbLine
 10
96.708
 20
4.51309
 11
96.3771
 21
4.84657
  0
LINE
  5
CC
100
AcDbEntity
  8
0
  6
ByLayer
 62
    0
100
AcDbLine
 10
96.3771
 20
4.84657
 11
95.9584
 21
5.05876
  0
LINE
  5
CD
100
AcDbEntity
  8
0
  6
ByLayer
 62
    0
100
AcDbLine
 10
95.9584
 20
5.05876
 11
95.4952
 21
5.13182
  0
LINE
  5
CE
100
AcDbEntity
  8
0
  6
ByLayer
 62
    0
100
AcDbLine
 10
95.4952
 20
5.13182
 11
95.0309
 21
5.05876
  0
LINE
  5
CF
100
AcDbEntity
  8
0
  6
ByLayer
 62
    0
100
AcDbLine
 10
186.932
 20
5.05876
 11
186.513
 21
4.84657
  0
LINE
  5
D0
100
AcDbEntity
  8
0
  6
ByLayer
 62
    0
100
AcDbLine
 10
186.513
 20
4.84657
 11
186.183
 21
4.51309
  0
LINE
  5
D1
100
AcDbEntity
  8
0
  6
ByLayer
 62
    0
100
AcDbLine
 10
186.183
 20
4.51309
 11
185.969
 21
4.09554
  0
LINE
  5
D2
100
AcDbEntity
  8
0
  6
ByLayer
 62
    0
100
AcDbLine
 10
185.969
 20
4.09554
 11
185.896
 21
3.63114
  0
LINE
  5
D3
100
AcDbEntity
  8
0
  6
ByLayer
 62
    0
100
AcDbLine
 10
185.896
 20
3.63114
 11
185.969
 21
3.16811
  0
LINE
  5
D4
100
AcDbEntity
  8
0
  6
ByLayer
 62
    0
100
AcDbLine
 10
185.969
 20
3.16811
 11
186.183
 21
2.75057
  0
LINE
  5
D5
100
AcDbEntity
  8
0
  6
ByLayer
 62
    0
100
AcDbLine
 10
186.183
 20
2.75057
 11
186.513
 21
2.41846
  0
LINE
  5
D6
100
AcDbEntity
  8
0
  6
ByLayer
 62
    0
100
AcDbLine
 10
186.513
 20
2.41846
 11
186.932
 21
2.20486
  0
LINE
  5
D7
100
AcDbEntity
  8
0
  6
ByLayer
 62
    0
100
AcDbLine
 10
186.932
 20
2.20486
 11
187.395
 21
2.13183
  0
LINE
  5
D8
100
AcDbEntity
  8
0
  6
ByLayer
 62
    0
100
AcDbLine
 10
187.395
 20
2.13183
 11
187.86
 21
2.20486
  0
LINE
  5
D9
100
AcDbEntity
  8
0
  6
ByLayer
 62
    0
100
AcDbLine
 10
187.86
 20
2.20486
 11
188.277
 21
2.41846
  0
LINE
  5
DA
100
AcDbEntity
  8
0
  6
ByLayer
 62
    0
100
AcDbLine
 10
188.277
 20
2.41846
 11
188.609
 21
2.75057
  0
LINE
  5
DB
100
AcDbEntity
  8
0
  6
ByLayer
 62
    0
100
AcDbLine
 10
188.609
 20
2.75057
 11
188.823
 21
3.16811
  0
LINE
  5
DC
100
AcDbEntity
  8
0
  6
ByLayer
 62
    0
100
AcDbLine
 10
188.823
 20
3.16811
 11
188.896
 21
3.63114
  0
LINE
  5
DD
100
AcDbEntity
  8
0
  6
ByLayer
 62
    0
100
AcDbLine
 10
188.896
 20
3.63114
 11
188.823
 21
4.09554
  0
LINE
  5
DE
100
AcDbEntity
  8
0
  6
ByLayer
 62
    0
100
AcDbLine
 10
188.823
 20
4.09554
 11
188.609
 21
4.51309
  0
LINE
  5
DF
100
AcDbEntity
  8
0
  6
ByLayer
 62
    0
100
AcDbLine
 10
188.609
 20
4.51309
 11
188.277
 21
4.84657
  0
LINE
  5
E0
100
AcDbEntity
  8
0
  6
ByLayer
 62
    0
100
AcDbLine
 10
188.277
 20
4.84657
 11
187.86
 21
5.05876
  0
LINE
  5
E1
100
AcDbEntity
  8
0
  6
ByLayer
 62
    0
100
AcDbLine
 10
187.86
 20
5.05876
 11
187.395
 21
5.13182
  0
LINE
  5
E2
100
AcDbEntity
  8
0
  6
ByLayer
 62
    0
100
AcDbLine
 10
187.395
 20
5.13182
 11
186.932
 21
5.05876
  0
LINE
  5
E3
100
AcDbEntity
  8
0
  6
ByLayer
 62
    0
100
AcDbLine
 10
278.832
 20
5.05876
 11
278.415
 21
4.84657
  0
LINE
  5
E4
100
AcDbEntity
  8
0
  6
ByLayer
 62
    0
100
AcDbLine
 10
278.415
 20
4.84657
 11
278.083
 21
4.51309
  0
LINE
  5
E5
100
AcDbEntity
  8
0
  6
ByLayer
 62
    0
100
AcDbLine
 10
278.083
 20
4.51309
 11
277.869
 21
4.09554
  0
LINE
  5
E6
100
AcDbEntity
  8
0
  6
ByLayer
 62
    0
100
AcDbLine
 10
277.869
 20
4.09554
 11
277.796
 21
3.63114
  0
LINE
  5
E7
100
AcDbEntity
  8
0
  6
ByLayer
 62
    0
100
AcDbLine
 10
277.796
 20
3.63114
 11
277.869
 21
3.16811
  0
LINE
  5
E8
100
AcDbEntity
  8
0
  6
ByLayer
 62
    0
100
AcDbLine
 10
277.869
 20
3.16811
 11
278.083
 21
2.75057
  0
LINE
  5
E9
100
AcDbEntity
  8
0
  6
ByLayer
 62
    0
100
AcDbLine
 10
278.083
 20
2.75057
 11
278.415
 21
2.41846
  0
LINE
  5
EA
100
AcDbEntity
  8
0
  6
ByLayer
 62
    0
100
AcDbLine
 10
278.415
 20
2.41846
 11
278.832
 21
2.20486
  0
LINE
  5
EB
100
AcDbEntity
  8
0
  6
ByLayer
 62
    0
100
AcDbLine
 10
278.832
 20
2.20486
 11
279.297
 21
2.13183
  0
LINE
  5
EC
100
AcDbEntity
  8
0
  6
ByLayer
 62
    0
100
AcDbLine
 10
279.297
 20
2.13183
 11
279.76
 21
2.20486
  0
LINE
  5
ED
100
AcDbEntity
  8
0
  6
ByLayer
 62
    0
100
AcDbLine
 10
279.76
 20
2.20486
 11
280.177
 21
2.41846
  0
LINE
  5
EE
100
AcDbEntity
  8
0
  6
ByLayer
 62
    0
100
AcDbLine
 10
280.177
 20
2.41846
 11
280.509
 21
2.75057
  0
LINE
  5
EF
100
AcDbEntity
  8
0
  6
ByLayer
 62
    0
100
AcDbLine
 10
280.509
 20
2.75057
 11
280.723
 21
3.16811
  0
LINE
  5
F0
100
AcDbEntity
  8
0
  6
ByLayer
 62
    0
100
AcDbLine
 10
280.723
 20
3.16811
 11
280.796
 21
3.63114
  0
LINE
  5
F1
100
AcDbEntity
  8
0
  6
ByLayer
 62
    0
100
AcDbLine
 10
280.796
 20
3.63114
 11
280.723
 21
4.09554
  0
LINE
  5
F2
100
AcDbEntity
  8
0
  6
ByLayer
 62
    0
100
AcDbLine
 10
280.723
 20
4.09554
 11
280.509
 21
4.51309
  0
LINE
  5
F3
100
AcDbEntity
  8
0
  6
ByLayer
 62
    0
100
AcDbLine
 10
280.509
 20
4.51309
 11
280.177
 21
4.84657
  0
LINE
  5
F4
100
AcDbEntity
  8
0
  6
ByLayer
 62
    0
100
AcDbLine
 10
280.177
 20
4.84657
 11
279.76
 21
5.05876
  0
LINE
  5
F5
100
AcDbEntity
  8
0
  6
ByLayer
 62
    0
100
AcDbLine
 10
279.76
 20
5.05876
 11
279.297
 21
5.13182
  0
LINE
  5
F6
100
AcDbEntity
  8
0
  6
ByLayer
 62
    0
100
AcDbLine
 10
279.297
 20
5.13182
 11
278.832
 21
5.05876
  0
LINE
  5
F7
100
AcDbEntity
  8
0
  6
ByLayer
 62
    0
100
AcDbLine
 10
124.919
 20
24.6586
 11
124.919
 21
19.9567
  0
LINE
  5
F8
100
AcDbEntity
  8
0
  6
ByLayer
 62
    0
100
AcDbLine
 10
124.919
 20
19.9567
 11
78.2697
 21
19.9567
  0
LINE
  5
F9
100
AcDbEntity
  8
0
  6
ByLayer
 62
    0
100
AcDbLine
 10
78.2697
 20
19.9567
 11
78.2697
 21
23.1883
  0
LINE
  5
FA
100
AcDbEntity
  8
0
  6
ByLayer
 62
    0
100
AcDbLine
 10
78.2697
 20
23.1883
 11
71.52
 21
23.1883
  0
LINE
  5
FB
100
AcDbEntity
  8
0
  6
ByLayer
 62
    0
100
AcDbLine
 10
71.52
 20
23.1883
 11
71.52
 21
19.9567
  0
LINE
  5
FC
100
AcDbEntity
  8
0
  6
ByLayer
 62
    0
100
AcDbLine
 10
71.52
 20
19.9567
 11
70.696
 21
19.9567
  0
LINE
  5
FD
100
AcDbEntity
  8
0
  6
ByLayer
 62
    0
100
AcDbLine
 10
70.696
 20
19.9567
 11
70.696
 21
17.1579
  0
LINE
  5
FE
100
AcDbEntity
  8
0
  6
ByLayer
 62
    0
100
AcDbLine
 10
70.696
 20
17.1579
 11
71.52
 21
17.1579
  0
LINE
  5
FF
100
AcDbEntity
  8
0
  6
ByLayer
 62
    0
100
AcDbLine
 10
71.52
 20
17.1579
 11
71.52
 21
10.8879
  0
LINE
  5
100
100
AcDbEntity
  8
0
  6
ByLayer
 62
    0
100
AcDbLine
 10
71.52
 20
10.8879
 11
73.24550000000001
 21
10.8879
  0
LINE
  5
101
100
AcDbEntity
  8
0
  6
ByLayer
 62
    0
100
AcDbLine
 10
73.24550000000001
 20
10.8879
 11
73.24550000000001
 21
9.6876
  0
LINE
  5
102
100
AcDbEntity
  8
0
  6
ByLayer
 62
    0
100
AcDbLine
 10
73.24550000000001
 20
9.6876
 11
76.5457
 21
9.6876
  0
LINE
  5
103
100
AcDbEntity
  8
0
  6
ByLayer
 62
    0
100
AcDbLine
 10
76.5457
 20
9.6876
 11
76.5457
 21
10.8879
  0
LINE
  5
104
100
AcDbEntity
  8
0
  6
ByLayer
 62
    0
100
AcDbLine
 10
76.5457
 20
10.8879
 11
78.2697
 21
10.8879
  0
LINE
  5
105
100
AcDbEntity
  8
0
  6
ByLayer
 62
    0
100
AcDbLine
 10
78.2697
 20
10.8879
 11
78.2697
 21
15.3583
  0
LINE
  5
106
100
AcDbEntity
  8
0
  6
ByLayer
 62
    0
100
AcDbLine
 10
78.2697
 20
15.3583
 11
124.919
 21
15.3583
  0
LINE
  5
107
100
AcDbEntity
  8
0
  6
ByLayer
 62
    0
100
AcDbLine
 10
124.919
 20
15.3583
 11
124.919
 21
10.6577
  0
LINE
  5
108
100
AcDbEntity
  8
0
  6
ByLayer
 62
    0
100
AcDbLine
 10
124.919
 20
10.6577
 11
138.92
 21
10.6577
  0
LINE
  5
109
100
AcDbEntity
  8
0
  6
ByLayer
 62
    0
100
AcDbLine
 10
138.92
 20
10.6577
 11
138.92
 21
15.3583
  0
LINE
  5
10A
100
AcDbEntity
  8
0
  6
ByLayer
 62
    0
100
AcDbLine
 10
138.92
 20
15.3583
 11
166.521
 21
15.3583
  0
LINE
  5
10B
100
AcDbEntity
  8
0
  6
ByLayer
 62
    0
100
AcDbLine
 10
166.521
 20
15.3583
 11
166.521
 21
10.8879
  0
LINE
  5
10C
100
AcDbEntity
  8
0
  6
ByLayer
 62
    0
100
AcDbLine
 10
166.521
 20
10.8879
 11
168.246
 21
10.8879
  0
LINE
  5
10D
100
AcDbEntity
  8
0
  6
ByLayer
 62
    0
100
AcDbLine
 10
168.246
 20
10.8879
 11
168.246
 21
9.6876
  0
LINE
  5
10E
100
AcDbEntity
  8
0
  6
ByLayer
 62
    0
100
AcDbLine
 10
168.246
 20
9.6876
 11
171.545
 21
9.6876
  0
LINE
  5
10F
100
AcDbEntity
  8
0
  6
ByLayer
 62
    0
100
AcDbLine
 10
171.545
 20
9.6876
 11
171.545
 21
10.8879
  0
LINE
  5
110
100
AcDbEntity
  8
0
  6
ByLayer
 62
    0
100
AcDbLine
 10
171.545
 20
10.8879
 11
173.27
 21
10.8879
  0
LINE
  5
111
100
AcDbEntity
  8
0
  6
ByLayer
 62
    0
100
AcDbLine
 10
173.27
 20
10.8879
 11
173.27
 21
17.1579
  0
LINE
  5
112
100
AcDbEntity
  8
0
  6
ByLayer
 62
    0
100
AcDbLine
 10
173.27
 20
17.1579
 11
174.096
 21
17.1579
  0
LINE
  5
113
100
AcDbEntity
  8
0
  6
ByLayer
 62
    0
100
AcDbLine
 10
174.096
 20
17.1579
 11
174.096
 21
19.9567
  0
LINE
  5
114
100
AcDbEntity
  8
0
  6
ByLayer
 62
    0
100
AcDbLine
 10
174.096
 20
19.9567
 11
173.27
 21
19.9567
  0
LINE
  5
115
100
AcDbEntity
  8
0
  6
ByLayer
 62
    0
100
AcDbLine
 10
173.27
 20
19.9567
 11
173.27
 21
23.1883
  0
LINE
  5
116
100
AcDbEntity
  8
0
  6
ByLayer
 62
    0
100
AcDbLine
 10
173.27
 20
23.1883
 11
166.521
 21
23.1883
  0
LINE
  5
117
100
AcDbEntity
  8
0
  6
ByLayer
 62
    0
100
AcDbLine
 10
166.521
 20
23.1883
 11
166.521
 21
19.9567
  0
LINE
  5
118
100
AcDbEntity
  8
0
  6
ByLayer
 62
    0
100
AcDbLine
 10
166.521
 20
19.9567
 11
138.92
 21
19.9567
  0
LINE
  5
119
100
AcDbEntity
  8
0
  6
ByLayer
 62
    0
100
AcDbLine
 10
138.92
 20
19.9567
 11
138.92
 21
24.6586
  0
LINE
  5
11A
100
AcDbEntity
  8
0
  6
ByLayer
 62
    0
100
AcDbLine
 10
138.92
 20
24.6586
 11
124.919
 21
24.6586
  0
LINE
  5
11B
100
AcDbEntity
  8
0
  6
ByLayer
 62
    0
100
AcDbLine
 10
258.27
 20
24.6586
 11
272.27
 21
24.6586
  0
LINE
  5
11C
100
AcDbEntity
  8
0
  6
ByLayer
 62
    0
100
AcDbLine
 10
272.27
 20
24.6586
 11
272.27
 21
10.6577
  0
LINE
  5
11D
100
AcDbEntity
  8
0
  6
ByLayer
 62
    0
100
AcDbLine
 10
272.27
 20
10.6577
 11
258.27
 21
10.6577
  0
LINE
  5
11E
100
AcDbEntity
  8
0
  6
ByLayer
 62
    0
100
AcDbLine
 10
258.27
 20
10.6577
 11
258.27
 21
24.6586
  0
LINE
  5
11F
100
AcDbEntity
  8
0
  6
ByLayer
 62
    0
100
AcDbLine
 10
239.22
 20
24.6586
 11
253.22
 21
24.6586
  0
LINE
  5
120
100
AcDbEntity
  8
0
  6
ByLayer
 62
    0
100
AcDbLine
 10
253.22
 20
24.6586
 11
253.22
 21
10.6577
  0
LINE
  5
121
100
AcDbEntity
  8
0
  6
ByLayer
 62
    0
100
AcDbLine
 10
253.22
 20
10.6577
 11
239.22
 21
10.6577
  0
LINE
  5
122
100
AcDbEntity
  8
0
  6
ByLayer
 62
    0
100
AcDbLine
 10
239.22
 20
10.6577
 11
239.22
 21
24.6586
  0
LINE
  5
123
100
AcDbEntity
  8
0
  6
ByLayer
 62
    0
100
AcDbLine
 10
220.17
 20
24.6586
 11
234.17
 21
24.6586
  0
LINE
  5
124
100
AcDbEntity
  8
0
  6
ByLayer
 62
    0
100
AcDbLine
 10
234.17
 20
24.6586
 11
234.17
 21
10.6577
  0
LINE
  5
125
100
AcDbEntity
  8
0
  6
ByLayer
 62
    0
100
AcDbLine
 10
234.17
 20
10.6577
 11
220.17
 21
10.6577
  0
LINE
  5
126
100
AcDbEntity
  8
0
  6
ByLayer
 62
    0
100
AcDbLine
 10
220.17
 20
10.6577
 11
220.17
 21
24.6586
  0
LINE
  5
127
100
AcDbEntity
  8
0
  6
ByLayer
 62
    0
100
AcDbLine
 10
201.12
 20
24.6586
 11
215.12
 21
24.6586
  0
LINE
  5
128
100
AcDbEntity
  8
0
  6
ByLayer
 62
    0
100
AcDbLine
 10
215.12
 20
24.6586
 11
215.12
 21
10.6577
  0
LINE
  5
129
100
AcDbEntity
  8
0
  6
ByLayer
 62
    0
100
AcDbLine
 10
215.12
 20
10.6577
 11
201.12
 21
10.6577
  0
LINE
  5
12A
100
AcDbEntity
  8
0
  6
ByLayer
 62
    0
100
AcDbLine
 10
201.12
 20
10.6577
 11
201.12
 21
24.6586
  0
LINE
  5
12B
100
AcDbEntity
  8
0
  6
ByLayer
 62
    0
100
AcDbLine
 10
182.07
 20
24.6586
 11
196.07
 21
24.6586
  0
LINE
  5
12C
100
AcDbEntity
  8
0
  6
ByLayer
 62
    0
100
AcDbLine
 10
196.07
 20
24.6586
 11
196.07
 21
10.6577
  0
LINE
  5
12D
100
AcDbEntity
  8
0
  6
ByLayer
 62
    0
100
AcDbLine
 10
196.07
 20
10.6577
 11
182.07
 21
10.6577
  0
LINE
  5
12E
100
AcDbEntity
  8
0
  6
ByLayer
 62
    0
100
AcDbLine
 10
182.07
 20
10.6577
 11
182.07
 21
24.6586
  0
LINE
  5
12F
100
AcDbEntity
  8
0
  6
ByLayer
 62
    0
100
AcDbLine
 10
48.7204
 20
24.6586
 11
62.72
 21
24.6586
  0
LINE
  5
130
100
AcDbEntity
  8
0
  6
ByLayer
 62
    0
100
AcDbLine
 10
62.72
 20
24.6586
 11
62.72
 21
10.6577
  0
LINE
  5
131
100
AcDbEntity
  8
0
  6
ByLayer
 62
    0
100
AcDbLine
 10
62.72
 20
10.6577
 11
48.7204
 21
10.6577
  0
LINE
  5
132
100
AcDbEntity
  8
0
  6
ByLayer
 62
    0
100
AcDbLine
 10
48.7204
 20
10.6577
 11
48.7204
 21
24.6586
  0
LINE
  5
133
100
AcDbEntity
  8
0
  6
ByLayer
 62
    0
100
AcDbLine
 10
29.6706
 20
24.6586
 11
43.67
 21
24.6586
  0
LINE
  5
134
100
AcDbEntity
  8
0
  6
ByLayer
 62
    0
100
AcDbLine
 10
43.67
 20
24.6586
 11
43.67
 21
10.6577
  0
LINE
  5
135
100
AcDbEntity
  8
0
  6
ByLayer
 62
    0
100
AcDbLine
 10
43.67
 20
10.6577
 11
29.6706
 21
10.6577
  0
LINE
  5
136
100
AcDbEntity
  8
0
  6
ByLayer
 62
    0
100
AcDbLine
 10
29.6706
 20
10.6577
 11
29.6706
 21
24.6586
  0
LINE
  5
137
100
AcDbEntity
  8
0
  6
ByLayer
 62
    0
100
AcDbLine
 10
10.6192
 20
24.6586
 11
24.62
 21
24.6586
  0
LINE
  5
138
100
AcDbEntity
  8
0
  6
ByLayer
 62
    0
100
AcDbLine
 10
24.62
 20
24.6586
 11
24.62
 21
10.6577
  0
LINE
  5
139
100
AcDbEntity
  8
0
  6
ByLayer
 62
    0
100
AcDbLine
 10
24.62
 20
10.6577
 11
10.6192
 21
10.6577
  0
LINE
  5
13A
100
AcDbEntity
  8
0
  6
ByLayer
 62
    0
100
AcDbLine
 10
10.6192
 20
10.6577
 11
10.6192
 21
24.6586
  0
LINE
  5
13B
100
AcDbEntity
  8
0
  6
ByLayer
 62
    0
100
AcDbLine
 10
258.27
 20
43.7074
 11
272.27
 21
43.7074
  0
LINE
  5
13C
100
AcDbEntity
  8
0
  6
ByLayer
 62
    0
100
AcDbLine
 10
272.27
 20
43.7074
 11
272.27
 21
29.7077
  0
LINE
  5
13D
100
AcDbEntity
  8
0
  6
ByLayer
 62
    0
100
AcDbLine
 10
272.27
 20
29.7077
 11
258.27
 21
29.7077
  0
LINE
  5
13E
100
AcDbEntity
  8
0
  6
ByLayer
 62
    0
100
AcDbLine
 10
258.27
 20
29.7077
 11
258.27
 21
43.7074
  0
LINE
  5
13F
100
AcDbEntity
  8
0
  6
ByLayer
 62
    0
100
AcDbLine
 10
239.22
 20
43.7074
 11
253.22
 21
43.7074
  0
LINE
  5
140
100
AcDbEntity
  8
0
  6
ByLayer
 62
    0
100
AcDbLine
 10
253.22
 20
43.7074
 11
253.22
 21
29.7077
  0
LINE
  5
141
100
AcDbEntity
  8
0
  6
ByLayer
 62
    0
100
AcDbLine
 10
253.22
 20
29.7077
 11
239.22
 21
29.7077
  0
LINE
  5
142
100
AcDbEntity
  8
0
  6
ByLayer
 62
    0
100
AcDbLine
 10
239.22
 20
29.7077
 11
239.22
 21
43.7074
  0
LINE
  5
143
100
AcDbEntity
  8
0
  6
ByLayer
 62
    0
100
AcDbLine
 10
220.17
 20
43.7074
 11
234.17
 21
43.7074
  0
LINE
  5
144
100
AcDbEntity
  8
0
  6
ByLayer
 62
    0
100
AcDbLine
 10
234.17
 20
43.7074
 11
234.17
 21
29.7077
  0
LINE
  5
145
100
AcDbEntity
  8
0
  6
ByLayer
 62
    0
100
AcDbLine
 10
234.17
 20
29.7077
 11
220.17
 21
29.7077
  0
LINE
  5
146
100
AcDbEntity
  8
0
  6
ByLayer
 62
    0
100
AcDbLine
 10
220.17
 20
29.7077
 11
220.17
 21
43.7074
  0
LINE
  5
147
100
AcDbEntity
  8
0
  6
ByLayer
 62
    0
100
AcDbLine
 10
201.12
 20
43.7074
 11
215.12
 21
43.7074
  0
LINE
  5
148
100
AcDbEntity
  8
0
  6
ByLayer
 62
    0
100
AcDbLine
 10
215.12
 20
43.7074
 11
215.12
 21
29.7077
  0
LINE
  5
149
100
AcDbEntity
  8
0
  6
ByLayer
 62
    0
100
AcDbLine
 10
215.12
 20
29.7077
 11
201.12
 21
29.7077
  0
LINE
  5
14A
100
AcDbEntity
  8
0
  6
ByLayer
 62
    0
100
AcDbLine
 10
201.12
 20
29.7077
 11
201.12
 21
43.7074
  0
LINE
  5
14B
100
AcDbEntity
  8
0
  6
ByLayer
 62
    0
100
AcDbLine
 10
182.07
 20
43.7074
 11
196.07
 21
43.7074
  0
LINE
  5
14C
100
AcDbEntity
  8
0
  6
ByLayer
 62
    0
100
AcDbLine
 10
196.07
 20
43.7074
 11
196.07
 21
29.7077
  0
LINE
  5
14D
100
AcDbEntity
  8
0
  6
ByLayer
 62
    0
100
AcDbLine
 10
196.07
 20
29.7077
 11
182.07
 21
29.7077
  0
LINE
  5
14E
100
AcDbEntity
  8
0
  6
ByLayer
 62
    0
100
AcDbLine
 10
182.07
 20
29.7077
 11
182.07
 21
43.7074
  0
LINE
  5
14F
100
AcDbEntity
  8
0
  6
ByLayer
 62
    0
100
AcDbLine
 10
163.02
 20
43.7074
 11
177.02
 21
43.7074
  0
LINE
  5
150
100
AcDbEntity
  8
0
  6
ByLayer
 62
    0
100
AcDbLine
 10
177.02
 20
43.7074
 11
177.02
 21
29.7077
  0
LINE
  5
151
100
AcDbEntity
  8
0
  6
ByLayer
 62
    0
100
AcDbLine
 10
177.02
 20
29.7077
 11
163.02
 21
29.7077
  0
LINE
  5
152
100
AcDbEntity
  8
0
  6
ByLayer
 62
    0
100
AcDbLine
 10
163.02
 20
29.7077
 11
163.02
 21
43.7074
  0
LINE
  5
153
100
AcDbEntity
  8
0
  6
ByLayer
 62
    0
100
AcDbLine
 10
143.97
 20
43.7074
 11
157.97
 21
43.7074
  0
LINE
  5
154
100
AcDbEntity
  8
0
  6
ByLayer
 62
    0
100
AcDbLine
 10
157.97
 20
43.7074
 11
157.97
 21
29.7077
  0
LINE
  5
155
100
AcDbEntity
  8
0
  6
ByLayer
 62
    0
100
AcDbLine
 10
157.97
 20
29.7077
 11
143.97
 21
29.7077
  0
LINE
  5
156
100
AcDbEntity
  8
0
  6
ByLayer
 62
    0
100
AcDbLine
 10
143.97
 20
29.7077
 11
143.97
 21
43.7074
  0
LINE
  5
157
100
AcDbEntity
  8
0
  6
ByLayer
 62
    0
100
AcDbLine
 10
124.919
 20
43.7074
 11
138.92
 21
43.7074
  0
LINE
  5
158
100
AcDbEntity
  8
0
  6
ByLayer
 62
    0
100
AcDbLine
 10
138.92
 20
43.7074
 11
138.92
 21
29.7077
  0
LINE
  5
159
100
AcDbEntity
  8
0
  6
ByLayer
 62
    0
100
AcDbLine
 10
138.92
 20
29.7077
 11
124.919
 21
29.7077
  0
LINE
  5
15A
100
AcDbEntity
  8
0
  6
ByLayer
 62
    0
100
AcDbLine
 10
124.919
 20
29.7077
 11
124.919
 21
43.7074
  0
LINE
  5
15B
100
AcDbEntity
  8
0
  6
ByLayer
 62
    0
100
AcDbLine
 10
105.869
 20
43.7074
 11
119.87
 21
43.7074
  0
LINE
  5
15C
100
AcDbEntity
  8
0
  6
ByLayer
 62
    0
100
AcDbLine
 10
119.87
 20
43.7074
 11
119.87
 21
29.7077
  0
LINE
  5
15D
100
AcDbEntity
  8
0
  6
ByLayer
 62
    0
100
AcDbLine
 10
119.87
 20
29.7077
 11
105.869
 21
29.7077
  0
LINE
  5
15E
100
AcDbEntity
  8
0
  6
ByLayer
 62
    0
100
AcDbLine
 10
105.869
 20
29.7077
 11
105.869
 21
43.7074
  0
LINE
  5
15F
100
AcDbEntity
  8
0
  6
ByLayer
 62
    0
100
AcDbLine
 10
86.82040000000001
 20
43.7074
 11
100.82
 21
43.7074
  0
LINE
  5
160
100
AcDbEntity
  8
0
  6
ByLayer
 62
    0
100
AcDbLine
 10
100.82
 20
43.7074
 11
100.82
 21
29.7077
  0
LINE
  5
161
100
AcDbEntity
  8
0
  6
ByLayer
 62
    0
100
AcDbLine
 10
100.82
 20
29.7077
 11
86.82040000000001
 21
29.7077
  0
LINE
  5
162
100
AcDbEntity
  8
0
  6
ByLayer
 62
    0
100
AcDbLine
 10
86.82040000000001
 20
29.7077
 11
86.82040000000001
 21
43.7074
  0
LINE
  5
163
100
AcDbEntity
  8
0
  6
ByLayer
 62
    0
100
AcDbLine
 10
67.7704
 20
43.7074
 11
81.77
 21
43.7074
  0
LINE
  5
164
100
AcDbEntity
  8
0
  6
ByLayer
 62
    0
100
AcDbLine
 10
81.77
 20
43.7074
 11
81.77
 21
29.7077
  0
LINE
  5
165
100
AcDbEntity
  8
0
  6
ByLayer
 62
    0
100
AcDbLine
 10
81.77
 20
29.7077
 11
67.7704
 21
29.7077
  0
LINE
  5
166
100
AcDbEntity
  8
0
  6
ByLayer
 62
    0
100
AcDbLine
 10
67.7704
 20
29.7077
 11
67.7704
 21
43.7074
  0
LINE
  5
167
100
AcDbEntity
  8
0
  6
ByLayer
 62
    0
100
AcDbLine
 10
48.7204
 20
43.7074
 11
62.72
 21
43.7074
  0
LINE
  5
168
100
AcDbEntity
  8
0
  6
ByLayer
 62
    0
100
AcDbLine
 10
62.72
 20
43.7074
 11
62.72
 21
29.7077
  0
LINE
  5
169
100
AcDbEntity
  8
0
  6
ByLayer
 62
    0
100
AcDbLine
 10
62.72
 20
29.7077
 11
48.7204
 21
29.7077
  0
LINE
  5
16A
100
AcDbEntity
  8
0
  6
ByLayer
 62
    0
100
AcDbLine
 10
48.7204
 20
29.7077
 11
48.7204
 21
43.7074
  0
LINE
  5
16B
100
AcDbEntity
  8
0
  6
ByLayer
 62
    0
100
AcDbLine
 10
29.6706
 20
43.7074
 11
43.67
 21
43.7074
  0
LINE
  5
16C
100
AcDbEntity
  8
0
  6
ByLayer
 62
    0
100
AcDbLine
 10
43.67
 20
43.7074
 11
43.67
 21
29.7077
  0
LINE
  5
16D
100
AcDbEntity
  8
0
  6
ByLayer
 62
    0
100
AcDbLine
 10
43.67
 20
29.7077
 11
29.6706
 21
29.7077
  0
LINE
  5
16E
100
AcDbEntity
  8
0
  6
ByLayer
 62
    0
100
AcDbLine
 10
29.6706
 20
29.7077
 11
29.6706
 21
43.7074
  0
LINE
  5
16F
100
AcDbEntity
  8
0
  6
ByLayer
 62
    0
100
AcDbLine
 10
10.6192
 20
43.7074
 11
24.62
 21
43.7074
  0
LINE
  5
170
100
AcDbEntity
  8
0
  6
ByLayer
 62
    0
100
AcDbLine
 10
24.62
 20
43.7074
 11
24.62
 21
29.7077
  0
LINE
  5
171
100
AcDbEntity
  8
0
  6
ByLayer
 62
    0
100
AcDbLine
 10
24.62
 20
29.7077
 11
10.6192
 21
29.7077
  0
LINE
  5
172
100
AcDbEntity
  8
0
  6
ByLayer
 62
    0
100
AcDbLine
 10
10.6192
 20
29.7077
 11
10.6192
 21
43.7074
  0
LINE
  5
173
100
AcDbEntity
  8
0
  6
ByLayer
 62
    0
100
AcDbLine
 10
248.745
 20
62.7574
 11
248.745
 21
58.0566
  0
LINE
  5
174
100
AcDbEntity
  8
0
  6
ByLayer
 62
    0
100
AcDbLine
 10
248.745
 20
58.0566
 11
247.22
 21
58.0566
  0
LINE
  5
175
100
AcDbEntity
  8
0
  6
ByLayer
 62
    0
100
AcDbLine
 10
247.22
 20
58.0566
 11
247.22
 21
61.287
  0
LINE
  5
176
100
AcDbEntity
  8
0
  6
ByLayer
 62
    0
100
AcDbLine
 10
247.22
 20
61.287
 11
240.47
 21
61.287
  0
LINE
  5
177
100
AcDbEntity
  8
0
  6
ByLayer
 62
    0
100
AcDbLine
 10
240.47
 20
61.287
 11
240.47
 21
58.0566
  0
LINE
  5
178
100
AcDbEntity
  8
0
  6
ByLayer
 62
    0
100
AcDbLine
 10
240.47
 20
58.0566
 11
239.645
 21
58.0566
  0
LINE
  5
179
100
AcDbEntity
  8
0
  6
ByLayer
 62
    0
100
AcDbLine
 10
239.645
 20
58.0566
 11
239.645
 21
55.2581
  0
LINE
  5
17A
100
AcDbEntity
  8
0
  6
ByLayer
 62
    0
100
AcDbLine
 10
239.645
 20
55.2581
 11
240.47
 21
55.2581
  0
LINE
  5
17B
100
AcDbEntity
  8
0
  6
ByLayer
 62
    0
100
AcDbLine
 10
240.47
 20
55.2581
 11
240.47
 21
48.9878
  0
LINE
  5
17C
100
AcDbEntity
  8
0
  6
ByLayer
 62
    0
100
AcDbLine
 10
240.47
 20
48.9878
 11
242.196
 21
48.9878
  0
LINE
  5
17D
100
AcDbEntity
  8
0
  6
ByLayer
 62
    0
100
AcDbLine
 10
242.196
 20
48.9878
 11
242.196
 21
47.7876
  0
LINE
  5
17E
100
AcDbEntity
  8
0
  6
ByLayer
 62
    0
100
AcDbLine
 10
242.196
 20
47.7876
 11
245.496
 21
47.7876
  0
LINE
  5
17F
100
AcDbEntity
  8
0
  6
ByLayer
 62
    0
100
AcDbLine
 10
245.496
 20
47.7876
 11
245.496
 21
48.9878
  0
LINE
  5
180
100
AcDbEntity
  8
0
  6
ByLayer
 62
    0
100
AcDbLine
 10
245.496
 20
48.9878
 11
247.22
 21
48.9878
  0
LINE
  5
181
100
AcDbEntity
  8
0
  6
ByLayer
 62
    0
100
AcDbLine
 10
247.22
 20
48.9878
 11
247.22
 21
53.4568
  0
LINE
  5
182
100
AcDbEntity
  8
0
  6
ByLayer
 62
    0
100
AcDbLine
 10
247.22
 20
53.4568
 11
248.745
 21
53.4568
  0
LINE
  5
183
100
AcDbEntity
  8
0
  6
ByLayer
 62
    0
100
AcDbLine
 10
248.745
 20
53.4568
 11
248.745
 21
48.7578
  0
LINE
  5
184
100
AcDbEntity
  8
0
  6
ByLayer
 62
    0
100
AcDbLine
 10
248.745
 20
48.7578
 11
262.745
 21
48.7578
  0
LINE
  5
185
100
AcDbEntity
  8
0
  6
ByLayer
 62
    0
100
AcDbLine
 10
262.745
 20
48.7578
 11
262.745
 21
53.4568
  0
LINE
  5
186
100
AcDbEntity
  8
0
  6
ByLayer
 62
    0
100
AcDbLine
 10
262.745
 20
53.4568
 11
264.27
 21
53.4568
  0
LINE
  5
187
100
AcDbEntity
  8
0
  6
ByLayer
 62
    0
100
AcDbLine
 10
264.27
 20
53.4568
 11
264.27
 21
48.9878
  0
LINE
  5
188
100
AcDbEntity
  8
0
  6
ByLayer
 62
    0
100
AcDbLine
 10
264.27
 20
48.9878
 11
265.996
 21
48.9878
  0
LINE
  5
189
100
AcDbEntity
  8
0
  6
ByLayer
 62
    0
100
AcDbLine
 10
265.996
 20
48.9878
 11
265.996
 21
47.7876
  0
LINE
  5
18A
100
AcDbEntity
  8
0
  6
ByLayer
 62
    0
100
AcDbLine
 10
265.996
 20
47.7876
 11
269.295
 21
47.7876
  0
LINE
  5
18B
100
AcDbEntity
  8
0
  6
ByLayer
 62
    0
100
AcDbLine
 10
269.295
 20
47.7876
 11
269.295
 21
48.9878
  0
LINE
  5
18C
100
AcDbEntity
  8
0
  6
ByLayer
 62
    0
100
AcDbLine
 10
269.295
 20
48.9878
 11
271.02
 21
48.9878
  0
LINE
  5
18D
100
AcDbEntity
  8
0
  6
ByLayer
 62
    0
100
AcDbLine
 10
271.02
 20
48.9878
 11
271.02
 21
55.2581
  0
LINE
  5
18E
100
AcDbEntity
  8
0
  6
ByLayer
 62
    0
100
AcDbLine
 10
271.02
 20
55.2581
 11
271.846
 21
55.2581
  0
LINE
  5
18F
100
AcDbEntity
  8
0
  6
ByLayer
 62
    0
100
AcDbLine
 10
271.846
 20
55.2581
 11
271.846
 21
58.0566
  0
LINE
  5
190
100
AcDbEntity
  8
0
  6
ByLayer
 62
    0
100
AcDbLine
 10
271.846
 20
58.0566
 11
271.02
 21
58.0566
  0
LINE
  5
191
100
AcDbEntity
  8
0
  6
ByLayer
 62
    0
100
AcDbLine
 10
271.02
 20
58.0566
 11
271.02
 21
61.287
  0
LINE
  5
192
100
AcDbEntity
  8
0
  6
ByLayer
 62
    0
100
AcDbLine
 10
271.02
 20
61.287
 11
264.27
 21
61.287
  0
LINE
  5
193
100
AcDbEntity
  8
0
  6
ByLayer
 62
    0
100
AcDbLine
 10
264.27
 20
61.287
 11
264.27
 21
58.0566
  0
LINE
  5
194
100
AcDbEntity
  8
0
  6
ByLayer
 62
    0
100
AcDbLine
 10
264.27
 20
58.0566
 11
262.745
 21
58.0566
  0
LINE
  5
195
100
AcDbEntity
  8
0
  6
ByLayer
 62
    0
100
AcDbLine
 10
262.745
 20
58.0566
 11
262.745
 21
62.7574
  0
LINE
  5
196
100
AcDbEntity
  8
0
  6
ByLayer
 62
    0
100
AcDbLine
 10
262.745
 20
62.7574
 11
248.745
 21
62.7574
  0
LINE
  5
197
100
AcDbEntity
  8
0
  6
ByLayer
 62
    0
100
AcDbLine
 10
220.17
 20
62.7574
 11
234.17
 21
62.7574
  0
LINE
  5
198
100
AcDbEntity
  8
0
  6
ByLayer
 62
    0
100
AcDbLine
 10
234.17
 20
62.7574
 11
234.17
 21
48.7578
  0
LINE
  5
199
100
AcDbEntity
  8
0
  6
ByLayer
 62
    0
100
AcDbLine
 10
234.17
 20
48.7578
 11
220.17
 21
48.7578
  0
LINE
  5
19A
100
AcDbEntity
  8
0
  6
ByLayer
 62
    0
100
AcDbLine
 10
220.17
 20
48.7578
 11
220.17
 21
62.7574
  0
LINE
  5
19B
100
AcDbEntity
  8
0
  6
ByLayer
 62
    0
100
AcDbLine
 10
201.12
 20
62.7574
 11
215.12
 21
62.7574
  0
LINE
  5
19C
100
AcDbEntity
  8
0
  6
ByLayer
 62
    0
100
AcDbLine
 10
215.12
 20
62.7574
 11
215.12
 21
48.7578
  0
LINE
  5
19D
100
AcDbEntity
  8
0
  6
ByLayer
 62
    0
100
AcDbLine
 10
215.12
 20
48.7578
 11
201.12
 21
48.7578
  0
LINE
  5
19E
100
AcDbEntity
  8
0
  6
ByLayer
 62
    0
100
AcDbLine
 10
201.12
 20
48.7578
 11
201.12
 21
62.7574
  0
LINE
  5
19F
100
AcDbEntity
  8
0
  6
ByLayer
 62
    0
100
AcDbLine
 10
182.07
 20
62.7574
 11
196.07
 21
62.7574
  0
LINE
  5
1A0
100
AcDbEntity
  8
0
  6
ByLayer
 62
    0
100
AcDbLine
 10
196.07
 20
62.7574
 11
196.07
 21
48.7578
  0
LINE
  5
1A1
100
AcDbEntity
  8
0
  6
ByLayer
 62
    0
100
AcDbLine
 10
196.07
 20
48.7578
 11
182.07
 21
48.7578
  0
LINE
  5
1A2
100
AcDbEntity
  8
0
  6
ByLayer
 62
    0
100
AcDbLine
 10
182.07
 20
48.7578
 11
182.07
 21
62.7574
  0
LINE
  5
1A3
100
AcDbEntity
  8
0
  6
ByLayer
 62
    0
100
AcDbLine
 10
163.02
 20
62.7574
 11
177.02
 21
62.7574
  0
LINE
  5
1A4
100
AcDbEntity
  8
0
  6
ByLayer
 62
    0
100
AcDbLine
 10
177.02
 20
62.7574
 11
177.02
 21
48.7578
  0
LINE
  5
1A5
100
AcDbEntity
  8
0
  6
ByLayer
 62
    0
100
AcDbLine
 10
177.02
 20
48.7578
 11
163.02
 21
48.7578
  0
LINE
  5
1A6
100
AcDbEntity
  8
0
  6
ByLayer
 62
    0
100
AcDbLine
 10
163.02
 20
48.7578
 11
163.02
 21
62.7574
  0
LINE
  5
1A7
100
AcDbEntity
  8
0
  6
ByLayer
 62
    0
100
AcDbLine
 10
143.97
 20
62.7574
 11
157.97
 21
62.7574
  0
LINE
  5
1A8
100
AcDbEntity
  8
0
  6
ByLayer
 62
    0
100
AcDbLine
 10
157.97
 20
62.7574
 11
157.97
 21
48.7578
  0
LINE
  5
1A9
100
AcDbEntity
  8
0
  6
ByLayer
 62
    0
100
AcDbLine
 10
157.97
 20
48.7578
 11
143.97
 21
48.7578
  0
LINE
  5
1AA
100
AcDbEntity
  8
0
  6
ByLayer
 62
    0
100
AcDbLine
 10
143.97
 20
48.7578
 11
143.97
 21
62.7574
  0
LINE
  5
1AB
100
AcDbEntity
  8
0
  6
ByLayer
 62
    0
100
AcDbLine
 10
124.919
 20
62.7574
 11
138.92
 21
62.7574
  0
LINE
  5
1AC
100
AcDbEntity
  8
0
  6
ByLayer
 62
    0
100
AcDbLine
 10
138.92
 20
62.7574
 11
138.92
 21
48.7578
  0
LINE
  5
1AD
100
AcDbEntity
  8
0
  6
ByLayer
 62
    0
100
AcDbLine
 10
138.92
 20
48.7578
 11
124.919
 21
48.7578
  0
LINE
  5
1AE
100
AcDbEntity
  8
0
  6
ByLayer
 62
    0
100
AcDbLine
 10
124.919
 20
48.7578
 11
124.919
 21
62.7574
  0
LINE
  5
1AF
100
AcDbEntity
  8
0
  6
ByLayer
 62
    0
100
AcDbLine
 10
105.869
 20
62.7574
 11
119.87
 21
62.7574
  0
LINE
  5
1B0
100
AcDbEntity
  8
0
  6
ByLayer
 62
    0
100
AcDbLine
 10
119.87
 20
62.7574
 11
119.87
 21
48.7578
  0
LINE
  5
1B1
100
AcDbEntity
  8
0
  6
ByLayer
 62
    0
100
AcDbLine
 10
119.87
 20
48.7578
 11
105.869
 21
48.7578
  0
LINE
  5
1B2
100
AcDbEntity
  8
0
  6
ByLayer
 62
    0
100
AcDbLine
 10
105.869
 20
48.7578
 11
105.869
 21
62.7574
  0
LINE
  5
1B3
100
AcDbEntity
  8
0
  6
ByLayer
 62
    0
100
AcDbLine
 10
86.82040000000001
 20
62.7574
 11
100.82
 21
62.7574
  0
LINE
  5
1B4
100
AcDbEntity
  8
0
  6
ByLayer
 62
    0
100
AcDbLine
 10
100.82
 20
62.7574
 11
100.82
 21
48.7578
  0
LINE
  5
1B5
100
AcDbEntity
  8
0
  6
ByLayer
 62
    0
100
AcDbLine
 10
100.82
 20
48.7578
 11
86.82040000000001
 21
48.7578
  0
LINE
  5
1B6
100
AcDbEntity
  8
0
  6
ByLayer
 62
    0
100
AcDbLine
 10
86.82040000000001
 20
48.7578
 11
86.82040000000001
 21
62.7574
  0
LINE
  5
1B7
100
AcDbEntity
  8
0
  6
ByLayer
 62
    0
100
AcDbLine
 10
67.7704
 20
62.7574
 11
81.77
 21
62.7574
  0
LINE
  5
1B8
100
AcDbEntity
  8
0
  6
ByLayer
 62
    0
100
AcDbLine
 10
81.77
 20
62.7574
 11
81.77
 21
48.7578
  0
LINE
  5
1B9
100
AcDbEntity
  8
0
  6
ByLayer
 62
    0
100
AcDbLine
 10
81.77
 20
48.7578
 11
67.7704
 21
48.7578
  0
LINE
  5
1BA
100
AcDbEntity
  8
0
  6
ByLayer
 62
    0
100
AcDbLine
 10
67.7704
 20
48.7578
 11
67.7704
 21
62.7574
  0
LINE
  5
1BB
100
AcDbEntity
  8
0
  6
ByLayer
 62
    0
100
AcDbLine
 10
48.7204
 20
62.7574
 11
62.72
 21
62.7574
  0
LINE
  5
1BC
100
AcDbEntity
  8
0
  6
ByLayer
 62
    0
100
AcDbLine
 10
62.72
 20
62.7574
 11
62.72
 21
48.7578
  0
LINE
  5
1BD
100
AcDbEntity
  8
0
  6
ByLayer
 62
    0
100
AcDbLine
 10
62.72
 20
48.7578
 11
48.7204
 21
48.7578
  0
LINE
  5
1BE
100
AcDbEntity
  8
0
  6
ByLayer
 62
    0
100
AcDbLine
 10
48.7204
 20
48.7578
 11
48.7204
 21
62.7574
  0
LINE
  5
1BF
100
AcDbEntity
  8
0
  6
ByLayer
 62
    0
100
AcDbLine
 10
29.6706
 20
62.7574
 11
43.67
 21
62.7574
  0
LINE
  5
1C0
100
AcDbEntity
  8
0
  6
ByLayer
 62
    0
100
AcDbLine
 10
43.67
 20
62.7574
 11
43.67
 21
48.7578
  0
LINE
  5
1C1
100
AcDbEntity
  8
0
  6
ByLayer
 62
    0
100
AcDbLine
 10
43.67
 20
48.7578
 11
29.6706
 21
48.7578
  0
LINE
  5
1C2
100
AcDbEntity
  8
0
  6
ByLayer
 62
    0
100
AcDbLine
 10
29.6706
 20
48.7578
 11
29.6706
 21
62.7574
  0
LINE
  5
1C3
100
AcDbEntity
  8
0
  6
ByLayer
 62
    0
100
AcDbLine
 10
10.6192
 20
62.7574
 11
24.62
 21
62.7574
  0
LINE
  5
1C4
100
AcDbEntity
  8
0
  6
ByLayer
 62
    0
100
AcDbLine
 10
24.62
 20
62.7574
 11
24.62
 21
48.7578
  0
LINE
  5
1C5
100
AcDbEntity
  8
0
  6
ByLayer
 62
    0
100
AcDbLine
 10
24.62
 20
48.7578
 11
10.6192
 21
48.7578
  0
LINE
  5
1C6
100
AcDbEntity
  8
0
  6
ByLayer
 62
    0
100
AcDbLine
 10
10.6192
 20
48.7578
 11
10.6192
 21
62.7574
  0
LINE
  5
1C7
100
AcDbEntity
  8
0
  6
ByLayer
 62
    0
100
AcDbLine
 10
258.27
 20
81.8074
 11
272.27
 21
81.8074
  0
LINE
  5
1C8
100
AcDbEntity
  8
0
  6
ByLayer
 62
    0
100
AcDbLine
 10
272.27
 20
81.8074
 11
272.27
 21
67.8078
  0
LINE
  5
1C9
100
AcDbEntity
  8
0
  6
ByLayer
 62
    0
100
AcDbLine
 10
272.27
 20
67.8078
 11
258.27
 21
67.8078
  0
LINE
  5
1CA
100
AcDbEntity
  8
0
  6
ByLayer
 62
    0
100
AcDbLine
 10
258.27
 20
67.8078
 11
258.27
 21
81.8074
  0
LINE
  5
1CB
100
AcDbEntity
  8
0
  6
ByLayer
 62
    0
100
AcDbLine
 10
239.22
 20
81.8074
 11
253.22
 21
81.8074
  0
LINE
  5
1CC
100
AcDbEntity
  8
0
  6
ByLayer
 62
    0
100
AcDbLine
 10
253.22
 20
81.8074
 11
253.22
 21
67.8078
  0
LINE
  5
1CD
100
AcDbEntity
  8
0
  6
ByLayer
 62
    0
100
AcDbLine
 10
253.22
 20
67.8078
 11
239.22
 21
67.8078
  0
LINE
  5
1CE
100
AcDbEntity
  8
0
  6
ByLayer
 62
    0
100
AcDbLine
 10
239.22
 20
67.8078
 11
239.22
 21
81.8074
  0
LINE
  5
1CF
100
AcDbEntity
  8
0
  6
ByLayer
 62
    0
100
AcDbLine
 10
220.17
 20
81.8074
 11
234.17
 21
81.8074
  0
LINE
  5
1D0
100
AcDbEntity
  8
0
  6
ByLayer
 62
    0
100
AcDbLine
 10
234.17
 20
81.8074
 11
234.17
 21
67.8078
  0
LINE
  5
1D1
100
AcDbEntity
  8
0
  6
ByLayer
 62
    0
100
AcDbLine
 10
234.17
 20
67.8078
 11
220.17
 21
67.8078
  0
LINE
  5
1D2
100
AcDbEntity
  8
0
  6
ByLayer
 62
    0
100
AcDbLine
 10
220.17
 20
67.8078
 11
220.17
 21
81.8074
  0
LINE
  5
1D3
100
AcDbEntity
  8
0
  6
ByLayer
 62
    0
100
AcDbLine
 10
201.12
 20
81.8074
 11
215.12
 21
81.8074
  0
LINE
  5
1D4
100
AcDbEntity
  8
0
  6
ByLayer
 62
    0
100
AcDbLine
 10
215.12
 20
81.8074
 11
215.12
 21
67.8078
  0
LINE
  5
1D5
100
AcDbEntity
  8
0
  6
ByLayer
 62
    0
100
AcDbLine
 10
215.12
 20
67.8078
 11
201.12
 21
67.8078
  0
LINE
  5
1D6
100
AcDbEntity
  8
0
  6
ByLayer
 62
    0
100
AcDbLine
 10
201.12
 20
67.8078
 11
201.12
 21
81.8074
  0
LINE
  5
1D7
100
AcDbEntity
  8
0
  6
ByLayer
 62
    0
100
AcDbLine
 10
182.07
 20
81.8074
 11
196.07
 21
81.8074
  0
LINE
  5
1D8
100
AcDbEntity
  8
0
  6
ByLayer
 62
    0
100
AcDbLine
 10
196.07
 20
81.8074
 11
196.07
 21
67.8078
  0
LINE
  5
1D9
100
AcDbEntity
  8
0
  6
ByLayer
 62
    0
100
AcDbLine
 10
196.07
 20
67.8078
 11
182.07
 21
67.8078
  0
LINE
  5
1DA
100
AcDbEntity
  8
0
  6
ByLayer
 62
    0
100
AcDbLine
 10
182.07
 20
67.8078
 11
182.07
 21
81.8074
  0
LINE
  5
1DB
100
AcDbEntity
  8
0
  6
ByLayer
 62
    0
100
AcDbLine
 10
163.02
 20
81.8074
 11
177.02
 21
81.8074
  0
LINE
  5
1DC
100
AcDbEntity
  8
0
  6
ByLayer
 62
    0
100
AcDbLine
 10
177.02
 20
81.8074
 11
177.02
 21
67.8078
  0
LINE
  5
1DD
100
AcDbEntity
  8
0
  6
ByLayer
 62
    0
100
AcDbLine
 10
177.02
 20
67.8078
 11
163.02
 21
67.8078
  0
LINE
  5
1DE
100
AcDbEntity
  8
0
  6
ByLayer
 62
    0
100
AcDbLine
 10
163.02
 20
67.8078
 11
163.02
 21
81.8074
  0
LINE
  5
1DF
100
AcDbEntity
  8
0
  6
ByLayer
 62
    0
100
AcDbLine
 10
143.97
 20
81.8074
 11
157.97
 21
81.8074
  0
LINE
  5
1E0
100
AcDbEntity
  8
0
  6
ByLayer
 62
    0
100
AcDbLine
 10
157.97
 20
81.8074
 11
157.97
 21
67.8078
  0
LINE
  5
1E1
100
AcDbEntity
  8
0
  6
ByLayer
 62
    0
100
AcDbLine
 10
157.97
 20
67.8078
 11
143.97
 21
67.8078
  0
LINE
  5
1E2
100
AcDbEntity
  8
0
  6
ByLayer
 62
    0
100
AcDbLine
 10
143.97
 20
67.8078
 11
143.97
 21
81.8074
  0
LINE
  5
1E3
100
AcDbEntity
  8
0
  6
ByLayer
 62
    0
100
AcDbLine
 10
124.919
 20
81.8074
 11
138.92
 21
81.8074
  0
LINE
  5
1E4
100
AcDbEntity
  8
0
  6
ByLayer
 62
    0
100
AcDbLine
 10
138.92
 20
81.8074
 11
138.92
 21
67.8078
  0
LINE
  5
1E5
100
AcDbEntity
  8
0
  6
ByLayer
 62
    0
100
AcDbLine
 10
138.92
 20
67.8078
 11
124.919
 21
67.8078
  0
LINE
  5
1E6
100
AcDbEntity
  8
0
  6
ByLayer
 62
    0
100
AcDbLine
 10
124.919
 20
67.8078
 11
124.919
 21
81.8074
  0
LINE
  5
1E7
100
AcDbEntity
  8
0
  6
ByLayer
 62
    0
100
AcDbLine
 10
105.869
 20
81.8074
 11
119.87
 21
81.8074
  0
LINE
  5
1E8
100
AcDbEntity
  8
0
  6
ByLayer
 62
    0
100
AcDbLine
 10
119.87
 20
81.8074
 11
119.87
 21
67.8078
  0
LINE
  5
1E9
100
AcDbEntity
  8
0
  6
ByLayer
 62
    0
100
AcDbLine
 10
119.87
 20
67.8078
 11
105.869
 21
67.8078
  0
LINE
  5
1EA
100
AcDbEntity
  8
0
  6
ByLayer
 62
    0
100
AcDbLine
 10
105.869
 20
67.8078
 11
105.869
 21
81.8074
  0
LINE
  5
1EB
100
AcDbEntity
  8
0
  6
ByLayer
 62
    0
100
AcDbLine
 10
86.82040000000001
 20
81.8074
 11
100.82
 21
81.8074
  0
LINE
  5
1EC
100
AcDbEntity
  8
0
  6
ByLayer
 62
    0
100
AcDbLine
 10
100.82
 20
81.8074
 11
100.82
 21
67.8078
  0
LINE
  5
1ED
100
AcDbEntity
  8
0
  6
ByLayer
 62
    0
100
AcDbLine
 10
100.82
 20
67.8078
 11
86.82040000000001
 21
67.8078
  0
LINE
  5
1EE
100
AcDbEntity
  8
0
  6
ByLayer
 62
    0
100
AcDbLine
 10
86.82040000000001
 20
67.8078
 11
86.82040000000001
 21
81.8074
  0
LINE
  5
1EF
100
AcDbEntity
  8
0
  6
ByLayer
 62
    0
100
AcDbLine
 10
67.7704
 20
81.8074
 11
81.77
 21
81.8074
  0
LINE
  5
1F0
100
AcDbEntity
  8
0
  6
ByLayer
 62
    0
100
AcDbLine
 10
81.77
 20
81.8074
 11
81.77
 21
67.8078
  0
LINE
  5
1F1
100
AcDbEntity
  8
0
  6
ByLayer
 62
    0
100
AcDbLine
 10
81.77
 20
67.8078
 11
67.7704
 21
67.8078
  0
LINE
  5
1F2
100
AcDbEntity
  8
0
  6
ByLayer
 62
    0
100
AcDbLine
 10
67.7704
 20
67.8078
 11
67.7704
 21
81.8074
  0
LINE
  5
1F3
100
AcDbEntity
  8
0
  6
ByLayer
 62
    0
100
AcDbLine
 10
48.7204
 20
81.8074
 11
62.72
 21
81.8074
  0
LINE
  5
1F4
100
AcDbEntity
  8
0
  6
ByLayer
 62
    0
100
AcDbLine
 10
62.72
 20
81.8074
 11
62.72
 21
67.8078
  0
LINE
  5
1F5
100
AcDbEntity
  8
0
  6
ByLayer
 62
    0
100
AcDbLine
 10
62.72
 20
67.8078
 11
48.7204
 21
67.8078
  0
LINE
  5
1F6
100
AcDbEntity
  8
0
  6
ByLayer
 62
    0
100
AcDbLine
 10
48.7204
 20
67.8078
 11
48.7204
 21
81.8074
  0
LINE
  5
1F7
100
AcDbEntity
  8
0
  6
ByLayer
 62
    0
100
AcDbLine
 10
29.6706
 20
81.8074
 11
43.67
 21
81.8074
  0
LINE
  5
1F8
100
AcDbEntity
  8
0
  6
ByLayer
 62
    0
100
AcDbLine
 10
43.67
 20
81.8074
 11
43.67
 21
67.8078
  0
LINE
  5
1F9
100
AcDbEntity
  8
0
  6
ByLayer
 62
    0
100
AcDbLine
 10
43.67
 20
67.8078
 11
29.6706
 21
67.8078
  0
LINE
  5
1FA
100
AcDbEntity
  8
0
  6
ByLayer
 62
    0
100
AcDbLine
 10
29.6706
 20
67.8078
 11
29.6706
 21
81.8074
  0
LINE
  5
1FB
100
AcDbEntity
  8
0
  6
ByLayer
 62
    0
100
AcDbLine
 10
10.6192
 20
81.8074
 11
24.62
 21
81.8074
  0
LINE
  5
1FC
100
AcDbEntity
  8
0
  6
ByLayer
 62
    0
100
AcDbLine
 10
24.62
 20
81.8074
 11
24.62
 21
67.8078
  0
LINE
  5
1FD
100
AcDbEntity
  8
0
  6
ByLayer
 62
    0
100
AcDbLine
 10
24.62
 20
67.8078
 11
10.6192
 21
67.8078
  0
LINE
  5
1FE
100
AcDbEntity
  8
0
  6
ByLayer
 62
    0
100
AcDbLine
 10
10.6192
 20
67.8078
 11
10.6192
 21
81.8074
  0
LINE
  5
1FF
100
AcDbEntity
  8
0
  6
ByLayer
 62
    0
100
AcDbLine
 10
258.27
 20
100.857
 11
272.27
 21
100.857
  0
LINE
  5
200
100
AcDbEntity
  8
0
  6
ByLayer
 62
    0
100
AcDbLine
 10
272.27
 20
100.857
 11
272.27
 21
86.8578
  0
LINE
  5
201
100
AcDbEntity
  8
0
  6
ByLayer
 62
    0
100
AcDbLine
 10
272.27
 20
86.8578
 11
258.27
 21
86.8578
  0
LINE
  5
202
100
AcDbEntity
  8
0
  6
ByLayer
 62
    0
100
AcDbLine
 10
258.27
 20
86.8578
 11
258.27
 21
100.857
  0
LINE
  5
203
100
AcDbEntity
  8
0
  6
ByLayer
 62
    0
100
AcDbLine
 10
239.22
 20
100.857
 11
253.22
 21
100.857
  0
LINE
  5
204
100
AcDbEntity
  8
0
  6
ByLayer
 62
    0
100
AcDbLine
 10
253.22
 20
100.857
 11
253.22
 21
86.8578
  0
LINE
  5
205
100
AcDbEntity
  8
0
  6
ByLayer
 62
    0
100
AcDbLine
 10
253.22
 20
86.8578
 11
239.22
 21
86.8578
  0
LINE
  5
206
100
AcDbEntity
  8
0
  6
ByLayer
 62
    0
100
AcDbLine
 10
239.22
 20
86.8578
 11
239.22
 21
100.857
  0
LINE
  5
207
100
AcDbEntity
  8
0
  6
ByLayer
 62
    0
100
AcDbLine
 10
220.17
 20
100.857
 11
234.17
 21
100.857
  0
LINE
  5
208
100
AcDbEntity
  8
0
  6
ByLayer
 62
    0
100
AcDbLine
 10
234.17
 20
100.857
 11
234.17
 21
86.8578
  0
LINE
  5
209
100
AcDbEntity
  8
0
  6
ByLayer
 62
    0
100
AcDbLine
 10
234.17
 20
86.8578
 11
220.17
 21
86.8578
  0
LINE
  5
20A
100
AcDbEntity
  8
0
  6
ByLayer
 62
    0
100
AcDbLine
 10
220.17
 20
86.8578
 11
220.17
 21
100.857
  0
LINE
  5
20B
100
AcDbEntity
  8
0
  6
ByLayer
 62
    0
100
AcDbLine
 10
201.12
 20
100.857
 11
215.12
 21
100.857
  0
LINE
  5
20C
100
AcDbEntity
  8
0
  6
ByLayer
 62
    0
100
AcDbLine
 10
215.12
 20
100.857
 11
215.12
 21
86.8578
  0
LINE
  5
20D
100
AcDbEntity
  8
0
  6
ByLayer
 62
    0
100
AcDbLine
 10
215.12
 20
86.8578
 11
201.12
 21
86.8578
  0
LINE
  5
20E
100
AcDbEntity
  8
0
  6
ByLayer
 62
    0
100
AcDbLine
 10
201.12
 20
86.8578
 11
201.12
 21
100.857
  0
LINE
  5
20F
100
AcDbEntity
  8
0
  6
ByLayer
 62
    0
100
AcDbLine
 10
182.07
 20
100.857
 11
196.07
 21
100.857
  0
LINE
  5
210
100
AcDbEntity
  8
0
  6
ByLayer
 62
    0
100
AcDbLine
 10
196.07
 20
100.857
 11
196.07
 21
86.8578
  0
LINE
  5
211
100
AcDbEntity
  8
0
  6
ByLayer
 62
    0
100
AcDbLine
 10
196.07
 20
86.8578
 11
182.07
 21
86.8578
  0
LINE
  5
212
100
AcDbEntity
  8
0
  6
ByLayer
 62
    0
100
AcDbLine
 10
182.07
 20
86.8578
 11
182.07
 21
100.857
  0
LINE
  5
213
100
AcDbEntity
  8
0
  6
ByLayer
 62
    0
100
AcDbLine
 10
163.02
 20
100.857
 11
177.02
 21
100.857
  0
LINE
  5
214
100
AcDbEntity
  8
0
  6
ByLayer
 62
    0
100
AcDbLine
 10
177.02
 20
100.857
 11
177.02
 21
86.8578
  0
LINE
  5
215
100
AcDbEntity
  8
0
  6
ByLayer
 62
    0
100
AcDbLine
 10
177.02
 20
86.8578
 11
163.02
 21
86.8578
  0
LINE
  5
216
100
AcDbEntity
  8
0
  6
ByLayer
 62
    0
100
AcDbLine
 10
163.02
 20
86.8578
 11
163.02
 21
100.857
  0
LINE
  5
217
100
AcDbEntity
  8
0
  6
ByLayer
 62
    0
100
AcDbLine
 10
143.97
 20
100.857
 11
157.97
 21
100.857
  0
LINE
  5
218
100
AcDbEntity
  8
0
  6
ByLayer
 62
    0
100
AcDbLine
 10
157.97
 20
100.857
 11
157.97
 21
86.8578
  0
LINE
  5
219
100
AcDbEntity
  8
0
  6
ByLayer
 62
    0
100
AcDbLine
 10
157.97
 20
86.8578
 11
143.97
 21
86.8578
  0
LINE
  5
21A
100
AcDbEntity
  8
0
  6
ByLayer
 62
    0
100
AcDbLine
 10
143.97
 20
86.8578
 11
143.97
 21
100.857
  0
LINE
  5
21B
100
AcDbEntity
  8
0
  6
ByLayer
 62
    0
100
AcDbLine
 10
124.919
 20
100.857
 11
138.92
 21
100.857
  0
LINE
  5
21C
100
AcDbEntity
  8
0
  6
ByLayer
 62
    0
100
AcDbLine
 10
138.92
 20
100.857
 11
138.92
 21
86.8578
  0
LINE
  5
21D
100
AcDbEntity
  8
0
  6
ByLayer
 62
    0
100
AcDbLine
 10
138.92
 20
86.8578
 11
124.919
 21
86.8578
  0
LINE
  5
21E
100
AcDbEntity
  8
0
  6
ByLayer
 62
    0
100
AcDbLine
 10
124.919
 20
86.8578
 11
124.919
 21
100.857
  0
LINE
  5
21F
100
AcDbEntity
  8
0
  6
ByLayer
 62
    0
100
AcDbLine
 10
105.869
 20
100.857
 11
119.87
 21
100.857
  0
LINE
  5
220
100
AcDbEntity
  8
0
  6
ByLayer
 62
    0
100
AcDbLine
 10
119.87
 20
100.857
 11
119.87
 21
86.8578
  0
LINE
  5
221
100
AcDbEntity
  8
0
  6
ByLayer
 62
    0
100
AcDbLine
 10
119.87
 20
86.8578
 11
105.869
 21
86.8578
  0
LINE
  5
222
100
AcDbEntity
  8
0
  6
ByLayer
 62
    0
100
AcDbLine
 10
105.869
 20
86.8578
 11
105.869
 21
100.857
  0
LINE
  5
223
100
AcDbEntity
  8
0
  6
ByLayer
 62
    0
100
AcDbLine
 10
86.82040000000001
 20
100.857
 11
100.82
 21
100.857
  0
LINE
  5
224
100
AcDbEntity
  8
0
  6
ByLayer
 62
    0
100
AcDbLine
 10
100.82
 20
100.857
 11
100.82
 21
86.8578
  0
LINE
  5
225
100
AcDbEntity
  8
0
  6
ByLayer
 62
    0
100
AcDbLine
 10
100.82
 20
86.8578
 11
86.82040000000001
 21
86.8578
  0
LINE
  5
226
100
AcDbEntity
  8
0
  6
ByLayer
 62
    0
100
AcDbLine
 10
86.82040000000001
 20
86.8578
 11
86.82040000000001
 21
100.857
  0
LINE
  5
227
100
AcDbEntity
  8
0
  6
ByLayer
 62
    0
100
AcDbLine
 10
67.7704
 20
100.857
 11
81.77
 21
100.857
  0
LINE
  5
228
100
AcDbEntity
  8
0
  6
ByLayer
 62
    0
100
AcDbLine
 10
81.77
 20
100.857
 11
81.77
 21
86.8578
  0
LINE
  5
229
100
AcDbEntity
  8
0
  6
ByLayer
 62
    0
100
AcDbLine
 10
81.77
 20
86.8578
 11
67.7704
 21
86.8578
  0
LINE
  5
22A
100
AcDbEntity
  8
0
  6
ByLayer
 62
    0
100
AcDbLine
 10
67.7704
 20
86.8578
 11
67.7704
 21
100.857
  0
LINE
  5
22B
100
AcDbEntity
  8
0
  6
ByLayer
 62
    0
100
AcDbLine
 10
48.7204
 20
100.857
 11
62.72
 21
100.857
  0
LINE
  5
22C
100
AcDbEntity
  8
0
  6
ByLayer
 62
    0
100
AcDbLine
 10
62.72
 20
100.857
 11
62.72
 21
86.8578
  0
LINE
  5
22D
100
AcDbEntity
  8
0
  6
ByLayer
 62
    0
100
AcDbLine
 10
62.72
 20
86.8578
 11
48.7204
 21
86.8578
  0
LINE
  5
22E
100
AcDbEntity
  8
0
  6
ByLayer
 62
    0
100
AcDbLine
 10
48.7204
 20
86.8578
 11
48.7204
 21
100.857
  0
LINE
  5
22F
100
AcDbEntity
  8
0
  6
ByLayer
 62
    0
100
AcDbLine
 10
29.6706
 20
100.857
 11
43.67
 21
100.857
  0
LINE
  5
230
100
AcDbEntity
  8
0
  6
ByLayer
 62
    0
100
AcDbLine
 10
43.67
 20
100.857
 11
43.67
 21
86.8578
  0
LINE
  5
231
100
AcDbEntity
  8
0
  6
ByLayer
 62
    0
100
AcDbLine
 10
43.67
 20
86.8578
 11
29.6706
 21
86.8578
  0
LINE
  5
232
100
AcDbEntity
  8
0
  6
ByLayer
 62
    0
100
AcDbLine
 10
29.6706
 20
86.8578
 11
29.6706
 21
100.857
  0
LINE
  5
233
100
AcDbEntity
  8
0
  6
ByLayer
 62
    0
100
AcDbLine
 10
10.6192
 20
100.857
 11
24.62
 21
100.857
  0
LINE
  5
234
100
AcDbEntity
  8
0
  6
ByLayer
 62
    0
100
AcDbLine
 10
24.62
 20
100.857
 11
24.62
 21
86.8578
  0
LINE
  5
235
100
AcDbEntity
  8
0
  6
ByLayer
 62
    0
100
AcDbLine
 10
24.62
 20
86.8578
 11
10.6192
 21
86.8578
  0
LINE
  5
236
100
AcDbEntity
  8
0
  6
ByLayer
 62
    0
100
AcDbLine
 10
10.6192
 20
86.8578
 11
10.6192
 21
100.857
  0
LINE
  5
237
100
AcDbEntity
  8
0
  6
ByLayer
 62
    0
100
AcDbLine
 10
258.27
 20
119.908
 11
272.27
 21
119.908
  0
LINE
  5
238
100
AcDbEntity
  8
0
  6
ByLayer
 62
    0
100
AcDbLine
 10
272.27
 20
119.908
 11
272.27
 21
105.908
  0
LINE
  5
239
100
AcDbEntity
  8
0
  6
ByLayer
 62
    0
100
AcDbLine
 10
272.27
 20
105.908
 11
258.27
 21
105.908
  0
LINE
  5
23A
100
AcDbEntity
  8
0
  6
ByLayer
 62
    0
100
AcDbLine
 10
258.27
 20
105.908
 11
258.27
 21
119.908
  0
LINE
  5
23B
100
AcDbEntity
  8
0
  6
ByLayer
 62
    0
100
AcDbLine
 10
239.22
 20
119.908
 11
253.22
 21
119.908
  0
LINE
  5
23C
100
AcDbEntity
  8
0
  6
ByLayer
 62
    0
100
AcDbLine
 10
253.22
 20
119.908
 11
253.22
 21
105.908
  0
LINE
  5
23D
100
AcDbEntity
  8
0
  6
ByLayer
 62
    0
100
AcDbLine
 10
253.22
 20
105.908
 11
239.22
 21
105.908
  0
LINE
  5
23E
100
AcDbEntity
  8
0
  6
ByLayer
 62
    0
100
AcDbLine
 10
239.22
 20
105.908
 11
239.22
 21
119.908
  0
LINE
  5
23F
100
AcDbEntity
  8
0
  6
ByLayer
 62
    0
100
AcDbLine
 10
220.17
 20
119.908
 11
234.17
 21
119.908
  0
LINE
  5
240
100
AcDbEntity
  8
0
  6
ByLayer
 62
    0
100
AcDbLine
 10
234.17
 20
119.908
 11
234.17
 21
105.908
  0
LINE
  5
241
100
AcDbEntity
  8
0
  6
ByLayer
 62
    0
100
AcDbLine
 10
234.17
 20
105.908
 11
220.17
 21
105.908
  0
LINE
  5
242
100
AcDbEntity
  8
0
  6
ByLayer
 62
    0
100
AcDbLine
 10
220.17
 20
105.908
 11
220.17
 21
119.908
  0
LINE
  5
243
100
AcDbEntity
  8
0
  6
ByLayer
 62
    0
100
AcDbLine
 10
201.12
 20
119.908
 11
215.12
 21
119.908
  0
LINE
  5
244
100
AcDbEntity
  8
0
  6
ByLayer
 62
    0
100
AcDbLine
 10
215.12
 20
119.908
 11
215.12
 21
105.908
  0
LINE
  5
245
100
AcDbEntity
  8
0
  6
ByLayer
 62
    0
100
AcDbLine
 10
215.12
 20
105.908
 11
201.12
 21
105.908
  0
LINE
  5
246
100
AcDbEntity
  8
0
  6
ByLayer
 62
    0
100
AcDbLine
 10
201.12
 20
105.908
 11
201.12
 21
119.908
  0
LINE
  5
247
100
AcDbEntity
  8
0
  6
ByLayer
 62
    0
100
AcDbLine
 10
182.07
 20
119.908
 11
196.07
 21
119.908
  0
LINE
  5
248
100
AcDbEntity
  8
0
  6
ByLayer
 62
    0
100
AcDbLine
 10
196.07
 20
119.908
 11
196.07
 21
105.908
  0
LINE
  5
249
100
AcDbEntity
  8
0
  6
ByLayer
 62
    0
100
AcDbLine
 10
196.07
 20
105.908
 11
182.07
 21
105.908
  0
LINE
  5
24A
100
AcDbEntity
  8
0
  6
ByLayer
 62
    0
100
AcDbLine
 10
182.07
 20
105.908
 11
182.07
 21
119.908
  0
LINE
  5
24B
100
AcDbEntity
  8
0
  6
ByLayer
 62
    0
100
AcDbLine
 10
163.02
 20
119.908
 11
177.02
 21
119.908
  0
LINE
  5
24C
100
AcDbEntity
  8
0
  6
ByLayer
 62
    0
100
AcDbLine
 10
177.02
 20
119.908
 11
177.02
 21
105.908
  0
LINE
  5
24D
100
AcDbEntity
  8
0
  6
ByLayer
 62
    0
100
AcDbLine
 10
177.02
 20
105.908
 11
163.02
 21
105.908
  0
LINE
  5
24E
100
AcDbEntity
  8
0
  6
ByLayer
 62
    0
100
AcDbLine
 10
163.02
 20
105.908
 11
163.02
 21
119.908
  0
LINE
  5
24F
100
AcDbEntity
  8
0
  6
ByLayer
 62
    0
100
AcDbLine
 10
143.97
 20
119.908
 11
157.97
 21
119.908
  0
LINE
  5
250
100
AcDbEntity
  8
0
  6
ByLayer
 62
    0
100
AcDbLine
 10
157.97
 20
119.908
 11
157.97
 21
105.908
  0
LINE
  5
251
100
AcDbEntity
  8
0
  6
ByLayer
 62
    0
100
AcDbLine
 10
157.97
 20
105.908
 11
143.97
 21
105.908
  0
LINE
  5
252
100
AcDbEntity
  8
0
  6
ByLayer
 62
    0
100
AcDbLine
 10
143.97
 20
105.908
 11
143.97
 21
119.908
  0
LINE
  5
253
100
AcDbEntity
  8
0
  6
ByLayer
 62
    0
100
AcDbLine
 10
124.919
 20
119.908
 11
138.92
 21
119.908
  0
LINE
  5
254
100
AcDbEntity
  8
0
  6
ByLayer
 62
    0
100
AcDbLine
 10
138.92
 20
119.908
 11
138.92
 21
105.908
  0
LINE
  5
255
100
AcDbEntity
  8
0
  6
ByLayer
 62
    0
100
AcDbLine
 10
138.92
 20
105.908
 11
124.919
 21
105.908
  0
LINE
  5
256
100
AcDbEntity
  8
0
  6
ByLayer
 62
    0
100
AcDbLine
 10
124.919
 20
105.908
 11
124.919
 21
119.908
  0
LINE
  5
257
100
AcDbEntity
  8
0
  6
ByLayer
 62
    0
100
AcDbLine
 10
105.869
 20
119.908
 11
119.87
 21
119.908
  0
LINE
  5
258
100
AcDbEntity
  8
0
  6
ByLayer
 62
    0
100
AcDbLine
 10
119.87
 20
119.908
 11
119.87
 21
105.908
  0
LINE
  5
259
100
AcDbEntity
  8
0
  6
ByLayer
 62
    0
100
AcDbLine
 10
119.87
 20
105.908
 11
105.869
 21
105.908
  0
LINE
  5
25A
100
AcDbEntity
  8
0
  6
ByLayer
 62
    0
100
AcDbLine
 10
105.869
 20
105.908
 11
105.869
 21
119.908
  0
LINE
  5
25B
100
AcDbEntity
  8
0
  6
ByLayer
 62
    0
100
AcDbLine
 10
86.82040000000001
 20
119.908
 11
100.82
 21
119.908
  0
LINE
  5
25C
100
AcDbEntity
  8
0
  6
ByLayer
 62
    0
100
AcDbLine
 10
100.82
 20
119.908
 11
100.82
 21
105.908
  0
LINE
  5
25D
100
AcDbEntity
  8
0
  6
ByLayer
 62
    0
100
AcDbLine
 10
100.82
 20
105.908
 11
86.82040000000001
 21
105.908
  0
LINE
  5
25E
100
AcDbEntity
  8
0
  6
ByLayer
 62
    0
100
AcDbLine
 10
86.82040000000001
 20
105.908
 11
86.82040000000001
 21
119.908
  0
LINE
  5
25F
100
AcDbEntity
  8
0
  6
ByLayer
 62
    0
100
AcDbLine
 10
67.7704
 20
119.908
 11
81.77
 21
119.908
  0
LINE
  5
260
100
AcDbEntity
  8
0
  6
ByLayer
 62
    0
100
AcDbLine
 10
81.77
 20
119.908
 11
81.77
 21
105.908
  0
LINE
  5
261
100
AcDbEntity
  8
0
  6
ByLayer
 62
    0
100
AcDbLine
 10
81.77
 20
105.908
 11
67.7704
 21
105.908
  0
LINE
  5
262
100
AcDbEntity
  8
0
  6
ByLayer
 62
    0
100
AcDbLine
 10
67.7704
 20
105.908
 11
67.7704
 21
119.908
  0
LINE
  5
263
100
AcDbEntity
  8
0
  6
ByLayer
 62
    0
100
AcDbLine
 10
48.7204
 20
119.908
 11
62.72
 21
119.908
  0
LINE
  5
264
100
AcDbEntity
  8
0
  6
ByLayer
 62
    0
100
AcDbLine
 10
62.72
 20
119.908
 11
62.72
 21
105.908
  0
LINE
  5
265
100
AcDbEntity
  8
0
  6
ByLayer
 62
    0
100
AcDbLine
 10
62.72
 20
105.908
 11
48.7204
 21
105.908
  0
LINE
  5
266
100
AcDbEntity
  8
0
  6
ByLayer
 62
    0
100
AcDbLine
 10
48.7204
 20
105.908
 11
48.7204
 21
119.908
  0
LINE
  5
267
100
AcDbEntity
  8
0
  6
ByLayer
 62
    0
100
AcDbLine
 10
29.6706
 20
119.908
 11
43.67
 21
119.908
  0
LINE
  5
268
100
AcDbEntity
  8
0
  6
ByLayer
 62
    0
100
AcDbLine
 10
43.67
 20
119.908
 11
43.67
 21
105.908
  0
LINE
  5
269
100
AcDbEntity
  8
0
  6
ByLayer
 62
    0
100
AcDbLine
 10
43.67
 20
105.908
 11
29.6706
 21
105.908
  0
LINE
  5
26A
100
AcDbEntity
  8
0
  6
ByLayer
 62
    0
100
AcDbLine
 10
29.6706
 20
105.908
 11
29.6706
 21
119.908
  0
LINE
  5
26B
100
AcDbEntity
  8
0
  6
ByLayer
 62
    0
100
AcDbLine
 10
10.6192
 20
119.908
 11
24.62
 21
119.908
  0
LINE
  5
26C
100
AcDbEntity
  8
0
  6
ByLayer
 62
    0
100
AcDbLine
 10
24.62
 20
119.908
 11
24.62
 21
105.908
  0
LINE
  5
26D
100
AcDbEntity
  8
0
  6
ByLayer
 62
    0
100
AcDbLine
 10
24.62
 20
105.908
 11
10.6192
 21
105.908
  0
LINE
  5
26E
100
AcDbEntity
  8
0
  6
ByLayer
 62
    0
100
AcDbLine
 10
10.6192
 20
105.908
 11
10.6192
 21
119.908
  0
LINE
  5
26F
100
AcDbEntity
  8
0
  6
ByLayer
 62
    0
100
AcDbLine
 10
3.1309
 20
128.359
 11
2.71336
 21
128.147
  0
LINE
  5
270
100
AcDbEntity
  8
0
  6
ByLayer
 62
    0
100
AcDbLine
 10
2.71336
 20
128.147
 11
2.38125
 21
127.815
  0
LINE
  5
271
100
AcDbEntity
  8
0
  6
ByLayer
 62
    0
100
AcDbLine
 10
2.38125
 20
127.815
 11
2.16903
 21
127.397
  0
LINE
  5
272
100
AcDbEntity
  8
0
  6
ByLayer
 62
    0
100
AcDbLine
 10
2.16903
 20
127.397
 11
2.09462
 21
126.933
  0
LINE
  5
273
100
AcDbEntity
  8
0
  6
ByLayer
 62
    0
100
AcDbLine
 10
2.09462
 20
126.933
 11
2.16903
 21
126.469
  0
LINE
  5
274
100
AcDbEntity
  8
0
  6
ByLayer
 62
    0
100
AcDbLine
 10
2.16903
 20
126.469
 11
2.38125
 21
126.052
  0
LINE
  5
275
100
AcDbEntity
  8
0
  6
ByLayer
 62
    0
100
AcDbLine
 10
2.38125
 20
126.052
 11
2.71336
 21
125.72
  0
LINE
  5
276
100
AcDbEntity
  8
0
  6
ByLayer
 62
    0
100
AcDbLine
 10
2.71336
 20
125.72
 11
3.1309
 21
125.506
  0
LINE
  5
277
100
AcDbEntity
  8
0
  6
ByLayer
 62
    0
100
AcDbLine
 10
3.1309
 20
125.506
 11
3.59392
 21
125.432
  0
LINE
  5
278
100
AcDbEntity
  8
0
  6
ByLayer
 62
    0
100
AcDbLine
 10
3.59392
 20
125.432
 11
4.05832
 21
125.506
  0
LINE
  5
279
100
AcDbEntity
  8
0
  6
ByLayer
 62
    0
100
AcDbLine
 10
4.05832
 20
125.506
 11
4.47587
 21
125.72
  0
LINE
  5
27A
100
AcDbEntity
  8
0
  6
ByLayer
 62
    0
100
AcDbLine
 10
4.47587
 20
125.72
 11
4.80797
 21
126.052
  0
LINE
  5
27B
100
AcDbEntity
  8
0
  6
ByLayer
 62
    0
100
AcDbLine
 10
4.80797
 20
126.052
 11
5.02158
 21
126.469
  0
LINE
  5
27C
100
AcDbEntity
  8
0
  6
ByLayer
 62
    0
100
AcDbLine
 10
5.02158
 20
126.469
 11
5.0946
 21
126.933
  0
LINE
  5
27D
100
AcDbEntity
  8
0
  6
ByLayer
 62
    0
100
AcDbLine
 10
5.0946
 20
126.933
 11
5.02158
 21
127.397
  0
LINE
  5
27E
100
AcDbEntity
  8
0
  6
ByLayer
 62
    0
100
AcDbLine
 10
5.02158
 20
127.397
 11
4.80797
 21
127.815
  0
LINE
  5
27F
100
AcDbEntity
  8
0
  6
ByLayer
 62
    0
100
AcDbLine
 10
4.80797
 20
127.815
 11
4.47587
 21
128.147
  0
LINE
  5
280
100
AcDbEntity
  8
0
  6
ByLayer
 62
    0
100
AcDbLine
 10
4.47587
 20
128.147
 11
4.05832
 21
128.359
  0
LINE
  5
281
100
AcDbEntity
  8
0
  6
ByLayer
 62
    0
100
AcDbLine
 10
4.05832
 20
128.359
 11
3.59392
 21
128.432
  0
LINE
  5
282
100
AcDbEntity
  8
0
  6
ByLayer
 62
    0
100
AcDbLine
 10
3.59392
 20
128.432
 11
3.1309
 21
128.359
  0
LINE
  5
283
100
AcDbEntity
  8
0
  6
ByLayer
 62
    0
100
AcDbLine
 10
278.832
 20
128.359
 11
278.415
 21
128.147
  0
LINE
  5
284
100
AcDbEntity
  8
0
  6
ByLayer
 62
    0
100
AcDbLine
 10
278.415
 20
128.147
 11
278.083
 21
127.815
  0
LINE
  5
285
100
AcDbEntity
  8
0
  6
ByLayer
 62
    0
100
AcDbLine
 10
278.083
 20
127.815
 11
277.869
 21
127.397
  0
LINE
  5
286
100
AcDbEntity
  8
0
  6
ByLayer
 62
    0
100
AcDbLine
 10
277.869
 20
127.397
 11
277.796
 21
126.933
  0
LINE
  5
287
100
AcDbEntity
  8
0
  6
ByLayer
 62
    0
100
AcDbLine
 10
277.796
 20
126.933
 11
277.869
 21
126.469
  0
LINE
  5
288
100
AcDbEntity
  8
0
  6
ByLayer
 62
    0
100
AcDbLine
 10
277.869
 20
126.469
 11
278.083
 21
126.052
  0
LINE
  5
289
100
AcDbEntity
  8
0
  6
ByLayer
 62
    0
100
AcDbLine
 10
278.083
 20
126.052
 11
278.415
 21
125.72
  0
LINE
  5
28A
100
AcDbEntity
  8
0
  6
ByLayer
 62
    0
100
AcDbLine
 10
278.415
 20
125.72
 11
278.832
 21
125.506
  0
LINE
  5
28B
100
AcDbEntity
  8
0
  6
ByLayer
 62
    0
100
AcDbLine
 10
278.832
 20
125.506
 11
279.297
 21
125.432
  0
LINE
  5
28C
100
AcDbEntity
  8
0
  6
ByLayer
 62
    0
100
AcDbLine
 10
279.297
 20
125.432
 11
279.76
 21
125.506
  0
LINE
  5
28D
100
AcDbEntity
  8
0
  6
ByLayer
 62
    0
100
AcDbLine
 10
279.76
 20
125.506
 11
280.177
 21
125.72
  0
LINE
  5
28E
100
AcDbEntity
  8
0
  6
ByLayer
 62
    0
100
AcDbLine
 10
280.177
 20
125.72
 11
280.509
 21
126.052
  0
LINE
  5
28F
100
AcDbEntity
  8
0
  6
ByLayer
 62
    0
100
AcDbLine
 10
280.509
 20
126.052
 11
280.723
 21
126.469
  0
LINE
  5
290
100
AcDbEntity
  8
0
  6
ByLayer
 62
    0
100
AcDbLine
 10
280.723
 20
126.469
 11
280.796
 21
126.933
  0
LINE
  5
291
100
AcDbEntity
  8
0
  6
ByLayer
 62
    0
100
AcDbLine
 10
280.796
 20
126.933
 11
280.723
 21
127.397
  0
LINE
  5
292
100
AcDbEntity
  8
0
  6
ByLayer
 62
    0
100
AcDbLine
 10
280.723
 20
127.397
 11
280.509
 21
127.815
  0
LINE
  5
293
100
AcDbEntity
  8
0
  6
ByLayer
 62
    0
100
AcDbLine
 10
280.509
 20
127.815
 11
280.177
 21
128.147
  0
LINE
  5
294
100
AcDbEntity
  8
0
  6
ByLayer
 62
    0
100
AcDbLine
 10
280.177
 20
128.147
 11
279.76
 21
128.359
  0
LINE
  5
295
100
AcDbEntity
  8
0
  6
ByLayer
 62
    0
100
AcDbLine
 10
279.76
 20
128.359
 11
279.297
 21
128.432
  0
LINE
  5
296
100
AcDbEntity
  8
0
  6
ByLayer
 62
    0
100
AcDbLine
 10
279.297
 20
128.432
 11
278.832
 21
128.359
  0
LINE
  5
297
100
AcDbEntity
  8
0
  6
ByLayer
 62
    0
100
AcDbLine
 10
186.932
 20
128.359
 11
186.513
 21
128.147
  0
LINE
  5
298
100
AcDbEntity
  8
0
  6
ByLayer
 62
    0
100
AcDbLine
 10
186.513
 20
128.147
 11
186.183
 21
127.815
  0
LINE
  5
299
100
AcDbEntity
  8
0
  6
ByLayer
 62
    0
100
AcDbLine
 10
186.183
 20
127.815
 11
185.969
 21
127.397
  0
LINE
  5
29A
100
AcDbEntity
  8
0
  6
ByLayer
 62
    0
100
AcDbLine
 10
185.969
 20
127.397
 11
185.896
 21
126.933
  0
LINE
  5
29B
100
AcDbEntity
  8
0
  6
ByLayer
 62
    0
100
AcDbLine
 10
185.896
 20
126.933
 11
185.969
 21
126.469
  0
LINE
  5
29C
100
AcDbEntity
  8
0
  6
ByLayer
 62
    0
100
AcDbLine
 10
185.969
 20
126.469
 11
186.183
 21
126.052
  0
LINE
  5
29D
100
AcDbEntity
  8
0
  6
ByLayer
 62
    0
100
AcDbLine
 10
186.183
 20
126.052
 11
186.513
 21
125.72
  0
LINE
  5
29E
100
AcDbEntity
  8
0
  6
ByLayer
 62
    0
100
AcDbLine
 10
186.513
 20
125.72
 11
186.932
 21
125.506
  0
LINE
  5
29F
100
AcDbEntity
  8
0
  6
ByLayer
 62
    0
100
AcDbLine
 10
186.932
 20
125.506
 11
187.395
 21
125.432
  0
LINE
  5
2A0
100
AcDbEntity
  8
0
  6
ByLayer
 62
    0
100
AcDbLine
 10
187.395
 20
125.432
 11
187.86
 21
125.506
  0
LINE
  5
2A1
100
AcDbEntity
  8
0
  6
ByLayer
 62
    0
100
AcDbLine
 10
187.86
 20
125.506
 11
188.277
 21
125.72
  0
LINE
  5
2A2
100
AcDbEntity
  8
0
  6
ByLayer
 62
    0
100
AcDbLine
 10
188.277
 20
125.72
 11
188.609
 21
126.052
  0
LINE
  5
2A3
100
AcDbEntity
  8
0
  6
ByLayer
 62
    0
100
AcDbLine
 10
188.609
 20
126.052
 11
188.823
 21
126.469
  0
LINE
  5
2A4
100
AcDbEntity
  8
0
  6
ByLayer
 62
    0
100
AcDbLine
 10
188.823
 20
126.469
 11
188.896
 21
126.933
  0
LINE
  5
2A5
100
AcDbEntity
  8
0
  6
ByLayer
 62
    0
100
AcDbLine
 10
188.896
 20
126.933
 11
188.823
 21
127.397
  0
LINE
  5
2A6
100
AcDbEntity
  8
0
  6
ByLayer
 62
    0
100
AcDbLine
 10
188.823
 20
127.397
 11
188.609
 21
127.815
  0
LINE
  5
2A7
100
AcDbEntity
  8
0
  6
ByLayer
 62
    0
100
AcDbLine
 10
188.609
 20
127.815
 11
188.277
 21
128.147
  0
LINE
  5
2A8
100
AcDbEntity
  8
0
  6
ByLayer
 62
    0
100
AcDbLine
 10
188.277
 20
128.147
 11
187.86
 21
128.359
  0
LINE
  5
2A9
100
AcDbEntity
  8
0
  6
ByLayer
 62
    0
100
AcDbLine
 10
187.86
 20
128.359
 11
187.395
 21
128.432
  0
LINE
  5
2AA
100
AcDbEntity
  8
0
  6
ByLayer
 62
    0
100
AcDbLine
 10
187.395
 20
128.432
 11
186.932
 21
128.359
  0
LINE
  5
2AB
100
AcDbEntity
  8
0
  6
ByLayer
 62
    0
100
AcDbLine
 10
95.0309
 20
128.359
 11
94.61320000000001
 21
128.147
  0
LINE
  5
2AC
100
AcDbEntity
  8
0
  6
ByLayer
 62
    0
100
AcDbLine
 10
94.61320000000001
 20
128.147
 11
94.2813
 21
127.815
  0
LINE
  5
2AD
100
AcDbEntity
  8
0
  6
ByLayer
 62
    0
100
AcDbLine
 10
94.2813
 20
127.815
 11
94.0689
 21
127.397
  0
LINE
  5
2AE
100
AcDbEntity
  8
0
  6
ByLayer
 62
    0
100
AcDbLine
 10
94.0689
 20
127.397
 11
93.99590000000001
 21
126.933
  0
LINE
  5
2AF
100
AcDbEntity
  8
0
  6
ByLayer
 62
    0
100
AcDbLine
 10
93.99590000000001
 20
126.933
 11
94.0689
 21
126.469
  0
LINE
  5
2B0
100
AcDbEntity
  8
0
  6
ByLayer
 62
    0
100
AcDbLine
 10
94.0689
 20
126.469
 11
94.2813
 21
126.052
  0
LINE
  5
2B1
100
AcDbEntity
  8
0
  6
ByLayer
 62
    0
100
AcDbLine
 10
94.2813
 20
126.052
 11
94.61320000000001
 21
125.72
  0
LINE
  5
2B2
100
AcDbEntity
  8
0
  6
ByLayer
 62
    0
100
AcDbLine
 10
94.61320000000001
 20
125.72
 11
95.0309
 21
125.506
  0
LINE
  5
2B3
100
AcDbEntity
  8
0
  6
ByLayer
 62
    0
100
AcDbLine
 10
95.0309
 20
125.506
 11
95.4952
 21
125.432
  0
LINE
  5
2B4
100
AcDbEntity
  8
0
  6
ByLayer
 62
    0
100
AcDbLine
 10
95.4952
 20
125.432
 11
95.9584
 21
125.506
  0
LINE
  5
2B5
100
AcDbEntity
  8
0
  6
ByLayer
 62
    0
100
AcDbLine
 10
95.9584
 20
125.506
 11
96.3771
 21
125.72
  0
LINE
  5
2B6
100
AcDbEntity
  8
0
  6
ByLayer
 62
    0
100
AcDbLine
 10
96.3771
 20
125.72
 11
96.708
 21
126.052
  0
LINE
  5
2B7
100
AcDbEntity
  8
0
  6
ByLayer
 62
    0
100
AcDbLine
 10
96.708
 20
126.052
 11
96.92149999999999
 21
126.469
  0
LINE
  5
2B8
100
AcDbEntity
  8
0
  6
ByLayer
 62
    0
100
AcDbLine
 10
96.92149999999999
 20
126.469
 11
96.99590000000001
 21
126.933
  0
LINE
  5
2B9
100
AcDbEntity
  8
0
  6
ByLayer
 62
    0
100
AcDbLine
 10
96.99590000000001
 20
126.933
 11
96.92149999999999
 21
127.397
  0
LINE
  5
2BA
100
AcDbEntity
  8
0
  6
ByLayer
 62
    0
100
AcDbLine
 10
96.92149999999999
 20
127.397
 11
96.708
 21
127.815
  0
LINE
  5
2BB
100
AcDbEntity
  8
0
  6
ByLayer
 62
    0
100
AcDbLine
 10
96.708
 20
127.815
 11
96.3771
 21
128.147
  0
LINE
  5
2BC
100
AcDbEntity
  8
0
  6
ByLayer
 62
    0
100
AcDbLine
 10
96.3771
 20
128.147
 11
95.9584
 21
128.359
  0
LINE
  5
2BD
100
AcDbEntity
  8
0
  6
ByLayer
 62
    0
100
AcDbLine
 10
95.9584
 20
128.359
 11
95.4952
 21
128.432
  0
LINE
  5
2BE
100
AcDbEntity
  8
0
  6
ByLayer
 62
    0
100
AcDbLine
 10
95.4952
 20
128.432
 11
95.0309
 21
128.359
  0
ENDBLK
  5
4F
100
AcDbEntity
  8
0
100
AcDbBlockEnd
  0
BLOCK
  5
51
100
AcDbEntity
  8
0
100
AcDbBlockBegin
  2
c7c528542e24f07160729ec88e356d852b43cec6_open(1)
 70
    0
 10
0
 20
0
  3
c7c528542e24f07160729ec88e356d852b43cec6_open(1)
  1

  0
LINE
  5
2BF
100
AcDbEntity
  8
0
  6
ByLayer
 62
    0
100
AcDbLine
 10
23.4459
 20
123.432
 11
7.09553
 21
123.432
  0
LINE
  5
2C0
100
AcDbEntity
  8
0
  6
ByLayer
 62
    0
100
AcDbLine
 10
7.09553
 20
123.432
 11
7.09553
 21
7.13274
  0
LINE
  5
2C1
100
AcDbEntity
  8
0
  6
ByLayer
 62
    0
100
AcDbLine
 10
7.09553
 20
7.13274
 11
275.796
 21
7.13274
  0
LINE
  5
2C2
100
AcDbEntity
  8
0
  6
ByLayer
 62
    0
100
AcDbLine
 10
275.796
 20
7.13274
 11
275.796
 21
123.432
  0
LINE
  5
2C3
100
AcDbEntity
  8
0
  6
ByLayer
 62
    0
100
AcDbLine
 10
275.796
 20
123.432
 11
31.4454
 21
123.432
  0
LINE
  5
2C4
100
AcDbEntity
  8
0
  6
ByLayer
 62
    0
100
AcDbLine
 10
31.4454
 20
123.432
 11
31.4454
 21
130.433
  0
LINE
  5
2C5
100
AcDbEntity
  8
0
  6
ByLayer
 62
    0
100
AcDbLine
 10
31.4454
 20
130.433
 11
279.797
 21
130.433
  0
LINE
  5
2C6
100
AcDbEntity
  8
0
  6
ByLayer
 62
    0
100
AcDbLine
 10
279.797
 20
130.433
 11
280.031
 21
130.423
  0
LINE
  5
2C7
100
AcDbEntity
  8
0
  6
ByLayer
 62
    0
100
AcDbLine
 10
280.031
 20
130.423
 11
280.265
 21
130.397
  0
LINE
  5
2C8
100
AcDbEntity
  8
0
  6
ByLayer
 62
    0
100
AcDbLine
 10
280.265
 20
130.397
 11
280.497
 21
130.35
  0
LINE
  5
2C9
100
AcDbEntity
  8
0
  6
ByLayer
 62
    0
100
AcDbLine
 10
280.497
 20
130.35
 11
280.723
 21
130.286
  0
LINE
  5
2CA
100
AcDbEntity
  8
0
  6
ByLayer
 62
    0
100
AcDbLine
 10
280.723
 20
130.286
 11
280.945
 21
130.204
  0
LINE
  5
2CB
100
AcDbEntity
  8
0
  6
ByLayer
 62
    0
100
AcDbLine
 10
280.945
 20
130.204
 11
281.157
 21
130.106
  0
LINE
  5
2CC
100
AcDbEntity
  8
0
  6
ByLayer
 62
    0
100
AcDbLine
 10
281.157
 20
130.106
 11
281.364
 21
129.99
  0
LINE
  5
2CD
100
AcDbEntity
  8
0
  6
ByLayer
 62
    0
100
AcDbLine
 10
281.364
 20
129.99
 11
281.559
 21
129.861
  0
LINE
  5
2CE
100
AcDbEntity
  8
0
  6
ByLayer
 62
    0
100
AcDbLine
 10
281.559
 20
129.861
 11
281.744
 21
129.715
  0
LINE
  5
2CF
100
AcDbEntity
  8
0
  6
ByLayer
 62
    0
100
AcDbLine
 10
281.744
 20
129.715
 11
281.918
 21
129.555
  0
LINE
  5
2D0
100
AcDbEntity
  8
0
  6
ByLayer
 62
    0
100
AcDbLine
 10
281.918
 20
129.555
 11
282.078
 21
129.381
  0
LINE
  5
2D1
100
AcDbEntity
  8
0
  6
ByLayer
 62
    0
100
AcDbLine
 10
282.078
 20
129.381
 11
282.224
 21
129.197
  0
LINE
  5
2D2
100
AcDbEntity
  8
0
  6
ByLayer
 62
    0
100
AcDbLine
 10
282.224
 20
129.197
 11
282.353
 21
129.001
  0
LINE
  5
2D3
100
AcDbEntity
  8
0
  6
ByLayer
 62
    0
100
AcDbLine
 10
282.353
 20
129.001
 11
282.469
 21
128.794
  0
LINE
  5
2D4
100
AcDbEntity
  8
0
  6
ByLayer
 62
    0
100
AcDbLine
 10
282.469
 20
128.794
 11
282.568
 21
128.58
  0
LINE
  5
2D5
100
AcDbEntity
  8
0
  6
ByLayer
 62
    0
100
AcDbLine
 10
282.568
 20
128.58
 11
282.649
 21
128.36
  0
LINE
  5
2D6
100
AcDbEntity
  8
0
  6
ByLayer
 62
    0
100
AcDbLine
 10
282.649
 20
128.36
 11
282.713
 21
128.133
  0
LINE
  5
2D7
100
AcDbEntity
  8
0
  6
ByLayer
 62
    0
100
AcDbLine
 10
282.713
 20
128.133
 11
282.76
 21
127.903
  0
LINE
  5
2D8
100
AcDbEntity
  8
0
  6
ByLayer
 62
    0
100
AcDbLine
 10
282.76
 20
127.903
 11
282.786
 21
127.669
  0
LINE
  5
2D9
100
AcDbEntity
  8
0
  6
ByLayer
 62
    0
100
AcDbLine
 10
282.786
 20
127.669
 11
282.797
 21
127.433
  0
LINE
  5
2DA
100
AcDbEntity
  8
0
  6
ByLayer
 62
    0
100
AcDbLine
 10
282.797
 20
127.433
 11
282.797
 21
3.1309
  0
LINE
  5
2DB
100
AcDbEntity
  8
0
  6
ByLayer
 62
    0
100
AcDbLine
 10
282.797
 20
3.1309
 11
282.786
 21
2.89664
  0
LINE
  5
2DC
100
AcDbEntity
  8
0
  6
ByLayer
 62
    0
100
AcDbLine
 10
282.786
 20
2.89664
 11
282.76
 21
2.66237
  0
LINE
  5
2DD
100
AcDbEntity
  8
0
  6
ByLayer
 62
    0
100
AcDbLine
 10
282.76
 20
2.66237
 11
282.713
 21
2.43086
  0
LINE
  5
2DE
100
AcDbEntity
  8
0
  6
ByLayer
 62
    0
100
AcDbLine
 10
282.713
 20
2.43086
 11
282.649
 21
2.20486
  0
LINE
  5
2DF
100
AcDbEntity
  8
0
  6
ByLayer
 62
    0
100
AcDbLine
 10
282.649
 20
2.20486
 11
282.568
 21
1.983
  0
LINE
  5
2E0
100
AcDbEntity
  8
0
  6
ByLayer
 62
    0
100
AcDbLine
 10
282.568
 20
1.983
 11
282.469
 21
1.77078
  0
LINE
  5
2E1
100
AcDbEntity
  8
0
  6
ByLayer
 62
    0
100
AcDbLine
 10
282.469
 20
1.77078
 11
282.353
 21
1.56407
  0
LINE
  5
2E2
100
AcDbEntity
  8
0
  6
ByLayer
 62
    0
100
AcDbLine
 10
282.353
 20
1.56407
 11
282.224
 21
1.36839
  0
LINE
  5
2E3
100
AcDbEntity
  8
0
  6
ByLayer
 62
    0
100
AcDbLine
 10
282.224
 20
1.36839
 11
282.078
 21
1.18374
  0
LINE
  5
2E4
100
AcDbEntity
  8
0
  6
ByLayer
 62
    0
100
AcDbLine
 10
282.078
 20
1.18374
 11
281.918
 21
1.0101
  0
LINE
  5
2E5
100
AcDbEntity
  8
0
  6
ByLayer
 62
    0
100
AcDbLine
 10
281.918
 20
1.0101
 11
281.744
 21
0.850251
  0
LINE
  5
2E6
100
AcDbEntity
  8
0
  6
ByLayer
 62
    0
100
AcDbLine
 10
281.744
 20
0.850251
 11
281.559
 21
0.704176
  0
LINE
  5
2E7
100
AcDbEntity
  8
0
  6
ByLayer
 62
    0
100
AcDbLine
 10
281.559
 20
0.704176
 11
281.364
 21
0.574643
  0
LINE
  5
2E8
100
AcDbEntity
  8
0
  6
ByLayer
 62
    0
100
AcDbLine
 10
281.364
 20
0.574643
 11
281.157
 21
0.458886
  0
LINE
  5
2E9
100
AcDbEntity
  8
0
  6
ByLayer
 62
    0
100
AcDbLine
 10
281.157
 20
0.458886
 11
280.945
 21
0.359668
  0
LINE
  5
2EA
100
AcDbEntity
  8
0
  6
ByLayer
 62
    0
100
AcDbLine
 10
280.945
 20
0.359668
 11
280.723
 21
0.278364
  0
LINE
  5
2EB
100
AcDbEntity
  8
0
  6
ByLayer
 62
    0
100
AcDbLine
 10
280.723
 20
0.278364
 11
280.497
 21
0.214974
  0
LINE
  5
2EC
100
AcDbEntity
  8
0
  6
ByLayer
 62
    0
100
AcDbLine
 10
280.497
 20
0.214974
 11
280.265
 21
0.168121
  0
LINE
  5
2ED
100
AcDbEntity
  8
0
  6
ByLayer
 62
    0
100
AcDbLine
 10
280.265
 20
0.168121
 11
280.031
 21
0.141938
  0
LINE
  5
2EE
100
AcDbEntity
  8
0
  6
ByLayer
 62
    0
100
AcDbLine
 10
280.031
 20
0.141938
 11
279.797
 21
0.130914
  0
LINE
  5
2EF
100
AcDbEntity
  8
0
  6
ByLayer
 62
    0
100
AcDbLine
 10
279.797
 20
0.130914
 11
3.09507
 21
0.130914
  0
LINE
  5
2F0
100
AcDbEntity
  8
0
  6
ByLayer
 62
    0
100
AcDbLine
 10
3.09507
 20
0.130914
 11
2.85943
 21
0.141938
  0
LINE
  5
2F1
100
AcDbEntity
  8
0
  6
ByLayer
 62
    0
100
AcDbLine
 10
2.85943
 20
0.141938
 11
2.62516
 21
0.168121
  0
LINE
  5
2F2
100
AcDbEntity
  8
0
  6
ByLayer
 62
    0
100
AcDbLine
 10
2.62516
 20
0.168121
 11
2.39503
 21
0.214974
  0
LINE
  5
2F3
100
AcDbEntity
  8
0
  6
ByLayer
 62
    0
100
AcDbLine
 10
2.39503
 20
0.214974
 11
2.16765
 21
0.278364
  0
LINE
  5
2F4
100
AcDbEntity
  8
0
  6
ByLayer
 62
    0
100
AcDbLine
 10
2.16765
 20
0.278364
 11
1.94717
 21
0.359668
  0
LINE
  5
2F5
100
AcDbEntity
  8
0
  6
ByLayer
 62
    0
100
AcDbLine
 10
1.94717
 20
0.359668
 11
1.73357
 21
0.458886
  0
LINE
  5
2F6
100
AcDbEntity
  8
0
  6
ByLayer
 62
    0
100
AcDbLine
 10
1.73357
 20
0.458886
 11
1.52687
 21
0.574643
  0
LINE
  5
2F7
100
AcDbEntity
  8
0
  6
ByLayer
 62
    0
100
AcDbLine
 10
1.52687
 20
0.574643
 11
1.33119
 21
0.704176
  0
LINE
  5
2F8
100
AcDbEntity
  8
0
  6
ByLayer
 62
    0
100
AcDbLine
 10
1.33119
 20
0.704176
 11
1.14653
 21
0.850251
  0
LINE
  5
2F9
100
AcDbEntity
  8
0
  6
ByLayer
 62
    0
100
AcDbLine
 10
1.14653
 20
0.850251
 11
0.972894
 21
1.0101
  0
LINE
  5
2FA
100
AcDbEntity
  8
0
  6
ByLayer
 62
    0
100
AcDbLine
 10
0.972894
 20
1.0101
 11
0.813043
 21
1.18374
  0
LINE
  5
2FB
100
AcDbEntity
  8
0
  6
ByLayer
 62
    0
100
AcDbLine
 10
0.813043
 20
1.18374
 11
0.666972
 21
1.36839
  0
LINE
  5
2FC
100
AcDbEntity
  8
0
  6
ByLayer
 62
    0
100
AcDbLine
 10
0.666972
 20
1.36839
 11
0.537436
 21
1.56407
  0
LINE
  5
2FD
100
AcDbEntity
  8
0
  6
ByLayer
 62
    0
100
AcDbLine
 10
0.537436
 20
1.56407
 11
0.421679
 21
1.77078
  0
LINE
  5
2FE
100
AcDbEntity
  8
0
  6
ByLayer
 62
    0
100
AcDbLine
 10
0.421679
 20
1.77078
 11
0.323839
 21
1.983
  0
LINE
  5
2FF
100
AcDbEntity
  8
0
  6
ByLayer
 62
    0
100
AcDbLine
 10
0.323839
 20
1.983
 11
0.241157
 21
2.20486
  0
LINE
  5
300
100
AcDbEntity
  8
0
  6
ByLayer
 62
    0
100
AcDbLine
 10
0.241157
 20
2.20486
 11
0.177767
 21
2.43086
  0
LINE
  5
301
100
AcDbEntity
  8
0
  6
ByLayer
 62
    0
100
AcDbLine
 10
0.177767
 20
2.43086
 11
0.130914
 21
2.66237
  0
LINE
  5
302
100
AcDbEntity
  8
0
  6
ByLayer
 62
    0
100
AcDbLine
 10
0.130914
 20
2.66237
 11
0.104731
 21
2.89664
  0
LINE
  5
303
100
AcDbEntity
  8
0
  6
ByLayer
 62
    0
100
AcDbLine
 10
0.104731
 20
2.89664
 11
0.09508460000000001
 21
3.13228
  0
LINE
  5
304
100
AcDbEntity
  8
0
  6
ByLayer
 62
    0
100
AcDbLine
 10
0.09508460000000001
 20
3.13228
 11
0.09508460000000001
 21
127.433
  0
LINE
  5
305
100
AcDbEntity
  8
0
  6
ByLayer
 62
    0
100
AcDbLine
 10
0.09508460000000001
 20
127.433
 11
0.104731
 21
127.669
  0
LINE
  5
306
100
AcDbEntity
  8
0
  6
ByLayer
 62
    0
100
AcDbLine
 10
0.104731
 20
127.669
 11
0.130914
 21
127.903
  0
LINE
  5
307
100
AcDbEntity
  8
0
  6
ByLayer
 62
    0
100
AcDbLine
 10
0.130914
 20
127.903
 11
0.177767
 21
128.133
  0
LINE
  5
308
100
AcDbEntity
  8
0
  6
ByLayer
 62
    0
100
AcDbLine
 10
0.177767
 20
128.133
 11
0.241157
 21
128.36
  0
LINE
  5
309
100
AcDbEntity
  8
0
  6
ByLayer
 62
    0
100
AcDbLine
 10
0.241157
 20
128.36
 11
0.323839
 21
128.58
  0
LINE
  5
30A
100
AcDbEntity
  8
0
  6
ByLayer
 62
    0
100
AcDbLine
 10
0.323839
 20
128.58
 11
0.421679
 21
128.794
  0
LINE
  5
30B
100
AcDbEntity
  8
0
  6
ByLayer
 62
    0
100
AcDbLine
 10
0.421679
 20
128.794
 11
0.537436
 21
129.001
  0
LINE
  5
30C
100
AcDbEntity
  8
0
  6
ByLayer
 62
    0
100
AcDbLine
 10
0.537436
 20
129.001
 11
0.666972
 21
129.197
  0
LINE
  5
30D
100
AcDbEntity
  8
0
  6
ByLayer
 62
    0
100
AcDbLine
 10
0.666972
 20
129.197
 11
0.813043
 21
129.381
  0
LINE
  5
30E
100
AcDbEntity
  8
0
  6
ByLayer
 62
    0
100
AcDbLine
 10
0.813043
 20
129.381
 11
0.972894
 21
129.555
  0
LINE
  5
30F
100
AcDbEntity
  8
0
  6
ByLayer
 62
    0
100
AcDbLine
 10
0.972894
 20
129.555
 11
1.14653
 21
129.715
  0
LINE
  5
310
100
AcDbEntity
  8
0
  6
ByLayer
 62
    0
100
AcDbLine
 10
1.14653
 20
129.715
 11
1.33119
 21
129.861
  0
LINE
  5
311
100
AcDbEntity
  8
0
  6
ByLayer
 62
    0
100
AcDbLine
 10
1.33119
 20
129.861
 11
1.52687
 21
129.99
  0
LINE
  5
312
100
AcDbEntity
  8
0
  6
ByLayer
 62
    0
100
AcDbLine
 10
1.52687
 20
129.99
 11
1.73357
 21
130.106
  0
LINE
  5
313
100
AcDbEntity
  8
0
  6
ByLayer
 62
    0
100
AcDbLine
 10
1.73357
 20
130.106
 11
1.94717
 21
130.204
  0
LINE
  5
314
100
AcDbEntity
  8
0
  6
ByLayer
 62
    0
100
AcDbLine
 10
1.94717
 20
130.204
 11
2.16765
 21
130.286
  0
LINE
  5
315
100
AcDbEntity
  8
0
  6
ByLayer
 62
    0
100
AcDbLine
 10
2.16765
 20
130.286
 11
2.39503
 21
130.35
  0
LINE
  5
316
100
AcDbEntity
  8
0
  6
ByLayer
 62
    0
100
AcDbLine
 10
2.39503
 20
130.35
 11
2.62516
 21
130.397
  0
LINE
  5
317
100
AcDbEntity
  8
0
  6
ByLayer
 62
    0
100
AcDbLine
 10
2.62516
 20
130.397
 11
2.85943
 21
130.423
  0
LINE
  5
318
100
AcDbEntity
  8
0
  6
ByLayer
 62
    0
100
AcDbLine
 10
2.85943
 20
130.423
 11
3.09507
 21
130.433
  0
LINE
  5
319
100
AcDbEntity
  8
0
  6
ByLayer
 62
    0
100
AcDbLine
 10
3.09507
 20
130.433
 11
23.4459
 21
130.433
  0
LINE
  5
31A
100
AcDbEntity
  8
0
  6
ByLayer
 62
    0
100
AcDbLine
 10
23.4459
 20
130.433
 11
23.4459
 21
123.432
  0
LINE
  5
31B
100
AcDbEntity
  8
0
  6
ByLayer
 62
    0
100
AcDbLine
 10
3.1309
 20
5.05876
 11
2.71336
 21
4.84657
  0
LINE
  5
31C
100
AcDbEntity
  8
0
  6
ByLayer
 62
    0
100
AcDbLine
 10
2.71336
 20
4.84657
 11
2.38125
 21
4.51309
  0
LINE
  5
31D
100
AcDbEntity
  8
0
  6
ByLayer
 62
    0
100
AcDbLine
 10
2.38125
 20
4.51309
 11
2.16903
 21
4.09554
  0
LINE
  5
31E
100
AcDbEntity
  8
0
  6
ByLayer
 62
    0
100
AcDbLine
 10
2.16903
 20
4.09554
 11
2.09462
 21
3.63114
  0
LINE
  5
31F
100
AcDbEntity
  8
0
  6
ByLayer
 62
    0
100
AcDbLine
 10
2.09462
 20
3.63114
 11
2.16903
 21
3.16811
  0
LINE
  5
320
100
AcDbEntity
  8
0
  6
ByLayer
 62
    0
100
AcDbLine
 10
2.16903
 20
3.16811
 11
2.38125
 21
2.75057
  0
LINE
  5
321
100
AcDbEntity
  8
0
  6
ByLayer
 62
    0
100
AcDbLine
 10
2.38125
 20
2.75057
 11
2.71336
 21
2.41846
  0
LINE
  5
322
100
AcDbEntity
  8
0
  6
ByLayer
 62
    0
100
AcDbLine
 10
2.71336
 20
2.41846
 11
3.1309
 21
2.20486
  0
LINE
  5
323
100
AcDbEntity
  8
0
  6
ByLayer
 62
    0
100
AcDbLine
 10
3.1309
 20
2.20486
 11
3.59392
 21
2.13183
  0
LINE
  5
324
100
AcDbEntity
  8
0
  6
ByLayer
 62
    0
100
AcDbLine
 10
3.59392
 20
2.13183
 11
4.05832
 21
2.20486
  0
LINE
  5
325
100
AcDbEntity
  8
0
  6
ByLayer
 62
    0
100
AcDbLine
 10
4.05832
 20
2.20486
 11
4.47587
 21
2.41846
  0
LINE
  5
326
100
AcDbEntity
  8
0
  6
ByLayer
 62
    0
100
AcDbLine
 10
4.47587
 20
2.41846
 11
4.80797
 21
2.75057
  0
LINE
  5
327
100
AcDbEntity
  8
0
  6
ByLayer
 62
    0
100
AcDbLine
 10
4.80797
 20
2.75057
 11
5.02158
 21
3.16811
  0
LINE
  5
328
100
AcDbEntity
  8
0
  6
ByLayer
 62
    0
100
AcDbLine
 10
5.02158
 20
3.16811
 11
5.0946
 21
3.63114
  0
LINE
  5
329
100
AcDbEntity
  8
0
  6
ByLayer
 62
    0
100
AcDbLine
 10
5.0946
 20
3.63114
 11
5.02158
 21
4.09554
  0
LINE
  5
32A
100
AcDbEntity
  8
0
  6
ByLayer
 62
    0
100
AcDbLine
 10
5.02158
 20
4.09554
 11
4.80797
 21
4.51309
  0
LINE
  5
32B
100
AcDbEntity
  8
0
  6
ByLayer
 62
    0
100
AcDbLine
 10
4.80797
 20
4.51309
 11
4.47587
 21
4.84657
  0
LINE
  5
32C
100
AcDbEntity
  8
0
  6
ByLayer
 62
    0
100
AcDbLine
 10
4.47587
 20
4.84657
 11
4.05832
 21
5.05876
  0
LINE
  5
32D
100
AcDbEntity
  8
0
  6
ByLayer
 62
    0
100
AcDbLine
 10
4.05832
 20
5.05876
 11
3.59392
 21
5.13182
  0
LINE
  5
32E
100
AcDbEntity
  8
0
  6
ByLayer
 62
    0
100
AcDbLine
 10
3.59392
 20
5.13182
 11
3.1309
 21
5.05876
  0
LINE
  5
32F
100
AcDbEntity
  8
0
  6
ByLayer
 62
    0
100
AcDbLine
 10
95.0309
 20
5.05876
 11
94.61320000000001
 21
4.84657
  0
LINE
  5
330
100
AcDbEntity
  8
0
  6
ByLayer
 62
    0
100
AcDbLine
 10
94.61320000000001
 20
4.84657
 11
94.2813
 21
4.51309
  0
LINE
  5
331
100
AcDbEntity
  8
0
  6
ByLayer
 62
    0
100
AcDbLine
 10
94.2813
 20
4.51309
 11
94.0689
 21
4.09554
  0
LINE
  5
332
100
AcDbEntity
  8
0
  6
ByLayer
 62
    0
100
AcDbLine
 10
94.0689
 20
4.09554
 11
93.99590000000001
 21
3.63114
  0
LINE
  5
333
100
AcDbEntity
  8
0
  6
ByLayer
 62
    0
100
AcDbLine
 10
93.99590000000001
 20
3.63114
 11
94.0689
 21
3.16811
  0
LINE
  5
334
100
AcDbEntity
  8
0
  6
ByLayer
 62
    0
100
AcDbLine
 10
94.0689
 20
3.16811
 11
94.2813
 21
2.75057
  0
LINE
  5
335
100
AcDbEntity
  8
0
  6
ByLayer
 62
    0
100
AcDbLine
 10
94.2813
 20
2.75057
 11
94.61320000000001
 21
2.41846
  0
LINE
  5
336
100
AcDbEntity
  8
0
  6
ByLayer
 62
    0
100
AcDbLine
 10
94.61320000000001
 20
2.41846
 11
95.0309
 21
2.20486
  0
LINE
  5
337
100
AcDbEntity
  8
0
  6
ByLayer
 62
    0
100
AcDbLine
 10
95.0309
 20
2.20486
 11
95.4952
 21
2.13183
  0
LINE
  5
338
100
AcDbEntity
  8
0
  6
ByLayer
 62
    0
100
AcDbLine
 10
95.4952
 20
2.13183
 11
95.9584
 21
2.20486
  0
LINE
  5
339
100
AcDbEntity
  8
0
  6
ByLayer
 62
    0
100
AcDbLine
 10
95.9584
 20
2.20486
 11
96.3771
 21
2.41846
  0
LINE
  5
33A
100
AcDbEntity
  8
0
  6
ByLayer
 62
    0
100
AcDbLine
 10
96.3771
 20
2.41846
 11
96.708
 21
2.75057
  0
LINE
  5
33B
100
AcDbEntity
  8
0
  6
ByLayer
 62
    0
100
AcDbLine
 10
96.708
 20
2.75057
 11
96.92149999999999
 21
3.16811
  0
LINE
  5
33C
100
AcDbEntity
  8
0
  6
ByLayer
 62
    0
100
AcDbLine
 10
96.92149999999999
 20
3.16811
 11
96.99590000000001
 21
3.63114
  0
LINE
  5
33D
100
AcDbEntity
  8
0
  6
ByLayer
 62
    0
100
AcDbLine
 10
96.99590000000001
 20
3.63114
 11
96.92149999999999
 21
4.09554
  0
LINE
  5
33E
100
AcDbEntity
  8
0
  6
ByLayer
 62
    0
100
AcDbLine
 10
96.92149999999999
 20
4.09554
 11
96.708
 21
4.51309
  0
LINE
  5
33F
100
AcDbEntity
  8
0
  6
ByLayer
 62
    0
100
AcDbLine
 10
96.708
 20
4.51309
 11
96.3771
 21
4.84657
  0
LINE
  5
340
100
AcDbEntity
  8
0
  6
ByLayer
 62
    0
100
AcDbLine
 10
96.3771
 20
4.84657
 11
95.9584
 21
5.05876
  0
LINE
  5
341
100
AcDbEntity
  8
0
  6
ByLayer
 62
    0
100
AcDbLine
 10
95.9584
 20
5.05876
 11
95.4952
 21
5.13182
  0
LINE
  5
342
100
AcDbEntity
  8
0
  6
ByLayer
 62
    0
100
AcDbLine
 10
95.4952
 20
5.13182
 11
95.0309
 21
5.05876
  0
LINE
  5
343
100
AcDbEntity
  8
0
  6
ByLayer
 62
    0
100
AcDbLine
 10
186.932
 20
5.05876
 11
186.513
 21
4.84657
  0
LINE
  5
344
100
AcDbEntity
  8
0
  6
ByLayer
 62
    0
100
AcDbLine
 10
186.513
 20
4.84657
 11
186.183
 21
4.51309
  0
LINE
  5
345
100
AcDbEntity
  8
0
  6
ByLayer
 62
    0
100
AcDbLine
 10
186.183
 20
4.51309
 11
185.969
 21
4.09554
  0
LINE
  5
346
100
AcDbEntity
  8
0
  6
ByLayer
 62
    0
100
AcDbLine
 10
185.969
 20
4.09554
 11
185.896
 21
3.63114
  0
LINE
  5
347
100
AcDbEntity
  8
0
  6
ByLayer
 62
    0
100
AcDbLine
 10
185.896
 20
3.63114
 11
185.969
 21
3.16811
  0
LINE
  5
348
100
AcDbEntity
  8
0
  6
ByLayer
 62
    0
100
AcDbLine
 10
185.969
 20
3.16811
 11
186.183
 21
2.75057
  0
LINE
  5
349
100
AcDbEntity
  8
0
  6
ByLayer
 62
    0
100
AcDbLine
 10
186.183
 20
2.75057
 11
186.513
 21
2.41846
  0
LINE
  5
34A
100
AcDbEntity
  8
0
  6
ByLayer
 62
    0
100
AcDbLine
 10
186.513
 20
2.41846
 11
186.932
 21
2.20486
  0
LINE
  5
34B
100
AcDbEntity
  8
0
  6
ByLayer
 62
    0
100
AcDbLine
 10
186.932
 20
2.20486
 11
187.395
 21
2.13183
  0
LINE
  5
34C
100
AcDbEntity
  8
0
  6
ByLayer
 62
    0
100
AcDbLine
 10
187.395
 20
2.13183
 11
187.86
 21
2.20486
  0
LINE
  5
34D
100
AcDbEntity
  8
0
  6
ByLayer
 62
    0
100
AcDbLine
 10
187.86
 20
2.20486
 11
188.277
 21
2.41846
  0
LINE
  5
34E
100
AcDbEntity
  8
0
  6
ByLayer
 62
    0
100
AcDbLine
 10
188.277
 20
2.41846
 11
188.609
 21
2.75057
  0
LINE
  5
34F
100
AcDbEntity
  8
0
  6
ByLayer
 62
    0
100
AcDbLine
 10
188.609
 20
2.75057
 11
188.823
 21
3.16811
  0
LINE
  5
350
100
AcDbEntity
  8
0
  6
ByLayer
 62
    0
100
AcDbLine
 10
188.823
 20
3.16811
 11
188.896
 21
3.63114
  0
LINE
  5
351
100
AcDbEntity
  8
0
  6
ByLayer
 62
    0
100
AcDbLine
 10
188.896
 20
3.63114
 11
188.823
 21
4.09554
  0
LINE
  5
352
100
AcDbEntity
  8
0
  6
ByLayer
 62
    0
100
AcDbLine
 10
188.823
 20
4.09554
 11
188.609
 21
4.51309
  0
LINE
  5
353
100
AcDbEntity
  8
0
  6
ByLayer
 62
    0
100
AcDbLine
 10
188.609
 20
4.51309
 11
188.277
 21
4.84657
  0
LINE
  5
354
100
AcDbEntity
  8
0
  6
ByLayer
 62
    0
100
AcDbLine
 10
188.277
 20
4.84657
 11
187.86
 21
5.05876
  0
LINE
  5
355
100
AcDbEntity
  8
0
  6
ByLayer
 62
    0
100
AcDbLine
 10
187.86
 20
5.05876
 11
187.395
 21
5.13182
  0
LINE
  5
356
100
AcDbEntity
  8
0
  6
ByLayer
 62
    0
100
AcDbLine
 10
187.395
 20
5.13182
 11
186.932
 21
5.05876
  0
LINE
  5
357
100
AcDbEntity
  8
0
  6
ByLayer
 62
    0
100
AcDbLine
 10
278.832
 20
5.05876
 11
278.415
 21
4.84657
  0
LINE
  5
358
100
AcDbEntity
  8
0
  6
ByLayer
 62
    0
100
AcDbLine
 10
278.415
 20
4.84657
 11
278.083
 21
4.51309
  0
LINE
  5
359
100
AcDbEntity
  8
0
  6
ByLayer
 62
    0
100
AcDbLine
 10
278.083
 20
4.51309
 11
277.869
 21
4.09554
  0
LINE
  5
35A
100
AcDbEntity
  8
0
  6
ByLayer
 62
    0
100
AcDbLine
 10
277.869
 20
4.09554
 11
277.796
 21
3.63114
  0
LINE
  5
35B
100
AcDbEntity
  8
0
  6
ByLayer
 62
    0
100
AcDbLine
 10
277.796
 20
3.63114
 11
277.869
 21
3.16811
  0
LINE
  5
35C
100
AcDbEntity
  8
0
  6
ByLayer
 62
    0
100
AcDbLine
 10
277.869
 20
3.16811
 11
278.083
 21
2.75057
  0
LINE
  5
35D
100
AcDbEntity
  8
0
  6
ByLayer
 62
    0
100
AcDbLine
 10
278.083
 20
2.75057
 11
278.415
 21
2.41846
  0
LINE
  5
35E
100
AcDbEntity
  8
0
  6
ByLayer
 62
    0
100
AcDbLine
 10
278.415
 20
2.41846
 11
278.832
 21
2.20486
  0
LINE
  5
35F
100
AcDbEntity
  8
0
  6
ByLayer
 62
    0
100
AcDbLine
 10
278.832
 20
2.20486
 11
279.297
 21
2.13183
  0
LINE
  5
360
100
AcDbEntity
  8
0
  6
ByLayer
 62
    0
100
AcDbLine
 10
279.297
 20
2.13183
 11
279.76
 21
2.20486
  0
LINE
  5
361
100
AcDbEntity
  8
0
  6
ByLayer
 62
    0
100
AcDbLine
 10
279.76
 20
2.20486
 11
280.177
 21
2.41846
  0
LINE
  5
362
100
AcDbEntity
  8
0
  6
ByLayer
 62
    0
100
AcDbLine
 10
280.177
 20
2.41846
 11
280.509
 21
2.75057
  0
LINE
  5
363
100
AcDbEntity
  8
0
  6
ByLayer
 62
    0
100
AcDbLine
 10
280.509
 20
2.75057
 11
280.723
 21
3.16811
  0
LINE
  5
364
100
AcDbEntity
  8
0
  6
ByLayer
 62
    0
100
AcDbLine
 10
280.723
 20
3.16811
 11
280.796
 21
3.63114
  0
LINE
  5
365
100
AcDbEntity
  8
0
  6
ByLayer
 62
    0
100
AcDbLine
 10
280.796
 20
3.63114
 11
280.723
 21
4.09554
  0
LINE
  5
366
100
AcDbEntity
  8
0
  6
ByLayer
 62
    0
100
AcDbLine
 10
280.723
 20
4.09554
 11
280.509
 21
4.51309
  0
LINE
  5
367
100
AcDbEntity
  8
0
  6
ByLayer
 62
    0
100
AcDbLine
 10
280.509
 20
4.51309
 11
280.177
 21
4.84657
  0
LINE
  5
368
100
AcDbEntity
  8
0
  6
ByLayer
 62
    0
100
AcDbLine
 10
280.177
 20
4.84657
 11
279.76
 21
5.05876
  0
LINE
  5
369
100
AcDbEntity
  8
0
  6
ByLayer
 62
    0
100
AcDbLine
 10
279.76
 20
5.05876
 11
279.297
 21
5.13182
  0
LINE
  5
36A
100
AcDbEntity
  8
0
  6
ByLayer
 62
    0
100
AcDbLine
 10
279.297
 20
5.13182
 11
278.832
 21
5.05876
  0
LINE
  5
36B
100
AcDbEntity
  8
0
  6
ByLayer
 62
    0
100
AcDbLine
 10
3.1309
 20
128.359
 11
2.71336
 21
128.147
  0
LINE
  5
36C
100
AcDbEntity
  8
0
  6
ByLayer
 62
    0
100
AcDbLine
 10
2.71336
 20
128.147
 11
2.38125
 21
127.815
  0
LINE
  5
36D
100
AcDbEntity
  8
0
  6
ByLayer
 62
    0
100
AcDbLine
 10
2.38125
 20
127.815
 11
2.16903
 21
127.397
  0
LINE
  5
36E
100
AcDbEntity
  8
0
  6
ByLayer
 62
    0
100
AcDbLine
 10
2.16903
 20
127.397
 11
2.09462
 21
126.933
  0
LINE
  5
36F
100
AcDbEntity
  8
0
  6
ByLayer
 62
    0
100
AcDbLine
 10
2.09462
 20
126.933
 11
2.16903
 21
126.469
  0
LINE
  5
370
100
AcDbEntity
  8
0
  6
ByLayer
 62
    0
100
AcDbLine
 10
2.16903
 20
126.469
 11
2.38125
 21
126.052
  0
LINE
  5
371
100
AcDbEntity
  8
0
  6
ByLayer
 62
    0
100
AcDbLine
 10
2.38125
 20
126.052
 11
2.71336
 21
125.72
  0
LINE
  5
372
100
AcDbEntity
  8
0
  6
ByLayer
 62
    0
100
AcDbLine
 10
2.71336
 20
125.72
 11
3.1309
 21
125.506
  0
LINE
  5
373
100
AcDbEntity
  8
0
  6
ByLayer
 62
    0
100
AcDbLine
 10
3.1309
 20
125.506
 11
3.59392
 21
125.432
  0
LINE
  5
374
100
AcDbEntity
  8
0
  6
ByLayer
 62
    0
100
AcDbLine
 10
3.59392
 20
125.432
 11
4.05832
 21
125.506
  0
LINE
  5
375
100
AcDbEntity
  8
0
  6
ByLayer
 62
    0
100
AcDbLine
 10
4.05832
 20
125.506
 11
4.47587
 21
125.72
  0
LINE
  5
376
100
AcDbEntity
  8
0
  6
ByLayer
 62
    0
100
AcDbLine
 10
4.47587
 20
125.72
 11
4.80797
 21
126.052
  0
LINE
  5
377
100
AcDbEntity
  8
0
  6
ByLayer
 62
    0
100
AcDbLine
 10
4.80797
 20
126.052
 11
5.02158
 21
126.469
  0
LINE
  5
378
100
AcDbEntity
  8
0
  6
ByLayer
 62
    0
100
AcDbLine
 10
5.02158
 20
126.469
 11
5.0946
 21
126.933
  0
LINE
  5
379
100
AcDbEntity
  8
0
  6
ByLayer
 62
    0
100
AcDbLine
 10
5.0946
 20
126.933
 11
5.02158
 21
127.397
  0
LINE
  5
37A
100
AcDbEntity
  8
0
  6
ByLayer
 62
    0
100
AcDbLine
 10
5.02158
 20
127.397
 11
4.80797
 21
127.815
  0
LINE
  5
37B
100
AcDbEntity
  8
0
  6
ByLayer
 62
    0
100
AcDbLine
 10
4.80797
 20
127.815
 11
4.47587
 21
128.147
  0
LINE
  5
37C
100
AcDbEntity
  8
0
  6
ByLayer
 62
    0
100
AcDbLine
 10
4.47587
 20
128.147
 11
4.05832
 21
128.359
  0
LINE
  5
37D
100
AcDbEntity
  8
0
  6
ByLayer
 62
    0
100
AcDbLine
 10
4.05832
 20
128.359
 11
3.59392
 21
128.432
  0
LINE
  5
37E
100
AcDbEntity
  8
0
  6
ByLayer
 62
    0
100
AcDbLine
 10
3.59392
 20
128.432
 11
3.1309
 21
128.359
  0
LINE
  5
37F
100
AcDbEntity
  8
0
  6
ByLayer
 62
    0
100
AcDbLine
 10
278.832
 20
128.359
 11
278.415
 21
128.147
  0
LINE
  5
380
100
AcDbEntity
  8
0
  6
ByLayer
 62
    0
100
AcDbLine
 10
278.415
 20
128.147
 11
278.083
 21
127.815
  0
LINE
  5
381
100
AcDbEntity
  8
0
  6
ByLayer
 62
    0
100
AcDbLine
 10
278.083
 20
127.815
 11
277.869
 21
127.397
  0
LINE
  5
382
100
AcDbEntity
  8
0
  6
ByLayer
 62
    0
100
AcDbLine
 10
277.869
 20
127.397
 11
277.796
 21
126.933
  0
LINE
  5
383
100
AcDbEntity
  8
0
  6
ByLayer
 62
    0
100
AcDbLine
 10
277.796
 20
126.933
 11
277.869
 21
126.469
  0
LINE
  5
384
100
AcDbEntity
  8
0
  6
ByLayer
 62
    0
100
AcDbLine
 10
277.869
 20
126.469
 11
278.083
 21
126.052
  0
LINE
  5
385
100
AcDbEntity
  8
0
  6
ByLayer
 62
    0
100
AcDbLine
 10
278.083
 20
126.052
 11
278.415
 21
125.72
  0
LINE
  5
386
100
AcDbEntity
  8
0
  6
ByLayer
 62
    0
100
AcDbLine
 10
278.415
 20
125.72
 11
278.832
 21
125.506
  0
LINE
  5
387
100
AcDbEntity
  8
0
  6
ByLayer
 62
    0
100
AcDbLine
 10
278.832
 20
125.506
 11
279.297
 21
125.432
  0
LINE
  5
388
100
AcDbEntity
  8
0
  6
ByLayer
 62
    0
100
AcDbLine
 10
279.297
 20
125.432
 11
279.76
 21
125.506
  0
LINE
  5
389
100
AcDbEntity
  8
0
  6
ByLayer
 62
    0
100
AcDbLine
 10
279.76
 20
125.506
 11
280.177
 21
125.72
  0
LINE
  5
38A
100
AcDbEntity
  8
0
  6
ByLayer
 62
    0
100
AcDbLine
 10
280.177
 20
125.72
 11
280.509
 21
126.052
  0
LINE
  5
38B
100
AcDbEntity
  8
0
  6
ByLayer
 62
    0
100
AcDbLine
 10
280.509
 20
126.052
 11
280.723
 21
126.469
  0
LINE
  5
38C
100
AcDbEntity
  8
0
  6
ByLayer
 62
    0
100
AcDbLine
 10
280.723
 20
126.469
 11
280.796
 21
126.933
  0
LINE
  5
38D
100
AcDbEntity
  8
0
  6
ByLayer
 62
    0
100
AcDbLine
 10
280.796
 20
126.933
 11
280.723
 21
127.397
  0
LINE
  5
38E
100
AcDbEntity
  8
0
  6
ByLayer
 62
    0
100
AcDbLine
 10
280.723
 20
127.397
 11
280.509
 21
127.815
  0
LINE
  5
38F
100
AcDbEntity
  8
0
  6
ByLayer
 62
    0
100
AcDbLine
 10
280.509
 20
127.815
 11
280.177
 21
128.147
  0
LINE
  5
390
100
AcDbEntity
  8
0
  6
ByLayer
 62
    0
100
AcDbLine
 10
280.177
 20
128.147
 11
279.76
 21
128.359
  0
LINE
  5
391
100
AcDbEntity
  8
0
  6
ByLayer
 62
    0
100
AcDbLine
 10
279.76
 20
128.359
 11
279.297
 21
128.432
  0
LINE
  5
392
100
AcDbEntity
  8
0
  6
ByLayer
 62
    0
100
AcDbLine
 10
279.297
 20
128.432
 11
278.832
 21
128.359
  0
LINE
  5
393
100
AcDbEntity
  8
0
  6
ByLayer
 62
    0
100
AcDbLine
 10
186.932
 20
128.359
 11
186.513
 21
128.147
  0
LINE
  5
394
100
AcDbEntity
  8
0
  6
ByLayer
 62
    0
100
AcDbLine
 10
186.513
 20
128.147
 11
186.183
 21
127.815
  0
LINE
  5
395
100
AcDbEntity
  8
0
  6
ByLayer
 62
    0
100
AcDbLine
 10
186.183
 20
127.815
 11
185.969
 21
127.397
  0
LINE
  5
396
100
AcDbEntity
  8
0
  6
ByLayer
 62
    0
100
AcDbLine
 10
185.969
 20
127.397
 11
185.896
 21
126.933
  0
LINE
  5
397
100
AcDbEntity
  8
0
  6
ByLayer
 62
    0
100
AcDbLine
 10
185.896
 20
126.933
 11
185.969
 21
126.469
  0
LINE
  5
398
100
AcDbEntity
  8
0
  6
ByLayer
 62
    0
100
AcDbLine
 10
185.969
 20
126.469
 11
186.183
 21
126.052
  0
LINE
  5
399
100
AcDbEntity
  8
0
  6
ByLayer
 62
    0
100
AcDbLine
 10
186.183
 20
126.052
 11
186.513
 21
125.72
  0
LINE
  5
39A
100
AcDbEntity
  8
0
  6
ByLayer
 62
    0
100
AcDbLine
 10
186.513
 20
125.72
 11
186.932
 21
125.506
  0
LINE
  5
39B
100
AcDbEntity
  8
0
  6
ByLayer
 62
    0
100
AcDbLine
 10
186.932
 20
125.506
 11
187.395
 21
125.432
  0
LINE
  5
39C
100
AcDbEntity
  8
0
  6
ByLayer
 62
    0
100
AcDbLine
 10
187.395
 20
125.432
 11
187.86
 21
125.506
  0
LINE
  5
39D
100
AcDbEntity
  8
0
  6
ByLayer
 62
    0
100
AcDbLine
 10
187.86
 20
125.506
 11
188.277
 21
125.72
  0
LINE
  5
39E
100
AcDbEntity
  8
0
  6
ByLayer
 62
    0
100
AcDbLine
 10
188.277
 20
125.72
 11
188.609
 21
126.052
  0
LINE
  5
39F
100
AcDbEntity
  8
0
  6
ByLayer
 62
    0
100
AcDbLine
 10
188.609
 20
126.052
 11
188.823
 21
126.469
  0
LINE
  5
3A0
100
AcDbEntity
  8
0
  6
ByLayer
 62
    0
100
AcDbLine
 10
188.823
 20
126.469
 11
188.896
 21
126.933
  0
LINE
  5
3A1
100
AcDbEntity
  8
0
  6
ByLayer
 62
    0
100
AcDbLine
 10
188.896
 20
126.933
 11
188.823
 21
127.397
  0
LINE
  5
3A2
100
AcDbEntity
  8
0
  6
ByLayer
 62
    0
100
AcDbLine
 10
188.823
 20
127.397
 11
188.609
 21
127.815
  0
LINE
  5
3A3
100
AcDbEntity
  8
0
  6
ByLayer
 62
    0
100
AcDbLine
 10
188.609
 20
127.815
 11
188.277
 21
128.147
  0
LINE
  5
3A4
100
AcDbEntity
  8
0
  6
ByLayer
 62
    0
100
AcDbLine
 10
188.277
 20
128.147
 11
187.86
 21
128.359
  0
LINE
  5
3A5
100
AcDbEntity
  8
0
  6
ByLayer
 62
    0
100
AcDbLine
 10
187.86
 20
128.359
 11
187.395
 21
128.432
  0
LINE
  5
3A6
100
AcDbEntity
  8
0
  6
ByLayer
 62
    0
100
AcDbLine
 10
187.395
 20
128.432
 11
186.932
 21
128.359
  0
LINE
  5
3A7
100
AcDbEntity
  8
0
  6
ByLayer
 62
    0
100
AcDbLine
 10
95.0309
 20
128.359
 11
94.61320000000001
 21
128.147
  0
LINE
  5
3A8
100
AcDbEntity
  8
0
  6
ByLayer
 62
    0
100
AcDbLine
 10
94.61320000000001
 20
128.147
 11
94.2813
 21
127.815
  0
LINE
  5
3A9
100
AcDbEntity
  8
0
  6
ByLayer
 62
    0
100
AcDbLine
 10
94.2813
 20
127.815
 11
94.0689
 21
127.397
  0
LINE
  5
3AA
100
AcDbEntity
  8
0
  6
ByLayer
 62
    0
100
AcDbLine
 10
94.0689
 20
127.397
 11
93.99590000000001
 21
126.933
  0
LINE
  5
3AB
100
AcDbEntity
  8
0
  6
ByLayer
 62
    0
100
AcDbLine
 10
93.99590000000001
 20
126.933
 11
94.0689
 21
126.469
  0
LINE
  5
3AC
100
AcDbEntity
  8
0
  6
ByLayer
 62
    0
100
AcDbLine
 10
94.0689
 20
126.469
 11
94.2813
 21
126.052
  0
LINE
  5
3AD
100
AcDbEntity
  8
0
  6
ByLayer
 62
    0
100
AcDbLine
 10
94.2813
 20
126.052
 11
94.61320000000001
 21
125.72
  0
LINE
  5
3AE
100
AcDbEntity
  8
0
  6
ByLayer
 62
    0
100
AcDbLine
 10
94.61320000000001
 20
125.72
 11
95.0309
 21
125.506
  0
LINE
  5
3AF
100
AcDbEntity
  8
0
  6
ByLayer
 62
    0
100
AcDbLine
 10
95.0309
 20
125.506
 11
95.4952
 21
125.432
  0
LINE
  5
3B0
100
AcDbEntity
  8
0
  6
ByLayer
 62
    0
100
AcDbLine
 10
95.4952
 20
125.432
 11
95.9584
 21
125.506
  0
LINE
  5
3B1
100
AcDbEntity
  8
0
  6
ByLayer
 62
    0
100
AcDbLine
 10
95.9584
 20
125.506
 11
96.3771
 21
125.72
  0
LINE
  5
3B2
100
AcDbEntity
  8
0
  6
ByLayer
 62
    0
100
AcDbLine
 10
96.3771
 20
125.72
 11
96.708
 21
126.052
  0
LINE
  5
3B3
100
AcDbEntity
  8
0
  6
ByLayer
 62
    0
100
AcDbLine
 10
96.708
 20
126.052
 11
96.92149999999999
 21
126.469
  0
LINE
  5
3B4
100
AcDbEntity
  8
0
  6
ByLayer
 62
    0
100
AcDbLine
 10
96.92149999999999
 20
126.469
 11
96.99590000000001
 21
126.933
  0
LINE
  5
3B5
100
AcDbEntity
  8
0
  6
ByLayer
 62
    0
100
AcDbLine
 10
96.99590000000001
 20
126.933
 11
96.92149999999999
 21
127.397
  0
LINE
  5
3B6
100
AcDbEntity
  8
0
  6
ByLayer
 62
    0
100
AcDbLine
 10
96.92149999999999
 20
127.397
 11
96.708
 21
127.815
  0
LINE
  5
3B7
100
AcDbEntity
  8
0
  6
ByLayer
 62
    0
100
AcDbLine
 10
96.708
 20
127.815
 11
96.3771
 21
128.147
  0
LINE
  5
3B8
100
AcDbEntity
  8
0
  6
ByLayer
 62
    0
100
AcDbLine
 10
96.3771
 20
128.147
 11
95.9584
 21
128.359
  0
LINE
  5
3B9
100
AcDbEntity
  8
0
  6
ByLayer
 62
    0
100
AcDbLine
 10
95.9584
 20
128.359
 11
95.4952
 21
128.432
  0
LINE
  5
3BA
100
AcDbEntity
  8
0
  6
ByLayer
 62
    0
100
AcDbLine
 10
95.4952
 20
128.432
 11
95.0309
 21
128.359
  0
ENDBLK
  5
52
100
AcDbEntity
  8
0
100
AcDbBlockEnd
  0
ENDSEC
  0
SECTION
  2
ENTITIES
  0
LINE
  5
3BB
100
AcDbEntity
  8
0
  6
ByLayer
 62
  256
100
AcDbLine
 10
0
 20
0
 11
1.081168211599162e-015
 21
17.6574
  0
LINE
  5
3BC
100
AcDbEntity
  8
0
  6
ByLayer
 62
  256
100
AcDbLine
 10
1.081168211599162e-015
 20
17.6574
 11
17.6196
 21
17.6574
  0
CIRCLE
  5
3BD
100
AcDbEntity
  8
0
  6
ByLayer
 62
  256
100
AcDbCircle
 10
17.63578643762689
 20
112.8857864376269
 40
2
  0
CIRCLE
  5
3BE
100
AcDbEntity
  8
0
  6
ByLayer
 62
  256
100
AcDbCircle
 10
36.68583643762689
 20
112.8857864376269
 40
2
  0
CIRCLE
  5
3BF
100
AcDbEntity
  8
0
  6
ByLayer
 62
  256
100
AcDbCircle
 10
55.7358364376269
 20
112.8857864376269
 40
2
  0
CIRCLE
  5
3C0
100
AcDbEntity
  8
0
  6
ByLayer
 62
  256
100
AcDbCircle
 10
74.7858364376269
 20
112.8857864376269
 40
2
  0
CIRCLE
  5
3C1
100
AcDbEntity
  8
0
  6
ByLayer
 62
  256
100
AcDbCircle
 10
93.8358364376269
 20
112.8857864376269
 40
2
  0
CIRCLE
  5
3C2
100
AcDbEntity
  8
0
  6
ByLayer
 62
  256
100
AcDbCircle
 10
112.8844364376269
 20
112.8857864376269
 40
2
  0
CIRCLE
  5
3C3
100
AcDbEntity
  8
0
  6
ByLayer
 62
  256
100
AcDbCircle
 10
131.9341364376269
 20
112.8857864376269
 40
2
  0
CIRCLE
  5
3C4
100
AcDbEntity
  8
0
  6
ByLayer
 62
  256
100
AcDbCircle
 10
150.9861364376269
 20
112.8857864376269
 40
2
  0
CIRCLE
  5
3C5
100
AcDbEntity
  8
0
  6
ByLayer
 62
  256
100
AcDbCircle
 10
170.0361364376269
 20
112.8857864376269
 40
2
  0
CIRCLE
  5
3C6
100
AcDbEntity
  8
0
  6
ByLayer
 62
  256
100
AcDbCircle
 10
189.0861364376269
 20
112.8857864376269
 40
2
  0
CIRCLE
  5
3C7
100
AcDbEntity
  8
0
  6
ByLayer
 62
  256
100
AcDbCircle
 10
208.1361364376269
 20
112.8857864376269
 40
2
  0
CIRCLE
  5
3C8
100
AcDbEntity
  8
0
  6
ByLayer
 62
  256
100
AcDbCircle
 10
227.1861364376269
 20
112.8857864376269
 40
2
  0
CIRCLE
  5
3C9
100
AcDbEntity
  8
0
  6
ByLayer
 62
  256
100
AcDbCircle
 10
246.2361364376269
 20
112.8857864376269
 40
2
  0
CIRCLE
  5
3CA
100
AcDbEntity
  8
0
  6
ByLayer
 62
  256
100
AcDbCircle
 10
265.2861364376269
 20
112.8857864376269
 40
2
  0
CIRCLE
  5
3CB
100
AcDbEntity
  8
0
  6
ByLayer
 62
  256
100
AcDbCircle
 10
17.63578643762689
 20
93.83578643762689
 40
2
  0
CIRCLE
  5
3CC
100
AcDbEntity
  8
0
  6
ByLayer
 62
  256
100
AcDbCircle
 10
36.68583643762689
 20
93.83578643762689
 40
2
  0
CIRCLE
  5
3CD
100
AcDbEntity
  8
0
  6
ByLayer
 62
  256
100
AcDbCircle
 10
55.7358364376269
 20
93.83578643762689
 40
2
  0
CIRCLE
  5
3CE
100
AcDbEntity
  8
0
  6
ByLayer
 62
  256
100
AcDbCircle
 10
74.7858364376269
 20
93.83578643762689
 40
2
  0
CIRCLE
  5
3CF
100
AcDbEntity
  8
0
  6
ByLayer
 62
  256
100
AcDbCircle
 10
93.8358364376269
 20
93.83578643762689
 40
2
  0
CIRCLE
  5
3D0
100
AcDbEntity
  8
0
  6
ByLayer
 62
  256
100
AcDbCircle
 10
112.8844364376269
 20
93.83578643762689
 40
2
  0
CIRCLE
  5
3D1
100
AcDbEntity
  8
0
  6
ByLayer
 62
  256
100
AcDbCircle
 10
131.9341364376269
 20
93.83578643762689
 40
2
  0
CIRCLE
  5
3D2
100
AcDbEntity
  8
0
  6
ByLayer
 62
  256
100
AcDbCircle
 10
150.9861364376269
 20
93.83578643762689
 40
2
  0
CIRCLE
  5
3D3
100
AcDbEntity
  8
0
  6
ByLayer
 62
  256
100
AcDbCircle
 10
170.0361364376269
 20
93.83578643762689
 40
2
  0
CIRCLE
  5
3D4
100
AcDbEntity
  8
0
  6
ByLayer
 62
  256
100
AcDbCircle
 10
189.0861364376269
 20
93.83578643762689
 40
2
  0
CIRCLE
  5
3D5
100
AcDbEntity
  8
0
  6
ByLayer
 62
  256
100
AcDbCircle
 10
208.1361364376269
 20
93.83578643762689
 40
2
  0
CIRCLE
  5
3D6
100
AcDbEntity
  8
0
  6
ByLayer
 62
  256
100
AcDbCircle
 10
227.1861364376269
 20
93.83578643762689
 40
2
  0
CIRCLE
  5
3D7
100
AcDbEntity
  8
0
  6
ByLayer
 62
  256
100
AcDbCircle
 10
246.2361364376269
 20
93.83578643762689
 40
2
  0
CIRCLE
  5
3D8
100
AcDbEntity
  8
0
  6
ByLayer
 62
  256
100
AcDbCircle
 10
265.2861364376269
 20
93.83578643762689
 40
2
  0
CIRCLE
  5
3D9
100
AcDbEntity
  8
0
  6
ByLayer
 62
  256
100
AcDbCircle
 10
17.63578643762689
 20
74.7857864376269
 40
2
  0
CIRCLE
  5
3DA
100
AcDbEntity
  8
0
  6
ByLayer
 62
  256
100
AcDbCircle
 10
36.68583643762689
 20
74.7857864376269
 40
2
  0
CIRCLE
  5
3DB
100
AcDbEntity
  8
0
  6
ByLayer
 62
  256
100
AcDbCircle
 10
55.7358364376269
 20
74.7857864376269
 40
2
  0
CIRCLE
  5
3DC
100
AcDbEntity
  8
0
  6
ByLayer
 62
  256
100
AcDbCircle
 10
74.7858364376269
 20
74.7857864376269
 40
2
  0
CIRCLE
  5
3DD
100
AcDbEntity
  8
0
  6
ByLayer
 62
  256
100
AcDbCircle
 10
93.8358364376269
 20
74.7857864376269
 40
2
  0
CIRCLE
  5
3DE
100
AcDbEntity
  8
0
  6
ByLayer
 62
  256
100
AcDbCircle
 10
112.8844364376269
 20
74.7857864376269
 40
2
  0
CIRCLE
  5
3DF
100
AcDbEntity
  8
0
  6
ByLayer
 62
  256
100
AcDbCircle
 10
131.9341364376269
 20
74.7857864376269
 40
2
  0
CIRCLE
  5
3E0
100
AcDbEntity
  8
0
  6
ByLayer
 62
  256
100
AcDbCircle
 10
150.9861364376269
 20
74.7857864376269
 40
2
  0
CIRCLE
  5
3E1
100
AcDbEntity
  8
0
  6
ByLayer
 62
  256
100
AcDbCircle
 10
170.0361364376269
 20
74.7857864376269
 40
2
  0
CIRCLE
  5
3E2
100
AcDbEntity
  8
0
  6
ByLayer
 62
  256
100
AcDbCircle
 10
189.0861364376269
 20
74.7857864376269
 40
2
  0
CIRCLE
  5
3E3
100
AcDbEntity
  8
0
  6
ByLayer
 62
  256
100
AcDbCircle
 10
208.1361364376269
 20
74.7857864376269
 40
2
  0
CIRCLE
  5
3E4
100
AcDbEntity
  8
0
  6
ByLayer
 62
  256
100
AcDbCircle
 10
227.1861364376269
 20
74.7857864376269
 40
2
  0
CIRCLE
  5
3E5
100
AcDbEntity
  8
0
  6
ByLayer
 62
  256
100
AcDbCircle
 10
246.2361364376269
 20
74.7857864376269
 40
2
  0
CIRCLE
  5
3E6
100
AcDbEntity
  8
0
  6
ByLayer
 62
  256
100
AcDbCircle
 10
265.2861364376269
 20
74.7857864376269
 40
2
  0
CIRCLE
  5
3E7
100
AcDbEntity
  8
0
  6
ByLayer
 62
  256
100
AcDbCircle
 10
17.63578643762689
 20
55.73578643762689
 40
2
  0
CIRCLE
  5
3E8
100
AcDbEntity
  8
0
  6
ByLayer
 62
  256
100
AcDbCircle
 10
36.68583643762689
 20
55.73578643762689
 40
2
  0
CIRCLE
  5
3E9
100
AcDbEntity
  8
0
  6
ByLayer
 62
  256
100
AcDbCircle
 10
55.7358364376269
 20
55.73578643762689
 40
2
  0
CIRCLE
  5
3EA
100
AcDbEntity
  8
0
  6
ByLayer
 62
  256
100
AcDbCircle
 10
74.7858364376269
 20
55.73578643762689
 40
2
  0
CIRCLE
  5
3EB
100
AcDbEntity
  8
0
  6
ByLayer
 62
  256
100
AcDbCircle
 10
93.8358364376269
 20
55.73578643762689
 40
2
  0
CIRCLE
  5
3EC
100
AcDbEntity
  8
0
  6
ByLayer
 62
  256
100
AcDbCircle
 10
112.8844364376269
 20
55.73578643762689
 40
2
  0
CIRCLE
  5
3ED
100
AcDbEntity
  8
0
  6
ByLayer
 62
  256
100
AcDbCircle
 10
131.9341364376269
 20
55.73578643762689
 40
2
  0
CIRCLE
  5
3EE
100
AcDbEntity
  8
0
  6
ByLayer
 62
  256
100
AcDbCircle
 10
150.9861364376269
 20
55.73578643762689
 40
2
  0
CIRCLE
  5
3EF
100
AcDbEntity
  8
0
  6
ByLayer
 62
  256
100
AcDbCircle
 10
170.0361364376269
 20
55.73578643762689
 40
2
  0
CIRCLE
  5
3F0
100
AcDbEntity
  8
0
  6
ByLayer
 62
  256
100
AcDbCircle
 10
189.0861364376269
 20
55.73578643762689
 40
2
  0
CIRCLE
  5
3F1
100
AcDbEntity
  8
0
  6
ByLayer
 62
  256
100
AcDbCircle
 10
208.1361364376269
 20
55.73578643762689
 40
2
  0
CIRCLE
  5
3F2
100
AcDbEntity
  8
0
  6
ByLayer
 62
  256
100
AcDbCircle
 10
227.1861364376269
 20
55.73578643762689
 40
2
  0
CIRCLE
  5
3F3
100
AcDbEntity
  8
0
  6
ByLayer
 62
  256
100
AcDbCircle
 10
17.63578643762689
 20
36.6855864376269
 40
2
  0
CIRCLE
  5
3F4
100
AcDbEntity
  8
0
  6
ByLayer
 62
  256
100
AcDbCircle
 10
36.68583643762689
 20
36.6855864376269
 40
2
  0
CIRCLE
  5
3F5
100
AcDbEntity
  8
0
  6
ByLayer
 62
  256
100
AcDbCircle
 10
55.7358364376269
 20
36.6855864376269
 40
2
  0
CIRCLE
  5
3F6
100
AcDbEntity
  8
0
  6
ByLayer
 62
  256
100
AcDbCircle
 10
255.7611364376269
 20
55.73578643762689
 40
2
  0
CIRCLE
  5
3F7
100
AcDbEntity
  8
0
  6
ByLayer
 62
  256
100
AcDbCircle
 10
74.7858364376269
 20
36.6855864376269
 40
2
  0
CIRCLE
  5
3F8
100
AcDbEntity
  8
0
  6
ByLayer
 62
  256
100
AcDbCircle
 10
93.8358364376269
 20
36.6855864376269
 40
2
  0
CIRCLE
  5
3F9
100
AcDbEntity
  8
0
  6
ByLayer
 62
  256
100
AcDbCircle
 10
112.8844364376269
 20
36.6855864376269
 40
2
  0
CIRCLE
  5
3FA
100
AcDbEntity
  8
0
  6
ByLayer
 62
  256
100
AcDbCircle
 10
131.9341364376269
 20
36.6855864376269
 40
2
  0
CIRCLE
  5
3FB
100
AcDbEntity
  8
0
  6
ByLayer
 62
  256
100
AcDbCircle
 10
150.9861364376269
 20
36.6855864376269
 40
2
  0
CIRCLE
  5
3FC
100
AcDbEntity
  8
0
  6
ByLayer
 62
  256
100
AcDbCircle
 10
170.0361364376269
 20
36.6855864376269
 40
2
  0
CIRCLE
  5
3FD
100
AcDbEntity
  8
0
  6
ByLayer
 62
  256
100
AcDbCircle
 10
189.0861364376269
 20
36.6855864376269
 40
2
  0
CIRCLE
  5
3FE
100
AcDbEntity
  8
0
  6
ByLayer
 62
  256
100
AcDbCircle
 10
208.1361364376269
 20
36.6855864376269
 40
2
  0
CIRCLE
  5
3FF
100
AcDbEntity
  8
0
  6
ByLayer
 62
  256
100
AcDbCircle
 10
227.1861364376268
 20
36.6855864376269
 40
2
  0
CIRCLE
  5
400
100
AcDbEntity
  8
0
  6
ByLayer
 62
  256
100
AcDbCircle
 10
246.2361364376269
 20
36.6855864376269
 40
2
  0
CIRCLE
  5
401
100
AcDbEntity
  8
0
  6
ByLayer
 62
  256
100
AcDbCircle
 10
265.2861364376269
 20
36.6855864376269
 40
2
  0
CIRCLE
  5
402
100
AcDbEntity
  8
0
  6
ByLayer
 62
  256
100
AcDbCircle
 10
17.63578643762689
 20
17.63562643762688
 40
2
  0
CIRCLE
  5
403
100
AcDbEntity
  8
0
  6
ByLayer
 62
  256
100
AcDbCircle
 10
36.68583643762689
 20
17.63562643762688
 40
2
  0
CIRCLE
  5
404
100
AcDbEntity
  8
0
  6
ByLayer
 62
  256
100
AcDbCircle
 10
55.7358364376269
 20
17.63562643762688
 40
2
  0
CIRCLE
  5
405
100
AcDbEntity
  8
0
  6
ByLayer
 62
  256
100
AcDbCircle
 10
189.0861364376269
 20
17.63562643762688
 40
2
  0
CIRCLE
  5
406
100
AcDbEntity
  8
0
  6
ByLayer
 62
  256
100
AcDbCircle
 10
208.1361364376269
 20
17.63562643762688
 40
2
  0
CIRCLE
  5
407
100
AcDbEntity
  8
0
  6
ByLayer
 62
  256
100
AcDbCircle
 10
227.1861364376269
 20
17.63562643762688
 40
2
  0
CIRCLE
  5
408
100
AcDbEntity
  8
0
  6
ByLayer
 62
  256
100
AcDbCircle
 10
246.2361364376269
 20
17.63562643762688
 40
2
  0
CIRCLE
  5
409
100
AcDbEntity
  8
0
  6
ByLayer
 62
  256
100
AcDbCircle
 10
265.2861364376269
 20
17.63562643762688
 40
2
  0
LINE
  5
40A
100
AcDbEntity
  8
0
  6
ByLayer
 62
  256
100
AcDbLine
 10
32.16081143762689
 20
123.8857864376269
 11
22.16081143762689
 21
123.8857864376269
  0
LINE
  5
40B
100
AcDbEntity
  8
0
  6
ByLayer
 62
  256
100
AcDbLine
 10
22.16081143762689
 20
123.8857864376269
 11
22.16081143762689
 21
121.8857864376269
  0
LINE
  5
40C
100
AcDbEntity
  8
0
  6
ByLayer
 62
  256
100
AcDbLine
 10
32.16081143762689
 20
123.8857864376269
 11
32.16081143762689
 21
121.8857864376269
  0
ARC
  5
40D
100
AcDbEntity
  8
0
  6
ByLayer
 62
  256
100
AcDbCircle
 10
10.63578643762689
 20
119.8857864376269
 40
2
100
AcDbArc
 50
90
 51
180
  0
ARC
  5
40E
100
AcDbEntity
  8
0
  6
ByLayer
 62
  256
100
AcDbCircle
 10
272.2861364376269
 20
119.8857864376269
 40
2
100
AcDbArc
 50
0
 51
90.00000000000163
  0
LINE
  5
40F
100
AcDbEntity
  8
0
  6
ByLayer
 62
  256
100
AcDbLine
 10
274.2861364376269
 20
119.8857864376269
 11
274.2861364376269
 21
10.63562643762689
  0
ARC
  5
410
100
AcDbEntity
  8
0
  6
ByLayer
 62
  256
100
AcDbCircle
 10
272.2861364376269
 20
10.63562643762688
 40
2
100
AcDbArc
 50
270
 51
2.035554996136651e-013
  0
LINE
  5
411
100
AcDbEntity
  8
0
  6
ByLayer
 62
  256
100
AcDbLine
 10
272.2861364376269
 20
8.635626437626884
 11
10.63578643762697
 21
8.635626437626884
  0
LINE
  5
412
100
AcDbEntity
  8
0
  6
ByLayer
 62
  256
100
AcDbLine
 10
8.635786437626894
 20
10.63562643762688
 11
8.635786437626894
 21
119.8857864376269
  0
ARC
  5
413
100
AcDbEntity
  8
0
  6
ByLayer
 62
  256
100
AcDbCircle
 10
10.63578643762689
 20
10.63562643762688
 40
2
100
AcDbArc
 50
180
 51
270.0000000000022
  0
LINE
  5
414
100
AcDbEntity
  8
0
  6
ByLayer
 62
  256
100
AcDbLine
 10
10.63578643762689
 20
121.8857864376269
 11
22.16081143762689
 21
121.8857864376269
  0
LINE
  5
415
100
AcDbEntity
  8
0
  6
ByLayer
 62
  256
100
AcDbLine
 10
32.16081143762689
 20
121.8857864376269
 11
272.2861364376269
 21
121.8857864376269
  0
CIRCLE
  5
416
100
AcDbEntity
  8
0
  6
ByLayer
 62
  256
100
AcDbCircle
 10
131.9341364376269
 20
17.63562643762688
 40
2
  0
ENDSEC
  0
SECTION
  2
OBJECTS
  0
DICTIONARY
  5
C
100
AcDbDictionary
281
    1
  3
ACAD_GROUP
350
D
  0
DICTIONARY
  5
D
330
C
100
AcDbDictionary
281
    1
  0
ENDSEC
  0
EOF
