999
dxfrw 0.6.3
  0
SECTION
  2
HEADER
  9
$ACADVER
  1
AC1009
  9
$DWGCODEPAGE
  3
ANSI_1252
  9
$INSBASE
 10
0
 20
0
 30
0
  9
$EXTMIN
 10
0
 20
0
 30
0
  9
$EXTMAX
 10
274.2861364376269
 20
123.8857864376269
 30
0
  9
$LIMMIN
 10
0
 20
0
  9
$LIMMAX
 10
420
 20
297
  9
$ORTHOMODE
 70
    0
  9
$REGENMODE
 70
    1
  9
$FILLMODE
 70
    0
  9
$QTEXTMODE
 70
    0
  9
$MIRRTEXT
 70
    0
  9
$DRAGMODE
 70
    2
  9
$LTSCALE
 40
1
  9
$OSMODE
 70
    0
  9
$ATTMODE
 70
    0
  9
$TEXTSIZE
 40
2.5
  9
$TRACEWID
 40
15.68
  9
$TEXTSTYLE
  7
STANDARD
  9
$CLAYER
  8
0
  9
$CELTYPE
  6
BYLAYER
  9
$CECOLOR
 62
  256
  9
$DIMSCALE
 40
2.5
  9
$DIMASZ
 40
2.5
  9
$DIMEXO
 40
0.625
  9
$DIMDLI
 40
3.75
  9
$DIMRND
 40
0
  9
$DIMDLE
 40
0
  9
$DIMEXE
 40
1.25
  9
$DIMTP
 40
0
  9
$DIMTM
 40
0
  9
$DIMTXT
 40
2.5
  9
$DIMCEN
 40
2.5
  9
$DIMTSZ
 40
0
  9
$DIMTOL
 70
    0
  9
$DIMLIM
 70
    0
  9
$DIMTIH
 70
    0
  9
$DIMTOH
 70
    0
  9
$DIMSE1
 70
    0
  9
$DIMSE2
 70
    0
  9
$DIMTAD
 70
    1
  9
$DIMZIN
 70
    8
  9
$DIMBLK
  1

  9
$DIMASO
 70
    1
  9
$DIMSHO
 70
    1
  9
$DIMPOST
  1

  9
$DIMAPOST
  1

  9
$DIMALT
 70
    0
  9
$DIMALTD
 70
    3
  9
$DIMALTF
 40
0.03937
  9
$DIMLFAC
 40
1
  9
$DIMTOFL
 70
    1
  9
$DIMTVP
 40
0
  9
$DIMTIX
 70
    0
  9
$DIMSOXD
 70
    0
  9
$DIMSAH
 70
    0
  9
$DIMBLK1
  1

  9
$DIMBLK2
  1

  9
$DIMSTYLE
  2
STANDARD
  9
$DIMCLRD
 70
    0
  9
$DIMCLRE
 70
    0
  9
$DIMCLRT
 70
    0
  9
$DIMTFAC
 40
1
  9
$DIMGAP
 40
0.625
  9
$LUNITS
 70
    2
  9
$LUPREC
 70
    4
  9
$SKETCHINC
 40
1
  9
$FILLETRAD
 40
0
  9
$AUNITS
 70
    0
  9
$AUPREC
 70
    2
  9
$MENU
  1
.
  9
$ELEVATION
 40
0
  9
$PELEVATION
 40
0
  9
$THICKNESS
 40
0
  9
$LIMCHECK
 70
    0
  9
$BLIPMODE
 70
    0
  9
$CHAMFERA
 40
0
  9
$CHAMFERB
 40
0
  9
$SKPOLY
 70
    0
  9
$USRTIMER
 70
    1
  9
$ANGBASE
 50
0
  9
$ANGDIR
 70
    0
  9
$PDMODE
 70
   34
  9
$PDSIZE
 40
0
  9
$PLINEWID
 40
0
  9
$COORDS
 70
    2
  9
$SPLFRAME
 70
    1
  9
$SPLINETYPE
 70
    2
  9
$SPLINESEGS
 70
    8
  9
$ATTDIA
 70
    1
  9
$ATTREQ
 70
    1
  9
$HANDLING
 70
    1
  9
$HANDSEED
  5
20000
  9
$SURFTAB1
 70
    6
  9
$SURFTAB2
 70
    6
  9
$SURFTYPE
 70
    6
  9
$SURFU
 70
    6
  9
$SURFV
 70
    6
  9
$UCSNAME
  2

  9
$UCSORG
 10
0
 20
0
 30
0
  9
$UCSXDIR
 10
1
 20
0
 30
0
  9
$UCSYDIR
 10
0
 20
1
 30
0
  9
$PUCSNAME
  2

  9
$PUCSORG
 10
0
 20
0
 30
0
  9
$PUCSXDIR
 10
1
 20
0
 30
0
  9
$PUCSYDIR
 10
0
 20
1
 30
0
  9
$USERI1
 70
    0
  9
$USERI2
 70
    0
  9
$USERI3
 70
    0
  9
$USERI4
 70
    0
  9
$USERI5
 70
    0
  9
$USERR1
 40
0
  9
$USERR2
 40
0
  9
$USERR3
 40
0
  9
$USERR4
 40
0
  9
$USERR5
 40
0
  9
$WORLDVIEW
 70
    1
  9
$SHADEDGE
 70
    3
  9
$SHADEDIF
 70
   70
  9
$TILEMODE
 70
    1
  9
$MAXACTVP
 70
   64
  9
$PLIMCHECK
 70
    0
  9
$PEXTMIN
 10
0
 20
0
 30
0
  9
$PEXTMAX
 10
0
 20
0
 30
0
  9
$GRIDMODE
 70
    1
  9
$SNAPSTYLE
 70
    0
  9
$PLIMMIN
 10
0
 20
0
  9
$PLIMMAX
 10
10.9999997597041
 20
8.49999975970411
  9
$UNITMODE
 70
    0
  9
$VISRETAIN
 70
    1
  9
$PLINEGEN
 70
    0
  9
$PSLTSCALE
 70
    1
  0
ENDSEC
  0
SECTION
  2
TABLES
  0
TABLE
  2
VPORT
 70
    1
  0
VPORT
  2
*ACTIVE
 70
    0
 10
0
 20
0
 11
1
 21
1
 12
180.6288478452092
 22
101.0334212840823
 13
0
 23
0
 14
10
 24
10
 15
10
 25
10
 16
0
 26
0
 36
1
 17
0
 27
0
 37
0
 40
254.3975373790713
 41
1.928262748487467
 42
50
 43
0
 44
0
 50
0
 51
0
 71
    0
 72
  100
 73
    1
 74
    3
 75
    0
 76
    1
 77
    0
 78
    0
  0
ENDTAB
  0
TABLE
  2
LTYPE
 70
    4
  0
LTYPE
  2
BYBLOCK
 70
    0
  3

 72
   65
 73
    0
 40
0
  0
LTYPE
  2
BYLAYER
 70
    0
  3

 72
   65
 73
    0
 40
0
  0
LTYPE
  2
CONTINUOUS
 70
    0
  3
Solid line
 72
   65
 73
    0
 40
0
  0
LTYPE
  2
DOT
 70
    0
  3
Dot . . . . . . . . . . . . . . . . . . . . . .
 72
   65
 73
    2
 40
6.35
 49
0
 49
-6.35
  0
LTYPE
  2
DOTTINY
 70
    0
  3
Dot (.15x) .....................................
 72
   65
 73
    2
 40
0.9525
 49
0
 49
-0.9525
  0
LTYPE
  2
DOT2
 70
    0
  3
Dot (.5x) .....................................
 72
   65
 73
    2
 40
3.175
 49
0
 49
-3.175
  0
LTYPE
  2
DOTX2
 70
    0
  3
Dot (2x) .  .  .  .  .  .  .  .  .  .  .  .  .
 72
   65
 73
    2
 40
12.7
 49
0
 49
-12.7
  0
LTYPE
  2
DASHED
 70
    0
  3
Dashed _ _ _ _ _ _ _ _ _ _ _ _ _ _ _ _ _
 72
   65
 73
    2
 40
19.05
 49
12.7
 49
-6.35
  0
LTYPE
  2
DASHEDTINY
 70
    0
  3
Dashed (.15x) _ _ _ _ _ _ _ _ _ _ _ _ _ _ _ _ _
 72
   65
 73
    2
 40
2.8575
 49
1.905
 49
-0.9525
  0
LTYPE
  2
DASHED2
 70
    0
  3
Dashed (.5x) _ _ _ _ _ _ _ _ _ _ _ _ _ _ _ _ _
 72
   65
 73
    2
 40
9.524999999999999
 49
6.35
 49
-3.175
  0
LTYPE
  2
DASHEDX2
 70
    0
  3
Dashed (2x) ____  ____  ____  ____  ____  ___
 72
   65
 73
    2
 40
38.09999999999999
 49
25.4
 49
-12.7
  0
LTYPE
  2
DASHDOT
 70
    0
  3
Dash dot __ . __ . __ . __ . __ . __ . __ . __
 72
   65
 73
    4
 40
25.4
 49
12.7
 49
-6.35
 49
0
 49
-6.35
  0
LTYPE
  2
DASHDOTTINY
 70
    0
  3
Dash dot (.15x) _._._._._._._._._._._._._._._.
 72
   65
 73
    4
 40
3.81
 49
1.905
 49
-0.9525
 49
0
 49
-0.9525
  0
LTYPE
  2
DASHDOT2
 70
    0
  3
Dash dot (.5x) _._._._._._._._._._._._._._._.
 72
   65
 73
    4
 40
12.7
 49
6.35
 49
-3.175
 49
0
 49
-3.175
  0
LTYPE
  2
DASHDOTX2
 70
    0
  3
Dash dot (2x) ____  .  ____  .  ____  .  ___
 72
   65
 73
    4
 40
50.8
 49
25.4
 49
-12.7
 49
0
 49
-12.7
  0
LTYPE
  2
DIVIDE
 70
    0
  3
Divide ____ . . ____ . . ____ . . ____ . . ____
 72
   65
 73
    6
 40
31.75
 49
12.7
 49
-6.35
 49
0
 49
-6.35
 49
0
 49
-6.35
  0
LTYPE
  2
DIVIDETINY
 70
    0
  3
Divide (.15x) __..__..__..__..__..__..__..__.._
 72
   65
 73
    6
 40
4.7625
 49
1.905
 49
-0.9525
 49
0
 49
-0.9525
 49
0
 49
-0.9525
  0
LTYPE
  2
DIVIDE2
 70
    0
  3
Divide (.5x) __..__..__..__..__..__..__..__.._
 72
   65
 73
    6
 40
15.875
 49
6.35
 49
-3.175
 49
0
 49
-3.175
 49
0
 49
-3.175
  0
LTYPE
  2
DIVIDEX2
 70
    0
  3
Divide (2x) ________  .  .  ________  .  .  _
 72
   65
 73
    6
 40
63.5
 49
25.4
 49
-12.7
 49
0
 49
-12.7
 49
0
 49
-12.7
  0
LTYPE
  2
BORDER
 70
    0
  3
Border __ __ . __ __ . __ __ . __ __ . __ __ .
 72
   65
 73
    6
 40
44.45
 49
12.7
 49
-6.35
 49
12.7
 49
-6.35
 49
0
 49
-6.35
  0
LTYPE
  2
BORDERTINY
 70
    0
  3
Border (.15x) __.__.__.__.__.__.__.__.__.__.__.
 72
   65
 73
    6
 40
6.6675
 49
1.905
 49
-0.9525
 49
1.905
 49
-0.9525
 49
0
 49
-0.9525
  0
LTYPE
  2
BORDER2
 70
    0
  3
Border (.5x) __.__.__.__.__.__.__.__.__.__.__.
 72
   65
 73
    6
 40
22.225
 49
6.35
 49
-3.175
 49
6.35
 49
-3.175
 49
0
 49
-3.175
  0
LTYPE
  2
BORDERX2
 70
    0
  3
Border (2x) ____  ____  .  ____  ____  .  ___
 72
   65
 73
    6
 40
88.89999999999999
 49
25.4
 49
-12.7
 49
25.4
 49
-12.7
 49
0
 49
-12.7
  0
LTYPE
  2
CENTER
 70
    0
  3
Center ____ _ ____ _ ____ _ ____ _ ____ _ ____
 72
   65
 73
    4
 40
50.8
 49
31.75
 49
-6.35
 49
6.35
 49
-6.35
  0
LTYPE
  2
CENTERTINY
 70
    0
  3
Center (.15x) ___ _ ___ _ ___ _ ___ _ ___ _ ___
 72
   65
 73
    4
 40
7.62
 49
4.7625
 49
-0.9525
 49
0.9525
 49
-0.9525
  0
LTYPE
  2
CENTER2
 70
    0
  3
Center (.5x) ___ _ ___ _ ___ _ ___ _ ___ _ ___
 72
   65
 73
    4
 40
28.575
 49
19.05
 49
-3.175
 49
3.175
 49
-3.175
  0
LTYPE
  2
CENTERX2
 70
    0
  3
Center (2x) ________  __  ________  __  _____
 72
   65
 73
    4
 40
101.6
 49
63.5
 49
-12.7
 49
12.7
 49
-12.7
  0
ENDTAB
  0
TABLE
  2
LAYER
 70
    1
  0
LAYER
  2
0
 70
    0
 62
    7
  6
CONTINUOUS
  0
ENDTAB
  0
TABLE
  2
STYLE
 70
    3
  0
STYLE
  2
STANDARD
 70
    0
 40
0
 41
1
 50
0
 71
    0
 42
1
  3
TXT
  4

  0
ENDTAB
  0
TABLE
  2
VIEW
 70
    0
  0
ENDTAB
  0
TABLE
  2
UCS
 70
    0
  0
ENDTAB
  0
TABLE
  2
APPID
 70
    1
  0
APPID
  2
ACAD
 70
    0
  0
APPID
  2
LIBRECAD
 70
    0
  0
ENDTAB
  0
TABLE
  2
DIMSTYLE
 70
    1
  0
DIMSTYLE
  2
STANDARD
 70
    0
  3

  4

  5

  6

  7

 40
2.5
 41
2.5
 42
0.625
 43
0.38
 44
1.25
 45
0
 46
0
 47
0
 48
0
 49
1
140
2.5
141
0.09
142
0
143
25.4
144
1
145
0
146
1
147
0.625
 71
    0
 72
    0
 73
    0
 74
    1
 75
    0
 76
    0
 77
    0
 78
    8
170
    0
171
    2
172
    0
173
    0
174
    0
175
    0
176
    0
177
    0
178
    0
  0
ENDTAB
  0
ENDSEC
  0
SECTION
  2
BLOCKS
  0
BLOCK
  8
0
  2
$MODEL_SPACE
 70
    0
 10
0
 20
0
 30
0
  3
$MODEL_SPACE
  1

  0
ENDBLK
  8
0
  0
BLOCK
  8
0
  2
$PAPER_SPACE
 70
    0
 10
0
 20
0
 30
0
  3
$PAPER_SPACE
  1

  0
ENDBLK
  8
0
  0
BLOCK
  8
0
  2
C7C528542E24F07160729EC88E356D852B43CEC6_SWITCH
 70
    0
 10
0
 20
0
  3
C7C528542E24F07160729EC88E356D852B43CEC6_SWITCH
  1

  0
LINE
  5
31
  8
0
  6
BYLAYER
 62
    0
 10
279.797
 20
130.433
 11
280.031
 21
130.423
  0
LINE
  5
32
  8
0
  6
BYLAYER
 62
    0
 10
280.031
 20
130.423
 11
280.265
 21
130.397
  0
LINE
  5
33
  8
0
  6
BYLAYER
 62
    0
 10
280.265
 20
130.397
 11
280.497
 21
130.35
  0
LINE
  5
34
  8
0
  6
BYLAYER
 62
    0
 10
280.497
 20
130.35
 11
280.723
 21
130.286
  0
LINE
  5
35
  8
0
  6
BYLAYER
 62
    0
 10
280.723
 20
130.286
 11
280.945
 21
130.204
  0
LINE
  5
36
  8
0
  6
BYLAYER
 62
    0
 10
280.945
 20
130.204
 11
281.157
 21
130.106
  0
LINE
  5
37
  8
0
  6
BYLAYER
 62
    0
 10
281.157
 20
130.106
 11
281.364
 21
129.99
  0
LINE
  5
38
  8
0
  6
BYLAYER
 62
    0
 10
281.364
 20
129.99
 11
281.559
 21
129.861
  0
LINE
  5
39
  8
0
  6
BYLAYER
 62
    0
 10
281.559
 20
129.861
 11
281.744
 21
129.715
  0
LINE
  5
3A
  8
0
  6
BYLAYER
 62
    0
 10
281.744
 20
129.715
 11
281.918
 21
129.555
  0
LINE
  5
3B
  8
0
  6
BYLAYER
 62
    0
 10
281.918
 20
129.555
 11
282.078
 21
129.381
  0
LINE
  5
3C
  8
0
  6
BYLAYER
 62
    0
 10
282.078
 20
129.381
 11
282.224
 21
129.197
  0
LINE
  5
3D
  8
0
  6
BYLAYER
 62
    0
 10
282.224
 20
129.197
 11
282.353
 21
129.001
  0
LINE
  5
3E
  8
0
  6
BYLAYER
 62
    0
 10
282.353
 20
129.001
 11
282.469
 21
128.794
  0
LINE
  5
3F
  8
0
  6
BYLAYER
 62
    0
 10
282.469
 20
128.794
 11
282.568
 21
128.58
  0
LINE
  5
40
  8
0
  6
BYLAYER
 62
    0
 10
282.568
 20
128.58
 11
282.649
 21
128.36
  0
LINE
  5
41
  8
0
  6
BYLAYER
 62
    0
 10
282.649
 20
128.36
 11
282.713
 21
128.133
  0
LINE
  5
42
  8
0
  6
BYLAYER
 62
    0
 10
282.713
 20
128.133
 11
282.76
 21
127.903
  0
LINE
  5
43
  8
0
  6
BYLAYER
 62
    0
 10
282.76
 20
127.903
 11
282.786
 21
127.669
  0
LINE
  5
44
  8
0
  6
BYLAYER
 62
    0
 10
282.786
 20
127.669
 11
282.797
 21
127.433
  0
LINE
  5
45
  8
0
  6
BYLAYER
 62
    0
 10
282.797
 20
127.433
 11
282.797
 21
3.1309
  0
LINE
  5
46
  8
0
  6
BYLAYER
 62
    0
 10
282.797
 20
3.1309
 11
282.786
 21
2.89664
  0
LINE
  5
47
  8
0
  6
BYLAYER
 62
    0
 10
282.786
 20
2.89664
 11
282.76
 21
2.66237
  0
LINE
  5
48
  8
0
  6
BYLAYER
 62
    0
 10
282.76
 20
2.66237
 11
282.713
 21
2.43086
  0
LINE
  5
49
  8
0
  6
BYLAYER
 62
    0
 10
282.713
 20
2.43086
 11
282.649
 21
2.20486
  0
LINE
  5
4A
  8
0
  6
BYLAYER
 62
    0
 10
282.649
 20
2.20486
 11
282.568
 21
1.983
  0
LINE
  5
4B
  8
0
  6
BYLAYER
 62
    0
 10
282.568
 20
1.983
 11
282.469
 21
1.77078
  0
LINE
  5
4C
  8
0
  6
BYLAYER
 62
    0
 10
282.469
 20
1.77078
 11
282.353
 21
1.56407
  0
LINE
  5
4D
  8
0
  6
BYLAYER
 62
    0
 10
282.353
 20
1.56407
 11
282.224
 21
1.36839
  0
LINE
  5
4E
  8
0
  6
BYLAYER
 62
    0
 10
282.224
 20
1.36839
 11
282.078
 21
1.18374
  0
LINE
  5
4F
  8
0
  6
BYLAYER
 62
    0
 10
282.078
 20
1.18374
 11
281.918
 21
1.0101
  0
LINE
  5
50
  8
0
  6
BYLAYER
 62
    0
 10
281.918
 20
1.0101
 11
281.744
 21
0.850251
  0
LINE
  5
51
  8
0
  6
BYLAYER
 62
    0
 10
281.744
 20
0.850251
 11
281.559
 21
0.704176
  0
LINE
  5
52
  8
0
  6
BYLAYER
 62
    0
 10
281.559
 20
0.704176
 11
281.364
 21
0.574643
  0
LINE
  5
53
  8
0
  6
BYLAYER
 62
    0
 10
281.364
 20
0.574643
 11
281.157
 21
0.458886
  0
LINE
  5
54
  8
0
  6
BYLAYER
 62
    0
 10
281.157
 20
0.458886
 11
280.945
 21
0.359668
  0
LINE
  5
55
  8
0
  6
BYLAYER
 62
    0
 10
280.945
 20
0.359668
 11
280.723
 21
0.278364
  0
LINE
  5
56
  8
0
  6
BYLAYER
 62
    0
 10
280.723
 20
0.278364
 11
280.497
 21
0.214974
  0
LINE
  5
57
  8
0
  6
BYLAYER
 62
    0
 10
280.497
 20
0.214974
 11
280.265
 21
0.168121
  0
LINE
  5
58
  8
0
  6
BYLAYER
 62
    0
 10
280.265
 20
0.168121
 11
280.031
 21
0.141938
  0
LINE
  5
59
  8
0
  6
BYLAYER
 62
    0
 10
280.031
 20
0.141938
 11
279.797
 21
0.130914
  0
LINE
  5
5A
  8
0
  6
BYLAYER
 62
    0
 10
279.797
 20
0.130914
 11
3.09507
 21
0.130914
  0
LINE
  5
5B
  8
0
  6
BYLAYER
 62
    0
 10
3.09507
 20
0.130914
 11
2.85943
 21
0.141938
  0
LINE
  5
5C
  8
0
  6
BYLAYER
 62
    0
 10
2.85943
 20
0.141938
 11
2.62516
 21
0.168121
  0
LINE
  5
5D
  8
0
  6
BYLAYER
 62
    0
 10
2.62516
 20
0.168121
 11
2.39503
 21
0.214974
  0
LINE
  5
5E
  8
0
  6
BYLAYER
 62
    0
 10
2.39503
 20
0.214974
 11
2.16765
 21
0.278364
  0
LINE
  5
5F
  8
0
  6
BYLAYER
 62
    0
 10
2.16765
 20
0.278364
 11
1.94717
 21
0.359668
  0
LINE
  5
60
  8
0
  6
BYLAYER
 62
    0
 10
1.94717
 20
0.359668
 11
1.73357
 21
0.458886
  0
LINE
  5
61
  8
0
  6
BYLAYER
 62
    0
 10
1.73357
 20
0.458886
 11
1.52687
 21
0.574643
  0
LINE
  5
62
  8
0
  6
BYLAYER
 62
    0
 10
1.52687
 20
0.574643
 11
1.33119
 21
0.704176
  0
LINE
  5
63
  8
0
  6
BYLAYER
 62
    0
 10
1.33119
 20
0.704176
 11
1.14653
 21
0.850251
  0
LINE
  5
64
  8
0
  6
BYLAYER
 62
    0
 10
1.14653
 20
0.850251
 11
0.972894
 21
1.0101
  0
LINE
  5
65
  8
0
  6
BYLAYER
 62
    0
 10
0.972894
 20
1.0101
 11
0.813043
 21
1.18374
  0
LINE
  5
66
  8
0
  6
BYLAYER
 62
    0
 10
0.813043
 20
1.18374
 11
0.666972
 21
1.36839
  0
LINE
  5
67
  8
0
  6
BYLAYER
 62
    0
 10
0.666972
 20
1.36839
 11
0.537436
 21
1.56407
  0
LINE
  5
68
  8
0
  6
BYLAYER
 62
    0
 10
0.537436
 20
1.56407
 11
0.421679
 21
1.77078
  0
LINE
  5
69
  8
0
  6
BYLAYER
 62
    0
 10
0.421679
 20
1.77078
 11
0.323839
 21
1.983
  0
LINE
  5
6A
  8
0
  6
BYLAYER
 62
    0
 10
0.323839
 20
1.983
 11
0.241157
 21
2.20486
  0
LINE
  5
6B
  8
0
  6
BYLAYER
 62
    0
 10
0.241157
 20
2.20486
 11
0.177767
 21
2.43086
  0
LINE
  5
6C
  8
0
  6
BYLAYER
 62
    0
 10
0.177767
 20
2.43086
 11
0.130914
 21
2.66237
  0
LINE
  5
6D
  8
0
  6
BYLAYER
 62
    0
 10
0.130914
 20
2.66237
 11
0.104731
 21
2.89664
  0
LINE
  5
6E
  8
0
  6
BYLAYER
 62
    0
 10
0.104731
 20
2.89664
 11
0.09508460000000001
 21
3.13228
  0
LINE
  5
6F
  8
0
  6
BYLAYER
 62
    0
 10
0.09508460000000001
 20
3.13228
 11
0.09508460000000001
 21
127.433
  0
LINE
  5
70
  8
0
  6
BYLAYER
 62
    0
 10
0.09508460000000001
 20
127.433
 11
0.104731
 21
127.669
  0
LINE
  5
71
  8
0
  6
BYLAYER
 62
    0
 10
0.104731
 20
127.669
 11
0.130914
 21
127.903
  0
LINE
  5
72
  8
0
  6
BYLAYER
 62
    0
 10
0.130914
 20
127.903
 11
0.177767
 21
128.133
  0
LINE
  5
73
  8
0
  6
BYLAYER
 62
    0
 10
0.177767
 20
128.133
 11
0.241157
 21
128.36
  0
LINE
  5
74
  8
0
  6
BYLAYER
 62
    0
 10
0.241157
 20
128.36
 11
0.323839
 21
128.58
  0
LINE
  5
75
  8
0
  6
BYLAYER
 62
    0
 10
0.323839
 20
128.58
 11
0.421679
 21
128.794
  0
LINE
  5
76
  8
0
  6
BYLAYER
 62
    0
 10
0.421679
 20
128.794
 11
0.537436
 21
129.001
  0
LINE
  5
77
  8
0
  6
BYLAYER
 62
    0
 10
0.537436
 20
129.001
 11
0.666972
 21
129.197
  0
LINE
  5
78
  8
0
  6
BYLAYER
 62
    0
 10
0.666972
 20
129.197
 11
0.813043
 21
129.381
  0
LINE
  5
79
  8
0
  6
BYLAYER
 62
    0
 10
0.813043
 20
129.381
 11
0.972894
 21
129.555
  0
LINE
  5
7A
  8
0
  6
BYLAYER
 62
    0
 10
0.972894
 20
129.555
 11
1.14653
 21
129.715
  0
LINE
  5
7B
  8
0
  6
BYLAYER
 62
    0
 10
1.14653
 20
129.715
 11
1.33119
 21
129.861
  0
LINE
  5
7C
  8
0
  6
BYLAYER
 62
    0
 10
1.33119
 20
129.861
 11
1.52687
 21
129.99
  0
LINE
  5
7D
  8
0
  6
BYLAYER
 62
    0
 10
1.52687
 20
129.99
 11
1.73357
 21
130.106
  0
LINE
  5
7E
  8
0
  6
BYLAYER
 62
    0
 10
1.73357
 20
130.106
 11
1.94717
 21
130.204
  0
LINE
  5
7F
  8
0
  6
BYLAYER
 62
    0
 10
1.94717
 20
130.204
 11
2.16765
 21
130.286
  0
LINE
  5
80
  8
0
  6
BYLAYER
 62
    0
 10
2.16765
 20
130.286
 11
2.39503
 21
130.35
  0
LINE
  5
81
  8
0
  6
BYLAYER
 62
    0
 10
2.39503
 20
130.35
 11
2.62516
 21
130.397
  0
LINE
  5
82
  8
0
  6
BYLAYER
 62
    0
 10
2.62516
 20
130.397
 11
2.85943
 21
130.423
  0
LINE
  5
83
  8
0
  6
BYLAYER
 62
    0
 10
2.85943
 20
130.423
 11
3.09507
 21
130.433
  0
LINE
  5
84
  8
0
  6
BYLAYER
 62
    0
 10
3.09507
 20
130.433
 11
279.797
 21
130.433
  0
LINE
  5
85
  8
0
  6
BYLAYER
 62
    0
 10
3.1309
 20
5.05876
 11
2.71336
 21
4.84657
  0
LINE
  5
86
  8
0
  6
BYLAYER
 62
    0
 10
2.71336
 20
4.84657
 11
2.38125
 21
4.51309
  0
LINE
  5
87
  8
0
  6
BYLAYER
 62
    0
 10
2.38125
 20
4.51309
 11
2.16903
 21
4.09554
  0
LINE
  5
88
  8
0
  6
BYLAYER
 62
    0
 10
2.16903
 20
4.09554
 11
2.09462
 21
3.63114
  0
LINE
  5
89
  8
0
  6
BYLAYER
 62
    0
 10
2.09462
 20
3.63114
 11
2.16903
 21
3.16811
  0
LINE
  5
8A
  8
0
  6
BYLAYER
 62
    0
 10
2.16903
 20
3.16811
 11
2.38125
 21
2.75057
  0
LINE
  5
8B
  8
0
  6
BYLAYER
 62
    0
 10
2.38125
 20
2.75057
 11
2.71336
 21
2.41846
  0
LINE
  5
8C
  8
0
  6
BYLAYER
 62
    0
 10
2.71336
 20
2.41846
 11
3.1309
 21
2.20486
  0
LINE
  5
8D
  8
0
  6
BYLAYER
 62
    0
 10
3.1309
 20
2.20486
 11
3.59392
 21
2.13183
  0
LINE
  5
8E
  8
0
  6
BYLAYER
 62
    0
 10
3.59392
 20
2.13183
 11
4.05832
 21
2.20486
  0
LINE
  5
8F
  8
0
  6
BYLAYER
 62
    0
 10
4.05832
 20
2.20486
 11
4.47587
 21
2.41846
  0
LINE
  5
90
  8
0
  6
BYLAYER
 62
    0
 10
4.47587
 20
2.41846
 11
4.80797
 21
2.75057
  0
LINE
  5
91
  8
0
  6
BYLAYER
 62
    0
 10
4.80797
 20
2.75057
 11
5.02158
 21
3.16811
  0
LINE
  5
92
  8
0
  6
BYLAYER
 62
    0
 10
5.02158
 20
3.16811
 11
5.0946
 21
3.63114
  0
LINE
  5
93
  8
0
  6
BYLAYER
 62
    0
 10
5.0946
 20
3.63114
 11
5.02158
 21
4.09554
  0
LINE
  5
94
  8
0
  6
BYLAYER
 62
    0
 10
5.02158
 20
4.09554
 11
4.80797
 21
4.51309
  0
LINE
  5
95
  8
0
  6
BYLAYER
 62
    0
 10
4.80797
 20
4.51309
 11
4.47587
 21
4.84657
  0
LINE
  5
96
  8
0
  6
BYLAYER
 62
    0
 10
4.47587
 20
4.84657
 11
4.05832
 21
5.05876
  0
LINE
  5
97
  8
0
  6
BYLAYER
 62
    0
 10
4.05832
 20
5.05876
 11
3.59392
 21
5.13182
  0
LINE
  5
98
  8
0
  6
BYLAYER
 62
    0
 10
3.59392
 20
5.13182
 11
3.1309
 21
5.05876
  0
LINE
  5
99
  8
0
  6
BYLAYER
 62
    0
 10
95.0309
 20
5.05876
 11
94.61320000000001
 21
4.84657
  0
LINE
  5
9A
  8
0
  6
BYLAYER
 62
    0
 10
94.61320000000001
 20
4.84657
 11
94.2813
 21
4.51309
  0
LINE
  5
9B
  8
0
  6
BYLAYER
 62
    0
 10
94.2813
 20
4.51309
 11
94.0689
 21
4.09554
  0
LINE
  5
9C
  8
0
  6
BYLAYER
 62
    0
 10
94.0689
 20
4.09554
 11
93.99590000000001
 21
3.63114
  0
LINE
  5
9D
  8
0
  6
BYLAYER
 62
    0
 10
93.99590000000001
 20
3.63114
 11
94.0689
 21
3.16811
  0
LINE
  5
9E
  8
0
  6
BYLAYER
 62
    0
 10
94.0689
 20
3.16811
 11
94.2813
 21
2.75057
  0
LINE
  5
9F
  8
0
  6
BYLAYER
 62
    0
 10
94.2813
 20
2.75057
 11
94.61320000000001
 21
2.41846
  0
LINE
  5
A0
  8
0
  6
BYLAYER
 62
    0
 10
94.61320000000001
 20
2.41846
 11
95.0309
 21
2.20486
  0
LINE
  5
A1
  8
0
  6
BYLAYER
 62
    0
 10
95.0309
 20
2.20486
 11
95.4952
 21
2.13183
  0
LINE
  5
A2
  8
0
  6
BYLAYER
 62
    0
 10
95.4952
 20
2.13183
 11
95.9584
 21
2.20486
  0
LINE
  5
A3
  8
0
  6
BYLAYER
 62
    0
 10
95.9584
 20
2.20486
 11
96.3771
 21
2.41846
  0
LINE
  5
A4
  8
0
  6
BYLAYER
 62
    0
 10
96.3771
 20
2.41846
 11
96.708
 21
2.75057
  0
LINE
  5
A5
  8
0
  6
BYLAYER
 62
    0
 10
96.708
 20
2.75057
 11
96.92149999999999
 21
3.16811
  0
LINE
  5
A6
  8
0
  6
BYLAYER
 62
    0
 10
96.92149999999999
 20
3.16811
 11
96.99590000000001
 21
3.63114
  0
LINE
  5
A7
  8
0
  6
BYLAYER
 62
    0
 10
96.99590000000001
 20
3.63114
 11
96.92149999999999
 21
4.09554
  0
LINE
  5
A8
  8
0
  6
BYLAYER
 62
    0
 10
96.92149999999999
 20
4.09554
 11
96.708
 21
4.51309
  0
LINE
  5
A9
  8
0
  6
BYLAYER
 62
    0
 10
96.708
 20
4.51309
 11
96.3771
 21
4.84657
  0
LINE
  5
AA
  8
0
  6
BYLAYER
 62
    0
 10
96.3771
 20
4.84657
 11
95.9584
 21
5.05876
  0
LINE
  5
AB
  8
0
  6
BYLAYER
 62
    0
 10
95.9584
 20
5.05876
 11
95.4952
 21
5.13182
  0
LINE
  5
AC
  8
0
  6
BYLAYER
 62
    0
 10
95.4952
 20
5.13182
 11
95.0309
 21
5.05876
  0
LINE
  5
AD
  8
0
  6
BYLAYER
 62
    0
 10
186.932
 20
5.05876
 11
186.513
 21
4.84657
  0
LINE
  5
AE
  8
0
  6
BYLAYER
 62
    0
 10
186.513
 20
4.84657
 11
186.183
 21
4.51309
  0
LINE
  5
AF
  8
0
  6
BYLAYER
 62
    0
 10
186.183
 20
4.51309
 11
185.969
 21
4.09554
  0
LINE
  5
B0
  8
0
  6
BYLAYER
 62
    0
 10
185.969
 20
4.09554
 11
185.896
 21
3.63114
  0
LINE
  5
B1
  8
0
  6
BYLAYER
 62
    0
 10
185.896
 20
3.63114
 11
185.969
 21
3.16811
  0
LINE
  5
B2
  8
0
  6
BYLAYER
 62
    0
 10
185.969
 20
3.16811
 11
186.183
 21
2.75057
  0
LINE
  5
B3
  8
0
  6
BYLAYER
 62
    0
 10
186.183
 20
2.75057
 11
186.513
 21
2.41846
  0
LINE
  5
B4
  8
0
  6
BYLAYER
 62
    0
 10
186.513
 20
2.41846
 11
186.932
 21
2.20486
  0
LINE
  5
B5
  8
0
  6
BYLAYER
 62
    0
 10
186.932
 20
2.20486
 11
187.395
 21
2.13183
  0
LINE
  5
B6
  8
0
  6
BYLAYER
 62
    0
 10
187.395
 20
2.13183
 11
187.86
 21
2.20486
  0
LINE
  5
B7
  8
0
  6
BYLAYER
 62
    0
 10
187.86
 20
2.20486
 11
188.277
 21
2.41846
  0
LINE
  5
B8
  8
0
  6
BYLAYER
 62
    0
 10
188.277
 20
2.41846
 11
188.609
 21
2.75057
  0
LINE
  5
B9
  8
0
  6
BYLAYER
 62
    0
 10
188.609
 20
2.75057
 11
188.823
 21
3.16811
  0
LINE
  5
BA
  8
0
  6
BYLAYER
 62
    0
 10
188.823
 20
3.16811
 11
188.896
 21
3.63114
  0
LINE
  5
BB
  8
0
  6
BYLAYER
 62
    0
 10
188.896
 20
3.63114
 11
188.823
 21
4.09554
  0
LINE
  5
BC
  8
0
  6
BYLAYER
 62
    0
 10
188.823
 20
4.09554
 11
188.609
 21
4.51309
  0
LINE
  5
BD
  8
0
  6
BYLAYER
 62
    0
 10
188.609
 20
4.51309
 11
188.277
 21
4.84657
  0
LINE
  5
BE
  8
0
  6
BYLAYER
 62
    0
 10
188.277
 20
4.84657
 11
187.86
 21
5.05876
  0
LINE
  5
BF
  8
0
  6
BYLAYER
 62
    0
 10
187.86
 20
5.05876
 11
187.395
 21
5.13182
  0
LINE
  5
C0
  8
0
  6
BYLAYER
 62
    0
 10
187.395
 20
5.13182
 11
186.932
 21
5.05876
  0
LINE
  5
C1
  8
0
  6
BYLAYER
 62
    0
 10
278.832
 20
5.05876
 11
278.415
 21
4.84657
  0
LINE
  5
C2
  8
0
  6
BYLAYER
 62
    0
 10
278.415
 20
4.84657
 11
278.083
 21
4.51309
  0
LINE
  5
C3
  8
0
  6
BYLAYER
 62
    0
 10
278.083
 20
4.51309
 11
277.869
 21
4.09554
  0
LINE
  5
C4
  8
0
  6
BYLAYER
 62
    0
 10
277.869
 20
4.09554
 11
277.796
 21
3.63114
  0
LINE
  5
C5
  8
0
  6
BYLAYER
 62
    0
 10
277.796
 20
3.63114
 11
277.869
 21
3.16811
  0
LINE
  5
C6
  8
0
  6
BYLAYER
 62
    0
 10
277.869
 20
3.16811
 11
278.083
 21
2.75057
  0
LINE
  5
C7
  8
0
  6
BYLAYER
 62
    0
 10
278.083
 20
2.75057
 11
278.415
 21
2.41846
  0
LINE
  5
C8
  8
0
  6
BYLAYER
 62
    0
 10
278.415
 20
2.41846
 11
278.832
 21
2.20486
  0
LINE
  5
C9
  8
0
  6
BYLAYER
 62
    0
 10
278.832
 20
2.20486
 11
279.297
 21
2.13183
  0
LINE
  5
CA
  8
0
  6
BYLAYER
 62
    0
 10
279.297
 20
2.13183
 11
279.76
 21
2.20486
  0
LINE
  5
CB
  8
0
  6
BYLAYER
 62
    0
 10
279.76
 20
2.20486
 11
280.177
 21
2.41846
  0
LINE
  5
CC
  8
0
  6
BYLAYER
 62
    0
 10
280.177
 20
2.41846
 11
280.509
 21
2.75057
  0
LINE
  5
CD
  8
0
  6
BYLAYER
 62
    0
 10
280.509
 20
2.75057
 11
280.723
 21
3.16811
  0
LINE
  5
CE
  8
0
  6
BYLAYER
 62
    0
 10
280.723
 20
3.16811
 11
280.796
 21
3.63114
  0
LINE
  5
CF
  8
0
  6
BYLAYER
 62
    0
 10
280.796
 20
3.63114
 11
280.723
 21
4.09554
  0
LINE
  5
D0
  8
0
  6
BYLAYER
 62
    0
 10
280.723
 20
4.09554
 11
280.509
 21
4.51309
  0
LINE
  5
D1
  8
0
  6
BYLAYER
 62
    0
 10
280.509
 20
4.51309
 11
280.177
 21
4.84657
  0
LINE
  5
D2
  8
0
  6
BYLAYER
 62
    0
 10
280.177
 20
4.84657
 11
279.76
 21
5.05876
  0
LINE
  5
D3
  8
0
  6
BYLAYER
 62
    0
 10
279.76
 20
5.05876
 11
279.297
 21
5.13182
  0
LINE
  5
D4
  8
0
  6
BYLAYER
 62
    0
 10
279.297
 20
5.13182
 11
278.832
 21
5.05876
  0
LINE
  5
D5
  8
0
  6
BYLAYER
 62
    0
 10
124.919
 20
24.6586
 11
124.919
 21
19.9567
  0
LINE
  5
D6
  8
0
  6
BYLAYER
 62
    0
 10
124.919
 20
19.9567
 11
78.2697
 21
19.9567
  0
LINE
  5
D7
  8
0
  6
BYLAYER
 62
    0
 10
78.2697
 20
19.9567
 11
78.2697
 21
23.1883
  0
LINE
  5
D8
  8
0
  6
BYLAYER
 62
    0
 10
78.2697
 20
23.1883
 11
71.52
 21
23.1883
  0
LINE
  5
D9
  8
0
  6
BYLAYER
 62
    0
 10
71.52
 20
23.1883
 11
71.52
 21
19.9567
  0
LINE
  5
DA
  8
0
  6
BYLAYER
 62
    0
 10
71.52
 20
19.9567
 11
70.696
 21
19.9567
  0
LINE
  5
DB
  8
0
  6
BYLAYER
 62
    0
 10
70.696
 20
19.9567
 11
70.696
 21
17.1579
  0
LINE
  5
DC
  8
0
  6
BYLAYER
 62
    0
 10
70.696
 20
17.1579
 11
71.52
 21
17.1579
  0
LINE
  5
DD
  8
0
  6
BYLAYER
 62
    0
 10
71.52
 20
17.1579
 11
71.52
 21
10.8879
  0
LINE
  5
DE
  8
0
  6
BYLAYER
 62
    0
 10
71.52
 20
10.8879
 11
73.24550000000001
 21
10.8879
  0
LINE
  5
DF
  8
0
  6
BYLAYER
 62
    0
 10
73.24550000000001
 20
10.8879
 11
73.24550000000001
 21
9.6876
  0
LINE
  5
E0
  8
0
  6
BYLAYER
 62
    0
 10
73.24550000000001
 20
9.6876
 11
76.5457
 21
9.6876
  0
LINE
  5
E1
  8
0
  6
BYLAYER
 62
    0
 10
76.5457
 20
9.6876
 11
76.5457
 21
10.8879
  0
LINE
  5
E2
  8
0
  6
BYLAYER
 62
    0
 10
76.5457
 20
10.8879
 11
78.2697
 21
10.8879
  0
LINE
  5
E3
  8
0
  6
BYLAYER
 62
    0
 10
78.2697
 20
10.8879
 11
78.2697
 21
15.3583
  0
LINE
  5
E4
  8
0
  6
BYLAYER
 62
    0
 10
78.2697
 20
15.3583
 11
124.919
 21
15.3583
  0
LINE
  5
E5
  8
0
  6
BYLAYER
 62
    0
 10
124.919
 20
15.3583
 11
124.919
 21
10.6577
  0
LINE
  5
E6
  8
0
  6
BYLAYER
 62
    0
 10
124.919
 20
10.6577
 11
138.92
 21
10.6577
  0
LINE
  5
E7
  8
0
  6
BYLAYER
 62
    0
 10
138.92
 20
10.6577
 11
138.92
 21
15.3583
  0
LINE
  5
E8
  8
0
  6
BYLAYER
 62
    0
 10
138.92
 20
15.3583
 11
166.521
 21
15.3583
  0
LINE
  5
E9
  8
0
  6
BYLAYER
 62
    0
 10
166.521
 20
15.3583
 11
166.521
 21
10.8879
  0
LINE
  5
EA
  8
0
  6
BYLAYER
 62
    0
 10
166.521
 20
10.8879
 11
168.246
 21
10.8879
  0
LINE
  5
EB
  8
0
  6
BYLAYER
 62
    0
 10
168.246
 20
10.8879
 11
168.246
 21
9.6876
  0
LINE
  5
EC
  8
0
  6
BYLAYER
 62
    0
 10
168.246
 20
9.6876
 11
171.545
 21
9.6876
  0
LINE
  5
ED
  8
0
  6
BYLAYER
 62
    0
 10
171.545
 20
9.6876
 11
171.545
 21
10.8879
  0
LINE
  5
EE
  8
0
  6
BYLAYER
 62
    0
 10
171.545
 20
10.8879
 11
173.27
 21
10.8879
  0
LINE
  5
EF
  8
0
  6
BYLAYER
 62
    0
 10
173.27
 20
10.8879
 11
173.27
 21
17.1579
  0
LINE
  5
F0
  8
0
  6
BYLAYER
 62
    0
 10
173.27
 20
17.1579
 11
174.096
 21
17.1579
  0
LINE
  5
F1
  8
0
  6
BYLAYER
 62
    0
 10
174.096
 20
17.1579
 11
174.096
 21
19.9567
  0
LINE
  5
F2
  8
0
  6
BYLAYER
 62
    0
 10
174.096
 20
19.9567
 11
173.27
 21
19.9567
  0
LINE
  5
F3
  8
0
  6
BYLAYER
 62
    0
 10
173.27
 20
19.9567
 11
173.27
 21
23.1883
  0
LINE
  5
F4
  8
0
  6
BYLAYER
 62
    0
 10
173.27
 20
23.1883
 11
166.521
 21
23.1883
  0
LINE
  5
F5
  8
0
  6
BYLAYER
 62
    0
 10
166.521
 20
23.1883
 11
166.521
 21
19.9567
  0
LINE
  5
F6
  8
0
  6
BYLAYER
 62
    0
 10
166.521
 20
19.9567
 11
138.92
 21
19.9567
  0
LINE
  5
F7
  8
0
  6
BYLAYER
 62
    0
 10
138.92
 20
19.9567
 11
138.92
 21
24.6586
  0
LINE
  5
F8
  8
0
  6
BYLAYER
 62
    0
 10
138.92
 20
24.6586
 11
124.919
 21
24.6586
  0
LINE
  5
F9
  8
0
  6
BYLAYER
 62
    0
 10
258.27
 20
24.6586
 11
272.27
 21
24.6586
  0
LINE
  5
FA
  8
0
  6
BYLAYER
 62
    0
 10
272.27
 20
24.6586
 11
272.27
 21
10.6577
  0
LINE
  5
FB
  8
0
  6
BYLAYER
 62
    0
 10
272.27
 20
10.6577
 11
258.27
 21
10.6577
  0
LINE
  5
FC
  8
0
  6
BYLAYER
 62
    0
 10
258.27
 20
10.6577
 11
258.27
 21
24.6586
  0
LINE
  5
FD
  8
0
  6
BYLAYER
 62
    0
 10
239.22
 20
24.6586
 11
253.22
 21
24.6586
  0
LINE
  5
FE
  8
0
  6
BYLAYER
 62
    0
 10
253.22
 20
24.6586
 11
253.22
 21
10.6577
  0
LINE
  5
FF
  8
0
  6
BYLAYER
 62
    0
 10
253.22
 20
10.6577
 11
239.22
 21
10.6577
  0
LINE
  5
100
  8
0
  6
BYLAYER
 62
    0
 10
239.22
 20
10.6577
 11
239.22
 21
24.6586
  0
LINE
  5
101
  8
0
  6
BYLAYER
 62
    0
 10
220.17
 20
24.6586
 11
234.17
 21
24.6586
  0
LINE
  5
102
  8
0
  6
BYLAYER
 62
    0
 10
234.17
 20
24.6586
 11
234.17
 21
10.6577
  0
LINE
  5
103
  8
0
  6
BYLAYER
 62
    0
 10
234.17
 20
10.6577
 11
220.17
 21
10.6577
  0
LINE
  5
104
  8
0
  6
BYLAYER
 62
    0
 10
220.17
 20
10.6577
 11
220.17
 21
24.6586
  0
LINE
  5
105
  8
0
  6
BYLAYER
 62
    0
 10
201.12
 20
24.6586
 11
215.12
 21
24.6586
  0
LINE
  5
106
  8
0
  6
BYLAYER
 62
    0
 10
215.12
 20
24.6586
 11
215.12
 21
10.6577
  0
LINE
  5
107
  8
0
  6
BYLAYER
 62
    0
 10
215.12
 20
10.6577
 11
201.12
 21
10.6577
  0
LINE
  5
108
  8
0
  6
BYLAYER
 62
    0
 10
201.12
 20
10.6577
 11
201.12
 21
24.6586
  0
LINE
  5
109
  8
0
  6
BYLAYER
 62
    0
 10
182.07
 20
24.6586
 11
196.07
 21
24.6586
  0
LINE
  5
10A
  8
0
  6
BYLAYER
 62
    0
 10
196.07
 20
24.6586
 11
196.07
 21
10.6577
  0
LINE
  5
10B
  8
0
  6
BYLAYER
 62
    0
 10
196.07
 20
10.6577
 11
182.07
 21
10.6577
  0
LINE
  5
10C
  8
0
  6
BYLAYER
 62
    0
 10
182.07
 20
10.6577
 11
182.07
 21
24.6586
  0
LINE
  5
10D
  8
0
  6
BYLAYER
 62
    0
 10
48.7204
 20
24.6586
 11
62.72
 21
24.6586
  0
LINE
  5
10E
  8
0
  6
BYLAYER
 62
    0
 10
62.72
 20
24.6586
 11
62.72
 21
10.6577
  0
LINE
  5
10F
  8
0
  6
BYLAYER
 62
    0
 10
62.72
 20
10.6577
 11
48.7204
 21
10.6577
  0
LINE
  5
110
  8
0
  6
BYLAYER
 62
    0
 10
48.7204
 20
10.6577
 11
48.7204
 21
24.6586
  0
LINE
  5
111
  8
0
  6
BYLAYER
 62
    0
 10
29.6706
 20
24.6586
 11
43.67
 21
24.6586
  0
LINE
  5
112
  8
0
  6
BYLAYER
 62
    0
 10
43.67
 20
24.6586
 11
43.67
 21
10.6577
  0
LINE
  5
113
  8
0
  6
BYLAYER
 62
    0
 10
43.67
 20
10.6577
 11
29.6706
 21
10.6577
  0
LINE
  5
114
  8
0
  6
BYLAYER
 62
    0
 10
29.6706
 20
10.6577
 11
29.6706
 21
24.6586
  0
LINE
  5
115
  8
0
  6
BYLAYER
 62
    0
 10
10.6192
 20
24.6586
 11
24.62
 21
24.6586
  0
LINE
  5
116
  8
0
  6
BYLAYER
 62
    0
 10
24.62
 20
24.6586
 11
24.62
 21
10.6577
  0
LINE
  5
117
  8
0
  6
BYLAYER
 62
    0
 10
24.62
 20
10.6577
 11
10.6192
 21
10.6577
  0
LINE
  5
118
  8
0
  6
BYLAYER
 62
    0
 10
10.6192
 20
10.6577
 11
10.6192
 21
24.6586
  0
LINE
  5
119
  8
0
  6
BYLAYER
 62
    0
 10
258.27
 20
43.7074
 11
272.27
 21
43.7074
  0
LINE
  5
11A
  8
0
  6
BYLAYER
 62
    0
 10
272.27
 20
43.7074
 11
272.27
 21
29.7077
  0
LINE
  5
11B
  8
0
  6
BYLAYER
 62
    0
 10
272.27
 20
29.7077
 11
258.27
 21
29.7077
  0
LINE
  5
11C
  8
0
  6
BYLAYER
 62
    0
 10
258.27
 20
29.7077
 11
258.27
 21
43.7074
  0
LINE
  5
11D
  8
0
  6
BYLAYER
 62
    0
 10
239.22
 20
43.7074
 11
253.22
 21
43.7074
  0
LINE
  5
11E
  8
0
  6
BYLAYER
 62
    0
 10
253.22
 20
43.7074
 11
253.22
 21
29.7077
  0
LINE
  5
11F
  8
0
  6
BYLAYER
 62
    0
 10
253.22
 20
29.7077
 11
239.22
 21
29.7077
  0
LINE
  5
120
  8
0
  6
BYLAYER
 62
    0
 10
239.22
 20
29.7077
 11
239.22
 21
43.7074
  0
LINE
  5
121
  8
0
  6
BYLAYER
 62
    0
 10
220.17
 20
43.7074
 11
234.17
 21
43.7074
  0
LINE
  5
122
  8
0
  6
BYLAYER
 62
    0
 10
234.17
 20
43.7074
 11
234.17
 21
29.7077
  0
LINE
  5
123
  8
0
  6
BYLAYER
 62
    0
 10
234.17
 20
29.7077
 11
220.17
 21
29.7077
  0
LINE
  5
124
  8
0
  6
BYLAYER
 62
    0
 10
220.17
 20
29.7077
 11
220.17
 21
43.7074
  0
LINE
  5
125
  8
0
  6
BYLAYER
 62
    0
 10
201.12
 20
43.7074
 11
215.12
 21
43.7074
  0
LINE
  5
126
  8
0
  6
BYLAYER
 62
    0
 10
215.12
 20
43.7074
 11
215.12
 21
29.7077
  0
LINE
  5
127
  8
0
  6
BYLAYER
 62
    0
 10
215.12
 20
29.7077
 11
201.12
 21
29.7077
  0
LINE
  5
128
  8
0
  6
BYLAYER
 62
    0
 10
201.12
 20
29.7077
 11
201.12
 21
43.7074
  0
LINE
  5
129
  8
0
  6
BYLAYER
 62
    0
 10
182.07
 20
43.7074
 11
196.07
 21
43.7074
  0
LINE
  5
12A
  8
0
  6
BYLAYER
 62
    0
 10
196.07
 20
43.7074
 11
196.07
 21
29.7077
  0
LINE
  5
12B
  8
0
  6
BYLAYER
 62
    0
 10
196.07
 20
29.7077
 11
182.07
 21
29.7077
  0
LINE
  5
12C
  8
0
  6
BYLAYER
 62
    0
 10
182.07
 20
29.7077
 11
182.07
 21
43.7074
  0
LINE
  5
12D
  8
0
  6
BYLAYER
 62
    0
 10
163.02
 20
43.7074
 11
177.02
 21
43.7074
  0
LINE
  5
12E
  8
0
  6
BYLAYER
 62
    0
 10
177.02
 20
43.7074
 11
177.02
 21
29.7077
  0
LINE
  5
12F
  8
0
  6
BYLAYER
 62
    0
 10
177.02
 20
29.7077
 11
163.02
 21
29.7077
  0
LINE
  5
130
  8
0
  6
BYLAYER
 62
    0
 10
163.02
 20
29.7077
 11
163.02
 21
43.7074
  0
LINE
  5
131
  8
0
  6
BYLAYER
 62
    0
 10
143.97
 20
43.7074
 11
157.97
 21
43.7074
  0
LINE
  5
132
  8
0
  6
BYLAYER
 62
    0
 10
157.97
 20
43.7074
 11
157.97
 21
29.7077
  0
LINE
  5
133
  8
0
  6
BYLAYER
 62
    0
 10
157.97
 20
29.7077
 11
143.97
 21
29.7077
  0
LINE
  5
134
  8
0
  6
BYLAYER
 62
    0
 10
143.97
 20
29.7077
 11
143.97
 21
43.7074
  0
LINE
  5
135
  8
0
  6
BYLAYER
 62
    0
 10
124.919
 20
43.7074
 11
138.92
 21
43.7074
  0
LINE
  5
136
  8
0
  6
BYLAYER
 62
    0
 10
138.92
 20
43.7074
 11
138.92
 21
29.7077
  0
LINE
  5
137
  8
0
  6
BYLAYER
 62
    0
 10
138.92
 20
29.7077
 11
124.919
 21
29.7077
  0
LINE
  5
138
  8
0
  6
BYLAYER
 62
    0
 10
124.919
 20
29.7077
 11
124.919
 21
43.7074
  0
LINE
  5
139
  8
0
  6
BYLAYER
 62
    0
 10
105.869
 20
43.7074
 11
119.87
 21
43.7074
  0
LINE
  5
13A
  8
0
  6
BYLAYER
 62
    0
 10
119.87
 20
43.7074
 11
119.87
 21
29.7077
  0
LINE
  5
13B
  8
0
  6
BYLAYER
 62
    0
 10
119.87
 20
29.7077
 11
105.869
 21
29.7077
  0
LINE
  5
13C
  8
0
  6
BYLAYER
 62
    0
 10
105.869
 20
29.7077
 11
105.869
 21
43.7074
  0
LINE
  5
13D
  8
0
  6
BYLAYER
 62
    0
 10
86.82040000000001
 20
43.7074
 11
100.82
 21
43.7074
  0
LINE
  5
13E
  8
0
  6
BYLAYER
 62
    0
 10
100.82
 20
43.7074
 11
100.82
 21
29.7077
  0
LINE
  5
13F
  8
0
  6
BYLAYER
 62
    0
 10
100.82
 20
29.7077
 11
86.82040000000001
 21
29.7077
  0
LINE
  5
140
  8
0
  6
BYLAYER
 62
    0
 10
86.82040000000001
 20
29.7077
 11
86.82040000000001
 21
43.7074
  0
LINE
  5
141
  8
0
  6
BYLAYER
 62
    0
 10
67.7704
 20
43.7074
 11
81.77
 21
43.7074
  0
LINE
  5
142
  8
0
  6
BYLAYER
 62
    0
 10
81.77
 20
43.7074
 11
81.77
 21
29.7077
  0
LINE
  5
143
  8
0
  6
BYLAYER
 62
    0
 10
81.77
 20
29.7077
 11
67.7704
 21
29.7077
  0
LINE
  5
144
  8
0
  6
BYLAYER
 62
    0
 10
67.7704
 20
29.7077
 11
67.7704
 21
43.7074
  0
LINE
  5
145
  8
0
  6
BYLAYER
 62
    0
 10
48.7204
 20
43.7074
 11
62.72
 21
43.7074
  0
LINE
  5
146
  8
0
  6
BYLAYER
 62
    0
 10
62.72
 20
43.7074
 11
62.72
 21
29.7077
  0
LINE
  5
147
  8
0
  6
BYLAYER
 62
    0
 10
62.72
 20
29.7077
 11
48.7204
 21
29.7077
  0
LINE
  5
148
  8
0
  6
BYLAYER
 62
    0
 10
48.7204
 20
29.7077
 11
48.7204
 21
43.7074
  0
LINE
  5
149
  8
0
  6
BYLAYER
 62
    0
 10
29.6706
 20
43.7074
 11
43.67
 21
43.7074
  0
LINE
  5
14A
  8
0
  6
BYLAYER
 62
    0
 10
43.67
 20
43.7074
 11
43.67
 21
29.7077
  0
LINE
  5
14B
  8
0
  6
BYLAYER
 62
    0
 10
43.67
 20
29.7077
 11
29.6706
 21
29.7077
  0
LINE
  5
14C
  8
0
  6
BYLAYER
 62
    0
 10
29.6706
 20
29.7077
 11
29.6706
 21
43.7074
  0
LINE
  5
14D
  8
0
  6
BYLAYER
 62
    0
 10
10.6192
 20
43.7074
 11
24.62
 21
43.7074
  0
LINE
  5
14E
  8
0
  6
BYLAYER
 62
    0
 10
24.62
 20
43.7074
 11
24.62
 21
29.7077
  0
LINE
  5
14F
  8
0
  6
BYLAYER
 62
    0
 10
24.62
 20
29.7077
 11
10.6192
 21
29.7077
  0
LINE
  5
150
  8
0
  6
BYLAYER
 62
    0
 10
10.6192
 20
29.7077
 11
10.6192
 21
43.7074
  0
LINE
  5
151
  8
0
  6
BYLAYER
 62
    0
 10
248.745
 20
62.7574
 11
248.745
 21
58.0566
  0
LINE
  5
152
  8
0
  6
BYLAYER
 62
    0
 10
248.745
 20
58.0566
 11
247.22
 21
58.0566
  0
LINE
  5
153
  8
0
  6
BYLAYER
 62
    0
 10
247.22
 20
58.0566
 11
247.22
 21
61.287
  0
LINE
  5
154
  8
0
  6
BYLAYER
 62
    0
 10
247.22
 20
61.287
 11
240.47
 21
61.287
  0
LINE
  5
155
  8
0
  6
BYLAYER
 62
    0
 10
240.47
 20
61.287
 11
240.47
 21
58.0566
  0
LINE
  5
156
  8
0
  6
BYLAYER
 62
    0
 10
240.47
 20
58.0566
 11
239.645
 21
58.0566
  0
LINE
  5
157
  8
0
  6
BYLAYER
 62
    0
 10
239.645
 20
58.0566
 11
239.645
 21
55.2581
  0
LINE
  5
158
  8
0
  6
BYLAYER
 62
    0
 10
239.645
 20
55.2581
 11
240.47
 21
55.2581
  0
LINE
  5
159
  8
0
  6
BYLAYER
 62
    0
 10
240.47
 20
55.2581
 11
240.47
 21
48.9878
  0
LINE
  5
15A
  8
0
  6
BYLAYER
 62
    0
 10
240.47
 20
48.9878
 11
242.196
 21
48.9878
  0
LINE
  5
15B
  8
0
  6
BYLAYER
 62
    0
 10
242.196
 20
48.9878
 11
242.196
 21
47.7876
  0
LINE
  5
15C
  8
0
  6
BYLAYER
 62
    0
 10
242.196
 20
47.7876
 11
245.496
 21
47.7876
  0
LINE
  5
15D
  8
0
  6
BYLAYER
 62
    0
 10
245.496
 20
47.7876
 11
245.496
 21
48.9878
  0
LINE
  5
15E
  8
0
  6
BYLAYER
 62
    0
 10
245.496
 20
48.9878
 11
247.22
 21
48.9878
  0
LINE
  5
15F
  8
0
  6
BYLAYER
 62
    0
 10
247.22
 20
48.9878
 11
247.22
 21
53.4568
  0
LINE
  5
160
  8
0
  6
BYLAYER
 62
    0
 10
247.22
 20
53.4568
 11
248.745
 21
53.4568
  0
LINE
  5
161
  8
0
  6
BYLAYER
 62
    0
 10
248.745
 20
53.4568
 11
248.745
 21
48.7578
  0
LINE
  5
162
  8
0
  6
BYLAYER
 62
    0
 10
248.745
 20
48.7578
 11
262.745
 21
48.7578
  0
LINE
  5
163
  8
0
  6
BYLAYER
 62
    0
 10
262.745
 20
48.7578
 11
262.745
 21
53.4568
  0
LINE
  5
164
  8
0
  6
BYLAYER
 62
    0
 10
262.745
 20
53.4568
 11
264.27
 21
53.4568
  0
LINE
  5
165
  8
0
  6
BYLAYER
 62
    0
 10
264.27
 20
53.4568
 11
264.27
 21
48.9878
  0
LINE
  5
166
  8
0
  6
BYLAYER
 62
    0
 10
264.27
 20
48.9878
 11
265.996
 21
48.9878
  0
LINE
  5
167
  8
0
  6
BYLAYER
 62
    0
 10
265.996
 20
48.9878
 11
265.996
 21
47.7876
  0
LINE
  5
168
  8
0
  6
BYLAYER
 62
    0
 10
265.996
 20
47.7876
 11
269.295
 21
47.7876
  0
LINE
  5
169
  8
0
  6
BYLAYER
 62
    0
 10
269.295
 20
47.7876
 11
269.295
 21
48.9878
  0
LINE
  5
16A
  8
0
  6
BYLAYER
 62
    0
 10
269.295
 20
48.9878
 11
271.02
 21
48.9878
  0
LINE
  5
16B
  8
0
  6
BYLAYER
 62
    0
 10
271.02
 20
48.9878
 11
271.02
 21
55.2581
  0
LINE
  5
16C
  8
0
  6
BYLAYER
 62
    0
 10
271.02
 20
55.2581
 11
271.846
 21
55.2581
  0
LINE
  5
16D
  8
0
  6
BYLAYER
 62
    0
 10
271.846
 20
55.2581
 11
271.846
 21
58.0566
  0
LINE
  5
16E
  8
0
  6
BYLAYER
 62
    0
 10
271.846
 20
58.0566
 11
271.02
 21
58.0566
  0
LINE
  5
16F
  8
0
  6
BYLAYER
 62
    0
 10
271.02
 20
58.0566
 11
271.02
 21
61.287
  0
LINE
  5
170
  8
0
  6
BYLAYER
 62
    0
 10
271.02
 20
61.287
 11
264.27
 21
61.287
  0
LINE
  5
171
  8
0
  6
BYLAYER
 62
    0
 10
264.27
 20
61.287
 11
264.27
 21
58.0566
  0
LINE
  5
172
  8
0
  6
BYLAYER
 62
    0
 10
264.27
 20
58.0566
 11
262.745
 21
58.0566
  0
LINE
  5
173
  8
0
  6
BYLAYER
 62
    0
 10
262.745
 20
58.0566
 11
262.745
 21
62.7574
  0
LINE
  5
174
  8
0
  6
BYLAYER
 62
    0
 10
262.745
 20
62.7574
 11
248.745
 21
62.7574
  0
LINE
  5
175
  8
0
  6
BYLAYER
 62
    0
 10
220.17
 20
62.7574
 11
234.17
 21
62.7574
  0
LINE
  5
176
  8
0
  6
BYLAYER
 62
    0
 10
234.17
 20
62.7574
 11
234.17
 21
48.7578
  0
LINE
  5
177
  8
0
  6
BYLAYER
 62
    0
 10
234.17
 20
48.7578
 11
220.17
 21
48.7578
  0
LINE
  5
178
  8
0
  6
BYLAYER
 62
    0
 10
220.17
 20
48.7578
 11
220.17
 21
62.7574
  0
LINE
  5
179
  8
0
  6
BYLAYER
 62
    0
 10
201.12
 20
62.7574
 11
215.12
 21
62.7574
  0
LINE
  5
17A
  8
0
  6
BYLAYER
 62
    0
 10
215.12
 20
62.7574
 11
215.12
 21
48.7578
  0
LINE
  5
17B
  8
0
  6
BYLAYER
 62
    0
 10
215.12
 20
48.7578
 11
201.12
 21
48.7578
  0
LINE
  5
17C
  8
0
  6
BYLAYER
 62
    0
 10
201.12
 20
48.7578
 11
201.12
 21
62.7574
  0
LINE
  5
17D
  8
0
  6
BYLAYER
 62
    0
 10
182.07
 20
62.7574
 11
196.07
 21
62.7574
  0
LINE
  5
17E
  8
0
  6
BYLAYER
 62
    0
 10
196.07
 20
62.7574
 11
196.07
 21
48.7578
  0
LINE
  5
17F
  8
0
  6
BYLAYER
 62
    0
 10
196.07
 20
48.7578
 11
182.07
 21
48.7578
  0
LINE
  5
180
  8
0
  6
BYLAYER
 62
    0
 10
182.07
 20
48.7578
 11
182.07
 21
62.7574
  0
LINE
  5
181
  8
0
  6
BYLAYER
 62
    0
 10
163.02
 20
62.7574
 11
177.02
 21
62.7574
  0
LINE
  5
182
  8
0
  6
BYLAYER
 62
    0
 10
177.02
 20
62.7574
 11
177.02
 21
48.7578
  0
LINE
  5
183
  8
0
  6
BYLAYER
 62
    0
 10
177.02
 20
48.7578
 11
163.02
 21
48.7578
  0
LINE
  5
184
  8
0
  6
BYLAYER
 62
    0
 10
163.02
 20
48.7578
 11
163.02
 21
62.7574
  0
LINE
  5
185
  8
0
  6
BYLAYER
 62
    0
 10
143.97
 20
62.7574
 11
157.97
 21
62.7574
  0
LINE
  5
186
  8
0
  6
BYLAYER
 62
    0
 10
157.97
 20
62.7574
 11
157.97
 21
48.7578
  0
LINE
  5
187
  8
0
  6
BYLAYER
 62
    0
 10
157.97
 20
48.7578
 11
143.97
 21
48.7578
  0
LINE
  5
188
  8
0
  6
BYLAYER
 62
    0
 10
143.97
 20
48.7578
 11
143.97
 21
62.7574
  0
LINE
  5
189
  8
0
  6
BYLAYER
 62
    0
 10
124.919
 20
62.7574
 11
138.92
 21
62.7574
  0
LINE
  5
18A
  8
0
  6
BYLAYER
 62
    0
 10
138.92
 20
62.7574
 11
138.92
 21
48.7578
  0
LINE
  5
18B
  8
0
  6
BYLAYER
 62
    0
 10
138.92
 20
48.7578
 11
124.919
 21
48.7578
  0
LINE
  5
18C
  8
0
  6
BYLAYER
 62
    0
 10
124.919
 20
48.7578
 11
124.919
 21
62.7574
  0
LINE
  5
18D
  8
0
  6
BYLAYER
 62
    0
 10
105.869
 20
62.7574
 11
119.87
 21
62.7574
  0
LINE
  5
18E
  8
0
  6
BYLAYER
 62
    0
 10
119.87
 20
62.7574
 11
119.87
 21
48.7578
  0
LINE
  5
18F
  8
0
  6
BYLAYER
 62
    0
 10
119.87
 20
48.7578
 11
105.869
 21
48.7578
  0
LINE
  5
190
  8
0
  6
BYLAYER
 62
    0
 10
105.869
 20
48.7578
 11
105.869
 21
62.7574
  0
LINE
  5
191
  8
0
  6
BYLAYER
 62
    0
 10
86.82040000000001
 20
62.7574
 11
100.82
 21
62.7574
  0
LINE
  5
192
  8
0
  6
BYLAYER
 62
    0
 10
100.82
 20
62.7574
 11
100.82
 21
48.7578
  0
LINE
  5
193
  8
0
  6
BYLAYER
 62
    0
 10
100.82
 20
48.7578
 11
86.82040000000001
 21
48.7578
  0
LINE
  5
194
  8
0
  6
BYLAYER
 62
    0
 10
86.82040000000001
 20
48.7578
 11
86.82040000000001
 21
62.7574
  0
LINE
  5
195
  8
0
  6
BYLAYER
 62
    0
 10
67.7704
 20
62.7574
 11
81.77
 21
62.7574
  0
LINE
  5
196
  8
0
  6
BYLAYER
 62
    0
 10
81.77
 20
62.7574
 11
81.77
 21
48.7578
  0
LINE
  5
197
  8
0
  6
BYLAYER
 62
    0
 10
81.77
 20
48.7578
 11
67.7704
 21
48.7578
  0
LINE
  5
198
  8
0
  6
BYLAYER
 62
    0
 10
67.7704
 20
48.7578
 11
67.7704
 21
62.7574
  0
LINE
  5
199
  8
0
  6
BYLAYER
 62
    0
 10
48.7204
 20
62.7574
 11
62.72
 21
62.7574
  0
LINE
  5
19A
  8
0
  6
BYLAYER
 62
    0
 10
62.72
 20
62.7574
 11
62.72
 21
48.7578
  0
LINE
  5
19B
  8
0
  6
BYLAYER
 62
    0
 10
62.72
 20
48.7578
 11
48.7204
 21
48.7578
  0
LINE
  5
19C
  8
0
  6
BYLAYER
 62
    0
 10
48.7204
 20
48.7578
 11
48.7204
 21
62.7574
  0
LINE
  5
19D
  8
0
  6
BYLAYER
 62
    0
 10
29.6706
 20
62.7574
 11
43.67
 21
62.7574
  0
LINE
  5
19E
  8
0
  6
BYLAYER
 62
    0
 10
43.67
 20
62.7574
 11
43.67
 21
48.7578
  0
LINE
  5
19F
  8
0
  6
BYLAYER
 62
    0
 10
43.67
 20
48.7578
 11
29.6706
 21
48.7578
  0
LINE
  5
1A0
  8
0
  6
BYLAYER
 62
    0
 10
29.6706
 20
48.7578
 11
29.6706
 21
62.7574
  0
LINE
  5
1A1
  8
0
  6
BYLAYER
 62
    0
 10
10.6192
 20
62.7574
 11
24.62
 21
62.7574
  0
LINE
  5
1A2
  8
0
  6
BYLAYER
 62
    0
 10
24.62
 20
62.7574
 11
24.62
 21
48.7578
  0
LINE
  5
1A3
  8
0
  6
BYLAYER
 62
    0
 10
24.62
 20
48.7578
 11
10.6192
 21
48.7578
  0
LINE
  5
1A4
  8
0
  6
BYLAYER
 62
    0
 10
10.6192
 20
48.7578
 11
10.6192
 21
62.7574
  0
LINE
  5
1A5
  8
0
  6
BYLAYER
 62
    0
 10
258.27
 20
81.8074
 11
272.27
 21
81.8074
  0
LINE
  5
1A6
  8
0
  6
BYLAYER
 62
    0
 10
272.27
 20
81.8074
 11
272.27
 21
67.8078
  0
LINE
  5
1A7
  8
0
  6
BYLAYER
 62
    0
 10
272.27
 20
67.8078
 11
258.27
 21
67.8078
  0
LINE
  5
1A8
  8
0
  6
BYLAYER
 62
    0
 10
258.27
 20
67.8078
 11
258.27
 21
81.8074
  0
LINE
  5
1A9
  8
0
  6
BYLAYER
 62
    0
 10
239.22
 20
81.8074
 11
253.22
 21
81.8074
  0
LINE
  5
1AA
  8
0
  6
BYLAYER
 62
    0
 10
253.22
 20
81.8074
 11
253.22
 21
67.8078
  0
LINE
  5
1AB
  8
0
  6
BYLAYER
 62
    0
 10
253.22
 20
67.8078
 11
239.22
 21
67.8078
  0
LINE
  5
1AC
  8
0
  6
BYLAYER
 62
    0
 10
239.22
 20
67.8078
 11
239.22
 21
81.8074
  0
LINE
  5
1AD
  8
0
  6
BYLAYER
 62
    0
 10
220.17
 20
81.8074
 11
234.17
 21
81.8074
  0
LINE
  5
1AE
  8
0
  6
BYLAYER
 62
    0
 10
234.17
 20
81.8074
 11
234.17
 21
67.8078
  0
LINE
  5
1AF
  8
0
  6
BYLAYER
 62
    0
 10
234.17
 20
67.8078
 11
220.17
 21
67.8078
  0
LINE
  5
1B0
  8
0
  6
BYLAYER
 62
    0
 10
220.17
 20
67.8078
 11
220.17
 21
81.8074
  0
LINE
  5
1B1
  8
0
  6
BYLAYER
 62
    0
 10
201.12
 20
81.8074
 11
215.12
 21
81.8074
  0
LINE
  5
1B2
  8
0
  6
BYLAYER
 62
    0
 10
215.12
 20
81.8074
 11
215.12
 21
67.8078
  0
LINE
  5
1B3
  8
0
  6
BYLAYER
 62
    0
 10
215.12
 20
67.8078
 11
201.12
 21
67.8078
  0
LINE
  5
1B4
  8
0
  6
BYLAYER
 62
    0
 10
201.12
 20
67.8078
 11
201.12
 21
81.8074
  0
LINE
  5
1B5
  8
0
  6
BYLAYER
 62
    0
 10
182.07
 20
81.8074
 11
196.07
 21
81.8074
  0
LINE
  5
1B6
  8
0
  6
BYLAYER
 62
    0
 10
196.07
 20
81.8074
 11
196.07
 21
67.8078
  0
LINE
  5
1B7
  8
0
  6
BYLAYER
 62
    0
 10
196.07
 20
67.8078
 11
182.07
 21
67.8078
  0
LINE
  5
1B8
  8
0
  6
BYLAYER
 62
    0
 10
182.07
 20
67.8078
 11
182.07
 21
81.8074
  0
LINE
  5
1B9
  8
0
  6
BYLAYER
 62
    0
 10
163.02
 20
81.8074
 11
177.02
 21
81.8074
  0
LINE
  5
1BA
  8
0
  6
BYLAYER
 62
    0
 10
177.02
 20
81.8074
 11
177.02
 21
67.8078
  0
LINE
  5
1BB
  8
0
  6
BYLAYER
 62
    0
 10
177.02
 20
67.8078
 11
163.02
 21
67.8078
  0
LINE
  5
1BC
  8
0
  6
BYLAYER
 62
    0
 10
163.02
 20
67.8078
 11
163.02
 21
81.8074
  0
LINE
  5
1BD
  8
0
  6
BYLAYER
 62
    0
 10
143.97
 20
81.8074
 11
157.97
 21
81.8074
  0
LINE
  5
1BE
  8
0
  6
BYLAYER
 62
    0
 10
157.97
 20
81.8074
 11
157.97
 21
67.8078
  0
LINE
  5
1BF
  8
0
  6
BYLAYER
 62
    0
 10
157.97
 20
67.8078
 11
143.97
 21
67.8078
  0
LINE
  5
1C0
  8
0
  6
BYLAYER
 62
    0
 10
143.97
 20
67.8078
 11
143.97
 21
81.8074
  0
LINE
  5
1C1
  8
0
  6
BYLAYER
 62
    0
 10
124.919
 20
81.8074
 11
138.92
 21
81.8074
  0
LINE
  5
1C2
  8
0
  6
BYLAYER
 62
    0
 10
138.92
 20
81.8074
 11
138.92
 21
67.8078
  0
LINE
  5
1C3
  8
0
  6
BYLAYER
 62
    0
 10
138.92
 20
67.8078
 11
124.919
 21
67.8078
  0
LINE
  5
1C4
  8
0
  6
BYLAYER
 62
    0
 10
124.919
 20
67.8078
 11
124.919
 21
81.8074
  0
LINE
  5
1C5
  8
0
  6
BYLAYER
 62
    0
 10
105.869
 20
81.8074
 11
119.87
 21
81.8074
  0
LINE
  5
1C6
  8
0
  6
BYLAYER
 62
    0
 10
119.87
 20
81.8074
 11
119.87
 21
67.8078
  0
LINE
  5
1C7
  8
0
  6
BYLAYER
 62
    0
 10
119.87
 20
67.8078
 11
105.869
 21
67.8078
  0
LINE
  5
1C8
  8
0
  6
BYLAYER
 62
    0
 10
105.869
 20
67.8078
 11
105.869
 21
81.8074
  0
LINE
  5
1C9
  8
0
  6
BYLAYER
 62
    0
 10
86.82040000000001
 20
81.8074
 11
100.82
 21
81.8074
  0
LINE
  5
1CA
  8
0
  6
BYLAYER
 62
    0
 10
100.82
 20
81.8074
 11
100.82
 21
67.8078
  0
LINE
  5
1CB
  8
0
  6
BYLAYER
 62
    0
 10
100.82
 20
67.8078
 11
86.82040000000001
 21
67.8078
  0
LINE
  5
1CC
  8
0
  6
BYLAYER
 62
    0
 10
86.82040000000001
 20
67.8078
 11
86.82040000000001
 21
81.8074
  0
LINE
  5
1CD
  8
0
  6
BYLAYER
 62
    0
 10
67.7704
 20
81.8074
 11
81.77
 21
81.8074
  0
LINE
  5
1CE
  8
0
  6
BYLAYER
 62
    0
 10
81.77
 20
81.8074
 11
81.77
 21
67.8078
  0
LINE
  5
1CF
  8
0
  6
BYLAYER
 62
    0
 10
81.77
 20
67.8078
 11
67.7704
 21
67.8078
  0
LINE
  5
1D0
  8
0
  6
BYLAYER
 62
    0
 10
67.7704
 20
67.8078
 11
67.7704
 21
81.8074
  0
LINE
  5
1D1
  8
0
  6
BYLAYER
 62
    0
 10
48.7204
 20
81.8074
 11
62.72
 21
81.8074
  0
LINE
  5
1D2
  8
0
  6
BYLAYER
 62
    0
 10
62.72
 20
81.8074
 11
62.72
 21
67.8078
  0
LINE
  5
1D3
  8
0
  6
BYLAYER
 62
    0
 10
62.72
 20
67.8078
 11
48.7204
 21
67.8078
  0
LINE
  5
1D4
  8
0
  6
BYLAYER
 62
    0
 10
48.7204
 20
67.8078
 11
48.7204
 21
81.8074
  0
LINE
  5
1D5
  8
0
  6
BYLAYER
 62
    0
 10
29.6706
 20
81.8074
 11
43.67
 21
81.8074
  0
LINE
  5
1D6
  8
0
  6
BYLAYER
 62
    0
 10
43.67
 20
81.8074
 11
43.67
 21
67.8078
  0
LINE
  5
1D7
  8
0
  6
BYLAYER
 62
    0
 10
43.67
 20
67.8078
 11
29.6706
 21
67.8078
  0
LINE
  5
1D8
  8
0
  6
BYLAYER
 62
    0
 10
29.6706
 20
67.8078
 11
29.6706
 21
81.8074
  0
LINE
  5
1D9
  8
0
  6
BYLAYER
 62
    0
 10
10.6192
 20
81.8074
 11
24.62
 21
81.8074
  0
LINE
  5
1DA
  8
0
  6
BYLAYER
 62
    0
 10
24.62
 20
81.8074
 11
24.62
 21
67.8078
  0
LINE
  5
1DB
  8
0
  6
BYLAYER
 62
    0
 10
24.62
 20
67.8078
 11
10.6192
 21
67.8078
  0
LINE
  5
1DC
  8
0
  6
BYLAYER
 62
    0
 10
10.6192
 20
67.8078
 11
10.6192
 21
81.8074
  0
LINE
  5
1DD
  8
0
  6
BYLAYER
 62
    0
 10
258.27
 20
100.857
 11
272.27
 21
100.857
  0
LINE
  5
1DE
  8
0
  6
BYLAYER
 62
    0
 10
272.27
 20
100.857
 11
272.27
 21
86.8578
  0
LINE
  5
1DF
  8
0
  6
BYLAYER
 62
    0
 10
272.27
 20
86.8578
 11
258.27
 21
86.8578
  0
LINE
  5
1E0
  8
0
  6
BYLAYER
 62
    0
 10
258.27
 20
86.8578
 11
258.27
 21
100.857
  0
LINE
  5
1E1
  8
0
  6
BYLAYER
 62
    0
 10
239.22
 20
100.857
 11
253.22
 21
100.857
  0
LINE
  5
1E2
  8
0
  6
BYLAYER
 62
    0
 10
253.22
 20
100.857
 11
253.22
 21
86.8578
  0
LINE
  5
1E3
  8
0
  6
BYLAYER
 62
    0
 10
253.22
 20
86.8578
 11
239.22
 21
86.8578
  0
LINE
  5
1E4
  8
0
  6
BYLAYER
 62
    0
 10
239.22
 20
86.8578
 11
239.22
 21
100.857
  0
LINE
  5
1E5
  8
0
  6
BYLAYER
 62
    0
 10
220.17
 20
100.857
 11
234.17
 21
100.857
  0
LINE
  5
1E6
  8
0
  6
BYLAYER
 62
    0
 10
234.17
 20
100.857
 11
234.17
 21
86.8578
  0
LINE
  5
1E7
  8
0
  6
BYLAYER
 62
    0
 10
234.17
 20
86.8578
 11
220.17
 21
86.8578
  0
LINE
  5
1E8
  8
0
  6
BYLAYER
 62
    0
 10
220.17
 20
86.8578
 11
220.17
 21
100.857
  0
LINE
  5
1E9
  8
0
  6
BYLAYER
 62
    0
 10
201.12
 20
100.857
 11
215.12
 21
100.857
  0
LINE
  5
1EA
  8
0
  6
BYLAYER
 62
    0
 10
215.12
 20
100.857
 11
215.12
 21
86.8578
  0
LINE
  5
1EB
  8
0
  6
BYLAYER
 62
    0
 10
215.12
 20
86.8578
 11
201.12
 21
86.8578
  0
LINE
  5
1EC
  8
0
  6
BYLAYER
 62
    0
 10
201.12
 20
86.8578
 11
201.12
 21
100.857
  0
LINE
  5
1ED
  8
0
  6
BYLAYER
 62
    0
 10
182.07
 20
100.857
 11
196.07
 21
100.857
  0
LINE
  5
1EE
  8
0
  6
BYLAYER
 62
    0
 10
196.07
 20
100.857
 11
196.07
 21
86.8578
  0
LINE
  5
1EF
  8
0
  6
BYLAYER
 62
    0
 10
196.07
 20
86.8578
 11
182.07
 21
86.8578
  0
LINE
  5
1F0
  8
0
  6
BYLAYER
 62
    0
 10
182.07
 20
86.8578
 11
182.07
 21
100.857
  0
LINE
  5
1F1
  8
0
  6
BYLAYER
 62
    0
 10
163.02
 20
100.857
 11
177.02
 21
100.857
  0
LINE
  5
1F2
  8
0
  6
BYLAYER
 62
    0
 10
177.02
 20
100.857
 11
177.02
 21
86.8578
  0
LINE
  5
1F3
  8
0
  6
BYLAYER
 62
    0
 10
177.02
 20
86.8578
 11
163.02
 21
86.8578
  0
LINE
  5
1F4
  8
0
  6
BYLAYER
 62
    0
 10
163.02
 20
86.8578
 11
163.02
 21
100.857
  0
LINE
  5
1F5
  8
0
  6
BYLAYER
 62
    0
 10
143.97
 20
100.857
 11
157.97
 21
100.857
  0
LINE
  5
1F6
  8
0
  6
BYLAYER
 62
    0
 10
157.97
 20
100.857
 11
157.97
 21
86.8578
  0
LINE
  5
1F7
  8
0
  6
BYLAYER
 62
    0
 10
157.97
 20
86.8578
 11
143.97
 21
86.8578
  0
LINE
  5
1F8
  8
0
  6
BYLAYER
 62
    0
 10
143.97
 20
86.8578
 11
143.97
 21
100.857
  0
LINE
  5
1F9
  8
0
  6
BYLAYER
 62
    0
 10
124.919
 20
100.857
 11
138.92
 21
100.857
  0
LINE
  5
1FA
  8
0
  6
BYLAYER
 62
    0
 10
138.92
 20
100.857
 11
138.92
 21
86.8578
  0
LINE
  5
1FB
  8
0
  6
BYLAYER
 62
    0
 10
138.92
 20
86.8578
 11
124.919
 21
86.8578
  0
LINE
  5
1FC
  8
0
  6
BYLAYER
 62
    0
 10
124.919
 20
86.8578
 11
124.919
 21
100.857
  0
LINE
  5
1FD
  8
0
  6
BYLAYER
 62
    0
 10
105.869
 20
100.857
 11
119.87
 21
100.857
  0
LINE
  5
1FE
  8
0
  6
BYLAYER
 62
    0
 10
119.87
 20
100.857
 11
119.87
 21
86.8578
  0
LINE
  5
1FF
  8
0
  6
BYLAYER
 62
    0
 10
119.87
 20
86.8578
 11
105.869
 21
86.8578
  0
LINE
  5
200
  8
0
  6
BYLAYER
 62
    0
 10
105.869
 20
86.8578
 11
105.869
 21
100.857
  0
LINE
  5
201
  8
0
  6
BYLAYER
 62
    0
 10
86.82040000000001
 20
100.857
 11
100.82
 21
100.857
  0
LINE
  5
202
  8
0
  6
BYLAYER
 62
    0
 10
100.82
 20
100.857
 11
100.82
 21
86.8578
  0
LINE
  5
203
  8
0
  6
BYLAYER
 62
    0
 10
100.82
 20
86.8578
 11
86.82040000000001
 21
86.8578
  0
LINE
  5
204
  8
0
  6
BYLAYER
 62
    0
 10
86.82040000000001
 20
86.8578
 11
86.82040000000001
 21
100.857
  0
LINE
  5
205
  8
0
  6
BYLAYER
 62
    0
 10
67.7704
 20
100.857
 11
81.77
 21
100.857
  0
LINE
  5
206
  8
0
  6
BYLAYER
 62
    0
 10
81.77
 20
100.857
 11
81.77
 21
86.8578
  0
LINE
  5
207
  8
0
  6
BYLAYER
 62
    0
 10
81.77
 20
86.8578
 11
67.7704
 21
86.8578
  0
LINE
  5
208
  8
0
  6
BYLAYER
 62
    0
 10
67.7704
 20
86.8578
 11
67.7704
 21
100.857
  0
LINE
  5
209
  8
0
  6
BYLAYER
 62
    0
 10
48.7204
 20
100.857
 11
62.72
 21
100.857
  0
LINE
  5
20A
  8
0
  6
BYLAYER
 62
    0
 10
62.72
 20
100.857
 11
62.72
 21
86.8578
  0
LINE
  5
20B
  8
0
  6
BYLAYER
 62
    0
 10
62.72
 20
86.8578
 11
48.7204
 21
86.8578
  0
LINE
  5
20C
  8
0
  6
BYLAYER
 62
    0
 10
48.7204
 20
86.8578
 11
48.7204
 21
100.857
  0
LINE
  5
20D
  8
0
  6
BYLAYER
 62
    0
 10
29.6706
 20
100.857
 11
43.67
 21
100.857
  0
LINE
  5
20E
  8
0
  6
BYLAYER
 62
    0
 10
43.67
 20
100.857
 11
43.67
 21
86.8578
  0
LINE
  5
20F
  8
0
  6
BYLAYER
 62
    0
 10
43.67
 20
86.8578
 11
29.6706
 21
86.8578
  0
LINE
  5
210
  8
0
  6
BYLAYER
 62
    0
 10
29.6706
 20
86.8578
 11
29.6706
 21
100.857
  0
LINE
  5
211
  8
0
  6
BYLAYER
 62
    0
 10
10.6192
 20
100.857
 11
24.62
 21
100.857
  0
LINE
  5
212
  8
0
  6
BYLAYER
 62
    0
 10
24.62
 20
100.857
 11
24.62
 21
86.8578
  0
LINE
  5
213
  8
0
  6
BYLAYER
 62
    0
 10
24.62
 20
86.8578
 11
10.6192
 21
86.8578
  0
LINE
  5
214
  8
0
  6
BYLAYER
 62
    0
 10
10.6192
 20
86.8578
 11
10.6192
 21
100.857
  0
LINE
  5
215
  8
0
  6
BYLAYER
 62
    0
 10
258.27
 20
119.908
 11
272.27
 21
119.908
  0
LINE
  5
216
  8
0
  6
BYLAYER
 62
    0
 10
272.27
 20
119.908
 11
272.27
 21
105.908
  0
LINE
  5
217
  8
0
  6
BYLAYER
 62
    0
 10
272.27
 20
105.908
 11
258.27
 21
105.908
  0
LINE
  5
218
  8
0
  6
BYLAYER
 62
    0
 10
258.27
 20
105.908
 11
258.27
 21
119.908
  0
LINE
  5
219
  8
0
  6
BYLAYER
 62
    0
 10
239.22
 20
119.908
 11
253.22
 21
119.908
  0
LINE
  5
21A
  8
0
  6
BYLAYER
 62
    0
 10
253.22
 20
119.908
 11
253.22
 21
105.908
  0
LINE
  5
21B
  8
0
  6
BYLAYER
 62
    0
 10
253.22
 20
105.908
 11
239.22
 21
105.908
  0
LINE
  5
21C
  8
0
  6
BYLAYER
 62
    0
 10
239.22
 20
105.908
 11
239.22
 21
119.908
  0
LINE
  5
21D
  8
0
  6
BYLAYER
 62
    0
 10
220.17
 20
119.908
 11
234.17
 21
119.908
  0
LINE
  5
21E
  8
0
  6
BYLAYER
 62
    0
 10
234.17
 20
119.908
 11
234.17
 21
105.908
  0
LINE
  5
21F
  8
0
  6
BYLAYER
 62
    0
 10
234.17
 20
105.908
 11
220.17
 21
105.908
  0
LINE
  5
220
  8
0
  6
BYLAYER
 62
    0
 10
220.17
 20
105.908
 11
220.17
 21
119.908
  0
LINE
  5
221
  8
0
  6
BYLAYER
 62
    0
 10
201.12
 20
119.908
 11
215.12
 21
119.908
  0
LINE
  5
222
  8
0
  6
BYLAYER
 62
    0
 10
215.12
 20
119.908
 11
215.12
 21
105.908
  0
LINE
  5
223
  8
0
  6
BYLAYER
 62
    0
 10
215.12
 20
105.908
 11
201.12
 21
105.908
  0
LINE
  5
224
  8
0
  6
BYLAYER
 62
    0
 10
201.12
 20
105.908
 11
201.12
 21
119.908
  0
LINE
  5
225
  8
0
  6
BYLAYER
 62
    0
 10
182.07
 20
119.908
 11
196.07
 21
119.908
  0
LINE
  5
226
  8
0
  6
BYLAYER
 62
    0
 10
196.07
 20
119.908
 11
196.07
 21
105.908
  0
LINE
  5
227
  8
0
  6
BYLAYER
 62
    0
 10
196.07
 20
105.908
 11
182.07
 21
105.908
  0
LINE
  5
228
  8
0
  6
BYLAYER
 62
    0
 10
182.07
 20
105.908
 11
182.07
 21
119.908
  0
LINE
  5
229
  8
0
  6
BYLAYER
 62
    0
 10
163.02
 20
119.908
 11
177.02
 21
119.908
  0
LINE
  5
22A
  8
0
  6
BYLAYER
 62
    0
 10
177.02
 20
119.908
 11
177.02
 21
105.908
  0
LINE
  5
22B
  8
0
  6
BYLAYER
 62
    0
 10
177.02
 20
105.908
 11
163.02
 21
105.908
  0
LINE
  5
22C
  8
0
  6
BYLAYER
 62
    0
 10
163.02
 20
105.908
 11
163.02
 21
119.908
  0
LINE
  5
22D
  8
0
  6
BYLAYER
 62
    0
 10
143.97
 20
119.908
 11
157.97
 21
119.908
  0
LINE
  5
22E
  8
0
  6
BYLAYER
 62
    0
 10
157.97
 20
119.908
 11
157.97
 21
105.908
  0
LINE
  5
22F
  8
0
  6
BYLAYER
 62
    0
 10
157.97
 20
105.908
 11
143.97
 21
105.908
  0
LINE
  5
230
  8
0
  6
BYLAYER
 62
    0
 10
143.97
 20
105.908
 11
143.97
 21
119.908
  0
LINE
  5
231
  8
0
  6
BYLAYER
 62
    0
 10
124.919
 20
119.908
 11
138.92
 21
119.908
  0
LINE
  5
232
  8
0
  6
BYLAYER
 62
    0
 10
138.92
 20
119.908
 11
138.92
 21
105.908
  0
LINE
  5
233
  8
0
  6
BYLAYER
 62
    0
 10
138.92
 20
105.908
 11
124.919
 21
105.908
  0
LINE
  5
234
  8
0
  6
BYLAYER
 62
    0
 10
124.919
 20
105.908
 11
124.919
 21
119.908
  0
LINE
  5
235
  8
0
  6
BYLAYER
 62
    0
 10
105.869
 20
119.908
 11
119.87
 21
119.908
  0
LINE
  5
236
  8
0
  6
BYLAYER
 62
    0
 10
119.87
 20
119.908
 11
119.87
 21
105.908
  0
LINE
  5
237
  8
0
  6
BYLAYER
 62
    0
 10
119.87
 20
105.908
 11
105.869
 21
105.908
  0
LINE
  5
238
  8
0
  6
BYLAYER
 62
    0
 10
105.869
 20
105.908
 11
105.869
 21
119.908
  0
LINE
  5
239
  8
0
  6
BYLAYER
 62
    0
 10
86.82040000000001
 20
119.908
 11
100.82
 21
119.908
  0
LINE
  5
23A
  8
0
  6
BYLAYER
 62
    0
 10
100.82
 20
119.908
 11
100.82
 21
105.908
  0
LINE
  5
23B
  8
0
  6
BYLAYER
 62
    0
 10
100.82
 20
105.908
 11
86.82040000000001
 21
105.908
  0
LINE
  5
23C
  8
0
  6
BYLAYER
 62
    0
 10
86.82040000000001
 20
105.908
 11
86.82040000000001
 21
119.908
  0
LINE
  5
23D
  8
0
  6
BYLAYER
 62
    0
 10
67.7704
 20
119.908
 11
81.77
 21
119.908
  0
LINE
  5
23E
  8
0
  6
BYLAYER
 62
    0
 10
81.77
 20
119.908
 11
81.77
 21
105.908
  0
LINE
  5
23F
  8
0
  6
BYLAYER
 62
    0
 10
81.77
 20
105.908
 11
67.7704
 21
105.908
  0
LINE
  5
240
  8
0
  6
BYLAYER
 62
    0
 10
67.7704
 20
105.908
 11
67.7704
 21
119.908
  0
LINE
  5
241
  8
0
  6
BYLAYER
 62
    0
 10
48.7204
 20
119.908
 11
62.72
 21
119.908
  0
LINE
  5
242
  8
0
  6
BYLAYER
 62
    0
 10
62.72
 20
119.908
 11
62.72
 21
105.908
  0
LINE
  5
243
  8
0
  6
BYLAYER
 62
    0
 10
62.72
 20
105.908
 11
48.7204
 21
105.908
  0
LINE
  5
244
  8
0
  6
BYLAYER
 62
    0
 10
48.7204
 20
105.908
 11
48.7204
 21
119.908
  0
LINE
  5
245
  8
0
  6
BYLAYER
 62
    0
 10
29.6706
 20
119.908
 11
43.67
 21
119.908
  0
LINE
  5
246
  8
0
  6
BYLAYER
 62
    0
 10
43.67
 20
119.908
 11
43.67
 21
105.908
  0
LINE
  5
247
  8
0
  6
BYLAYER
 62
    0
 10
43.67
 20
105.908
 11
29.6706
 21
105.908
  0
LINE
  5
248
  8
0
  6
BYLAYER
 62
    0
 10
29.6706
 20
105.908
 11
29.6706
 21
119.908
  0
LINE
  5
249
  8
0
  6
BYLAYER
 62
    0
 10
10.6192
 20
119.908
 11
24.62
 21
119.908
  0
LINE
  5
24A
  8
0
  6
BYLAYER
 62
    0
 10
24.62
 20
119.908
 11
24.62
 21
105.908
  0
LINE
  5
24B
  8
0
  6
BYLAYER
 62
    0
 10
24.62
 20
105.908
 11
10.6192
 21
105.908
  0
LINE
  5
24C
  8
0
  6
BYLAYER
 62
    0
 10
10.6192
 20
105.908
 11
10.6192
 21
119.908
  0
LINE
  5
24D
  8
0
  6
BYLAYER
 62
    0
 10
3.1309
 20
128.359
 11
2.71336
 21
128.147
  0
LINE
  5
24E
  8
0
  6
BYLAYER
 62
    0
 10
2.71336
 20
128.147
 11
2.38125
 21
127.815
  0
LINE
  5
24F
  8
0
  6
BYLAYER
 62
    0
 10
2.38125
 20
127.815
 11
2.16903
 21
127.397
  0
LINE
  5
250
  8
0
  6
BYLAYER
 62
    0
 10
2.16903
 20
127.397
 11
2.09462
 21
126.933
  0
LINE
  5
251
  8
0
  6
BYLAYER
 62
    0
 10
2.09462
 20
126.933
 11
2.16903
 21
126.469
  0
LINE
  5
252
  8
0
  6
BYLAYER
 62
    0
 10
2.16903
 20
126.469
 11
2.38125
 21
126.052
  0
LINE
  5
253
  8
0
  6
BYLAYER
 62
    0
 10
2.38125
 20
126.052
 11
2.71336
 21
125.72
  0
LINE
  5
254
  8
0
  6
BYLAYER
 62
    0
 10
2.71336
 20
125.72
 11
3.1309
 21
125.506
  0
LINE
  5
255
  8
0
  6
BYLAYER
 62
    0
 10
3.1309
 20
125.506
 11
3.59392
 21
125.432
  0
LINE
  5
256
  8
0
  6
BYLAYER
 62
    0
 10
3.59392
 20
125.432
 11
4.05832
 21
125.506
  0
LINE
  5
257
  8
0
  6
BYLAYER
 62
    0
 10
4.05832
 20
125.506
 11
4.47587
 21
125.72
  0
LINE
  5
258
  8
0
  6
BYLAYER
 62
    0
 10
4.47587
 20
125.72
 11
4.80797
 21
126.052
  0
LINE
  5
259
  8
0
  6
BYLAYER
 62
    0
 10
4.80797
 20
126.052
 11
5.02158
 21
126.469
  0
LINE
  5
25A
  8
0
  6
BYLAYER
 62
    0
 10
5.02158
 20
126.469
 11
5.0946
 21
126.933
  0
LINE
  5
25B
  8
0
  6
BYLAYER
 62
    0
 10
5.0946
 20
126.933
 11
5.02158
 21
127.397
  0
LINE
  5
25C
  8
0
  6
BYLAYER
 62
    0
 10
5.02158
 20
127.397
 11
4.80797
 21
127.815
  0
LINE
  5
25D
  8
0
  6
BYLAYER
 62
    0
 10
4.80797
 20
127.815
 11
4.47587
 21
128.147
  0
LINE
  5
25E
  8
0
  6
BYLAYER
 62
    0
 10
4.47587
 20
128.147
 11
4.05832
 21
128.359
  0
LINE
  5
25F
  8
0
  6
BYLAYER
 62
    0
 10
4.05832
 20
128.359
 11
3.59392
 21
128.432
  0
LINE
  5
260
  8
0
  6
BYLAYER
 62
    0
 10
3.59392
 20
128.432
 11
3.1309
 21
128.359
  0
LINE
  5
261
  8
0
  6
BYLAYER
 62
    0
 10
278.832
 20
128.359
 11
278.415
 21
128.147
  0
LINE
  5
262
  8
0
  6
BYLAYER
 62
    0
 10
278.415
 20
128.147
 11
278.083
 21
127.815
  0
LINE
  5
263
  8
0
  6
BYLAYER
 62
    0
 10
278.083
 20
127.815
 11
277.869
 21
127.397
  0
LINE
  5
264
  8
0
  6
BYLAYER
 62
    0
 10
277.869
 20
127.397
 11
277.796
 21
126.933
  0
LINE
  5
265
  8
0
  6
BYLAYER
 62
    0
 10
277.796
 20
126.933
 11
277.869
 21
126.469
  0
LINE
  5
266
  8
0
  6
BYLAYER
 62
    0
 10
277.869
 20
126.469
 11
278.083
 21
126.052
  0
LINE
  5
267
  8
0
  6
BYLAYER
 62
    0
 10
278.083
 20
126.052
 11
278.415
 21
125.72
  0
LINE
  5
268
  8
0
  6
BYLAYER
 62
    0
 10
278.415
 20
125.72
 11
278.832
 21
125.506
  0
LINE
  5
269
  8
0
  6
BYLAYER
 62
    0
 10
278.832
 20
125.506
 11
279.297
 21
125.432
  0
LINE
  5
26A
  8
0
  6
BYLAYER
 62
    0
 10
279.297
 20
125.432
 11
279.76
 21
125.506
  0
LINE
  5
26B
  8
0
  6
BYLAYER
 62
    0
 10
279.76
 20
125.506
 11
280.177
 21
125.72
  0
LINE
  5
26C
  8
0
  6
BYLAYER
 62
    0
 10
280.177
 20
125.72
 11
280.509
 21
126.052
  0
LINE
  5
26D
  8
0
  6
BYLAYER
 62
    0
 10
280.509
 20
126.052
 11
280.723
 21
126.469
  0
LINE
  5
26E
  8
0
  6
BYLAYER
 62
    0
 10
280.723
 20
126.469
 11
280.796
 21
126.933
  0
LINE
  5
26F
  8
0
  6
BYLAYER
 62
    0
 10
280.796
 20
126.933
 11
280.723
 21
127.397
  0
LINE
  5
270
  8
0
  6
BYLAYER
 62
    0
 10
280.723
 20
127.397
 11
280.509
 21
127.815
  0
LINE
  5
271
  8
0
  6
BYLAYER
 62
    0
 10
280.509
 20
127.815
 11
280.177
 21
128.147
  0
LINE
  5
272
  8
0
  6
BYLAYER
 62
    0
 10
280.177
 20
128.147
 11
279.76
 21
128.359
  0
LINE
  5
273
  8
0
  6
BYLAYER
 62
    0
 10
279.76
 20
128.359
 11
279.297
 21
128.432
  0
LINE
  5
274
  8
0
  6
BYLAYER
 62
    0
 10
279.297
 20
128.432
 11
278.832
 21
128.359
  0
LINE
  5
275
  8
0
  6
BYLAYER
 62
    0
 10
186.932
 20
128.359
 11
186.513
 21
128.147
  0
LINE
  5
276
  8
0
  6
BYLAYER
 62
    0
 10
186.513
 20
128.147
 11
186.183
 21
127.815
  0
LINE
  5
277
  8
0
  6
BYLAYER
 62
    0
 10
186.183
 20
127.815
 11
185.969
 21
127.397
  0
LINE
  5
278
  8
0
  6
BYLAYER
 62
    0
 10
185.969
 20
127.397
 11
185.896
 21
126.933
  0
LINE
  5
279
  8
0
  6
BYLAYER
 62
    0
 10
185.896
 20
126.933
 11
185.969
 21
126.469
  0
LINE
  5
27A
  8
0
  6
BYLAYER
 62
    0
 10
185.969
 20
126.469
 11
186.183
 21
126.052
  0
LINE
  5
27B
  8
0
  6
BYLAYER
 62
    0
 10
186.183
 20
126.052
 11
186.513
 21
125.72
  0
LINE
  5
27C
  8
0
  6
BYLAYER
 62
    0
 10
186.513
 20
125.72
 11
186.932
 21
125.506
  0
LINE
  5
27D
  8
0
  6
BYLAYER
 62
    0
 10
186.932
 20
125.506
 11
187.395
 21
125.432
  0
LINE
  5
27E
  8
0
  6
BYLAYER
 62
    0
 10
187.395
 20
125.432
 11
187.86
 21
125.506
  0
LINE
  5
27F
  8
0
  6
BYLAYER
 62
    0
 10
187.86
 20
125.506
 11
188.277
 21
125.72
  0
LINE
  5
280
  8
0
  6
BYLAYER
 62
    0
 10
188.277
 20
125.72
 11
188.609
 21
126.052
  0
LINE
  5
281
  8
0
  6
BYLAYER
 62
    0
 10
188.609
 20
126.052
 11
188.823
 21
126.469
  0
LINE
  5
282
  8
0
  6
BYLAYER
 62
    0
 10
188.823
 20
126.469
 11
188.896
 21
126.933
  0
LINE
  5
283
  8
0
  6
BYLAYER
 62
    0
 10
188.896
 20
126.933
 11
188.823
 21
127.397
  0
LINE
  5
284
  8
0
  6
BYLAYER
 62
    0
 10
188.823
 20
127.397
 11
188.609
 21
127.815
  0
LINE
  5
285
  8
0
  6
BYLAYER
 62
    0
 10
188.609
 20
127.815
 11
188.277
 21
128.147
  0
LINE
  5
286
  8
0
  6
BYLAYER
 62
    0
 10
188.277
 20
128.147
 11
187.86
 21
128.359
  0
LINE
  5
287
  8
0
  6
BYLAYER
 62
    0
 10
187.86
 20
128.359
 11
187.395
 21
128.432
  0
LINE
  5
288
  8
0
  6
BYLAYER
 62
    0
 10
187.395
 20
128.432
 11
186.932
 21
128.359
  0
LINE
  5
289
  8
0
  6
BYLAYER
 62
    0
 10
95.0309
 20
128.359
 11
94.61320000000001
 21
128.147
  0
LINE
  5
28A
  8
0
  6
BYLAYER
 62
    0
 10
94.61320000000001
 20
128.147
 11
94.2813
 21
127.815
  0
LINE
  5
28B
  8
0
  6
BYLAYER
 62
    0
 10
94.2813
 20
127.815
 11
94.0689
 21
127.397
  0
LINE
  5
28C
  8
0
  6
BYLAYER
 62
    0
 10
94.0689
 20
127.397
 11
93.99590000000001
 21
126.933
  0
LINE
  5
28D
  8
0
  6
BYLAYER
 62
    0
 10
93.99590000000001
 20
126.933
 11
94.0689
 21
126.469
  0
LINE
  5
28E
  8
0
  6
BYLAYER
 62
    0
 10
94.0689
 20
126.469
 11
94.2813
 21
126.052
  0
LINE
  5
28F
  8
0
  6
BYLAYER
 62
    0
 10
94.2813
 20
126.052
 11
94.61320000000001
 21
125.72
  0
LINE
  5
290
  8
0
  6
BYLAYER
 62
    0
 10
94.61320000000001
 20
125.72
 11
95.0309
 21
125.506
  0
LINE
  5
291
  8
0
  6
BYLAYER
 62
    0
 10
95.0309
 20
125.506
 11
95.4952
 21
125.432
  0
LINE
  5
292
  8
0
  6
BYLAYER
 62
    0
 10
95.4952
 20
125.432
 11
95.9584
 21
125.506
  0
LINE
  5
293
  8
0
  6
BYLAYER
 62
    0
 10
95.9584
 20
125.506
 11
96.3771
 21
125.72
  0
LINE
  5
294
  8
0
  6
BYLAYER
 62
    0
 10
96.3771
 20
125.72
 11
96.708
 21
126.052
  0
LINE
  5
295
  8
0
  6
BYLAYER
 62
    0
 10
96.708
 20
126.052
 11
96.92149999999999
 21
126.469
  0
LINE
  5
296
  8
0
  6
BYLAYER
 62
    0
 10
96.92149999999999
 20
126.469
 11
96.99590000000001
 21
126.933
  0
LINE
  5
297
  8
0
  6
BYLAYER
 62
    0
 10
96.99590000000001
 20
126.933
 11
96.92149999999999
 21
127.397
  0
LINE
  5
298
  8
0
  6
BYLAYER
 62
    0
 10
96.92149999999999
 20
127.397
 11
96.708
 21
127.815
  0
LINE
  5
299
  8
0
  6
BYLAYER
 62
    0
 10
96.708
 20
127.815
 11
96.3771
 21
128.147
  0
LINE
  5
29A
  8
0
  6
BYLAYER
 62
    0
 10
96.3771
 20
128.147
 11
95.9584
 21
128.359
  0
LINE
  5
29B
  8
0
  6
BYLAYER
 62
    0
 10
95.9584
 20
128.359
 11
95.4952
 21
128.432
  0
LINE
  5
29C
  8
0
  6
BYLAYER
 62
    0
 10
95.4952
 20
128.432
 11
95.0309
 21
128.359
  0
ENDBLK
  8
0
  0
BLOCK
  8
0
  2
C7C528542E24F07160729EC88E356D852B43CEC6_OPEN(1)
 70
    0
 10
0
 20
0
  3
C7C528542E24F07160729EC88E356D852B43CEC6_OPEN(1)
  1

  0
LINE
  5
29D
  8
0
  6
BYLAYER
 62
    0
 10
23.4459
 20
123.432
 11
7.09553
 21
123.432
  0
LINE
  5
29E
  8
0
  6
BYLAYER
 62
    0
 10
7.09553
 20
123.432
 11
7.09553
 21
7.13274
  0
LINE
  5
29F
  8
0
  6
BYLAYER
 62
    0
 10
7.09553
 20
7.13274
 11
275.796
 21
7.13274
  0
LINE
  5
2A0
  8
0
  6
BYLAYER
 62
    0
 10
275.796
 20
7.13274
 11
275.796
 21
123.432
  0
LINE
  5
2A1
  8
0
  6
BYLAYER
 62
    0
 10
275.796
 20
123.432
 11
31.4454
 21
123.432
  0
LINE
  5
2A2
  8
0
  6
BYLAYER
 62
    0
 10
31.4454
 20
123.432
 11
31.4454
 21
130.433
  0
LINE
  5
2A3
  8
0
  6
BYLAYER
 62
    0
 10
31.4454
 20
130.433
 11
279.797
 21
130.433
  0
LINE
  5
2A4
  8
0
  6
BYLAYER
 62
    0
 10
279.797
 20
130.433
 11
280.031
 21
130.423
  0
LINE
  5
2A5
  8
0
  6
BYLAYER
 62
    0
 10
280.031
 20
130.423
 11
280.265
 21
130.397
  0
LINE
  5
2A6
  8
0
  6
BYLAYER
 62
    0
 10
280.265
 20
130.397
 11
280.497
 21
130.35
  0
LINE
  5
2A7
  8
0
  6
BYLAYER
 62
    0
 10
280.497
 20
130.35
 11
280.723
 21
130.286
  0
LINE
  5
2A8
  8
0
  6
BYLAYER
 62
    0
 10
280.723
 20
130.286
 11
280.945
 21
130.204
  0
LINE
  5
2A9
  8
0
  6
BYLAYER
 62
    0
 10
280.945
 20
130.204
 11
281.157
 21
130.106
  0
LINE
  5
2AA
  8
0
  6
BYLAYER
 62
    0
 10
281.157
 20
130.106
 11
281.364
 21
129.99
  0
LINE
  5
2AB
  8
0
  6
BYLAYER
 62
    0
 10
281.364
 20
129.99
 11
281.559
 21
129.861
  0
LINE
  5
2AC
  8
0
  6
BYLAYER
 62
    0
 10
281.559
 20
129.861
 11
281.744
 21
129.715
  0
LINE
  5
2AD
  8
0
  6
BYLAYER
 62
    0
 10
281.744
 20
129.715
 11
281.918
 21
129.555
  0
LINE
  5
2AE
  8
0
  6
BYLAYER
 62
    0
 10
281.918
 20
129.555
 11
282.078
 21
129.381
  0
LINE
  5
2AF
  8
0
  6
BYLAYER
 62
    0
 10
282.078
 20
129.381
 11
282.224
 21
129.197
  0
LINE
  5
2B0
  8
0
  6
BYLAYER
 62
    0
 10
282.224
 20
129.197
 11
282.353
 21
129.001
  0
LINE
  5
2B1
  8
0
  6
BYLAYER
 62
    0
 10
282.353
 20
129.001
 11
282.469
 21
128.794
  0
LINE
  5
2B2
  8
0
  6
BYLAYER
 62
    0
 10
282.469
 20
128.794
 11
282.568
 21
128.58
  0
LINE
  5
2B3
  8
0
  6
BYLAYER
 62
    0
 10
282.568
 20
128.58
 11
282.649
 21
128.36
  0
LINE
  5
2B4
  8
0
  6
BYLAYER
 62
    0
 10
282.649
 20
128.36
 11
282.713
 21
128.133
  0
LINE
  5
2B5
  8
0
  6
BYLAYER
 62
    0
 10
282.713
 20
128.133
 11
282.76
 21
127.903
  0
LINE
  5
2B6
  8
0
  6
BYLAYER
 62
    0
 10
282.76
 20
127.903
 11
282.786
 21
127.669
  0
LINE
  5
2B7
  8
0
  6
BYLAYER
 62
    0
 10
282.786
 20
127.669
 11
282.797
 21
127.433
  0
LINE
  5
2B8
  8
0
  6
BYLAYER
 62
    0
 10
282.797
 20
127.433
 11
282.797
 21
3.1309
  0
LINE
  5
2B9
  8
0
  6
BYLAYER
 62
    0
 10
282.797
 20
3.1309
 11
282.786
 21
2.89664
  0
LINE
  5
2BA
  8
0
  6
BYLAYER
 62
    0
 10
282.786
 20
2.89664
 11
282.76
 21
2.66237
  0
LINE
  5
2BB
  8
0
  6
BYLAYER
 62
    0
 10
282.76
 20
2.66237
 11
282.713
 21
2.43086
  0
LINE
  5
2BC
  8
0
  6
BYLAYER
 62
    0
 10
282.713
 20
2.43086
 11
282.649
 21
2.20486
  0
LINE
  5
2BD
  8
0
  6
BYLAYER
 62
    0
 10
282.649
 20
2.20486
 11
282.568
 21
1.983
  0
LINE
  5
2BE
  8
0
  6
BYLAYER
 62
    0
 10
282.568
 20
1.983
 11
282.469
 21
1.77078
  0
LINE
  5
2BF
  8
0
  6
BYLAYER
 62
    0
 10
282.469
 20
1.77078
 11
282.353
 21
1.56407
  0
LINE
  5
2C0
  8
0
  6
BYLAYER
 62
    0
 10
282.353
 20
1.56407
 11
282.224
 21
1.36839
  0
LINE
  5
2C1
  8
0
  6
BYLAYER
 62
    0
 10
282.224
 20
1.36839
 11
282.078
 21
1.18374
  0
LINE
  5
2C2
  8
0
  6
BYLAYER
 62
    0
 10
282.078
 20
1.18374
 11
281.918
 21
1.0101
  0
LINE
  5
2C3
  8
0
  6
BYLAYER
 62
    0
 10
281.918
 20
1.0101
 11
281.744
 21
0.850251
  0
LINE
  5
2C4
  8
0
  6
BYLAYER
 62
    0
 10
281.744
 20
0.850251
 11
281.559
 21
0.704176
  0
LINE
  5
2C5
  8
0
  6
BYLAYER
 62
    0
 10
281.559
 20
0.704176
 11
281.364
 21
0.574643
  0
LINE
  5
2C6
  8
0
  6
BYLAYER
 62
    0
 10
281.364
 20
0.574643
 11
281.157
 21
0.458886
  0
LINE
  5
2C7
  8
0
  6
BYLAYER
 62
    0
 10
281.157
 20
0.458886
 11
280.945
 21
0.359668
  0
LINE
  5
2C8
  8
0
  6
BYLAYER
 62
    0
 10
280.945
 20
0.359668
 11
280.723
 21
0.278364
  0
LINE
  5
2C9
  8
0
  6
BYLAYER
 62
    0
 10
280.723
 20
0.278364
 11
280.497
 21
0.214974
  0
LINE
  5
2CA
  8
0
  6
BYLAYER
 62
    0
 10
280.497
 20
0.214974
 11
280.265
 21
0.168121
  0
LINE
  5
2CB
  8
0
  6
BYLAYER
 62
    0
 10
280.265
 20
0.168121
 11
280.031
 21
0.141938
  0
LINE
  5
2CC
  8
0
  6
BYLAYER
 62
    0
 10
280.031
 20
0.141938
 11
279.797
 21
0.130914
  0
LINE
  5
2CD
  8
0
  6
BYLAYER
 62
    0
 10
279.797
 20
0.130914
 11
3.09507
 21
0.130914
  0
LINE
  5
2CE
  8
0
  6
BYLAYER
 62
    0
 10
3.09507
 20
0.130914
 11
2.85943
 21
0.141938
  0
LINE
  5
2CF
  8
0
  6
BYLAYER
 62
    0
 10
2.85943
 20
0.141938
 11
2.62516
 21
0.168121
  0
LINE
  5
2D0
  8
0
  6
BYLAYER
 62
    0
 10
2.62516
 20
0.168121
 11
2.39503
 21
0.214974
  0
LINE
  5
2D1
  8
0
  6
BYLAYER
 62
    0
 10
2.39503
 20
0.214974
 11
2.16765
 21
0.278364
  0
LINE
  5
2D2
  8
0
  6
BYLAYER
 62
    0
 10
2.16765
 20
0.278364
 11
1.94717
 21
0.359668
  0
LINE
  5
2D3
  8
0
  6
BYLAYER
 62
    0
 10
1.94717
 20
0.359668
 11
1.73357
 21
0.458886
  0
LINE
  5
2D4
  8
0
  6
BYLAYER
 62
    0
 10
1.73357
 20
0.458886
 11
1.52687
 21
0.574643
  0
LINE
  5
2D5
  8
0
  6
BYLAYER
 62
    0
 10
1.52687
 20
0.574643
 11
1.33119
 21
0.704176
  0
LINE
  5
2D6
  8
0
  6
BYLAYER
 62
    0
 10
1.33119
 20
0.704176
 11
1.14653
 21
0.850251
  0
LINE
  5
2D7
  8
0
  6
BYLAYER
 62
    0
 10
1.14653
 20
0.850251
 11
0.972894
 21
1.0101
  0
LINE
  5
2D8
  8
0
  6
BYLAYER
 62
    0
 10
0.972894
 20
1.0101
 11
0.813043
 21
1.18374
  0
LINE
  5
2D9
  8
0
  6
BYLAYER
 62
    0
 10
0.813043
 20
1.18374
 11
0.666972
 21
1.36839
  0
LINE
  5
2DA
  8
0
  6
BYLAYER
 62
    0
 10
0.666972
 20
1.36839
 11
0.537436
 21
1.56407
  0
LINE
  5
2DB
  8
0
  6
BYLAYER
 62
    0
 10
0.537436
 20
1.56407
 11
0.421679
 21
1.77078
  0
LINE
  5
2DC
  8
0
  6
BYLAYER
 62
    0
 10
0.421679
 20
1.77078
 11
0.323839
 21
1.983
  0
LINE
  5
2DD
  8
0
  6
BYLAYER
 62
    0
 10
0.323839
 20
1.983
 11
0.241157
 21
2.20486
  0
LINE
  5
2DE
  8
0
  6
BYLAYER
 62
    0
 10
0.241157
 20
2.20486
 11
0.177767
 21
2.43086
  0
LINE
  5
2DF
  8
0
  6
BYLAYER
 62
    0
 10
0.177767
 20
2.43086
 11
0.130914
 21
2.66237
  0
LINE
  5
2E0
  8
0
  6
BYLAYER
 62
    0
 10
0.130914
 20
2.66237
 11
0.104731
 21
2.89664
  0
LINE
  5
2E1
  8
0
  6
BYLAYER
 62
    0
 10
0.104731
 20
2.89664
 11
0.09508460000000001
 21
3.13228
  0
LINE
  5
2E2
  8
0
  6
BYLAYER
 62
    0
 10
0.09508460000000001
 20
3.13228
 11
0.09508460000000001
 21
127.433
  0
LINE
  5
2E3
  8
0
  6
BYLAYER
 62
    0
 10
0.09508460000000001
 20
127.433
 11
0.104731
 21
127.669
  0
LINE
  5
2E4
  8
0
  6
BYLAYER
 62
    0
 10
0.104731
 20
127.669
 11
0.130914
 21
127.903
  0
LINE
  5
2E5
  8
0
  6
BYLAYER
 62
    0
 10
0.130914
 20
127.903
 11
0.177767
 21
128.133
  0
LINE
  5
2E6
  8
0
  6
BYLAYER
 62
    0
 10
0.177767
 20
128.133
 11
0.241157
 21
128.36
  0
LINE
  5
2E7
  8
0
  6
BYLAYER
 62
    0
 10
0.241157
 20
128.36
 11
0.323839
 21
128.58
  0
LINE
  5
2E8
  8
0
  6
BYLAYER
 62
    0
 10
0.323839
 20
128.58
 11
0.421679
 21
128.794
  0
LINE
  5
2E9
  8
0
  6
BYLAYER
 62
    0
 10
0.421679
 20
128.794
 11
0.537436
 21
129.001
  0
LINE
  5
2EA
  8
0
  6
BYLAYER
 62
    0
 10
0.537436
 20
129.001
 11
0.666972
 21
129.197
  0
LINE
  5
2EB
  8
0
  6
BYLAYER
 62
    0
 10
0.666972
 20
129.197
 11
0.813043
 21
129.381
  0
LINE
  5
2EC
  8
0
  6
BYLAYER
 62
    0
 10
0.813043
 20
129.381
 11
0.972894
 21
129.555
  0
LINE
  5
2ED
  8
0
  6
BYLAYER
 62
    0
 10
0.972894
 20
129.555
 11
1.14653
 21
129.715
  0
LINE
  5
2EE
  8
0
  6
BYLAYER
 62
    0
 10
1.14653
 20
129.715
 11
1.33119
 21
129.861
  0
LINE
  5
2EF
  8
0
  6
BYLAYER
 62
    0
 10
1.33119
 20
129.861
 11
1.52687
 21
129.99
  0
LINE
  5
2F0
  8
0
  6
BYLAYER
 62
    0
 10
1.52687
 20
129.99
 11
1.73357
 21
130.106
  0
LINE
  5
2F1
  8
0
  6
BYLAYER
 62
    0
 10
1.73357
 20
130.106
 11
1.94717
 21
130.204
  0
LINE
  5
2F2
  8
0
  6
BYLAYER
 62
    0
 10
1.94717
 20
130.204
 11
2.16765
 21
130.286
  0
LINE
  5
2F3
  8
0
  6
BYLAYER
 62
    0
 10
2.16765
 20
130.286
 11
2.39503
 21
130.35
  0
LINE
  5
2F4
  8
0
  6
BYLAYER
 62
    0
 10
2.39503
 20
130.35
 11
2.62516
 21
130.397
  0
LINE
  5
2F5
  8
0
  6
BYLAYER
 62
    0
 10
2.62516
 20
130.397
 11
2.85943
 21
130.423
  0
LINE
  5
2F6
  8
0
  6
BYLAYER
 62
    0
 10
2.85943
 20
130.423
 11
3.09507
 21
130.433
  0
LINE
  5
2F7
  8
0
  6
BYLAYER
 62
    0
 10
3.09507
 20
130.433
 11
23.4459
 21
130.433
  0
LINE
  5
2F8
  8
0
  6
BYLAYER
 62
    0
 10
23.4459
 20
130.433
 11
23.4459
 21
123.432
  0
LINE
  5
2F9
  8
0
  6
BYLAYER
 62
    0
 10
3.1309
 20
5.05876
 11
2.71336
 21
4.84657
  0
LINE
  5
2FA
  8
0
  6
BYLAYER
 62
    0
 10
2.71336
 20
4.84657
 11
2.38125
 21
4.51309
  0
LINE
  5
2FB
  8
0
  6
BYLAYER
 62
    0
 10
2.38125
 20
4.51309
 11
2.16903
 21
4.09554
  0
LINE
  5
2FC
  8
0
  6
BYLAYER
 62
    0
 10
2.16903
 20
4.09554
 11
2.09462
 21
3.63114
  0
LINE
  5
2FD
  8
0
  6
BYLAYER
 62
    0
 10
2.09462
 20
3.63114
 11
2.16903
 21
3.16811
  0
LINE
  5
2FE
  8
0
  6
BYLAYER
 62
    0
 10
2.16903
 20
3.16811
 11
2.38125
 21
2.75057
  0
LINE
  5
2FF
  8
0
  6
BYLAYER
 62
    0
 10
2.38125
 20
2.75057
 11
2.71336
 21
2.41846
  0
LINE
  5
300
  8
0
  6
BYLAYER
 62
    0
 10
2.71336
 20
2.41846
 11
3.1309
 21
2.20486
  0
LINE
  5
301
  8
0
  6
BYLAYER
 62
    0
 10
3.1309
 20
2.20486
 11
3.59392
 21
2.13183
  0
LINE
  5
302
  8
0
  6
BYLAYER
 62
    0
 10
3.59392
 20
2.13183
 11
4.05832
 21
2.20486
  0
LINE
  5
303
  8
0
  6
BYLAYER
 62
    0
 10
4.05832
 20
2.20486
 11
4.47587
 21
2.41846
  0
LINE
  5
304
  8
0
  6
BYLAYER
 62
    0
 10
4.47587
 20
2.41846
 11
4.80797
 21
2.75057
  0
LINE
  5
305
  8
0
  6
BYLAYER
 62
    0
 10
4.80797
 20
2.75057
 11
5.02158
 21
3.16811
  0
LINE
  5
306
  8
0
  6
BYLAYER
 62
    0
 10
5.02158
 20
3.16811
 11
5.0946
 21
3.63114
  0
LINE
  5
307
  8
0
  6
BYLAYER
 62
    0
 10
5.0946
 20
3.63114
 11
5.02158
 21
4.09554
  0
LINE
  5
308
  8
0
  6
BYLAYER
 62
    0
 10
5.02158
 20
4.09554
 11
4.80797
 21
4.51309
  0
LINE
  5
309
  8
0
  6
BYLAYER
 62
    0
 10
4.80797
 20
4.51309
 11
4.47587
 21
4.84657
  0
LINE
  5
30A
  8
0
  6
BYLAYER
 62
    0
 10
4.47587
 20
4.84657
 11
4.05832
 21
5.05876
  0
LINE
  5
30B
  8
0
  6
BYLAYER
 62
    0
 10
4.05832
 20
5.05876
 11
3.59392
 21
5.13182
  0
LINE
  5
30C
  8
0
  6
BYLAYER
 62
    0
 10
3.59392
 20
5.13182
 11
3.1309
 21
5.05876
  0
LINE
  5
30D
  8
0
  6
BYLAYER
 62
    0
 10
95.0309
 20
5.05876
 11
94.61320000000001
 21
4.84657
  0
LINE
  5
30E
  8
0
  6
BYLAYER
 62
    0
 10
94.61320000000001
 20
4.84657
 11
94.2813
 21
4.51309
  0
LINE
  5
30F
  8
0
  6
BYLAYER
 62
    0
 10
94.2813
 20
4.51309
 11
94.0689
 21
4.09554
  0
LINE
  5
310
  8
0
  6
BYLAYER
 62
    0
 10
94.0689
 20
4.09554
 11
93.99590000000001
 21
3.63114
  0
LINE
  5
311
  8
0
  6
BYLAYER
 62
    0
 10
93.99590000000001
 20
3.63114
 11
94.0689
 21
3.16811
  0
LINE
  5
312
  8
0
  6
BYLAYER
 62
    0
 10
94.0689
 20
3.16811
 11
94.2813
 21
2.75057
  0
LINE
  5
313
  8
0
  6
BYLAYER
 62
    0
 10
94.2813
 20
2.75057
 11
94.61320000000001
 21
2.41846
  0
LINE
  5
314
  8
0
  6
BYLAYER
 62
    0
 10
94.61320000000001
 20
2.41846
 11
95.0309
 21
2.20486
  0
LINE
  5
315
  8
0
  6
BYLAYER
 62
    0
 10
95.0309
 20
2.20486
 11
95.4952
 21
2.13183
  0
LINE
  5
316
  8
0
  6
BYLAYER
 62
    0
 10
95.4952
 20
2.13183
 11
95.9584
 21
2.20486
  0
LINE
  5
317
  8
0
  6
BYLAYER
 62
    0
 10
95.9584
 20
2.20486
 11
96.3771
 21
2.41846
  0
LINE
  5
318
  8
0
  6
BYLAYER
 62
    0
 10
96.3771
 20
2.41846
 11
96.708
 21
2.75057
  0
LINE
  5
319
  8
0
  6
BYLAYER
 62
    0
 10
96.708
 20
2.75057
 11
96.92149999999999
 21
3.16811
  0
LINE
  5
31A
  8
0
  6
BYLAYER
 62
    0
 10
96.92149999999999
 20
3.16811
 11
96.99590000000001
 21
3.63114
  0
LINE
  5
31B
  8
0
  6
BYLAYER
 62
    0
 10
96.99590000000001
 20
3.63114
 11
96.92149999999999
 21
4.09554
  0
LINE
  5
31C
  8
0
  6
BYLAYER
 62
    0
 10
96.92149999999999
 20
4.09554
 11
96.708
 21
4.51309
  0
LINE
  5
31D
  8
0
  6
BYLAYER
 62
    0
 10
96.708
 20
4.51309
 11
96.3771
 21
4.84657
  0
LINE
  5
31E
  8
0
  6
BYLAYER
 62
    0
 10
96.3771
 20
4.84657
 11
95.9584
 21
5.05876
  0
LINE
  5
31F
  8
0
  6
BYLAYER
 62
    0
 10
95.9584
 20
5.05876
 11
95.4952
 21
5.13182
  0
LINE
  5
320
  8
0
  6
BYLAYER
 62
    0
 10
95.4952
 20
5.13182
 11
95.0309
 21
5.05876
  0
LINE
  5
321
  8
0
  6
BYLAYER
 62
    0
 10
186.932
 20
5.05876
 11
186.513
 21
4.84657
  0
LINE
  5
322
  8
0
  6
BYLAYER
 62
    0
 10
186.513
 20
4.84657
 11
186.183
 21
4.51309
  0
LINE
  5
323
  8
0
  6
BYLAYER
 62
    0
 10
186.183
 20
4.51309
 11
185.969
 21
4.09554
  0
LINE
  5
324
  8
0
  6
BYLAYER
 62
    0
 10
185.969
 20
4.09554
 11
185.896
 21
3.63114
  0
LINE
  5
325
  8
0
  6
BYLAYER
 62
    0
 10
185.896
 20
3.63114
 11
185.969
 21
3.16811
  0
LINE
  5
326
  8
0
  6
BYLAYER
 62
    0
 10
185.969
 20
3.16811
 11
186.183
 21
2.75057
  0
LINE
  5
327
  8
0
  6
BYLAYER
 62
    0
 10
186.183
 20
2.75057
 11
186.513
 21
2.41846
  0
LINE
  5
328
  8
0
  6
BYLAYER
 62
    0
 10
186.513
 20
2.41846
 11
186.932
 21
2.20486
  0
LINE
  5
329
  8
0
  6
BYLAYER
 62
    0
 10
186.932
 20
2.20486
 11
187.395
 21
2.13183
  0
LINE
  5
32A
  8
0
  6
BYLAYER
 62
    0
 10
187.395
 20
2.13183
 11
187.86
 21
2.20486
  0
LINE
  5
32B
  8
0
  6
BYLAYER
 62
    0
 10
187.86
 20
2.20486
 11
188.277
 21
2.41846
  0
LINE
  5
32C
  8
0
  6
BYLAYER
 62
    0
 10
188.277
 20
2.41846
 11
188.609
 21
2.75057
  0
LINE
  5
32D
  8
0
  6
BYLAYER
 62
    0
 10
188.609
 20
2.75057
 11
188.823
 21
3.16811
  0
LINE
  5
32E
  8
0
  6
BYLAYER
 62
    0
 10
188.823
 20
3.16811
 11
188.896
 21
3.63114
  0
LINE
  5
32F
  8
0
  6
BYLAYER
 62
    0
 10
188.896
 20
3.63114
 11
188.823
 21
4.09554
  0
LINE
  5
330
  8
0
  6
BYLAYER
 62
    0
 10
188.823
 20
4.09554
 11
188.609
 21
4.51309
  0
LINE
  5
331
  8
0
  6
BYLAYER
 62
    0
 10
188.609
 20
4.51309
 11
188.277
 21
4.84657
  0
LINE
  5
332
  8
0
  6
BYLAYER
 62
    0
 10
188.277
 20
4.84657
 11
187.86
 21
5.05876
  0
LINE
  5
333
  8
0
  6
BYLAYER
 62
    0
 10
187.86
 20
5.05876
 11
187.395
 21
5.13182
  0
LINE
  5
334
  8
0
  6
BYLAYER
 62
    0
 10
187.395
 20
5.13182
 11
186.932
 21
5.05876
  0
LINE
  5
335
  8
0
  6
BYLAYER
 62
    0
 10
278.832
 20
5.05876
 11
278.415
 21
4.84657
  0
LINE
  5
336
  8
0
  6
BYLAYER
 62
    0
 10
278.415
 20
4.84657
 11
278.083
 21
4.51309
  0
LINE
  5
337
  8
0
  6
BYLAYER
 62
    0
 10
278.083
 20
4.51309
 11
277.869
 21
4.09554
  0
LINE
  5
338
  8
0
  6
BYLAYER
 62
    0
 10
277.869
 20
4.09554
 11
277.796
 21
3.63114
  0
LINE
  5
339
  8
0
  6
BYLAYER
 62
    0
 10
277.796
 20
3.63114
 11
277.869
 21
3.16811
  0
LINE
  5
33A
  8
0
  6
BYLAYER
 62
    0
 10
277.869
 20
3.16811
 11
278.083
 21
2.75057
  0
LINE
  5
33B
  8
0
  6
BYLAYER
 62
    0
 10
278.083
 20
2.75057
 11
278.415
 21
2.41846
  0
LINE
  5
33C
  8
0
  6
BYLAYER
 62
    0
 10
278.415
 20
2.41846
 11
278.832
 21
2.20486
  0
LINE
  5
33D
  8
0
  6
BYLAYER
 62
    0
 10
278.832
 20
2.20486
 11
279.297
 21
2.13183
  0
LINE
  5
33E
  8
0
  6
BYLAYER
 62
    0
 10
279.297
 20
2.13183
 11
279.76
 21
2.20486
  0
LINE
  5
33F
  8
0
  6
BYLAYER
 62
    0
 10
279.76
 20
2.20486
 11
280.177
 21
2.41846
  0
LINE
  5
340
  8
0
  6
BYLAYER
 62
    0
 10
280.177
 20
2.41846
 11
280.509
 21
2.75057
  0
LINE
  5
341
  8
0
  6
BYLAYER
 62
    0
 10
280.509
 20
2.75057
 11
280.723
 21
3.16811
  0
LINE
  5
342
  8
0
  6
BYLAYER
 62
    0
 10
280.723
 20
3.16811
 11
280.796
 21
3.63114
  0
LINE
  5
343
  8
0
  6
BYLAYER
 62
    0
 10
280.796
 20
3.63114
 11
280.723
 21
4.09554
  0
LINE
  5
344
  8
0
  6
BYLAYER
 62
    0
 10
280.723
 20
4.09554
 11
280.509
 21
4.51309
  0
LINE
  5
345
  8
0
  6
BYLAYER
 62
    0
 10
280.509
 20
4.51309
 11
280.177
 21
4.84657
  0
LINE
  5
346
  8
0
  6
BYLAYER
 62
    0
 10
280.177
 20
4.84657
 11
279.76
 21
5.05876
  0
LINE
  5
347
  8
0
  6
BYLAYER
 62
    0
 10
279.76
 20
5.05876
 11
279.297
 21
5.13182
  0
LINE
  5
348
  8
0
  6
BYLAYER
 62
    0
 10
279.297
 20
5.13182
 11
278.832
 21
5.05876
  0
LINE
  5
349
  8
0
  6
BYLAYER
 62
    0
 10
3.1309
 20
128.359
 11
2.71336
 21
128.147
  0
LINE
  5
34A
  8
0
  6
BYLAYER
 62
    0
 10
2.71336
 20
128.147
 11
2.38125
 21
127.815
  0
LINE
  5
34B
  8
0
  6
BYLAYER
 62
    0
 10
2.38125
 20
127.815
 11
2.16903
 21
127.397
  0
LINE
  5
34C
  8
0
  6
BYLAYER
 62
    0
 10
2.16903
 20
127.397
 11
2.09462
 21
126.933
  0
LINE
  5
34D
  8
0
  6
BYLAYER
 62
    0
 10
2.09462
 20
126.933
 11
2.16903
 21
126.469
  0
LINE
  5
34E
  8
0
  6
BYLAYER
 62
    0
 10
2.16903
 20
126.469
 11
2.38125
 21
126.052
  0
LINE
  5
34F
  8
0
  6
BYLAYER
 62
    0
 10
2.38125
 20
126.052
 11
2.71336
 21
125.72
  0
LINE
  5
350
  8
0
  6
BYLAYER
 62
    0
 10
2.71336
 20
125.72
 11
3.1309
 21
125.506
  0
LINE
  5
351
  8
0
  6
BYLAYER
 62
    0
 10
3.1309
 20
125.506
 11
3.59392
 21
125.432
  0
LINE
  5
352
  8
0
  6
BYLAYER
 62
    0
 10
3.59392
 20
125.432
 11
4.05832
 21
125.506
  0
LINE
  5
353
  8
0
  6
BYLAYER
 62
    0
 10
4.05832
 20
125.506
 11
4.47587
 21
125.72
  0
LINE
  5
354
  8
0
  6
BYLAYER
 62
    0
 10
4.47587
 20
125.72
 11
4.80797
 21
126.052
  0
LINE
  5
355
  8
0
  6
BYLAYER
 62
    0
 10
4.80797
 20
126.052
 11
5.02158
 21
126.469
  0
LINE
  5
356
  8
0
  6
BYLAYER
 62
    0
 10
5.02158
 20
126.469
 11
5.0946
 21
126.933
  0
LINE
  5
357
  8
0
  6
BYLAYER
 62
    0
 10
5.0946
 20
126.933
 11
5.02158
 21
127.397
  0
LINE
  5
358
  8
0
  6
BYLAYER
 62
    0
 10
5.02158
 20
127.397
 11
4.80797
 21
127.815
  0
LINE
  5
359
  8
0
  6
BYLAYER
 62
    0
 10
4.80797
 20
127.815
 11
4.47587
 21
128.147
  0
LINE
  5
35A
  8
0
  6
BYLAYER
 62
    0
 10
4.47587
 20
128.147
 11
4.05832
 21
128.359
  0
LINE
  5
35B
  8
0
  6
BYLAYER
 62
    0
 10
4.05832
 20
128.359
 11
3.59392
 21
128.432
  0
LINE
  5
35C
  8
0
  6
BYLAYER
 62
    0
 10
3.59392
 20
128.432
 11
3.1309
 21
128.359
  0
LINE
  5
35D
  8
0
  6
BYLAYER
 62
    0
 10
278.832
 20
128.359
 11
278.415
 21
128.147
  0
LINE
  5
35E
  8
0
  6
BYLAYER
 62
    0
 10
278.415
 20
128.147
 11
278.083
 21
127.815
  0
LINE
  5
35F
  8
0
  6
BYLAYER
 62
    0
 10
278.083
 20
127.815
 11
277.869
 21
127.397
  0
LINE
  5
360
  8
0
  6
BYLAYER
 62
    0
 10
277.869
 20
127.397
 11
277.796
 21
126.933
  0
LINE
  5
361
  8
0
  6
BYLAYER
 62
    0
 10
277.796
 20
126.933
 11
277.869
 21
126.469
  0
LINE
  5
362
  8
0
  6
BYLAYER
 62
    0
 10
277.869
 20
126.469
 11
278.083
 21
126.052
  0
LINE
  5
363
  8
0
  6
BYLAYER
 62
    0
 10
278.083
 20
126.052
 11
278.415
 21
125.72
  0
LINE
  5
364
  8
0
  6
BYLAYER
 62
    0
 10
278.415
 20
125.72
 11
278.832
 21
125.506
  0
LINE
  5
365
  8
0
  6
BYLAYER
 62
    0
 10
278.832
 20
125.506
 11
279.297
 21
125.432
  0
LINE
  5
366
  8
0
  6
BYLAYER
 62
    0
 10
279.297
 20
125.432
 11
279.76
 21
125.506
  0
LINE
  5
367
  8
0
  6
BYLAYER
 62
    0
 10
279.76
 20
125.506
 11
280.177
 21
125.72
  0
LINE
  5
368
  8
0
  6
BYLAYER
 62
    0
 10
280.177
 20
125.72
 11
280.509
 21
126.052
  0
LINE
  5
369
  8
0
  6
BYLAYER
 62
    0
 10
280.509
 20
126.052
 11
280.723
 21
126.469
  0
LINE
  5
36A
  8
0
  6
BYLAYER
 62
    0
 10
280.723
 20
126.469
 11
280.796
 21
126.933
  0
LINE
  5
36B
  8
0
  6
BYLAYER
 62
    0
 10
280.796
 20
126.933
 11
280.723
 21
127.397
  0
LINE
  5
36C
  8
0
  6
BYLAYER
 62
    0
 10
280.723
 20
127.397
 11
280.509
 21
127.815
  0
LINE
  5
36D
  8
0
  6
BYLAYER
 62
    0
 10
280.509
 20
127.815
 11
280.177
 21
128.147
  0
LINE
  5
36E
  8
0
  6
BYLAYER
 62
    0
 10
280.177
 20
128.147
 11
279.76
 21
128.359
  0
LINE
  5
36F
  8
0
  6
BYLAYER
 62
    0
 10
279.76
 20
128.359
 11
279.297
 21
128.432
  0
LINE
  5
370
  8
0
  6
BYLAYER
 62
    0
 10
279.297
 20
128.432
 11
278.832
 21
128.359
  0
LINE
  5
371
  8
0
  6
BYLAYER
 62
    0
 10
186.932
 20
128.359
 11
186.513
 21
128.147
  0
LINE
  5
372
  8
0
  6
BYLAYER
 62
    0
 10
186.513
 20
128.147
 11
186.183
 21
127.815
  0
LINE
  5
373
  8
0
  6
BYLAYER
 62
    0
 10
186.183
 20
127.815
 11
185.969
 21
127.397
  0
LINE
  5
374
  8
0
  6
BYLAYER
 62
    0
 10
185.969
 20
127.397
 11
185.896
 21
126.933
  0
LINE
  5
375
  8
0
  6
BYLAYER
 62
    0
 10
185.896
 20
126.933
 11
185.969
 21
126.469
  0
LINE
  5
376
  8
0
  6
BYLAYER
 62
    0
 10
185.969
 20
126.469
 11
186.183
 21
126.052
  0
LINE
  5
377
  8
0
  6
BYLAYER
 62
    0
 10
186.183
 20
126.052
 11
186.513
 21
125.72
  0
LINE
  5
378
  8
0
  6
BYLAYER
 62
    0
 10
186.513
 20
125.72
 11
186.932
 21
125.506
  0
LINE
  5
379
  8
0
  6
BYLAYER
 62
    0
 10
186.932
 20
125.506
 11
187.395
 21
125.432
  0
LINE
  5
37A
  8
0
  6
BYLAYER
 62
    0
 10
187.395
 20
125.432
 11
187.86
 21
125.506
  0
LINE
  5
37B
  8
0
  6
BYLAYER
 62
    0
 10
187.86
 20
125.506
 11
188.277
 21
125.72
  0
LINE
  5
37C
  8
0
  6
BYLAYER
 62
    0
 10
188.277
 20
125.72
 11
188.609
 21
126.052
  0
LINE
  5
37D
  8
0
  6
BYLAYER
 62
    0
 10
188.609
 20
126.052
 11
188.823
 21
126.469
  0
LINE
  5
37E
  8
0
  6
BYLAYER
 62
    0
 10
188.823
 20
126.469
 11
188.896
 21
126.933
  0
LINE
  5
37F
  8
0
  6
BYLAYER
 62
    0
 10
188.896
 20
126.933
 11
188.823
 21
127.397
  0
LINE
  5
380
  8
0
  6
BYLAYER
 62
    0
 10
188.823
 20
127.397
 11
188.609
 21
127.815
  0
LINE
  5
381
  8
0
  6
BYLAYER
 62
    0
 10
188.609
 20
127.815
 11
188.277
 21
128.147
  0
LINE
  5
382
  8
0
  6
BYLAYER
 62
    0
 10
188.277
 20
128.147
 11
187.86
 21
128.359
  0
LINE
  5
383
  8
0
  6
BYLAYER
 62
    0
 10
187.86
 20
128.359
 11
187.395
 21
128.432
  0
LINE
  5
384
  8
0
  6
BYLAYER
 62
    0
 10
187.395
 20
128.432
 11
186.932
 21
128.359
  0
LINE
  5
385
  8
0
  6
BYLAYER
 62
    0
 10
95.0309
 20
128.359
 11
94.61320000000001
 21
128.147
  0
LINE
  5
386
  8
0
  6
BYLAYER
 62
    0
 10
94.61320000000001
 20
128.147
 11
94.2813
 21
127.815
  0
LINE
  5
387
  8
0
  6
BYLAYER
 62
    0
 10
94.2813
 20
127.815
 11
94.0689
 21
127.397
  0
LINE
  5
388
  8
0
  6
BYLAYER
 62
    0
 10
94.0689
 20
127.397
 11
93.99590000000001
 21
126.933
  0
LINE
  5
389
  8
0
  6
BYLAYER
 62
    0
 10
93.99590000000001
 20
126.933
 11
94.0689
 21
126.469
  0
LINE
  5
38A
  8
0
  6
BYLAYER
 62
    0
 10
94.0689
 20
126.469
 11
94.2813
 21
126.052
  0
LINE
  5
38B
  8
0
  6
BYLAYER
 62
    0
 10
94.2813
 20
126.052
 11
94.61320000000001
 21
125.72
  0
LINE
  5
38C
  8
0
  6
BYLAYER
 62
    0
 10
94.61320000000001
 20
125.72
 11
95.0309
 21
125.506
  0
LINE
  5
38D
  8
0
  6
BYLAYER
 62
    0
 10
95.0309
 20
125.506
 11
95.4952
 21
125.432
  0
LINE
  5
38E
  8
0
  6
BYLAYER
 62
    0
 10
95.4952
 20
125.432
 11
95.9584
 21
125.506
  0
LINE
  5
38F
  8
0
  6
BYLAYER
 62
    0
 10
95.9584
 20
125.506
 11
96.3771
 21
125.72
  0
LINE
  5
390
  8
0
  6
BYLAYER
 62
    0
 10
96.3771
 20
125.72
 11
96.708
 21
126.052
  0
LINE
  5
391
  8
0
  6
BYLAYER
 62
    0
 10
96.708
 20
126.052
 11
96.92149999999999
 21
126.469
  0
LINE
  5
392
  8
0
  6
BYLAYER
 62
    0
 10
96.92149999999999
 20
126.469
 11
96.99590000000001
 21
126.933
  0
LINE
  5
393
  8
0
  6
BYLAYER
 62
    0
 10
96.99590000000001
 20
126.933
 11
96.92149999999999
 21
127.397
  0
LINE
  5
394
  8
0
  6
BYLAYER
 62
    0
 10
96.92149999999999
 20
127.397
 11
96.708
 21
127.815
  0
LINE
  5
395
  8
0
  6
BYLAYER
 62
    0
 10
96.708
 20
127.815
 11
96.3771
 21
128.147
  0
LINE
  5
396
  8
0
  6
BYLAYER
 62
    0
 10
96.3771
 20
128.147
 11
95.9584
 21
128.359
  0
LINE
  5
397
  8
0
  6
BYLAYER
 62
    0
 10
95.9584
 20
128.359
 11
95.4952
 21
128.432
  0
LINE
  5
398
  8
0
  6
BYLAYER
 62
    0
 10
95.4952
 20
128.432
 11
95.0309
 21
128.359
  0
ENDBLK
  8
0
  0
ENDSEC
  0
SECTION
  2
ENTITIES
  0
LINE
  5
399
  8
0
  6
BYLAYER
 62
  256
 10
0
 20
0
 11
1.081168211599162e-015
 21
17.6574
  0
LINE
  5
39A
  8
0
  6
BYLAYER
 62
  256
 10
1.081168211599162e-015
 20
17.6574
 11
17.6196
 21
17.6574
  0
CIRCLE
  5
39B
  8
0
  6
BYLAYER
 62
  256
 10
17.63578643762689
 20
112.8857864376269
 40
2
  0
CIRCLE
  5
39C
  8
0
  6
BYLAYER
 62
  256
 10
36.68583643762689
 20
112.8857864376269
 40
2
  0
CIRCLE
  5
39D
  8
0
  6
BYLAYER
 62
  256
 10
55.7358364376269
 20
112.8857864376269
 40
2
  0
CIRCLE
  5
39E
  8
0
  6
BYLAYER
 62
  256
 10
74.7858364376269
 20
112.8857864376269
 40
2
  0
CIRCLE
  5
39F
  8
0
  6
BYLAYER
 62
  256
 10
93.8358364376269
 20
112.8857864376269
 40
2
  0
CIRCLE
  5
3A0
  8
0
  6
BYLAYER
 62
  256
 10
112.8844364376269
 20
112.8857864376269
 40
2
  0
CIRCLE
  5
3A1
  8
0
  6
BYLAYER
 62
  256
 10
131.9341364376269
 20
112.8857864376269
 40
2
  0
CIRCLE
  5
3A2
  8
0
  6
BYLAYER
 62
  256
 10
150.9861364376269
 20
112.8857864376269
 40
2
  0
CIRCLE
  5
3A3
  8
0
  6
BYLAYER
 62
  256
 10
170.0361364376269
 20
112.8857864376269
 40
2
  0
CIRCLE
  5
3A4
  8
0
  6
BYLAYER
 62
  256
 10
189.0861364376269
 20
112.8857864376269
 40
2
  0
CIRCLE
  5
3A5
  8
0
  6
BYLAYER
 62
  256
 10
208.1361364376269
 20
112.8857864376269
 40
2
  0
CIRCLE
  5
3A6
  8
0
  6
BYLAYER
 62
  256
 10
227.1861364376269
 20
112.8857864376269
 40
2
  0
CIRCLE
  5
3A7
  8
0
  6
BYLAYER
 62
  256
 10
246.2361364376269
 20
112.8857864376269
 40
2
  0
CIRCLE
  5
3A8
  8
0
  6
BYLAYER
 62
  256
 10
265.2861364376269
 20
112.8857864376269
 40
2
  0
CIRCLE
  5
3A9
  8
0
  6
BYLAYER
 62
  256
 10
17.63578643762689
 20
93.83578643762689
 40
2
  0
CIRCLE
  5
3AA
  8
0
  6
BYLAYER
 62
  256
 10
36.68583643762689
 20
93.83578643762689
 40
2
  0
CIRCLE
  5
3AB
  8
0
  6
BYLAYER
 62
  256
 10
55.7358364376269
 20
93.83578643762689
 40
2
  0
CIRCLE
  5
3AC
  8
0
  6
BYLAYER
 62
  256
 10
74.7858364376269
 20
93.83578643762689
 40
2
  0
CIRCLE
  5
3AD
  8
0
  6
BYLAYER
 62
  256
 10
93.8358364376269
 20
93.83578643762689
 40
2
  0
CIRCLE
  5
3AE
  8
0
  6
BYLAYER
 62
  256
 10
112.8844364376269
 20
93.83578643762689
 40
2
  0
CIRCLE
  5
3AF
  8
0
  6
BYLAYER
 62
  256
 10
131.9341364376269
 20
93.83578643762689
 40
2
  0
CIRCLE
  5
3B0
  8
0
  6
BYLAYER
 62
  256
 10
150.9861364376269
 20
93.83578643762689
 40
2
  0
CIRCLE
  5
3B1
  8
0
  6
BYLAYER
 62
  256
 10
170.0361364376269
 20
93.83578643762689
 40
2
  0
CIRCLE
  5
3B2
  8
0
  6
BYLAYER
 62
  256
 10
189.0861364376269
 20
93.83578643762689
 40
2
  0
CIRCLE
  5
3B3
  8
0
  6
BYLAYER
 62
  256
 10
208.1361364376269
 20
93.83578643762689
 40
2
  0
CIRCLE
  5
3B4
  8
0
  6
BYLAYER
 62
  256
 10
227.1861364376269
 20
93.83578643762689
 40
2
  0
CIRCLE
  5
3B5
  8
0
  6
BYLAYER
 62
  256
 10
246.2361364376269
 20
93.83578643762689
 40
2
  0
CIRCLE
  5
3B6
  8
0
  6
BYLAYER
 62
  256
 10
265.2861364376269
 20
93.83578643762689
 40
2
  0
CIRCLE
  5
3B7
  8
0
  6
BYLAYER
 62
  256
 10
17.63578643762689
 20
74.7857864376269
 40
2
  0
CIRCLE
  5
3B8
  8
0
  6
BYLAYER
 62
  256
 10
36.68583643762689
 20
74.7857864376269
 40
2
  0
CIRCLE
  5
3B9
  8
0
  6
BYLAYER
 62
  256
 10
55.7358364376269
 20
74.7857864376269
 40
2
  0
CIRCLE
  5
3BA
  8
0
  6
BYLAYER
 62
  256
 10
74.7858364376269
 20
74.7857864376269
 40
2
  0
CIRCLE
  5
3BB
  8
0
  6
BYLAYER
 62
  256
 10
93.8358364376269
 20
74.7857864376269
 40
2
  0
CIRCLE
  5
3BC
  8
0
  6
BYLAYER
 62
  256
 10
112.8844364376269
 20
74.7857864376269
 40
2
  0
CIRCLE
  5
3BD
  8
0
  6
BYLAYER
 62
  256
 10
131.9341364376269
 20
74.7857864376269
 40
2
  0
CIRCLE
  5
3BE
  8
0
  6
BYLAYER
 62
  256
 10
150.9861364376269
 20
74.7857864376269
 40
2
  0
CIRCLE
  5
3BF
  8
0
  6
BYLAYER
 62
  256
 10
170.0361364376269
 20
74.7857864376269
 40
2
  0
CIRCLE
  5
3C0
  8
0
  6
BYLAYER
 62
  256
 10
189.0861364376269
 20
74.7857864376269
 40
2
  0
CIRCLE
  5
3C1
  8
0
  6
BYLAYER
 62
  256
 10
208.1361364376269
 20
74.7857864376269
 40
2
  0
CIRCLE
  5
3C2
  8
0
  6
BYLAYER
 62
  256
 10
227.1861364376269
 20
74.7857864376269
 40
2
  0
CIRCLE
  5
3C3
  8
0
  6
BYLAYER
 62
  256
 10
246.2361364376269
 20
74.7857864376269
 40
2
  0
CIRCLE
  5
3C4
  8
0
  6
BYLAYER
 62
  256
 10
265.2861364376269
 20
74.7857864376269
 40
2
  0
CIRCLE
  5
3C5
  8
0
  6
BYLAYER
 62
  256
 10
17.63578643762689
 20
55.73578643762689
 40
2
  0
CIRCLE
  5
3C6
  8
0
  6
BYLAYER
 62
  256
 10
36.68583643762689
 20
55.73578643762689
 40
2
  0
CIRCLE
  5
3C7
  8
0
  6
BYLAYER
 62
  256
 10
55.7358364376269
 20
55.73578643762689
 40
2
  0
CIRCLE
  5
3C8
  8
0
  6
BYLAYER
 62
  256
 10
74.7858364376269
 20
55.73578643762689
 40
2
  0
CIRCLE
  5
3C9
  8
0
  6
BYLAYER
 62
  256
 10
93.8358364376269
 20
55.73578643762689
 40
2
  0
CIRCLE
  5
3CA
  8
0
  6
BYLAYER
 62
  256
 10
112.8844364376269
 20
55.73578643762689
 40
2
  0
CIRCLE
  5
3CB
  8
0
  6
BYLAYER
 62
  256
 10
131.9341364376269
 20
55.73578643762689
 40
2
  0
CIRCLE
  5
3CC
  8
0
  6
BYLAYER
 62
  256
 10
150.9861364376269
 20
55.73578643762689
 40
2
  0
CIRCLE
  5
3CD
  8
0
  6
BYLAYER
 62
  256
 10
170.0361364376269
 20
55.73578643762689
 40
2
  0
CIRCLE
  5
3CE
  8
0
  6
BYLAYER
 62
  256
 10
189.0861364376269
 20
55.73578643762689
 40
2
  0
CIRCLE
  5
3CF
  8
0
  6
BYLAYER
 62
  256
 10
208.1361364376269
 20
55.73578643762689
 40
2
  0
CIRCLE
  5
3D0
  8
0
  6
BYLAYER
 62
  256
 10
227.1861364376269
 20
55.73578643762689
 40
2
  0
CIRCLE
  5
3D1
  8
0
  6
BYLAYER
 62
  256
 10
17.63578643762689
 20
36.6855864376269
 40
2
  0
CIRCLE
  5
3D2
  8
0
  6
BYLAYER
 62
  256
 10
36.68583643762689
 20
36.6855864376269
 40
2
  0
CIRCLE
  5
3D3
  8
0
  6
BYLAYER
 62
  256
 10
55.7358364376269
 20
36.6855864376269
 40
2
  0
CIRCLE
  5
3D4
  8
0
  6
BYLAYER
 62
  256
 10
255.7611364376269
 20
55.73578643762689
 40
2
  0
CIRCLE
  5
3D5
  8
0
  6
BYLAYER
 62
  256
 10
74.7858364376269
 20
36.6855864376269
 40
2
  0
CIRCLE
  5
3D6
  8
0
  6
BYLAYER
 62
  256
 10
93.8358364376269
 20
36.6855864376269
 40
2
  0
CIRCLE
  5
3D7
  8
0
  6
BYLAYER
 62
  256
 10
112.8844364376269
 20
36.6855864376269
 40
2
  0
CIRCLE
  5
3D8
  8
0
  6
BYLAYER
 62
  256
 10
131.9341364376269
 20
36.6855864376269
 40
2
  0
CIRCLE
  5
3D9
  8
0
  6
BYLAYER
 62
  256
 10
150.9861364376269
 20
36.6855864376269
 40
2
  0
CIRCLE
  5
3DA
  8
0
  6
BYLAYER
 62
  256
 10
170.0361364376269
 20
36.6855864376269
 40
2
  0
CIRCLE
  5
3DB
  8
0
  6
BYLAYER
 62
  256
 10
189.0861364376269
 20
36.6855864376269
 40
2
  0
CIRCLE
  5
3DC
  8
0
  6
BYLAYER
 62
  256
 10
208.1361364376269
 20
36.6855864376269
 40
2
  0
CIRCLE
  5
3DD
  8
0
  6
BYLAYER
 62
  256
 10
227.1861364376268
 20
36.6855864376269
 40
2
  0
CIRCLE
  5
3DE
  8
0
  6
BYLAYER
 62
  256
 10
246.2361364376269
 20
36.6855864376269
 40
2
  0
CIRCLE
  5
3DF
  8
0
  6
BYLAYER
 62
  256
 10
265.2861364376269
 20
36.6855864376269
 40
2
  0
CIRCLE
  5
3E0
  8
0
  6
BYLAYER
 62
  256
 10
17.63578643762689
 20
17.63562643762688
 40
2
  0
CIRCLE
  5
3E1
  8
0
  6
BYLAYER
 62
  256
 10
36.68583643762689
 20
17.63562643762688
 40
2
  0
CIRCLE
  5
3E2
  8
0
  6
BYLAYER
 62
  256
 10
55.7358364376269
 20
17.63562643762688
 40
2
  0
CIRCLE
  5
3E3
  8
0
  6
BYLAYER
 62
  256
 10
189.0861364376269
 20
17.63562643762688
 40
2
  0
CIRCLE
  5
3E4
  8
0
  6
BYLAYER
 62
  256
 10
208.1361364376269
 20
17.63562643762688
 40
2
  0
CIRCLE
  5
3E5
  8
0
  6
BYLAYER
 62
  256
 10
227.1861364376269
 20
17.63562643762688
 40
2
  0
CIRCLE
  5
3E6
  8
0
  6
BYLAYER
 62
  256
 10
246.2361364376269
 20
17.63562643762688
 40
2
  0
CIRCLE
  5
3E7
  8
0
  6
BYLAYER
 62
  256
 10
265.2861364376269
 20
17.63562643762688
 40
2
  0
LINE
  5
3E8
  8
0
  6
BYLAYER
 62
  256
 10
32.16081143762689
 20
123.8857864376269
 11
22.16081143762689
 21
123.8857864376269
  0
LINE
  5
3E9
  8
0
  6
BYLAYER
 62
  256
 10
22.16081143762689
 20
123.8857864376269
 11
22.16081143762689
 21
121.8857864376269
  0
LINE
  5
3EA
  8
0
  6
BYLAYER
 62
  256
 10
32.16081143762689
 20
123.8857864376269
 11
32.16081143762689
 21
121.8857864376269
  0
ARC
  5
3EB
  8
0
  6
BYLAYER
 62
  256
 10
10.63578643762689
 20
119.8857864376269
 40
2
 50
90
 51
180
  0
ARC
  5
3EC
  8
0
  6
BYLAYER
 62
  256
 10
272.2861364376269
 20
119.8857864376269
 40
2
 50
0
 51
90.00000000000163
  0
LINE
  5
3ED
  8
0
  6
BYLAYER
 62
  256
 10
274.2861364376269
 20
119.8857864376269
 11
274.2861364376269
 21
10.63562643762689
  0
ARC
  5
3EE
  8
0
  6
BYLAYER
 62
  256
 10
272.2861364376269
 20
10.63562643762688
 40
2
 50
270
 51
2.035554996136651e-013
  0
LINE
  5
3EF
  8
0
  6
BYLAYER
 62
  256
 10
272.2861364376269
 20
8.635626437626884
 11
10.63578643762697
 21
8.635626437626884
  0
LINE
  5
3F0
  8
0
  6
BYLAYER
 62
  256
 10
8.635786437626894
 20
10.63562643762688
 11
8.635786437626894
 21
119.8857864376269
  0
ARC
  5
3F1
  8
0
  6
BYLAYER
 62
  256
 10
10.63578643762689
 20
10.63562643762688
 40
2
 50
180
 51
270.0000000000022
  0
LINE
  5
3F2
  8
0
  6
BYLAYER
 62
  256
 10
10.63578643762689
 20
121.8857864376269
 11
22.16081143762689
 21
121.8857864376269
  0
LINE
  5
3F3
  8
0
  6
BYLAYER
 62
  256
 10
32.16081143762689
 20
121.8857864376269
 11
272.2861364376269
 21
121.8857864376269
  0
CIRCLE
  5
3F4
  8
0
  6
BYLAYER
 62
  256
 10
131.9341364376269
 20
17.63562643762688
 40
2
  0
ENDSEC
  0
EOF
